<svg width="268" height="509" viewBox="0 0 268 509" fill="none" xmlns="http://www.w3.org/2000/svg">
<path d="M296.754 83.3089L295.455 84.9803C295.555 84.7932 295.646 84.6077 295.745 84.4201C296.183 83.8005 296.623 83.1801 297.071 82.5578C296.963 82.8083 296.861 83.0582 296.754 83.3089ZM289.892 93.8707C289.538 94.3022 289.176 94.7372 288.826 95.1671L288.929 94.9912L290.139 93.3649L289.892 93.8707ZM294.832 87.8571C294.044 88.8066 293.288 89.7445 292.503 90.6925C292.75 90.2021 293.016 89.7075 293.266 89.2158C293.974 88.2883 294.715 87.3495 295.442 86.4158C295.241 86.8957 295.03 87.3779 294.832 87.8571ZM282.455 104.624C282.15 104.984 281.869 105.336 281.566 105.695L281.572 105.686C281.894 105.273 282.229 104.855 282.555 104.441L282.455 104.624ZM287.56 98.6774C286.828 99.5263 286.086 100.38 285.363 101.226C285.578 100.84 285.785 100.456 286.002 100.07C286.768 99.1086 287.494 98.1619 288.272 97.1965C288.038 97.6895 287.791 98.1849 287.56 98.6774ZM293.04 92.3547C291.987 93.5493 290.975 94.7288 289.941 95.9171C290.237 95.3041 290.535 94.691 290.836 94.0767C291.804 92.8901 292.791 91.697 293.769 90.5074C293.523 91.1238 293.282 91.7391 293.04 92.3547ZM379.161 569.563L378.889 569.148C378.858 568.831 378.823 568.516 378.79 568.2L379.002 568.585C379.057 568.911 379.107 569.237 379.161 569.563ZM274.311 115.871L273.989 116.244C274.126 116.075 274.254 115.908 274.39 115.739L274.311 115.871ZM279.818 109.558C279.114 110.346 278.432 111.125 277.746 111.907C277.931 111.6 278.108 111.295 278.294 110.988C278.978 110.157 279.68 109.321 280.366 108.49C280.177 108.847 280.003 109.201 279.818 109.558ZM285.451 103.292C284.425 104.433 283.392 105.576 282.375 106.714C282.71 106.087 283.061 105.456 283.4 104.828C284.346 103.708 285.32 102.578 286.294 101.446C286.012 102.062 285.729 102.678 285.451 103.292ZM291.309 96.8672C290.043 98.2318 288.796 99.589 287.567 100.939C287.885 100.252 288.185 99.5679 288.507 98.8791C289.717 97.4825 290.904 96.0932 292.116 94.6948C291.838 95.4203 291.58 96.143 291.309 96.8672ZM379.742 573.175C379.558 572.934 379.367 572.694 379.181 572.452L379.06 571.058C379.212 571.293 379.368 571.526 379.518 571.761C379.593 572.233 379.669 572.704 379.742 573.175ZM381.344 575.305L380.99 574.831L380.852 573.882L381.113 574.296C381.19 574.633 381.27 574.968 381.344 575.305ZM382.805 577.277L382.758 577.211L382.694 576.912L382.805 577.277ZM271.475 120.815C270.815 121.553 270.143 122.295 269.476 123.035L270.183 121.937C270.794 121.219 271.441 120.486 272.068 119.761C271.868 120.113 271.674 120.463 271.475 120.815ZM277.317 114.432C276.308 115.51 275.292 116.591 274.32 117.653C274.621 117.133 274.949 116.604 275.254 116.082C276.253 114.933 277.236 113.791 278.235 112.641C277.933 113.237 277.616 113.837 277.317 114.432ZM283.419 107.891L279.655 111.925C280.026 111.205 280.387 110.487 280.763 109.765C281.915 108.465 283.112 107.149 284.297 105.836C283.994 106.524 283.716 107.205 283.419 107.891ZM289.668 101.335C288.205 102.843 286.736 104.355 285.333 105.84C285.674 105.063 286.045 104.28 286.396 103.501C287.792 101.961 289.15 100.436 290.566 98.8884C290.268 99.7034 289.957 100.521 289.668 101.335ZM380.249 576.687C379.982 576.384 379.72 576.081 379.449 575.779C379.407 575.212 379.368 574.644 379.323 574.078C379.553 574.381 379.776 574.686 380.005 574.99C380.085 575.555 380.171 576.12 380.249 576.687ZM382.067 578.755C381.863 578.517 381.653 578.282 381.447 578.045C381.385 577.584 381.321 577.124 381.255 576.663L381.779 577.378C381.875 577.837 381.973 578.295 382.067 578.755ZM383.798 580.791L383.399 580.322C383.336 580.003 383.275 579.684 383.21 579.366C383.311 579.508 383.415 579.649 383.516 579.792C383.608 580.125 383.705 580.457 383.798 580.791ZM385.391 582.704L385.306 582.6L385.208 582.222L385.226 582.249L385.391 582.704ZM262.653 132.257C262.039 132.918 261.411 133.584 260.809 134.239C260.953 134.025 261.106 133.808 261.253 133.594C261.918 132.83 262.565 132.073 263.234 131.307L262.653 132.257ZM268.675 125.791C267.694 126.839 266.734 127.879 265.756 128.926C266.074 128.411 266.372 127.902 266.694 127.386C267.635 126.327 268.613 125.252 269.576 124.184C269.281 124.718 268.966 125.258 268.675 125.791ZM274.991 119.179C273.751 120.459 272.502 121.743 271.305 123.005C271.671 122.346 272.046 121.685 272.42 121.024C273.624 119.697 274.79 118.385 276.017 117.049C275.667 117.761 275.334 118.469 274.991 119.179ZM281.466 112.461C279.988 113.983 278.548 115.49 277.085 117.007C277.473 116.22 277.865 115.432 278.262 114.642C279.639 113.153 281.048 111.65 282.453 110.15C282.129 110.919 281.783 111.693 281.466 112.461ZM288.18 105.689C286.54 107.327 284.883 108.972 283.306 110.584C283.654 109.757 284.01 108.928 284.367 108.099C285.904 106.468 287.454 104.832 289.031 103.184C288.742 104.02 288.461 104.854 288.18 105.689ZM380.702 580.129C380.365 579.8 380.024 579.472 379.686 579.144C379.644 578.49 379.596 577.837 379.549 577.184C379.853 577.529 380.159 577.873 380.46 578.219C380.542 578.855 380.621 579.493 380.702 580.129ZM382.734 582.156C382.441 581.861 382.149 581.567 381.855 581.273C381.786 580.71 381.712 580.149 381.64 579.586C381.903 579.891 382.16 580.197 382.42 580.502C382.527 581.053 382.63 581.605 382.734 582.156ZM384.687 584.142C384.452 583.899 384.223 583.655 383.985 583.412C383.902 582.956 383.811 582.501 383.725 582.045C383.931 582.292 384.13 582.541 384.335 582.789L384.687 584.142ZM386.539 586.069C386.39 585.911 386.235 585.755 386.086 585.598C386.005 585.271 385.916 584.946 385.832 584.62L386.203 585.077C386.314 585.407 386.429 585.737 386.539 586.069ZM388.265 587.926L388.128 587.778C388.084 587.639 388.042 587.499 387.996 587.36L388.056 587.436C388.124 587.6 388.197 587.762 388.265 587.926ZM253.452 143.774C252.83 144.43 252.264 145.063 251.653 145.715C251.75 145.577 251.838 145.443 251.936 145.305C252.556 144.607 253.199 143.901 253.824 143.201C253.702 143.391 253.572 143.584 253.452 143.774ZM259.617 137.344C258.687 138.313 257.746 139.286 256.831 140.248C257.147 139.765 257.455 139.283 257.775 138.799C258.694 137.786 259.588 136.785 260.527 135.764C260.213 136.294 259.928 136.815 259.617 137.344ZM266.156 130.54C264.866 131.863 263.645 133.156 262.375 134.471C262.771 133.806 263.195 133.133 263.598 132.466C264.775 131.194 265.976 129.911 267.167 128.633C266.825 129.27 266.49 129.905 266.156 130.54ZM272.73 123.915C271.287 125.364 269.836 126.815 268.431 128.248C268.835 127.494 269.214 126.748 269.627 125.992C271.012 124.522 272.419 123.043 273.847 121.555C273.475 122.341 273.092 123.131 272.73 123.915ZM279.685 116.926C278.003 118.596 276.385 120.239 274.732 121.896C275.126 121.061 275.536 120.221 275.942 119.383C277.5 117.759 279.073 116.13 280.65 114.498C280.323 115.309 280.003 116.117 279.685 116.926ZM286.759 110.016C284.951 111.775 283.132 113.538 281.375 115.275C281.725 114.405 282.056 113.539 282.415 112.667C284.095 110.946 285.837 109.198 287.58 107.45C287.298 108.307 287.032 109.161 286.759 110.016ZM381.113 583.559C380.699 583.204 380.29 582.846 379.871 582.492C379.835 581.782 379.8 581.073 379.759 580.362C380.132 580.729 380.501 581.096 380.871 581.464C380.956 582.162 381.035 582.861 381.113 583.559ZM383.342 585.488C382.973 585.162 382.597 584.839 382.224 584.515C382.155 583.882 382.092 583.249 382.02 582.617C382.348 582.949 382.684 583.278 383.01 583.61C383.126 584.235 383.235 584.862 383.342 585.488ZM385.503 587.41C385.183 587.122 384.858 586.836 384.535 586.549C384.443 586.002 384.352 585.453 384.256 584.907C384.544 585.206 384.835 585.505 385.121 585.805C385.253 586.339 385.374 586.875 385.503 587.41ZM387.585 589.315C387.325 589.075 387.067 588.834 386.804 588.595L386.485 587.252C386.713 587.498 386.94 587.745 387.168 587.99C387.309 588.431 387.448 588.873 387.585 589.315ZM389.566 591.164C389.388 590.995 389.214 590.823 389.034 590.654C388.936 590.332 388.831 590.012 388.73 589.69C388.881 589.857 389.028 590.026 389.177 590.193C389.306 590.517 389.439 590.84 389.566 591.164ZM391.393 592.917L391.212 592.742C391.155 592.593 391.102 592.443 391.044 592.293L391.152 592.416L391.393 592.917ZM243.684 155.73C243.193 156.248 242.693 156.77 242.198 157.289C242.343 157.092 242.481 156.897 242.627 156.7C243.106 156.172 243.603 155.637 244.094 155.104C243.952 155.315 243.824 155.52 243.684 155.73ZM250.213 148.948C249.293 149.882 248.386 150.811 247.494 151.733C247.763 151.342 248.037 150.948 248.307 150.556C249.214 149.575 250.134 148.589 251.039 147.609C250.758 148.057 250.49 148.501 250.213 148.948ZM256.761 142.31C255.535 143.553 254.299 144.8 253.083 146.038C253.512 145.359 253.952 144.675 254.389 143.993C255.526 142.787 256.717 141.556 257.899 140.33C257.522 140.99 257.132 141.653 256.761 142.31ZM263.619 135.422C262.163 136.864 260.74 138.291 259.318 139.717C259.733 138.998 260.137 138.281 260.559 137.559L264.745 133.199C264.361 133.943 263.995 134.681 263.619 135.422ZM270.667 128.504C269.006 130.127 267.348 131.751 265.718 133.362C266.165 132.496 266.645 131.619 267.103 130.75C268.612 129.202 270.199 127.62 271.77 126.046C271.398 126.866 271.028 127.686 270.667 128.504ZM277.948 121.422C276.117 123.183 274.323 124.926 272.536 126.668C272.92 125.819 273.286 124.974 273.681 124.122C275.429 122.36 277.158 120.607 278.924 118.837C278.59 119.701 278.271 120.56 277.948 121.422ZM285.414 114.309C283.439 116.183 281.469 118.055 279.536 119.909C279.888 118.988 280.272 118.058 280.637 117.133C282.449 115.332 284.359 113.489 286.246 111.655C285.969 112.54 285.679 113.427 285.414 114.309ZM376.464 583.29C351.673 565.536 321.287 549.56 290.315 533.283C176.684 473.564 55.3036 409.724 175.456 238.466M381.481 586.958C381.004 586.6 380.516 586.245 380.034 585.889C380.002 585.124 379.969 584.36 379.931 583.596C380.368 583.971 380.805 584.346 381.239 584.722C381.322 585.467 381.407 586.211 381.481 586.958ZM383.907 588.809C383.462 588.467 383.015 588.125 382.565 587.785C382.499 587.084 382.426 586.386 382.351 585.687C382.757 586.044 383.156 586.403 383.559 586.762C383.677 587.443 383.798 588.125 383.907 588.809ZM386.263 590.645C385.858 590.326 385.459 590.004 385.051 589.686C384.953 589.064 384.854 588.442 384.751 587.822C385.117 588.151 385.476 588.483 385.838 588.814C385.982 589.424 386.125 590.034 386.263 590.645ZM388.544 592.462C388.195 592.18 387.843 591.898 387.491 591.616C387.374 591.084 387.266 590.55 387.144 590.019C387.456 590.308 387.772 590.594 388.079 590.883C388.239 591.408 388.389 591.936 388.544 592.462ZM390.748 594.271C390.465 594.036 390.175 593.802 389.89 593.567L389.507 592.252C389.759 592.494 390.014 592.735 390.263 592.978L390.748 594.271ZM392.856 596.053L392.26 595.544C392.144 595.224 392.021 594.906 391.901 594.587L392.409 595.093C392.557 595.413 392.711 595.732 392.856 596.053ZM394.768 597.7L394.544 597.502L394.352 597.062L394.517 597.234C394.603 597.389 394.683 597.545 394.768 597.7ZM233.747 167.581C233.313 168.025 232.869 168.474 232.441 168.915L232.529 168.801C233.036 168.252 233.53 167.709 234.038 167.159L233.747 167.581ZM240.332 160.85C239.397 161.807 238.464 162.764 237.521 163.723C237.842 163.272 238.19 162.809 238.514 162.357C239.379 161.438 240.281 160.503 241.166 159.576C240.887 160.001 240.607 160.427 240.332 160.85ZM246.99 154.175C245.841 155.307 244.679 156.444 243.57 157.559C243.926 157.02 244.26 156.49 244.622 155.951C245.832 154.687 247.004 153.44 248.226 152.171C247.822 152.836 247.387 153.512 246.99 154.175ZM254.067 147.177L249.747 151.449C250.211 150.689 250.685 149.926 251.157 149.163C252.482 147.804 253.857 146.422 255.219 145.045C254.824 145.76 254.456 146.464 254.067 147.177ZM261.243 140.199C259.594 141.781 257.945 143.362 256.348 144.92C256.788 144.128 257.249 143.328 257.699 142.532C259.313 140.902 260.87 139.298 262.508 137.658C262.086 138.506 261.656 139.355 261.243 140.199ZM268.68 133.07C266.864 134.807 265.058 136.538 263.258 138.268C263.694 137.39 264.121 136.515 264.568 135.634C266.256 133.957 268.006 132.252 269.745 130.553C269.378 131.395 269.037 132.23 268.68 133.07ZM276.313 125.864C274.324 127.721 272.348 129.572 270.417 131.404C270.803 130.512 271.217 129.612 271.614 128.717C273.515 126.858 275.38 125.016 277.315 123.143C276.98 124.05 276.635 124.959 276.313 125.864ZM284.201 118.516C282.079 120.485 279.975 122.445 277.882 124.402C278.216 123.48 278.555 122.556 278.902 121.631C280.877 119.726 282.926 117.789 284.965 115.857C284.701 116.745 284.453 117.63 284.201 118.516ZM381.788 590.355C381.243 589.997 380.702 589.638 380.153 589.282C380.129 588.477 380.099 587.674 380.068 586.87C380.573 587.249 381.078 587.628 381.578 588.008C381.649 588.79 381.72 589.573 381.788 590.355ZM384.397 592.093C383.885 591.748 383.374 591.402 382.858 591.058C382.796 590.316 382.727 589.575 382.659 588.833C383.131 589.194 383.607 589.553 384.073 589.915C384.182 590.641 384.293 591.367 384.397 592.093ZM386.952 593.832C386.48 593.505 385.999 593.182 385.523 592.858C385.427 592.178 385.322 591.5 385.219 590.822C385.654 591.166 386.093 591.509 386.523 591.854C386.668 592.513 386.816 593.171 386.952 593.832ZM389.441 595.583C389.011 595.277 388.577 594.974 388.143 594.669C388.02 594.06 387.888 593.452 387.756 592.845C388.153 593.166 388.544 593.49 388.938 593.813C389.108 594.402 389.278 594.992 389.441 595.583ZM391.847 597.32C391.466 597.041 391.09 596.762 390.705 596.484C390.564 595.963 390.429 595.438 390.283 594.917C390.632 595.21 390.972 595.505 391.319 595.799C391.5 596.305 391.669 596.813 391.847 597.32ZM394.168 599.035C393.855 598.8 393.545 598.565 393.231 598.332C393.085 597.904 392.933 597.478 392.786 597.051C393.061 597.289 393.34 597.526 393.613 597.764C393.798 598.188 393.986 598.61 394.168 599.035ZM396.375 600.713C396.158 600.546 395.938 600.381 395.72 600.214C395.589 599.904 395.458 599.594 395.323 599.284C395.512 599.453 395.703 599.619 395.888 599.787C396.052 600.095 396.214 600.404 396.375 600.713ZM398.402 602.305L398.136 602.095L397.908 601.642L398.108 601.83L398.402 602.305ZM223.558 179.438L223.47 179.527L223.572 179.42L223.558 179.438ZM230.009 172.997C229.178 173.828 228.332 174.665 227.509 175.492C227.766 175.145 228.002 174.805 228.259 174.457C229.18 173.492 230.049 172.552 230.987 171.579C230.668 172.05 230.327 172.528 230.009 172.997ZM237.033 165.985C235.84 167.164 234.706 168.317 233.519 169.494C233.909 168.927 234.296 168.363 234.691 167.794C235.785 166.669 236.906 165.531 238.012 164.401C237.672 164.934 237.368 165.454 237.033 165.985ZM244.124 159.107C242.689 160.489 241.245 161.875 239.849 163.24C240.309 162.523 240.799 161.795 241.266 161.076C242.647 159.679 244.006 158.291 245.416 156.88C244.978 157.625 244.554 158.365 244.124 159.107ZM251.444 152.028C249.804 153.606 248.201 155.168 246.564 156.744C247.029 155.958 247.458 155.183 247.933 154.392C249.511 152.821 251.124 151.233 252.731 149.648C252.306 150.44 251.859 151.239 251.444 152.028ZM259.016 144.881C257.21 146.569 255.389 148.265 253.642 149.925C254.093 149.083 254.551 148.239 255.011 147.393C256.732 145.706 258.445 144.022 260.205 142.317C259.794 143.176 259.417 144.025 259.016 144.881ZM266.793 137.585C264.807 139.441 262.853 141.284 260.875 143.137C261.307 142.231 261.749 141.322 262.193 140.412C264.068 138.602 265.982 136.774 267.896 134.945C267.53 135.825 267.148 136.708 266.793 137.585ZM274.814 130.213C272.692 132.143 270.554 134.079 268.505 135.977C268.878 135.079 269.251 134.18 269.633 133.279C271.649 131.361 273.67 129.441 275.733 127.501C275.415 128.407 275.119 129.308 274.814 130.213ZM283.046 122.701C280.781 124.76 278.554 126.801 276.301 128.855C276.622 127.928 276.935 127.003 277.265 126.073C279.404 124.068 281.584 122.043 283.771 120.016C283.522 120.912 283.285 121.806 283.046 122.701ZM382.056 593.747C381.45 593.396 380.837 593.049 380.225 592.7C380.21 591.865 380.202 591.029 380.182 590.194C380.747 590.564 381.313 590.933 381.872 591.303C381.939 592.117 381.997 592.932 382.056 593.747ZM384.847 595.376C384.272 595.035 383.686 594.698 383.106 594.36C383.05 593.578 383.002 592.797 382.942 592.017C383.482 592.379 384.015 592.744 384.55 593.109C384.655 593.863 384.75 594.62 384.847 595.376ZM387.584 597.025C387.038 596.693 386.493 596.361 385.942 596.031C385.85 595.308 385.759 594.586 385.662 593.864C386.172 594.215 386.672 594.57 387.177 594.923C387.316 595.622 387.451 596.323 387.584 597.025ZM390.266 598.679C389.756 598.36 389.25 598.038 388.735 597.72C388.611 597.063 388.481 596.407 388.353 595.751C388.82 596.083 389.289 596.413 389.751 596.746C389.925 597.39 390.101 598.033 390.266 598.679ZM392.87 600.322C392.412 600.028 391.947 599.735 391.485 599.443C391.335 598.852 391.179 598.263 391.022 597.674C391.445 597.984 391.874 598.291 392.294 598.603C392.489 599.175 392.681 599.748 392.87 600.322ZM395.391 601.966C394.989 601.699 394.577 601.436 394.173 601.171C394.009 600.665 393.852 600.156 393.685 599.65C394.055 599.929 394.422 600.209 394.789 600.489C394.993 600.98 395.192 601.474 395.391 601.966ZM397.84 603.614C397.502 603.383 397.166 603.153 396.824 602.924C396.655 602.501 396.479 602.08 396.308 601.658C396.613 601.897 396.913 602.139 397.216 602.379C397.424 602.79 397.637 603.2 397.84 603.614ZM400.135 605.194C399.891 605.024 399.653 604.85 399.408 604.68C399.265 604.38 399.129 604.078 398.982 603.778C399.199 603.953 399.406 604.13 399.621 604.305C399.797 604.6 399.962 604.898 400.135 605.194ZM402.262 606.702L401.962 606.49C401.873 606.333 401.781 606.177 401.691 606.021C401.766 606.084 401.843 606.146 401.919 606.21L402.262 606.702ZM212.685 191.902L211.516 193.083L211.587 192.992C211.992 192.568 212.424 192.13 212.836 191.702L212.685 191.902ZM219.533 185.059C218.786 185.786 218.027 186.52 217.305 187.236L217.816 186.56C218.602 185.748 219.395 184.933 220.172 184.126C219.951 184.44 219.752 184.745 219.533 185.059ZM226.596 178.157C225.447 179.282 224.285 180.412 223.139 181.535C223.582 180.914 224.046 180.285 224.494 179.661C225.536 178.605 226.631 177.524 227.711 176.449C227.332 177.022 226.971 177.587 226.596 178.157ZM233.883 171.081C232.427 172.475 231.024 173.845 229.595 175.227C230.041 174.56 230.492 173.891 230.944 173.222C232.347 171.821 233.758 170.416 235.16 169.015C234.734 169.704 234.302 170.395 233.883 171.081ZM241.256 164.098C239.657 165.609 238.05 167.123 236.48 168.621C236.979 167.816 237.462 167.018 237.971 166.209C239.488 164.717 241.055 163.202 242.625 161.686C242.167 162.49 241.704 163.296 241.256 164.098ZM249.04 156.741C247.179 158.48 245.402 160.182 243.564 161.91C244.052 161.054 244.568 160.187 245.067 159.326C246.799 157.648 248.537 155.968 250.282 154.284C249.857 155.106 249.453 155.921 249.04 156.741ZM256.851 149.553C254.89 151.349 252.924 153.149 251.016 154.922C251.474 154.031 251.915 153.146 252.385 152.251C254.257 150.464 256.179 148.653 258.109 146.839C257.694 147.742 257.253 148.653 256.851 149.553ZM265.06 141.998C262.898 143.971 260.824 145.903 258.683 147.867C259.103 146.946 259.536 146.02 259.968 145.095C261.995 143.188 264.027 141.279 266.08 139.361C265.728 140.243 265.4 141.119 265.06 141.998ZM273.37 134.547C271.111 136.561 268.84 138.582 266.653 140.563C267.014 139.642 267.368 138.723 267.744 137.799C269.886 135.81 272.077 133.798 274.282 131.78C273.974 132.703 273.665 133.626 273.37 134.547ZM281.964 126.851C279.556 128.998 277.209 131.116 274.808 133.258C275.116 132.316 275.451 131.368 275.769 130.423C278.058 128.329 280.353 126.232 282.676 124.123C282.438 125.032 282.19 125.943 281.964 126.851ZM382.289 597.149C381.618 596.81 380.944 596.473 380.268 596.137C380.263 595.267 380.253 594.399 380.239 593.531C380.869 593.892 381.492 594.257 382.118 594.621C382.178 595.464 382.238 596.306 382.289 597.149ZM385.256 598.676C384.611 598.341 383.971 598.004 383.32 597.671C383.275 596.858 383.222 596.046 383.167 595.234C383.768 595.588 384.371 595.942 384.965 596.297C385.066 597.089 385.164 597.882 385.256 598.676ZM388.166 600.209C387.554 599.882 386.942 599.556 386.324 599.231C386.24 598.473 386.154 597.716 386.061 596.959C386.632 597.305 387.208 597.647 387.772 597.995C387.909 598.731 388.037 599.469 388.166 600.209ZM391.022 601.748C390.448 601.433 389.863 601.122 389.284 600.81C389.165 600.111 389.05 599.41 388.925 598.713C389.463 599.047 389.999 599.382 390.531 599.719C390.698 600.394 390.86 601.071 391.022 601.748ZM393.831 603.318C393.292 603.013 392.746 602.71 392.202 602.407C392.052 601.764 391.892 601.122 391.736 600.479C392.241 600.803 392.734 601.13 393.233 601.456C393.435 602.076 393.639 602.695 393.831 603.318ZM396.539 604.874C396.049 604.588 395.563 604.301 395.066 604.017C394.894 603.445 394.716 602.873 394.534 602.303C394.993 602.607 395.448 602.912 395.902 603.217C396.12 603.768 396.328 604.322 396.539 604.874ZM399.177 606.429C398.742 606.169 398.31 605.908 397.872 605.649C397.687 605.157 397.503 604.666 397.314 604.176C397.706 604.443 398.103 604.707 398.49 604.976C398.719 605.46 398.952 605.944 399.177 606.429ZM401.716 607.969C401.365 607.752 401.004 607.539 400.652 607.323C400.466 606.914 400.272 606.508 400.08 606.101C400.406 606.332 400.736 606.563 401.06 606.795C401.281 607.185 401.499 607.577 401.716 607.969ZM404.126 609.49L403.346 608.996C403.188 608.702 403.028 608.406 402.867 608.112L403.555 608.621L404.126 609.49ZM406.372 610.943L406.013 610.704L405.731 610.261L406.023 610.488L406.372 610.943ZM208.805 197.222C208.047 197.958 207.296 198.69 206.557 199.417L207.146 198.663C207.886 197.909 208.656 197.141 209.408 196.381C209.203 196.663 209.009 196.941 208.805 197.222ZM215.921 190.329C214.753 191.463 213.571 192.604 212.402 193.738C212.789 193.212 213.214 192.67 213.605 192.142C214.779 190.965 215.909 189.807 217.087 188.626C216.697 189.194 216.307 189.763 215.921 190.329ZM223.198 183.362C221.843 184.641 220.487 185.921 219.17 187.181C219.614 186.541 220.031 185.912 220.481 185.27C221.806 183.96 223.182 182.628 224.544 181.302C224.102 181.985 223.631 182.681 223.198 183.362ZM230.855 176.127C229.241 177.649 227.637 179.167 226.031 180.685C226.528 179.917 227.033 179.147 227.539 178.375C229.099 176.858 230.62 175.358 232.185 173.838C231.723 174.608 231.307 175.361 230.855 176.127ZM238.642 168.895C236.821 170.569 234.988 172.249 233.222 173.897C233.736 173.04 234.296 172.164 234.822 171.302C236.508 169.685 238.263 168.037 240.004 166.395C239.545 167.23 239.092 168.064 238.642 168.895ZM246.643 161.51C244.657 163.328 242.744 165.112 240.786 166.917C241.263 166.047 241.716 165.185 242.205 164.311C244.136 162.487 246.034 160.677 247.973 158.849C247.532 159.735 247.074 160.628 246.643 161.51ZM254.904 154.053C252.773 155.97 250.637 157.889 248.558 159.78C249.021 158.843 249.511 157.897 249.986 156.956C251.957 155.118 254.017 153.239 256.058 151.37C255.664 152.268 255.288 153.159 254.904 154.053ZM263.351 146.47C261.075 148.497 258.848 150.502 256.616 152.509C257.014 151.594 257.391 150.686 257.802 149.766C260.007 147.739 262.185 145.724 264.405 143.691C264.054 144.617 263.69 145.547 263.351 146.47ZM272.059 138.776C269.652 140.895 267.255 143.009 264.896 145.104C265.257 144.143 265.642 143.174 266.016 142.209C268.256 140.175 270.592 138.096 272.912 136.025C272.623 136.943 272.335 137.861 272.059 138.776ZM280.981 130.974C278.452 133.17 275.939 135.36 273.471 137.528C273.757 136.604 274.035 135.681 274.331 134.754C276.769 132.573 279.174 130.408 281.629 128.219C281.403 129.139 281.195 130.056 280.981 130.974ZM382.459 600.555C381.728 600.231 381 599.906 380.262 599.584C380.269 598.695 380.268 597.807 380.267 596.919C380.956 597.263 381.647 597.607 382.328 597.954C382.374 598.82 382.419 599.687 382.459 600.555ZM385.609 601.969C384.906 601.648 384.197 601.33 383.487 601.013C383.452 600.171 383.406 599.33 383.362 598.49C384.025 598.832 384.687 599.175 385.346 599.52C385.437 600.335 385.528 601.151 385.609 601.969ZM388.702 603.394C388.031 603.079 387.349 602.77 386.67 602.458C386.594 601.664 386.504 600.872 386.415 600.079C387.056 600.418 387.686 600.761 388.32 601.103C388.45 601.865 388.581 602.628 388.702 603.394ZM391.73 604.839C391.087 604.529 390.442 604.219 389.792 603.912C389.678 603.175 389.56 602.439 389.437 601.704C390.048 602.036 390.651 602.372 391.254 602.707C391.419 603.416 391.573 604.127 391.73 604.839ZM394.708 606.297C394.094 605.992 393.487 605.685 392.867 605.382C392.72 604.709 392.58 604.035 392.428 603.363C392.996 603.682 393.566 603.999 394.127 604.32C394.324 604.979 394.518 605.637 394.708 606.297ZM397.616 607.76C397.051 607.47 396.481 607.183 395.911 606.896C395.735 606.275 395.549 605.658 395.365 605.04C395.895 605.347 396.428 605.652 396.951 605.961C397.176 606.559 397.401 607.158 397.616 607.76ZM400.433 609.22C399.921 608.95 399.398 608.684 398.881 608.416C398.686 607.864 398.494 607.312 398.292 606.762C398.778 607.053 399.258 607.344 399.737 607.637C399.974 608.163 400.202 608.692 400.433 609.22ZM403.202 610.712C402.74 610.46 402.277 610.209 401.811 609.959C401.603 609.476 401.387 608.995 401.176 608.513C401.605 608.78 402.023 609.051 402.448 609.32C402.701 609.783 402.957 610.246 403.202 610.712ZM405.822 612.164C405.438 611.948 405.063 611.73 404.676 611.515C404.477 611.128 404.286 610.739 404.083 610.354C404.432 610.58 404.777 610.807 405.125 611.033C405.362 611.409 405.589 611.788 405.822 612.164ZM408.34 613.597C408.063 613.435 407.779 613.276 407.499 613.115C407.325 612.828 407.144 612.543 406.97 612.256C407.215 612.421 407.467 612.582 407.711 612.748C407.919 613.031 408.135 613.312 408.34 613.597ZM410.637 614.961L410.249 614.731L409.95 614.301L410.276 614.527C410.397 614.671 410.516 614.817 410.637 614.961ZM197.719 209.59C196.974 210.306 196.212 211.03 195.485 211.737C195.722 211.441 195.975 211.137 196.212 210.84C196.934 210.113 197.691 209.369 198.431 208.633L197.719 209.59ZM204.892 202.691L201.602 205.854C201.968 205.37 202.307 204.897 202.677 204.411C203.816 203.279 204.942 202.154 206.087 201.02C205.695 201.575 205.279 202.139 204.892 202.691ZM212.336 195.637C211.007 196.881 209.665 198.13 208.373 199.358C208.843 198.701 209.309 198.046 209.785 197.385C211.051 196.149 212.358 194.891 213.653 193.641C213.204 194.31 212.775 194.971 212.336 195.637ZM220.119 188.327C218.475 189.862 216.88 191.372 215.25 192.899C215.784 192.105 216.352 191.298 216.895 190.5C218.444 189.008 219.958 187.531 221.534 186.027C221.052 186.798 220.594 187.56 220.119 188.327ZM227.951 181.124C226.163 182.76 224.368 184.401 222.62 186.019C223.139 185.192 223.636 184.372 224.165 183.541C225.904 181.889 227.674 180.223 229.442 178.558C228.946 179.413 228.435 180.273 227.951 181.124ZM236.094 173.68C234.117 175.472 232.19 177.24 230.246 179.017C230.767 178.117 231.283 177.22 231.816 176.316C233.674 174.575 235.558 172.823 237.462 171.06C236.997 171.937 236.548 172.808 236.094 173.68ZM244.448 166.174C242.306 168.093 240.171 170.008 238.066 171.91C238.558 170.975 239.097 170.024 239.604 169.085C241.642 167.201 243.685 165.314 245.745 163.42C245.304 164.341 244.876 165.258 244.448 166.174ZM252.985 158.58C250.724 160.577 248.482 162.564 246.272 164.536C246.72 163.591 247.143 162.654 247.604 161.705C249.739 159.756 251.955 157.77 254.157 155.79C253.764 156.721 253.366 157.654 252.985 158.58ZM261.809 150.813C259.392 152.932 257.01 155.034 254.623 157.139C255.022 156.179 255.454 155.211 255.868 154.247C258.181 152.163 260.457 150.097 262.809 147.995C262.468 148.936 262.136 149.875 261.809 150.813ZM270.82 143C268.297 145.172 265.767 147.348 263.314 149.487C263.65 148.546 263.97 147.609 264.317 146.664C266.708 144.536 269.159 142.379 271.611 140.221C271.335 141.15 271.085 142.073 270.82 143ZM280.062 135.032C277.395 137.316 274.806 139.564 272.172 141.833C272.447 140.882 272.735 139.928 273.022 138.974C275.553 136.75 278.097 134.52 280.677 132.272C280.466 133.193 280.261 134.113 280.062 135.032ZM382.584 603.968C381.798 603.663 381.004 603.362 380.21 603.061C380.227 602.149 380.251 601.237 380.262 600.327C381.011 600.656 381.754 600.988 382.497 601.32C382.532 602.201 382.557 603.085 382.584 603.968ZM385.904 605.272C385.142 604.969 384.373 604.668 383.603 604.368C383.577 603.504 383.558 602.639 383.524 601.776C384.252 602.104 384.969 602.436 385.689 602.766C385.767 603.6 385.834 604.436 385.904 605.272ZM389.176 606.599C388.436 606.295 387.697 605.99 386.95 605.689C386.883 604.876 386.812 604.063 386.739 603.249C387.437 603.573 388.134 603.897 388.825 604.223C388.945 605.014 389.065 605.805 389.176 606.599ZM392.385 607.934C391.678 607.635 390.971 607.335 390.255 607.039C390.15 606.272 390.032 605.508 389.915 604.745C390.584 605.063 391.256 605.38 391.917 605.701C392.077 606.444 392.236 607.188 392.385 607.934ZM395.527 609.277C394.856 608.984 394.173 608.695 393.494 608.405C393.353 607.691 393.209 606.978 393.058 606.266C393.702 606.582 394.342 606.901 394.978 607.221C395.169 607.904 395.346 608.591 395.527 609.277ZM398.62 610.646C397.983 610.359 397.334 610.075 396.689 609.791C396.517 609.131 396.343 608.471 396.163 607.813C396.769 608.12 397.359 608.433 397.958 608.743C398.181 609.377 398.408 610.009 398.62 610.646ZM401.624 612.023C401.03 611.747 400.438 611.471 399.84 611.198C399.641 610.596 399.431 609.997 399.222 609.398C399.788 609.695 400.345 609.995 400.904 610.294C401.151 610.868 401.386 611.446 401.624 612.023ZM404.567 613.412C404.017 613.147 403.472 612.882 402.915 612.62C402.701 612.09 402.49 611.56 402.27 611.033C402.773 611.306 403.281 611.578 403.778 611.853C404.041 612.373 404.31 612.89 404.567 613.412ZM407.399 614.787C406.928 614.552 406.445 614.322 405.969 614.089C405.744 613.624 405.508 613.162 405.274 612.7C405.725 612.954 406.177 613.207 406.622 613.463C406.887 613.903 407.142 614.345 407.399 614.787ZM410.145 616.177C409.743 615.97 409.335 615.767 408.93 615.562C408.713 615.184 408.496 614.805 408.277 614.428C408.648 614.646 409.016 614.865 409.385 615.085C409.637 615.449 409.895 615.812 410.145 616.177ZM412.738 617.536C412.444 617.379 412.15 617.222 411.854 617.066C411.669 616.789 411.485 616.512 411.298 616.236C411.575 616.406 411.846 616.579 412.122 616.75C412.333 617.01 412.531 617.275 412.738 617.536ZM415.13 618.821C414.982 618.74 414.841 618.657 414.691 618.576C414.582 618.433 414.467 618.291 414.357 618.148C414.483 618.23 414.605 618.313 414.732 618.395C414.864 618.537 414.999 618.678 415.13 618.821ZM186.291 222.142C185.588 222.816 184.869 223.498 184.175 224.167C184.38 223.914 184.566 223.671 184.771 223.418C185.498 222.692 186.261 221.95 187.004 221.217C186.769 221.524 186.523 221.836 186.291 222.142ZM193.609 215.138C192.565 216.13 191.563 217.101 190.526 218.089C190.898 217.609 191.259 217.133 191.634 216.651C192.678 215.626 193.695 214.614 194.745 213.584C194.37 214.101 193.982 214.623 193.609 215.138ZM201.245 207.977C199.901 209.232 198.545 210.493 197.222 211.738C197.712 211.071 198.222 210.396 198.72 209.726C199.979 208.506 201.276 207.269 202.555 206.039C202.107 206.69 201.687 207.328 201.245 207.977ZM209.065 200.697C207.422 202.211 205.827 203.702 204.212 205.203C204.751 204.425 205.32 203.635 205.87 202.853C207.423 201.37 208.969 199.89 210.554 198.392C210.053 199.162 209.555 199.931 209.065 200.697ZM216.947 193.486C215.2 195.082 213.449 196.679 211.722 198.265C212.259 197.441 212.769 196.627 213.318 195.798C215.047 194.17 216.794 192.532 218.54 190.897C218.018 191.756 217.457 192.631 216.947 193.486ZM225.251 185.969C223.285 187.732 221.334 189.489 219.414 191.229C219.963 190.324 220.531 189.411 221.093 188.5C222.913 186.809 224.786 185.094 226.657 183.379C226.17 184.249 225.726 185.103 225.251 185.969ZM233.692 178.408C231.555 180.315 229.445 182.21 227.329 184.108C227.847 183.179 228.382 182.242 228.916 181.308C230.983 179.413 233.009 177.536 235.105 175.628C234.629 176.556 234.154 177.484 233.692 178.408ZM242.325 170.798C240.079 172.763 237.821 174.735 235.635 176.672C236.111 175.736 236.575 174.804 237.063 173.862C239.202 171.926 241.397 169.964 243.587 168.003C243.16 168.937 242.74 169.868 242.325 170.798ZM251.237 162.988C248.798 165.109 246.429 167.197 244.03 169.301C244.469 168.329 244.955 167.342 245.41 166.365C247.709 164.31 250.007 162.256 252.351 160.179C251.974 161.117 251.602 162.054 251.237 162.988ZM260.329 155.152C257.806 157.319 255.292 159.481 252.822 161.623C253.199 160.671 253.562 159.724 253.954 158.768C256.371 156.632 258.809 154.487 261.27 152.33C260.945 153.274 260.64 154.212 260.329 155.152ZM269.642 147.189C266.985 149.446 264.362 151.688 261.759 153.919C262.086 152.951 262.435 151.977 262.775 151.006C265.29 148.808 267.858 146.586 270.439 144.358C270.175 145.301 269.893 146.249 269.642 147.189ZM279.212 139.088C276.44 141.423 273.712 143.738 270.985 146.051C271.245 145.1 271.518 144.146 271.79 143.192C274.461 140.886 277.093 138.599 279.801 136.276C279.601 137.214 279.4 138.152 279.212 139.088ZM382.671 607.402C381.825 607.117 380.977 606.834 380.124 606.553C380.153 605.621 380.176 604.691 380.196 603.762C381.002 604.071 381.807 604.381 382.606 604.693C382.633 605.595 382.656 606.498 382.671 607.402ZM386.157 608.596C385.332 608.311 384.513 608.021 383.681 607.739C383.667 606.856 383.648 605.974 383.624 605.093C384.407 605.401 385.194 605.707 385.968 606.018C386.036 606.876 386.099 607.736 386.157 608.596ZM389.591 609.805C388.794 609.52 387.995 609.235 387.189 608.954C387.133 608.117 387.078 607.28 387.014 606.445C387.775 606.753 388.536 607.061 389.288 607.372C389.396 608.181 389.491 608.994 389.591 609.805ZM392.978 611.029C392.21 610.746 391.428 610.467 390.651 610.187C390.556 609.395 390.459 608.604 390.357 607.814C391.091 608.12 391.814 608.43 392.54 608.74C392.69 609.502 392.839 610.264 392.978 611.029ZM396.295 612.276C395.559 611.996 394.817 611.718 394.074 611.441C393.941 610.695 393.793 609.952 393.648 609.21C394.356 609.515 395.055 609.824 395.754 610.132C395.94 610.845 396.118 611.56 396.295 612.276ZM399.55 613.539C398.84 613.26 398.137 612.98 397.419 612.703C397.255 612.016 397.091 611.329 396.916 610.645C397.585 610.943 398.254 611.241 398.915 611.541C399.131 612.206 399.342 612.872 399.55 613.539ZM402.742 614.817C402.073 614.545 401.406 614.272 400.73 614.003C400.534 613.367 400.33 612.734 400.125 612.1C400.754 612.389 401.387 612.677 402.009 612.969C402.258 613.584 402.505 614.199 402.742 614.817ZM405.848 616.095C405.231 615.836 404.601 615.581 403.977 615.323C403.757 614.745 403.538 614.167 403.31 613.59C403.901 613.873 404.487 614.156 405.072 614.441C405.336 614.991 405.591 615.543 405.848 616.095ZM408.893 617.406C408.325 617.159 407.751 616.914 407.177 616.668C406.94 616.147 406.691 615.629 406.447 615.11C406.989 615.379 407.518 615.653 408.054 615.923C408.337 616.417 408.618 616.91 408.893 617.406ZM411.826 618.714C411.317 618.484 410.815 618.253 410.301 618.025C410.062 617.583 409.83 617.138 409.585 616.698C410.056 616.941 410.522 617.187 410.99 617.432C411.272 617.858 411.549 618.285 411.826 618.714ZM414.656 620.015C414.234 619.817 413.815 619.618 413.39 619.422C413.159 619.056 412.915 618.694 412.678 618.33C413.067 618.538 413.464 618.743 413.848 618.953C414.12 619.306 414.39 619.66 414.656 620.015ZM417.323 621.285C417.016 621.135 416.7 620.989 416.391 620.84C416.197 620.578 416.008 620.314 415.812 620.053C416.093 620.21 416.378 620.366 416.656 620.525C416.88 620.778 417.103 621.03 417.323 621.285ZM419.824 622.53L419.363 622.3C419.254 622.169 419.149 622.037 419.038 621.907L419.453 622.152C419.58 622.277 419.697 622.405 419.824 622.53ZM174.563 234.838C173.984 235.393 173.392 235.953 172.813 236.507C173.007 236.272 173.193 236.042 173.388 235.807C173.988 235.214 174.611 234.609 175.218 234.014C175.005 234.285 174.774 234.566 174.563 234.838ZM182.222 227.567C181.194 228.53 180.19 229.479 179.182 230.432C179.55 229.97 179.923 229.503 180.293 229.039C181.306 228.051 182.27 227.088 183.298 226.093C182.928 226.59 182.587 227.073 182.222 227.567ZM189.888 220.42C188.516 221.702 187.13 222.989 185.759 224.269C186.259 223.605 186.807 222.92 187.314 222.253C188.614 221.004 189.939 219.744 191.246 218.492C190.788 219.137 190.34 219.778 189.888 220.42ZM197.697 213.221C196.148 214.633 194.594 216.047 193.086 217.439C193.606 216.712 194.086 216.003 194.613 215.272C196.14 213.827 197.701 212.365 199.268 210.9C198.749 211.671 198.206 212.454 197.697 213.221ZM205.806 205.822C204.035 207.431 202.299 209.023 200.542 210.625C201.101 209.796 201.66 208.966 202.23 208.132C203.937 206.536 205.625 204.951 207.349 203.348C206.826 204.176 206.318 204.999 205.806 205.822ZM214.133 198.355C212.168 200.107 210.195 201.862 208.277 203.591C208.846 202.688 209.462 201.766 210.044 200.858C211.876 199.169 213.761 197.455 215.638 195.745C215.123 196.62 214.634 197.485 214.133 198.355ZM222.637 190.779C220.512 192.658 218.441 194.511 216.351 196.373C216.883 195.464 217.376 194.571 217.921 193.657C219.986 191.779 222.041 189.904 224.144 188.006C223.645 188.93 223.124 189.861 222.637 190.779ZM231.394 183.101C229.139 185.073 226.889 187.042 224.673 188.994C225.181 188.048 225.697 187.099 226.221 186.147C228.365 184.218 230.534 182.278 232.714 180.333C232.257 181.262 231.837 182.178 231.394 183.101ZM240.36 175.313C237.947 177.394 235.553 179.467 233.195 181.522C233.668 180.55 234.172 179.567 234.661 178.59C236.937 176.568 239.261 174.523 241.596 172.473C241.178 173.421 240.763 174.369 240.36 175.313ZM249.552 167.399C247.023 169.567 244.532 171.717 242.036 173.87C242.453 172.908 242.86 171.95 243.292 170.983C245.733 168.841 248.14 166.713 250.615 164.554C250.249 165.506 249.904 166.451 249.552 167.399ZM258.943 159.432C256.298 161.663 253.638 163.901 251.064 166.098C251.429 165.128 251.825 164.15 252.205 163.177C254.715 160.997 257.294 158.785 259.869 156.574C259.559 157.527 259.239 158.482 258.943 159.432ZM268.601 151.283C265.82 153.616 263.105 155.917 260.365 158.229C260.671 157.268 260.981 156.306 261.3 155.341C263.956 153.062 266.605 150.785 269.31 148.482C269.065 149.418 268.835 150.35 268.601 151.283ZM278.448 143.092C275.57 145.477 272.707 147.854 269.894 150.208C270.135 149.265 270.359 148.326 270.61 147.381C273.366 145.039 276.149 142.684 278.96 140.315C278.778 141.243 278.62 142.166 278.448 143.092ZM382.706 610.851C381.801 610.587 380.899 610.323 379.987 610.062C380.029 609.116 380.065 608.172 380.097 607.228C380.962 607.514 381.826 607.799 382.679 608.088C382.692 609.008 382.704 609.928 382.706 610.851ZM386.366 611.932C385.487 611.668 384.601 611.406 383.714 611.145C383.713 610.24 383.701 609.337 383.687 608.435C384.53 608.723 385.366 609.014 386.202 609.305C386.261 610.18 386.321 611.054 386.366 611.932ZM389.96 613.024C389.111 612.76 388.245 612.503 387.387 612.242C387.345 611.38 387.29 610.522 387.235 609.662C388.059 609.952 388.868 610.248 389.683 610.541C389.782 611.367 389.873 612.196 389.96 613.024ZM393.506 614.148C392.676 613.882 391.842 613.617 391.004 613.354C390.922 612.543 390.838 611.732 390.743 610.923C391.538 611.212 392.329 611.503 393.117 611.796C393.252 612.578 393.379 613.363 393.506 614.148ZM397.007 615.292C396.198 615.024 395.396 614.753 394.578 614.488C394.456 613.725 394.328 612.964 394.201 612.203C394.961 612.489 395.729 612.773 396.481 613.063C396.661 613.805 396.842 614.546 397.007 615.292ZM400.42 616.441C399.653 616.178 398.881 615.916 398.105 615.656C397.947 614.937 397.78 614.22 397.61 613.505C398.349 613.792 399.084 614.08 399.814 614.37C400.023 615.058 400.22 615.75 400.42 616.441ZM403.785 617.61C403.053 617.349 402.304 617.095 401.563 616.838C401.372 616.171 401.186 615.502 400.988 614.837C401.689 615.12 402.377 615.406 403.069 615.691C403.31 616.33 403.555 616.968 403.785 617.61ZM407.066 618.805C406.377 618.551 405.682 618.298 404.984 618.046C404.764 617.428 404.533 616.813 404.303 616.198C404.97 616.477 405.631 616.761 406.293 617.043C406.558 617.628 406.81 618.217 407.066 618.805ZM410.294 620.02C409.637 619.769 408.986 619.514 408.321 619.265C408.085 618.712 407.85 618.158 407.606 617.608C408.214 617.872 408.825 618.136 409.427 618.403C409.718 618.941 410.013 619.478 410.294 620.02ZM413.403 621.23C412.813 620.995 412.222 620.762 411.626 620.53C411.373 620.033 411.112 619.539 410.848 619.045C411.412 619.299 411.982 619.552 412.54 619.809C412.835 620.28 413.113 620.756 413.403 621.23ZM416.447 622.457C415.922 622.24 415.382 622.029 414.852 621.814C414.596 621.385 414.333 620.957 414.072 620.529C414.566 620.762 415.058 620.996 415.547 621.231C415.848 621.64 416.155 622.045 416.447 622.457ZM419.343 623.685C418.905 623.497 418.464 623.309 418.021 623.123C417.778 622.773 417.543 622.423 417.295 622.076C417.711 622.28 418.118 622.488 418.53 622.694C418.805 623.023 419.074 623.354 419.343 623.685ZM422.132 624.905C421.798 624.756 421.471 624.605 421.134 624.457C420.926 624.196 420.708 623.939 420.495 623.68C420.811 623.842 421.115 624.009 421.427 624.172C421.662 624.416 421.9 624.659 422.132 624.905ZM424.622 626.025C424.467 625.953 424.306 625.884 424.149 625.812L423.798 625.427C423.934 625.502 424.077 625.574 424.213 625.648L424.622 626.025ZM162.938 247.304L161.171 248.985L161.68 248.382C162.258 247.816 162.849 247.243 163.427 246.677C163.259 246.888 163.105 247.093 162.938 247.304ZM170.531 240.171C169.506 241.123 168.468 242.083 167.464 243.026C167.852 242.545 168.268 242.051 168.66 241.569C169.635 240.626 170.629 239.675 171.628 238.721C171.256 239.207 170.898 239.688 170.531 240.171ZM178.277 232.962C176.919 234.216 175.616 235.443 174.272 236.689C174.727 236.099 175.14 235.528 175.6 234.935C176.958 233.642 178.304 232.353 179.671 231.054C179.208 231.689 178.733 232.33 178.277 232.962ZM186.089 225.834C184.591 227.198 183.081 228.566 181.605 229.918C182.151 229.174 182.682 228.437 183.236 227.689C184.695 226.319 186.2 224.926 187.69 223.539C187.163 224.301 186.606 225.076 186.089 225.834ZM194.392 218.307C192.607 219.911 190.858 221.496 189.107 223.083C189.685 222.25 190.292 221.404 190.882 220.566C192.562 219.007 194.222 217.459 195.932 215.886C195.402 216.7 194.914 217.497 194.392 218.307ZM202.769 210.826C200.805 212.576 198.844 214.325 196.904 216.064C197.484 215.176 198.082 214.279 198.676 213.385C200.555 211.663 202.462 209.929 204.367 208.195C203.829 209.074 203.295 209.952 202.769 210.826ZM211.288 203.304C209.217 205.118 207.147 206.931 205.129 208.719C205.685 207.807 206.219 206.904 206.789 205.986C208.79 204.176 210.839 202.343 212.893 200.507C212.367 201.436 211.801 202.38 211.288 203.304ZM220.214 195.484C217.928 197.475 215.701 199.437 213.445 201.414C213.985 200.458 214.554 199.49 215.108 198.528C217.277 196.591 219.413 194.67 221.611 192.719C221.127 193.647 220.684 194.56 220.214 195.484ZM229.211 187.733C226.824 189.781 224.43 191.832 222.101 193.851C222.597 192.89 223.091 191.93 223.603 190.964C225.883 188.949 228.226 186.904 230.564 184.863C230.112 185.82 229.648 186.782 229.211 187.733ZM238.495 179.781C235.962 181.938 233.474 184.071 230.987 186.204C231.441 185.233 231.895 184.261 232.364 183.285C234.773 181.181 237.189 179.074 239.648 176.946C239.249 177.896 238.881 178.836 238.495 179.781ZM247.962 171.775C245.31 174.009 242.677 176.236 240.073 178.447C240.477 177.47 240.904 176.486 241.324 175.504C243.865 173.31 246.426 171.106 249.01 168.89C248.659 169.852 248.299 170.816 247.962 171.775ZM257.68 163.636C254.918 165.938 252.163 168.235 249.463 170.506C249.81 169.535 250.16 168.564 250.522 167.589C253.141 165.352 255.822 163.083 258.507 160.813C258.217 161.758 257.959 162.695 257.68 163.636ZM267.599 155.385C264.711 157.775 261.887 160.134 259.041 162.504C259.329 161.545 259.612 160.587 259.914 159.624C262.7 157.268 265.449 154.929 268.281 152.551C268.049 153.497 267.82 154.442 267.599 155.385ZM277.73 147.078C274.746 149.514 271.753 151.955 268.85 154.351C269.078 153.396 269.335 152.434 269.574 151.476C272.411 149.101 275.319 146.69 278.229 144.278C278.061 145.212 277.889 146.146 277.73 147.078ZM382.681 614.31C381.726 614.071 380.762 613.835 379.798 613.599C379.853 612.638 379.913 611.676 379.962 610.716C380.885 610.981 381.797 611.25 382.712 611.518C382.709 612.447 382.692 613.379 382.681 614.31ZM386.506 615.28C385.573 615.039 384.628 614.802 383.685 614.564C383.696 613.646 383.711 612.727 383.714 611.81C384.614 612.076 385.505 612.345 386.395 612.615C386.435 613.502 386.475 614.39 386.506 615.28ZM390.281 616.276C389.367 616.031 388.449 615.787 387.525 615.546C387.495 614.67 387.456 613.797 387.415 612.925C388.29 613.191 389.165 613.459 390.03 613.729C390.119 614.577 390.206 615.425 390.281 616.276ZM393.983 617.284C393.095 617.038 392.21 616.792 391.313 616.549C391.241 615.717 391.159 614.888 391.076 614.06C391.928 614.328 392.783 614.596 393.625 614.868C393.752 615.672 393.867 616.478 393.983 617.284ZM397.641 618.313C396.779 618.065 395.91 617.821 395.037 617.577C394.927 616.791 394.82 616.003 394.699 615.22C395.525 615.49 396.346 615.762 397.164 616.036C397.327 616.794 397.488 617.552 397.641 618.313ZM401.228 619.357C400.402 619.111 399.563 618.871 398.727 618.629C398.579 617.883 398.42 617.142 398.26 616.399C399.063 616.67 399.85 616.948 400.643 617.222C400.844 617.932 401.04 618.643 401.228 619.357ZM404.753 620.432C403.953 620.185 403.15 619.938 402.341 619.694C402.161 619.001 401.98 618.309 401.788 617.619C402.553 617.888 403.316 618.158 404.074 618.431C404.306 619.096 404.53 619.764 404.753 620.432ZM408.214 621.524C407.448 621.278 406.689 621.03 405.913 620.786C405.702 620.144 405.481 619.504 405.26 618.863C405.986 619.127 406.718 619.389 407.435 619.656C407.7 620.277 407.961 620.9 408.214 621.524ZM411.594 622.628C410.874 622.387 410.147 622.149 409.42 621.912C409.183 621.32 408.947 620.729 408.699 620.14C409.387 620.401 410.071 620.66 410.749 620.924C411.034 621.491 411.317 622.058 411.594 622.628ZM414.893 623.747C414.23 623.516 413.552 623.292 412.881 623.064C412.621 622.521 412.348 621.981 412.077 621.442C412.724 621.697 413.36 621.957 414.001 622.216C414.304 622.724 414.599 623.235 414.893 623.747ZM418.116 624.897C417.498 624.673 416.877 624.45 416.251 624.229C415.983 623.752 415.723 623.272 415.446 622.798C416.031 623.039 416.603 623.285 417.18 623.528C417.493 623.984 417.809 624.438 418.116 624.897ZM421.223 626.046C420.677 625.84 420.138 625.63 419.585 625.426C419.316 625.014 419.034 624.605 418.754 624.196C419.278 624.421 419.802 624.647 420.321 624.874C420.63 625.262 420.922 625.656 421.223 626.046ZM424.23 627.197C423.768 627.016 423.301 626.836 422.834 626.657C422.581 626.323 422.326 625.992 422.071 625.66C422.495 625.851 422.926 626.039 423.346 626.231C423.639 626.554 423.942 626.873 424.23 627.197ZM427.039 628.326C426.706 628.189 426.367 628.056 426.031 627.921C425.826 627.684 425.631 627.444 425.422 627.209C425.733 627.356 426.044 627.503 426.351 627.65C426.584 627.874 426.809 628.101 427.039 628.326ZM429.708 629.444L429.176 629.218C429.055 629.095 428.928 628.976 428.805 628.854L429.291 629.098C429.427 629.214 429.571 629.328 429.708 629.444ZM151.105 259.839C150.442 260.459 149.819 261.06 149.165 261.676L149.504 261.281L151.526 259.312L151.105 259.839ZM158.597 252.871C157.575 253.824 156.536 254.784 155.515 255.736C155.875 255.298 156.218 254.868 156.582 254.428C157.598 253.453 158.651 252.461 159.685 251.477C159.323 251.941 158.954 252.409 158.597 252.871ZM166.316 245.746C165.082 246.87 163.854 247.992 162.649 249.101C163.104 248.523 163.538 247.955 163.998 247.374C165.278 246.162 166.526 244.967 167.828 243.745C167.336 244.407 166.802 245.087 166.316 245.746ZM174.439 238.349C172.911 239.738 171.389 241.124 169.869 242.51C170.425 241.769 170.994 241.021 171.56 240.276C172.991 238.94 174.445 237.593 175.883 236.254C175.382 236.962 174.933 237.646 174.439 238.349ZM182.713 230.92C180.935 232.503 179.143 234.092 177.412 235.652C178.013 234.808 178.673 233.938 179.285 233.09C180.934 231.571 182.632 230.029 184.327 228.487C183.779 229.303 183.25 230.109 182.713 230.92ZM191.163 223.384C189.208 225.114 187.317 226.812 185.39 228.529C185.967 227.673 186.498 226.836 187.087 225.974C189.013 224.221 190.904 222.486 192.856 220.721C192.295 221.607 191.711 222.503 191.163 223.384ZM199.809 215.808C197.73 217.625 195.649 219.443 193.609 221.24C194.193 220.317 194.779 219.393 195.376 218.464C197.351 216.689 199.374 214.89 201.392 213.094C200.854 214.003 200.334 214.905 199.809 215.808ZM208.751 208.031C206.467 210.003 204.211 211.962 201.975 213.91C202.543 212.947 203.167 211.96 203.749 210.99C205.897 209.083 208.056 207.17 210.249 205.24C209.736 206.176 209.249 207.101 208.751 208.031ZM217.817 200.229C215.442 202.267 213.085 204.297 210.739 206.32C211.257 205.367 211.736 204.43 212.268 203.471C214.591 201.432 216.927 199.386 219.282 197.331C218.798 198.294 218.286 199.27 217.817 200.229ZM227.183 192.269C224.669 194.393 222.144 196.522 219.694 198.614C220.18 197.635 220.684 196.649 221.185 195.664C223.549 193.611 225.986 191.522 228.413 189.437C227.983 190.388 227.599 191.322 227.183 192.269ZM236.727 184.206C234.062 186.443 231.468 188.646 228.848 190.861C229.285 189.883 229.728 188.901 230.181 187.916C232.743 185.715 235.281 183.525 237.887 181.301C237.5 182.27 237.099 183.242 236.727 184.206ZM246.501 176.07C243.744 178.358 240.986 180.645 238.291 182.903C238.677 181.927 239.066 180.949 239.466 179.967C242.084 177.74 244.76 175.484 247.438 173.228C247.108 174.18 246.817 175.121 246.501 176.07ZM256.458 167.835C253.586 170.198 250.742 172.547 247.929 174.881C248.257 173.91 248.59 172.938 248.933 171.963C251.689 169.643 254.479 167.306 257.294 164.956C257.018 165.915 256.721 166.88 256.458 167.835ZM266.686 159.452C263.698 161.892 260.74 164.316 257.805 166.731C258.077 165.765 258.37 164.793 258.656 163.825C261.526 161.431 264.405 159.033 267.323 156.617C267.107 157.563 266.89 158.509 266.686 159.452ZM277.103 151.008C274.024 153.492 270.936 155.982 267.933 158.428C268.145 157.478 268.353 156.528 268.575 155.575C271.508 153.152 274.533 150.683 277.547 148.219C277.395 149.149 277.246 150.079 277.103 151.008ZM267.663 159.638C270.701 157.159 273.814 154.644 276.923 152.13C264.049 238.165 295.396 316.835 326.706 395.414C345.719 443.131 364.715 490.815 373.778 540.092C362.499 497.734 343.129 456.84 323.642 415.707C285.63 335.469 247.201 254.32 267.663 159.638ZM257.437 168.016C260.394 165.582 263.397 163.125 266.413 160.661C246.452 254.968 284.781 335.864 322.678 415.859C343.224 459.23 363.636 502.337 374.562 547.169C361.637 508.228 340.813 470.871 319.783 433.157C274.912 352.694 229.128 270.605 257.437 168.016ZM175.456 238.466C177.297 236.802 179.154 235.128 181.038 233.441C75.3539 395.239 187.342 462.227 292.572 525.124C322.913 543.26 352.68 561.058 376.482 580.7M382.615 617.791C381.606 617.577 380.59 617.366 379.571 617.155C379.641 616.18 379.702 615.205 379.761 614.231C380.736 614.471 381.709 614.712 382.674 614.955C382.66 615.899 382.641 616.845 382.615 617.791ZM386.596 618.655C385.604 618.437 384.615 618.217 383.614 618.003C383.64 617.071 383.662 616.139 383.677 615.209C384.631 615.451 385.589 615.692 386.533 615.938C386.562 616.842 386.578 617.749 386.596 618.655ZM390.531 619.537C389.559 619.316 388.589 619.094 387.607 618.876C387.591 617.986 387.579 617.095 387.553 616.208C388.483 616.452 389.413 616.696 390.332 616.944C390.402 617.807 390.47 618.671 390.531 619.537ZM394.405 620.435C393.463 620.212 392.512 619.992 391.558 619.773C391.5 618.921 391.432 618.07 391.364 617.221C392.276 617.469 393.176 617.722 394.079 617.974C394.193 618.793 394.304 619.613 394.405 620.435ZM398.215 621.354C397.3 621.129 396.373 620.908 395.446 620.687C395.349 619.878 395.244 619.071 395.133 618.266C396.025 618.518 396.908 618.773 397.791 619.028C397.94 619.801 398.075 620.578 398.215 621.354ZM401.982 622.305C401.084 622.076 400.188 621.846 399.28 621.619C399.146 620.859 399.014 620.099 398.869 619.341C399.721 619.591 400.575 619.84 401.417 620.093C401.61 620.829 401.803 621.565 401.982 622.305ZM405.654 623.266C404.794 623.037 403.938 622.807 403.069 622.581C402.898 621.863 402.715 621.149 402.531 620.434C403.36 620.686 404.192 620.936 405.011 621.191C405.233 621.88 405.443 622.574 405.654 623.266ZM409.293 624.253C408.463 624.023 407.624 623.796 406.783 623.568C406.58 622.898 406.382 622.227 406.169 621.559C406.961 621.81 407.746 622.063 408.528 622.317C408.787 622.962 409.049 623.605 409.293 624.253ZM412.822 625.252C412.042 625.026 411.246 624.806 410.458 624.583C410.225 623.954 409.98 623.329 409.732 622.704C410.501 622.958 411.254 623.218 412.013 623.476C412.292 624.064 412.553 624.659 412.822 625.252ZM416.312 626.29C415.561 626.063 414.81 625.837 414.05 625.613C413.795 625.042 413.537 624.471 413.274 623.902C413.986 624.147 414.694 624.394 415.398 624.643C415.706 625.19 416.015 625.738 416.312 626.29ZM419.688 627.335C418.989 627.114 418.297 626.89 417.59 626.673C417.317 626.157 417.041 625.642 416.757 625.129C417.419 625.366 418.088 625.601 418.742 625.842C419.063 626.337 419.375 626.836 419.688 627.335ZM422.989 628.394C422.356 628.186 421.715 627.98 421.075 627.774C420.791 627.312 420.493 626.853 420.199 626.393C420.806 626.621 421.416 626.849 422.016 627.08C422.346 627.516 422.669 627.955 422.989 628.394ZM426.18 629.468C425.618 629.275 425.044 629.086 424.476 628.895C424.195 628.501 423.923 628.104 423.635 627.712C424.169 627.922 424.695 628.135 425.223 628.348C425.542 628.721 425.866 629.093 426.18 629.468ZM429.244 630.553C428.777 630.385 428.309 630.216 427.836 630.05C427.567 629.72 427.288 629.394 427.01 629.067C427.478 629.261 427.93 629.46 428.393 629.655C428.684 629.952 428.958 630.255 429.244 630.553ZM432.174 631.629C431.808 631.491 431.451 631.349 431.082 631.213C430.865 630.981 430.643 630.751 430.426 630.521C430.757 630.665 431.085 630.811 431.416 630.957C431.665 631.182 431.926 631.403 432.174 631.629ZM434.806 632.633C434.638 632.566 434.463 632.503 434.294 632.438C434.175 632.326 434.059 632.212 433.94 632.1C434.093 632.171 434.251 632.239 434.404 632.31L434.806 632.633ZM288.002 139.679C287.912 140.597 287.813 141.515 287.732 142.432C284.523 145.003 281.413 147.527 278.268 150.067C278.415 149.134 278.556 148.2 278.715 147.264C281.801 144.74 284.858 142.231 288.002 139.679ZM288.394 135.873C288.293 136.787 288.199 137.7 288.106 138.612C284.997 141.134 281.964 143.619 278.907 146.115C279.071 145.172 279.255 144.225 279.428 143.281C282.4 140.82 285.37 138.36 288.394 135.873ZM288.851 132.034C288.736 132.948 288.631 133.86 288.527 134.773C285.539 137.227 282.581 139.667 279.648 142.095C279.825 141.155 280.002 140.217 280.19 139.275C283.039 136.88 285.945 134.456 288.851 132.034ZM289.372 128.158C289.243 129.078 289.105 129.999 288.985 130.918C286.13 133.297 283.246 135.689 280.448 138.041C280.64 137.101 280.834 136.162 281.038 135.22C283.763 132.891 286.587 130.515 289.372 128.158ZM289.938 124.254C289.797 125.171 289.665 126.087 289.533 127.003C286.774 129.337 283.996 131.679 281.298 133.985C281.505 133.047 281.737 132.105 281.955 131.165C284.588 128.874 287.243 126.574 289.938 124.254ZM290.568 120.356C290.416 121.254 290.276 122.152 290.133 123.049C287.467 125.341 284.868 127.602 282.26 129.867C282.483 128.929 282.698 127.992 282.931 127.053C285.418 124.847 288.02 122.59 290.568 120.356ZM291.275 116.385C291.106 117.3 290.929 118.216 290.77 119.13C288.292 121.3 285.719 123.514 283.294 125.658C283.529 124.74 283.769 123.821 284.014 122.902C286.393 120.748 288.838 118.566 291.275 116.385ZM292.033 112.397C291.852 113.303 291.679 114.21 291.508 115.116C289.131 117.238 286.705 119.383 284.385 121.479C284.635 120.56 284.906 119.638 285.167 118.717C287.43 116.621 289.712 114.517 292.033 112.397ZM292.863 108.371C292.668 109.272 292.488 110.173 292.305 111.073C290.053 113.128 287.795 115.186 285.595 117.217C285.857 116.315 286.105 115.416 286.375 114.512C288.53 112.469 290.655 110.438 292.863 108.371ZM293.779 104.299C293.57 105.201 293.357 106.102 293.159 107.002C291.035 108.987 288.947 110.956 286.875 112.918C287.151 112.017 287.435 111.116 287.722 110.213C289.747 108.239 291.705 106.294 293.779 104.299ZM294.738 100.263C294.523 101.135 294.309 102.007 294.104 102.879C292.108 104.795 290.183 106.679 288.235 108.574C288.526 107.679 288.84 106.78 289.14 105.883C291.006 104.01 292.832 102.153 294.738 100.263ZM295.759 96.2147C295.539 97.0465 295.339 97.8774 295.129 98.7086C293.285 100.533 291.543 102.315 289.74 104.121C290.037 103.259 290.318 102.398 290.624 101.534C292.322 99.7663 294.022 97.998 295.759 96.2147ZM296.884 92.1071C296.656 92.924 296.428 93.7408 296.209 94.5573C294.549 96.256 292.961 97.9242 291.331 99.6113C291.638 98.7626 291.949 97.9138 292.267 97.0638C293.781 95.421 295.334 93.7639 296.884 92.1071ZM298.066 88.0009C297.831 88.7895 297.59 89.5789 297.364 90.367C295.893 91.9313 294.459 93.4813 293.015 95.0351C293.33 94.2081 293.673 93.3765 293.997 92.548C295.32 91.0441 296.709 89.5167 298.066 88.0009ZM299.296 83.9141C299.068 84.6443 298.857 85.3729 298.635 86.1021C297.375 87.5024 296.123 88.8996 294.887 90.2905C295.186 89.5447 295.48 88.7995 295.787 88.0524C296.932 86.6817 298.125 85.2936 299.296 83.9141ZM300.637 79.7802C300.415 80.4528 300.2 81.1258 299.983 81.7983C298.957 82.9984 297.915 84.2045 296.907 85.3979C297.175 84.7631 297.439 84.129 297.712 83.493C298.683 82.2568 299.646 81.0233 300.637 79.7802ZM301.993 75.7857C301.799 76.3427 301.599 76.9001 301.41 77.4569C300.65 78.4021 299.858 79.3577 299.111 80.2986C299.321 79.8209 299.541 79.342 299.756 78.8639C300.503 77.837 301.231 76.8166 301.993 75.7857ZM303.27 72.1404C303.161 72.4363 303.062 72.7322 302.956 73.0279C302.5 73.6371 302.024 74.2531 301.574 74.8597C301.679 74.6358 301.792 74.4109 301.897 74.1866L303.27 72.1404ZM374.819 613.042C374.715 614.07 374.608 615.098 374.493 616.128C341.322 609.553 303.555 604.716 265.06 599.791C190.159 590.209 112.524 580.276 60.9963 556.454C-14.5435 521.53 -34.0372 456.655 93.0659 319.124C-22.5859 451.049 2.37842 513.835 79.0116 548.995C128.36 571.636 199.096 582.795 267.503 593.586C305.338 599.555 342.454 605.414 374.819 613.042ZM375.183 609.373C375.09 610.388 374.983 611.405 374.88 612.422C342.536 604.829 305.51 598.983 267.765 593.03C199.46 582.254 128.826 571.111 79.6353 548.543C0.783264 512.365 -23.01 446.729 105.929 306.003C-11.6981 441.529 18.1743 505.166 98.5243 541.729C145.1 562.923 208.607 574.997 270.177 586.702C307.268 593.753 343.651 600.671 375.183 609.373ZM375.482 605.724C375.405 606.726 375.325 607.728 375.236 608.731C343.74 600.077 307.465 593.181 270.492 586.152C209.002 574.462 145.581 562.405 99.1433 541.274C16.4573 503.649 -12.4483 437.158 118.999 292.527C-1.34009 432.502 34.5023 497.089 119.218 535.297C162.479 554.808 218.452 567.421 272.874 579.684C309.196 587.869 344.815 595.901 375.482 605.724ZM375.748 602.09C375.682 603.081 375.613 604.072 375.536 605.065C344.914 595.301 309.422 587.299 273.238 579.146C218.88 566.896 162.973 554.298 119.833 534.842C33.1059 495.727 -2.16632 428.82 130.162 281.017L130.842 280.355C8.58441 424.733 51.9949 489.982 141.587 529.999C180.772 547.502 228.771 560.167 275.593 572.52C311.124 581.895 345.969 591.092 375.748 602.09ZM375.979 598.481C375.923 599.456 375.855 600.433 375.791 601.409C346.068 590.485 311.379 581.327 276.01 571.995C229.241 559.655 181.296 547.005 142.198 529.542C51.5788 489.065 8.45151 422.627 137.413 273.964C138.09 273.31 138.73 272.675 139.414 272.017C18.4724 419.394 71.7848 484.471 166.538 526.351C200.534 541.377 239.845 553.409 278.34 565.192C313.062 575.819 347.115 586.245 375.979 598.481ZM376.15 594.889C376.108 595.847 376.067 596.804 376.016 597.763C347.218 585.621 313.341 575.25 278.806 564.68C240.347 552.908 201.074 540.887 167.145 525.891C71.6477 483.683 18.3994 417.809 144.458 267.216C145.47 266.253 146.499 265.281 147.51 264.316C-4.77869 456.829 143.476 509.142 281.11 557.674C314.999 569.624 348.231 581.349 376.15 594.889ZM376.292 591.31C376.26 592.251 376.224 593.193 376.185 594.136C348.342 580.709 315.31 569.056 281.632 557.18C143.278 508.394 -5.80319 455.765 152.192 259.876C153.307 258.828 154.47 257.757 155.615 256.695C15.3433 441.423 154.472 497.63 283.918 549.943C316.95 563.292 349.349 576.389 376.292 591.31ZM376.396 587.761C376.373 588.678 376.345 589.596 376.316 590.514C349.458 575.731 317.287 562.725 284.489 549.47C154.471 496.926 14.7476 440.405 159.654 252.942C161.144 251.56 162.595 250.198 164.103 248.807C35.4134 425.951 165.41 485.973 286.76 541.968C318.921 556.809 350.461 571.369 376.396 587.761ZM376.452 584.218C376.443 585.111 376.436 586.004 376.418 586.899C350.576 570.677 319.281 556.234 287.383 541.516C165.611 485.326 35.0746 425.09 167.344 245.849C169.041 244.294 170.779 242.72 172.507 241.15C55.47 410.576 176.386 474.19 289.64 533.71C320.901 550.139 351.565 566.26 376.452 584.218ZM376.469 577.194C376.473 578.02 376.477 578.845 376.479 579.672C352.779 560.28 323.313 542.667 293.294 524.724C187.738 461.631 75.395 394.405 183.713 231.056C185.702 229.278 187.697 227.496 189.706 225.707C95.1043 379.931 198.28 450.055 295.557 516.156C324.952 536.129 353.8 555.738 376.469 577.194ZM376.418 573.704C376.435 574.493 376.455 575.281 376.463 576.071C353.893 554.91 325.375 535.524 296.321 515.782C198.749 449.482 95.2487 379.119 192.147 223.537C194.274 221.657 196.474 219.742 198.662 217.832C114.763 364.582 209.187 437.624 298.603 506.734C327.027 528.702 354.932 550.277 376.418 573.704ZM376.345 570.237C376.366 570.964 376.376 571.693 376.392 572.421C355.001 549.356 327.454 528.064 299.408 506.387C209.743 437.085 115.006 363.836 200.798 215.963C203.104 213.948 205.397 211.939 207.746 209.903C134.205 349.239 220.068 424.878 301.721 496.77C329.152 520.921 356.099 544.65 376.345 570.237ZM376.221 566.774C376.244 567.443 376.272 568.111 376.294 568.781C356.132 543.631 329.582 520.245 302.559 496.453C220.684 424.364 134.576 348.499 209.732 208.194C212.122 206.129 214.55 204.045 216.985 201.957C153.49 333.885 230.937 411.762 304.923 486.152C331.328 512.702 357.284 538.809 376.221 566.774ZM376.073 563.33C376.103 563.916 376.135 564.502 376.16 565.089C357.291 537.652 331.755 511.972 305.789 485.864C231.6 411.271 153.918 333.17 218.79 200.404C221.322 198.237 223.903 196.047 226.497 193.85C172.607 318.424 241.768 398.163 308.218 474.733C333.574 503.951 358.525 532.711 376.073 563.33ZM375.898 559.905C375.925 560.374 375.945 560.845 375.971 561.314C358.464 531.352 333.983 503.134 309.112 474.475C242.481 397.697 173.122 317.73 228.16 192.444C230.809 190.201 233.445 187.964 236.133 185.701C191.448 302.892 252.572 383.975 311.62 462.318C335.903 494.537 359.833 526.291 375.898 559.905ZM375.679 556.465L375.743 557.436C359.682 524.65 336.28 493.59 312.537 462.088C253.324 383.525 192.046 302.197 237.697 184.388C240.428 182.098 243.248 179.765 246.05 177.439C210.12 287.178 263.348 369.031 315.152 448.643C338.33 484.263 361.216 519.437 375.679 556.465ZM375.443 553.075L375.465 553.339C360.941 517.38 338.655 483.12 316.089 448.439C264.141 368.602 210.759 286.512 247.479 176.25C250.341 173.873 253.213 171.491 256.13 169.087C228.459 271.239 274.088 353.098 318.832 433.334C340.891 472.894 362.732 512.061 375.443 553.075ZM330.917 370.725C348.591 424.012 366.392 477.688 373.387 532.855C363.861 486.092 345.78 440.703 327.681 395.285C296.274 316.458 264.841 237.538 278.088 151.19C281.261 148.624 284.404 146.073 287.647 143.473C281.108 220.539 305.88 295.242 330.917 370.725ZM377.073 563.222L377.026 562.307L377.181 562.636C377.219 562.963 377.262 563.29 377.298 563.618L377.073 563.222ZM377.222 566.652C377.203 566.189 377.191 565.725 377.171 565.262C377.296 565.483 377.425 565.703 377.548 565.924L377.696 567.352L377.222 566.652ZM377.345 570.092C377.328 569.508 377.303 568.924 377.282 568.34C377.491 568.652 377.691 568.965 377.896 569.278C377.951 569.847 377.995 570.419 378.047 570.989C377.813 570.69 377.582 570.39 377.345 570.092ZM377.419 573.543L377.38 571.561L378.188 572.602C378.245 573.259 378.307 573.916 378.358 574.574C378.045 574.231 377.734 573.886 377.419 573.543ZM377.472 577.018C377.466 576.288 377.457 575.559 377.445 574.831C377.781 575.202 378.122 575.571 378.454 575.943C378.505 576.661 378.558 577.378 378.605 578.096C378.231 577.736 377.851 577.377 377.472 577.018ZM377.486 580.506C377.486 579.719 377.48 578.934 377.477 578.149C377.886 578.541 378.287 578.935 378.692 579.327C378.739 580.09 378.777 580.853 378.819 581.615C378.374 581.246 377.932 580.875 377.486 580.506ZM377.459 584.003C377.468 583.181 377.486 582.359 377.491 581.538C377.951 581.923 378.42 582.306 378.877 582.692C378.921 583.502 378.966 584.313 379 585.125C378.49 584.75 377.976 584.376 377.459 584.003ZM377.409 587.529C377.428 586.663 377.438 585.799 377.447 584.934C377.982 585.324 378.506 585.716 379.035 586.107C379.066 586.944 379.097 587.781 379.123 588.619C378.554 588.255 377.982 587.892 377.409 587.529ZM377.305 591.055C377.333 590.166 377.36 589.277 377.383 588.388C377.976 588.765 378.569 589.141 379.155 589.52C379.178 590.388 379.191 591.257 379.209 592.126C378.577 591.768 377.944 591.41 377.305 591.055ZM377.168 594.613C377.209 593.695 377.248 592.777 377.281 591.86C377.933 592.224 378.577 592.591 379.223 592.957C379.24 593.849 379.256 594.74 379.262 595.632C378.569 595.291 377.867 594.952 377.168 594.613ZM377 598.182C377.052 597.242 377.091 596.305 377.132 595.366C377.845 595.714 378.555 596.064 379.261 596.415C379.262 597.327 379.264 598.239 379.257 599.152C378.506 598.828 377.756 598.504 377 598.182ZM376.774 601.769C376.837 600.813 376.9 599.856 376.957 598.901C377.726 599.23 378.494 599.558 379.257 599.888C379.247 600.818 379.228 601.751 379.212 602.682C378.402 602.376 377.592 602.071 376.774 601.769ZM376.517 605.38C376.593 604.403 376.664 603.426 376.729 602.45C377.56 602.759 378.378 603.071 379.197 603.383C379.179 604.329 379.16 605.274 379.131 606.221C378.265 605.938 377.388 605.66 376.517 605.38ZM376.219 609.005C376.306 608.015 376.385 607.027 376.462 606.038C377.347 606.323 378.229 606.609 379.105 606.897C379.071 607.858 379.035 608.82 378.991 609.783C378.07 609.522 377.148 609.262 376.219 609.005ZM375.864 612.651C375.965 611.65 376.072 610.648 376.166 609.649C377.103 609.909 378.037 610.17 378.967 610.433C378.92 611.407 378.861 612.383 378.804 613.358C377.829 613.121 376.85 612.885 375.864 612.651ZM375.476 616.324C375.59 615.306 375.698 614.288 375.802 613.271C376.799 613.508 377.782 613.749 378.768 613.99C378.711 614.976 378.65 615.961 378.58 616.949C377.551 616.738 376.514 616.531 375.476 616.324ZM341.844 725.518C361.029 688.358 371.34 652.252 375.403 616.933C376.45 617.142 377.494 617.354 378.532 617.568C375.989 652.223 366.604 687.984 347.311 725.353L348.271 725.518C367.558 688.161 376.958 652.414 379.522 617.774C380.55 617.987 381.578 618.199 382.595 618.415C381.584 652.381 373.139 687.778 353.74 725.353L354.701 725.518C374.091 687.961 382.552 652.582 383.593 618.634C384.603 618.851 385.608 619.071 386.607 619.292C387.155 652.553 379.673 687.573 360.167 725.353L361.127 725.518C380.623 687.758 388.13 652.756 387.62 619.512C388.614 619.735 389.596 619.963 390.581 620.189C392.719 652.731 386.207 687.366 366.593 725.353L367.555 725.518C387.153 687.558 393.697 652.944 391.609 620.425C392.571 620.649 393.527 620.874 394.48 621.102C398.244 652.911 392.745 687.15 373.022 725.353L373.981 725.518C393.688 687.35 399.222 653.137 395.523 621.353C396.464 621.58 397.407 621.806 398.338 622.037C403.757 653.098 399.287 686.933 379.451 725.353L380.411 725.518C400.224 687.143 404.745 653.34 399.405 622.307C400.32 622.537 401.235 622.767 402.139 623.001C409.245 653.297 405.827 686.714 385.878 725.353L386.838 725.518C406.76 686.933 410.239 653.549 403.227 623.282C404.118 623.516 404.995 623.753 405.876 623.991C414.706 653.505 412.368 686.492 392.304 725.353L393.264 725.518C413.294 686.724 415.711 653.775 407.004 624.292C407.865 624.527 408.713 624.766 409.563 625.005C420.15 653.721 418.914 686.267 398.734 725.353L399.694 725.518C419.831 686.516 421.162 654.015 410.727 625.334C411.548 625.568 412.37 625.802 413.181 626.04C425.562 653.942 425.46 686.036 405.161 725.353L406.121 725.518C426.364 686.311 426.599 654.269 414.412 626.408C415.186 626.639 415.967 626.867 416.732 627.102C430.949 654.171 432.009 685.801 411.588 725.353L412.548 725.518C432.9 686.1 431.995 654.532 418.021 627.505C418.766 627.737 419.507 627.973 420.243 628.209C436.318 654.424 438.554 685.573 418.016 725.353L418.975 725.518C439.432 685.897 437.388 654.816 421.606 628.643C422.298 628.869 422.973 629.103 423.656 629.332C441.643 654.677 445.108 685.332 424.444 725.353L425.404 725.518C445.961 685.703 442.75 655.13 425.142 629.831C425.775 630.049 426.402 630.269 427.027 630.49C446.956 654.945 451.659 685.092 430.871 725.353L431.832 725.518C452.483 685.519 448.09 655.472 428.644 631.067C429.194 631.266 429.753 631.461 430.299 631.662C452.227 655.21 458.215 684.838 437.298 725.353L438.258 725.518C458.992 685.36 453.434 655.856 432.153 632.368C432.607 632.54 433.065 632.711 433.513 632.886C457.469 655.503 464.773 684.591 443.727 725.353L444.688 725.518C465.49 685.228 458.761 656.293 435.664 633.74C436.01 633.879 436.355 634.02 436.699 634.16C462.698 655.823 471.322 684.357 450.155 725.353L451.115 725.518C471.96 685.143 464.083 656.809 439.221 635.211C439.396 635.286 439.569 635.363 439.742 635.438C467.872 656.13 477.884 684.093 456.582 725.353L457.542 725.518C478.229 685.449 469.578 657.86 443.534 637.289C473.218 656.948 484.253 684.205 463.01 725.353L463.969 725.518C484.22 686.294 475.356 659.624 449.019 640.123C479.01 658.704 490.247 685.048 469.438 725.353L470.398 725.518C490.197 687.168 481.191 661.394 454.701 642.905C484.854 660.47 496.224 685.921 475.865 725.353L476.825 725.518C499.287 682.014 483.459 655.42 446.44 637.667C444.665 636.649 442.818 635.662 440.93 634.69C439.208 633.632 437.444 632.59 435.611 631.576C433.961 630.488 432.246 629.424 430.494 628.376C428.864 627.219 427.191 626.077 425.46 624.959C423.921 623.78 422.333 622.62 420.702 621.476C419.184 620.213 417.615 618.969 416.003 617.741C414.582 616.458 413.126 615.188 411.621 613.935C410.236 612.566 408.796 611.216 407.326 609.876C406.003 608.443 404.644 607.022 403.242 605.617C402.031 604.172 400.787 602.738 399.505 601.317C398.344 599.775 397.135 598.248 395.903 596.73C394.806 595.102 393.673 593.487 392.507 591.881C391.501 590.2 390.469 588.527 389.4 586.865C388.493 585.143 387.565 583.427 386.601 581.721C385.781 579.922 384.939 578.13 384.063 576.346C383.337 574.475 382.587 572.609 381.811 570.752C381.179 568.802 380.528 566.857 379.848 564.918C379.334 562.957 378.794 561.001 378.238 559.049C377.809 556.937 377.354 554.83 376.882 552.727C376.566 550.578 376.228 548.433 375.872 546.291C370.28 486.343 351.018 428.252 331.902 370.616C306.781 294.883 281.923 219.937 288.723 142.614C342.36 99.6434 404.698 52.399 476.736 0.407104L475.958 0.0469971C404.311 51.7554 342.273 98.7669 288.827 141.562C288.91 140.641 289.003 139.719 289.097 138.797C340.726 96.9374 400.785 50.9697 470.311 0.407104L469.528 0.0469971C400.4 50.3196 340.64 96.0507 289.201 137.73C289.299 136.807 289.407 135.883 289.513 134.959C339.124 94.2148 396.891 49.5291 463.884 0.405945L463.098 0.0484009C396.519 48.8665 339.056 93.3052 289.643 133.859C289.753 132.941 289.851 132.022 289.971 131.104C337.548 91.4782 393.018 48.0775 457.457 0.40448L456.671 0.0491333C392.664 47.4024 337.503 90.546 290.128 129.968C290.251 129.042 290.385 128.115 290.518 127.188C336.038 88.6987 389.194 46.5966 451.031 0.40332L450.24 0.0501709C388.843 45.9143 335.994 87.7548 290.679 126.032C290.817 125.101 290.967 124.169 291.114 123.237C334.559 85.8978 385.407 45.0936 444.607 0.4021L443.812 0.0514526C385.077 44.3918 334.536 84.9205 291.309 122.032C291.455 121.131 291.593 120.229 291.748 119.327C333.131 83.1082 381.579 43.6267 438.18 0.401001L437.38 0.0524902C381.254 42.9153 333.144 82.0992 291.977 118.079C292.141 117.157 292.311 116.235 292.485 115.312C331.761 80.253 377.841 42.0986 431.756 0.400269L430.952 0.0534668C377.515 41.3826 331.778 79.23 292.717 114.043C292.896 113.119 293.09 112.194 293.279 111.269C330.435 77.3756 374.13 40.5558 425.331 0.397644L424.523 0.0556641C373.82 39.8234 330.486 76.3156 293.551 109.946C293.743 109.031 293.929 108.116 294.13 107.2C329.151 74.4771 370.445 38.9998 418.904 0.396179L418.092 0.0568237C370.153 38.2471 329.239 73.3722 294.447 105.812C294.652 104.899 294.858 103.986 295.074 103.072C327.937 71.5343 366.803 37.4182 412.479 0.394165L411.663 0.0594482C366.514 36.6561 328.038 70.4055 295.406 101.645C295.627 100.731 295.868 99.8136 296.098 98.8984C326.785 68.556 363.196 35.8152 406.052 0.391541L405.233 0.0616455C362.928 35.0303 326.925 67.3762 296.477 97.3963C296.705 96.5146 296.937 95.6328 297.175 94.7502C325.684 65.5865 359.585 34.2291 399.63 0.390076L398.803 0.0635986C359.378 33.3788 325.876 64.3021 297.632 93.088C297.865 92.2445 298.089 91.4014 298.331 90.557C324.642 62.5815 356.014 32.619 393.204 0.386047L392.37 0.0668945C355.837 31.7279 324.89 61.212 298.856 88.7668C299.099 87.9412 299.349 87.1148 299.6 86.2885C323.686 59.5206 352.496 30.9749 386.78 0.38385L385.941 0.069397C352.338 30.0524 323.973 58.0801 300.168 84.3905C300.417 83.5898 300.687 82.7881 300.944 81.9872C322.786 56.4335 349.017 29.3112 380.358 0.379517L379.508 0.0742188C348.909 28.3206 323.169 54.8462 301.63 79.872C301.875 79.1284 302.118 78.3848 302.371 77.6403C321.945 53.3109 345.578 27.6251 373.933 0.374817L373.075 0.078125C345.54 26.5399 322.459 51.5267 303.211 75.2326C303.447 74.5588 303.676 73.885 303.918 73.2103C321.197 50.1254 342.201 25.9008 367.513 0.370117L366.642 0.0828247C342.248 24.689 321.871 48.0768 304.947 70.4083C305.16 69.8325 305.375 69.2563 305.593 68.6796C320.55 46.864 338.883 24.1338 361.09 0.364014L360.209 0.0897827C339.066 22.7197 321.464 44.3992 306.907 65.2541C307.039 64.9172 307.178 64.5793 307.312 64.2426C319.942 43.6569 335.558 22.3977 354.669 0.355408L353.776 0.0979004C336.241 20.323 321.651 39.8875 309.597 58.8798C319.795 39.8126 332.531 20.3262 348.25 0.345581L347.336 0.10791C333.861 17.238 322.577 34.0048 313.194 50.4559C320.751 33.9135 330.198 17.2161 341.83 0.333252L340.902 0.120483C327.072 20.1911 316.314 39.9996 308.163 59.5946C306.462 62.7938 304.822 65.9837 303.261 69.1602C301.253 72.5507 299.355 75.916 297.501 79.2712C295.268 82.7472 293.105 86.2042 291.042 89.6337C288.532 93.2762 286.097 96.8958 283.783 100.478C281.119 104.155 278.581 107.789 276.105 111.402C273.326 115.078 270.635 118.724 268.039 122.335C264.996 126.203 262.042 130.037 259.209 133.825C255.948 137.84 252.83 141.799 249.798 145.724C246.623 149.537 243.546 153.31 240.574 157.04C237.324 160.847 234.161 164.618 231.111 168.341C227.141 172.871 223.364 177.318 219.692 181.719C216.194 185.661 212.8 189.555 209.522 193.399C206.003 197.294 202.59 201.142 199.278 204.944C195.124 209.464 191.093 213.93 187.214 218.324C183.298 222.532 179.502 226.684 175.838 230.775C171.832 235.027 167.94 239.225 164.192 243.355C160.058 247.693 156.035 251.979 152.169 256.189C148.109 260.413 144.149 264.589 140.335 268.694C136.306 272.845 132.383 276.944 128.591 280.98C124.507 285.144 120.557 289.242 116.714 293.287C-37.3739 448.874 -20.0359 519.73 60.3739 556.904C112.086 580.811 189.833 590.758 264.843 600.355C303.409 605.289 341.241 610.134 374.42 616.737C370.375 652.068 360.073 688.185 340.884 725.353L341.844 725.518Z" fill="url(#paint0_linear_212_285)"/>
<defs>
<linearGradient id="paint0_linear_212_285" x1="243.59" y1="725.518" x2="243.59" y2="0.0469971" gradientUnits="userSpaceOnUse">
<stop stop-color="#983131"/>
<stop offset="1" stop-color="#321010"/>
</linearGradient>
</defs>
</svg>
