<svg width="480" height="510" viewBox="0 0 480 510" fill="none" xmlns="http://www.w3.org/2000/svg">
<path d="M44.4339 83.3088L45.7331 84.9802C45.6329 84.7931 45.5416 84.6076 45.4427 84.42C45.0054 83.8004 44.5655 83.18 44.1176 82.5577C44.2254 82.8082 44.3269 83.058 44.4339 83.3088ZM51.2963 93.8706C51.65 94.3021 52.0118 94.7371 52.3616 95.167L52.2593 94.9911L51.0493 93.3647L51.2963 93.8706ZM46.356 87.857C47.144 88.8065 47.8998 89.7444 48.6852 90.6924C48.4377 90.202 48.1719 89.7074 47.9223 89.2157C47.2141 88.2882 46.4728 87.3494 45.7463 86.4157C45.9471 86.8956 46.1577 87.3777 46.356 87.857ZM58.7332 104.624C59.0376 104.984 59.3192 105.336 59.6219 105.695L59.616 105.686C59.2946 105.273 58.9587 104.855 58.6335 104.441L58.7332 104.624ZM53.6281 98.6772C54.3597 99.5262 55.1022 100.38 55.8249 101.225C55.6096 100.84 55.4028 100.456 55.1859 100.07C54.4204 99.1085 53.694 98.1617 52.9157 97.1964C53.1505 97.6893 53.3972 98.1848 53.6281 98.6772ZM48.1481 92.3546C49.2011 93.5492 50.2133 94.7287 51.2471 95.917C50.9516 95.304 50.6527 94.6909 50.3521 94.0766C49.3845 92.89 48.3973 91.6969 47.4195 90.5073C47.6654 91.1237 47.9057 91.739 48.1481 92.3546ZM-37.9731 569.563L-37.7005 569.148C-37.6695 568.831 -37.6351 568.516 -37.602 568.2L-37.8143 568.585C-37.8686 568.911 -37.9192 569.237 -37.9731 569.563ZM66.8766 115.871L67.1989 116.244C67.0622 116.075 66.9344 115.908 66.7977 115.739L66.8766 115.871ZM61.3703 109.558C62.0742 110.346 62.7557 111.125 63.4422 111.906C63.2575 111.6 63.0805 111.295 62.8945 110.988C62.2101 110.157 61.5078 109.32 60.8226 108.49C61.0107 108.847 61.1848 109.201 61.3703 109.558ZM55.7374 103.292C56.7628 104.433 57.7962 105.576 58.8131 106.713C58.4781 106.087 58.127 105.456 57.7877 104.828C56.8418 103.708 55.8682 102.578 54.8938 101.446C55.1761 102.062 55.4589 102.678 55.7374 103.292ZM49.8796 96.8671C51.1452 98.2317 52.3922 99.5889 53.6209 100.939C53.3034 100.251 53.0031 99.5677 52.6809 98.879C51.4713 97.4824 50.2841 96.0931 49.072 94.6947C49.3501 95.4202 49.6083 96.1429 49.8796 96.8671ZM-38.5535 573.175C-38.3696 572.934 -38.1786 572.694 -37.9931 572.452L-37.872 571.058C-38.0236 571.293 -38.1803 571.526 -38.3301 571.761C-38.4049 572.232 -38.4813 572.704 -38.5535 573.175ZM-40.1554 575.305L-39.8022 574.831L-39.6642 573.882L-39.9249 574.296C-40.0017 574.633 -40.082 574.968 -40.1554 575.305ZM-41.6172 577.277L-41.5697 577.211L-41.5064 576.912L-41.6172 577.277ZM69.7132 120.815C70.3726 121.552 71.0451 122.295 71.7117 123.035L71.0048 121.937C70.3938 121.218 69.7476 120.486 69.1201 119.761C69.3205 120.113 69.5137 120.463 69.7132 120.815ZM63.8715 114.432C64.8803 115.51 65.8963 116.591 66.8677 117.653C66.5676 117.132 66.2389 116.604 65.9337 116.082C64.9351 114.933 63.9526 113.791 62.9527 112.64C63.2554 113.237 63.5717 113.837 63.8715 114.432ZM57.769 107.891L61.5329 111.925C61.1618 111.205 60.8013 110.487 60.4247 109.765C59.2733 108.465 58.0764 107.148 56.891 105.836C57.1937 106.523 57.4722 107.205 57.769 107.891ZM51.5206 101.335C52.9832 102.843 54.4522 104.355 55.8555 105.84C55.5137 105.063 55.143 104.28 54.7919 103.501C53.3959 101.961 52.0377 100.436 50.6217 98.8882C50.9197 99.7032 51.2314 100.521 51.5206 101.335ZM-39.0613 576.687C-38.7942 576.384 -38.5314 576.081 -38.2614 575.779C-38.2193 575.212 -38.1803 574.644 -38.1349 574.078C-38.365 574.381 -38.5874 574.686 -38.8167 574.99C-38.8974 575.555 -38.9827 576.12 -39.0613 576.687ZM-40.8789 578.754C-40.6747 578.517 -40.4653 578.282 -40.2586 578.045C-40.1966 577.584 -40.1325 577.124 -40.0671 576.663L-40.5906 577.378C-40.687 577.837 -40.7851 578.295 -40.8789 578.754ZM-42.6099 580.791L-42.2108 580.321C-42.1484 580.003 -42.0868 579.683 -42.0214 579.365C-42.1233 579.508 -42.2265 579.649 -42.328 579.791C-42.4201 580.125 -42.5173 580.457 -42.6099 580.791ZM-44.2033 582.704L-44.118 582.6L-44.0195 582.222L-44.0381 582.249L-44.2033 582.704ZM78.5347 132.257C79.149 132.918 79.777 133.583 80.379 134.239C80.2347 134.025 80.0822 133.808 79.9353 133.594C79.27 132.83 78.623 132.073 77.9543 131.307L78.5347 132.257ZM72.5129 125.791C73.4945 126.839 74.4545 127.879 75.4323 128.926C75.1139 128.411 74.8158 127.902 74.4944 127.386C73.5527 126.327 72.5749 125.252 71.6124 124.184C71.907 124.718 72.2221 125.258 72.5129 125.791ZM66.1969 119.179C67.4367 120.459 68.6862 121.743 69.8831 123.005C69.5167 122.346 69.1422 121.685 68.7677 121.023C67.564 119.696 66.3977 118.385 65.1711 117.049C65.521 117.761 65.8543 118.469 66.1969 119.179ZM59.7221 112.461C61.1996 113.983 62.6398 115.49 64.1029 117.006C63.7153 116.219 63.3233 115.432 62.9259 114.642C61.5494 113.153 60.1398 111.65 58.7354 110.15C59.0593 110.919 59.4054 111.693 59.7221 112.461ZM53.0078 105.688C54.6479 107.326 56.3051 108.972 57.8819 110.584C57.5338 109.757 57.1785 108.928 56.821 108.099C55.2844 106.468 53.7339 104.832 52.1574 103.184C52.4465 104.02 52.7267 104.854 53.0078 105.688ZM-39.5134 580.129C-39.1772 579.8 -38.8363 579.472 -38.4974 579.143C-38.4554 578.49 -38.4074 577.837 -38.3607 577.184C-38.6651 577.529 -38.9704 577.873 -39.2715 578.218C-39.3542 578.855 -39.4328 579.493 -39.5134 580.129ZM-41.5463 582.155C-41.2529 581.861 -40.9608 581.567 -40.667 581.273C-40.5974 580.71 -40.524 580.149 -40.4522 579.586C-40.7146 579.891 -40.9723 580.197 -41.2317 580.502C-41.3391 581.053 -41.4414 581.604 -41.5463 582.155ZM-43.4985 584.142C-43.2637 583.899 -43.0345 583.655 -42.7971 583.412C-42.7135 582.956 -42.6231 582.5 -42.5373 582.045C-42.7428 582.292 -42.9423 582.541 -43.1465 582.789L-43.4985 584.142ZM-45.3505 586.069C-45.2015 585.911 -45.0474 585.755 -44.8983 585.598C-44.8164 585.271 -44.7277 584.946 -44.644 584.619L-45.0147 585.077C-45.1264 585.407 -45.241 585.737 -45.3505 586.069ZM-47.0768 587.926L-46.9402 587.778C-46.8956 587.639 -46.8535 587.499 -46.8081 587.36L-46.8684 587.436C-46.9363 587.6 -47.0089 587.762 -47.0768 587.926ZM87.7365 143.774C88.3585 144.43 88.9237 145.063 89.5355 145.715C89.4382 145.577 89.3499 145.443 89.2523 145.305C88.632 144.607 87.9892 143.901 87.3638 143.201C87.4856 143.391 87.6164 143.584 87.7365 143.774ZM81.5712 137.344C82.5006 138.312 83.4424 139.286 84.3569 140.248C84.041 139.764 83.7328 139.283 83.4126 138.799C82.4943 137.786 81.6006 136.785 80.6614 135.764C80.9756 136.294 81.2605 136.815 81.5712 137.344ZM75.0323 130.54C76.3222 131.863 77.5429 133.156 78.8132 134.471C78.4166 133.806 77.9929 133.133 77.5904 132.466C76.4135 131.193 75.2119 129.911 74.021 128.633C74.3628 129.27 74.6986 129.905 75.0323 130.54ZM68.4586 123.915C69.9013 125.363 71.3521 126.815 72.7574 128.248C72.3528 127.494 71.9745 126.748 71.561 125.991C70.176 124.522 68.769 123.042 67.3407 121.555C67.7126 122.341 68.0964 123.131 68.4586 123.915ZM61.5036 116.925C63.1853 118.596 64.8034 120.239 66.4559 121.896C66.0619 121.061 65.6517 120.221 65.2463 119.383C63.6877 117.759 62.1154 116.13 60.5381 114.498C60.8655 115.309 61.1847 116.117 61.5036 116.925ZM54.4289 110.016C56.2376 111.775 58.056 113.538 59.8134 115.275C59.4635 114.404 59.1319 113.538 58.7727 112.667C57.0935 110.946 55.3515 109.198 53.6078 107.45C53.8897 108.307 54.1559 109.161 54.4289 110.016ZM-39.9253 583.559C-39.5105 583.204 -39.1021 582.846 -38.683 582.492C-38.6465 581.782 -38.6121 581.072 -38.5709 580.362C-38.9441 580.729 -39.3131 581.096 -39.6829 581.464C-39.7682 582.162 -39.8471 582.861 -39.9253 583.559ZM-42.1543 585.487C-41.7849 585.162 -41.4092 584.838 -41.036 584.514C-40.9672 583.882 -40.9043 583.249 -40.8317 582.617C-41.1599 582.949 -41.4962 583.278 -41.8214 583.61C-41.9378 584.235 -42.0464 584.862 -42.1543 585.487ZM-44.315 587.41C-43.9949 587.122 -43.6696 586.836 -43.3474 586.549C-43.2544 586.002 -43.1635 585.453 -43.0676 584.907C-43.3559 585.206 -43.6467 585.505 -43.9325 585.805C-44.0649 586.338 -44.1855 586.875 -44.315 587.41ZM-46.3971 589.315C-46.1373 589.075 -45.8787 588.834 -45.6163 588.595L-45.2966 587.252C-45.525 587.498 -45.7522 587.745 -45.9797 587.99C-46.1211 588.431 -46.2595 588.873 -46.3971 589.315ZM-48.3782 591.164C-48.1994 590.995 -48.0262 590.823 -47.8462 590.654C-47.7477 590.332 -47.6433 590.011 -47.5418 589.689C-47.6934 589.857 -47.8398 590.026 -47.9889 590.193C-48.1184 590.517 -48.2512 590.84 -48.3782 591.164ZM-50.2051 592.916L-50.0243 592.742C-49.9674 592.593 -49.9135 592.442 -49.8557 592.293L-49.964 592.416L-50.2051 592.916ZM97.5039 155.73C97.9956 156.248 98.4953 156.77 98.9899 157.289C98.8456 157.092 98.7067 156.897 98.5615 156.7C98.0826 156.172 97.5855 155.636 97.0938 155.104C97.236 155.315 97.3642 155.52 97.5039 155.73ZM90.9752 148.948C91.8953 149.882 92.8022 150.811 93.6938 151.732C93.4254 151.341 93.1507 150.948 92.8816 150.556C91.9738 149.575 91.0546 148.588 90.1494 147.609C90.4296 148.057 90.6984 148.501 90.9752 148.948ZM84.4274 142.31C85.6531 143.553 86.8895 144.8 88.1051 146.038C87.6758 145.359 87.2359 144.675 86.7986 143.993C85.6625 142.786 84.4707 141.556 83.2887 140.33C83.6665 140.99 84.0559 141.653 84.4274 142.31ZM77.5692 135.422C79.0255 136.864 80.4478 138.291 81.8697 139.717C81.4549 138.997 81.0511 138.281 80.6291 137.559L76.4428 133.199C76.827 133.943 77.193 134.681 77.5692 135.422ZM70.5216 128.504C72.1817 130.127 73.8401 131.751 75.4701 133.362C75.023 132.496 74.5428 131.619 74.0851 130.75C72.5766 129.202 70.9887 127.62 69.4177 126.046C69.7897 126.866 70.1603 127.686 70.5216 128.504ZM63.2406 121.422C65.0714 123.182 66.8648 124.926 68.6518 126.668C68.268 125.819 67.902 124.974 67.5067 124.122C65.7587 122.36 64.0303 120.607 62.2636 118.837C62.5977 119.701 62.917 120.56 63.2406 121.422ZM55.7744 114.309C57.7495 116.183 59.7191 118.055 61.6522 119.909C61.3002 118.987 60.9164 118.058 60.5513 117.133C58.7392 115.332 56.8295 113.489 54.9418 111.655C55.2195 112.54 55.509 113.427 55.7744 114.309ZM-35.2758 583.29C-10.4847 565.536 19.9014 549.56 50.8726 533.282C164.504 473.564 285.885 409.724 165.732 238.466M-40.293 586.958C-39.8162 586.6 -39.3283 586.245 -38.846 585.888C-38.8141 585.124 -38.7807 584.36 -38.7424 583.596C-39.1802 583.971 -39.6166 584.346 -40.0509 584.722C-40.1337 585.466 -40.2187 586.211 -40.293 586.958ZM-42.719 588.809C-42.2736 588.467 -41.8265 588.125 -41.3769 587.784C-41.3107 587.084 -41.2381 586.386 -41.1625 585.687C-41.5693 586.043 -41.9679 586.403 -42.3704 586.762C-42.4889 587.443 -42.6099 588.125 -42.719 588.809ZM-45.075 590.645C-44.6699 590.325 -44.2713 590.004 -43.8624 589.686C-43.7647 589.064 -43.6662 588.442 -43.5626 587.821C-43.9286 588.151 -44.2878 588.483 -44.65 588.814C-44.7939 589.424 -44.9366 590.034 -45.075 590.645ZM-47.3558 592.462C-47.0064 592.179 -46.6544 591.898 -46.3024 591.616C-46.1857 591.084 -46.0783 590.55 -45.956 590.019C-46.2676 590.308 -46.5843 590.594 -46.8909 590.883C-47.0505 591.408 -47.2009 591.936 -47.3558 592.462ZM-49.5598 594.271C-49.2766 594.036 -48.987 593.802 -48.7017 593.567L-48.3187 592.252C-48.5705 592.494 -48.8257 592.735 -49.0753 592.978L-49.5598 594.271ZM-51.6678 596.053L-51.0717 595.544C-50.9562 595.224 -50.8327 594.906 -50.7134 594.587L-51.2207 595.092C-51.3685 595.413 -51.5226 595.732 -51.6678 596.053ZM-53.5801 597.7L-53.3563 597.501L-53.164 597.062L-53.3288 597.234C-53.415 597.389 -53.4952 597.545 -53.5801 597.7ZM107.441 167.581C107.875 168.025 108.319 168.474 108.747 168.915L108.659 168.801C108.152 168.252 107.658 167.708 107.15 167.159L107.441 167.581ZM100.856 160.85C101.791 161.807 102.725 162.764 103.667 163.723C103.346 163.272 102.998 162.809 102.674 162.356C101.809 161.438 100.907 160.503 100.022 159.575C100.301 160.001 100.581 160.426 100.856 160.85ZM94.1986 154.175C95.347 155.307 96.5091 156.444 97.6186 157.559C97.2619 157.02 96.9278 156.49 96.566 155.951C95.3564 154.687 94.1837 153.44 92.9622 152.171C93.366 152.836 93.8007 153.512 94.1986 154.175ZM87.1213 147.176L91.4414 151.449C90.9769 150.689 90.5035 149.926 90.0314 149.163C88.7063 147.803 87.3315 146.422 85.9686 145.045C86.3643 145.76 86.7324 146.464 87.1213 147.176ZM79.9447 140.199C81.5942 141.781 83.2432 143.362 84.84 144.92C84.4006 144.127 83.9387 143.328 83.489 142.532C81.8752 140.902 80.3179 139.297 78.6799 137.658C79.1024 138.505 79.532 139.355 79.9447 140.199ZM72.5078 133.069C74.3237 134.807 76.1303 136.538 77.93 138.268C77.4944 137.39 77.0669 136.515 76.6198 135.633C74.9317 133.957 73.1824 132.252 71.443 130.552C71.8102 131.395 72.1511 132.23 72.5078 133.069ZM64.8756 125.864C66.8643 127.721 68.8399 129.572 70.7709 131.404C70.3853 130.512 69.9709 129.612 69.5744 128.716C67.6731 126.858 65.808 125.016 63.8736 123.143C64.2082 124.05 64.5533 124.959 64.8756 125.864ZM56.987 118.516C59.1094 120.485 61.2128 122.445 63.3063 124.402C62.9718 123.479 62.6334 122.556 62.2861 121.631C60.311 119.726 58.2624 117.789 56.2235 115.856C56.4868 116.744 56.7348 117.63 56.987 118.516ZM-40.5995 590.355C-40.0548 589.997 -39.5135 589.638 -38.9645 589.282C-38.9411 588.477 -38.9106 587.673 -38.8796 586.87C-39.3852 587.249 -39.8901 587.628 -40.3902 588.008C-40.4611 588.79 -40.5316 589.573 -40.5995 590.355ZM-43.2089 592.093C-42.6973 591.748 -42.1861 591.402 -41.6694 591.058C-41.6075 590.316 -41.5391 589.575 -41.4712 588.833C-41.9425 589.194 -42.4193 589.553 -42.8846 589.915C-42.9937 590.641 -43.1045 591.367 -43.2089 592.093ZM-45.7641 593.832C-45.2924 593.505 -44.8113 593.182 -44.3345 592.858C-44.2385 592.178 -44.1341 591.5 -44.0305 590.822C-44.4657 591.166 -44.9047 591.508 -45.3353 591.854C-45.4796 592.513 -45.6278 593.171 -45.7641 593.832ZM-48.2525 595.582C-47.8233 595.277 -47.3893 594.973 -46.9546 594.669C-46.8323 594.06 -46.7002 593.452 -46.5682 592.845C-46.9648 593.166 -47.3563 593.49 -47.7494 593.813C-47.9201 594.402 -48.0903 594.992 -48.2525 595.582ZM-50.6586 597.32C-50.2777 597.041 -49.9016 596.762 -49.5169 596.484C-49.3755 595.962 -49.2414 595.438 -49.0949 594.917C-49.4443 595.21 -49.784 595.505 -50.1304 595.799C-50.3121 596.304 -50.4807 596.813 -50.6586 597.32ZM-52.9802 599.035C-52.6673 598.8 -52.3573 598.565 -52.0431 598.332C-51.8966 597.904 -51.7451 597.478 -51.5978 597.05C-51.8733 597.289 -52.1514 597.526 -52.4248 597.764C-52.6095 598.188 -52.798 598.61 -52.9802 599.035ZM-55.1871 600.713C-54.9702 600.546 -54.7498 600.38 -54.5316 600.214C-54.4013 599.903 -54.2696 599.594 -54.135 599.284C-54.324 599.453 -54.5146 599.619 -54.7001 599.787C-54.864 600.095 -55.0262 600.404 -55.1871 600.713ZM-57.2136 602.305L-56.9474 602.095L-56.7198 601.642L-56.9203 601.829L-57.2136 602.305ZM117.63 179.438L117.718 179.527L117.617 179.42L117.63 179.438ZM111.179 172.997C112.01 173.828 112.856 174.665 113.679 175.492C113.423 175.145 113.186 174.805 112.929 174.457C112.008 173.492 111.139 172.551 110.201 171.579C110.521 172.05 110.862 172.528 111.179 172.997ZM104.155 165.985C105.348 167.164 106.482 168.317 107.669 169.494C107.279 168.927 106.893 168.362 106.497 167.794C105.404 166.669 104.282 165.531 103.176 164.401C103.516 164.934 103.82 165.454 104.155 165.985ZM97.0645 159.107C98.4987 160.489 99.9431 161.875 101.34 163.239C100.879 162.523 100.389 161.795 99.9223 161.076C98.5408 159.678 97.1825 158.291 95.7717 156.88C96.2103 157.625 96.6344 158.365 97.0645 159.107ZM89.7439 152.028C91.3837 153.606 92.9869 155.167 94.6236 156.744C94.1591 155.957 93.7299 155.183 93.2552 154.392C91.6766 152.82 90.0645 151.233 88.4575 149.648C88.8824 150.439 89.3295 151.239 89.7439 152.028ZM82.172 144.881C83.9778 146.569 85.7992 148.265 87.5463 149.925C87.0954 149.083 86.6373 148.239 86.1775 147.393C84.4558 145.706 82.7431 144.022 80.9832 142.317C81.3938 143.176 81.7708 144.025 82.172 144.881ZM74.3955 137.585C76.3808 139.441 78.3355 141.284 80.3132 143.137C79.8814 142.231 79.439 141.322 78.9949 140.412C77.12 138.601 75.2064 136.774 73.292 134.945C73.658 135.824 74.0397 136.708 74.3955 137.585ZM66.3744 130.213C68.4964 132.143 70.6342 134.079 72.6827 135.977C72.3104 135.079 71.9376 134.18 71.5551 133.279C69.5392 131.361 67.5182 129.44 65.4556 127.501C65.7731 128.407 66.0691 129.308 66.3744 130.213ZM58.1418 122.701C60.4073 124.76 62.6338 126.801 64.8866 128.854C64.5665 127.928 64.2536 127.003 63.9228 126.073C61.7838 124.068 59.6036 122.043 57.4166 120.016C57.6659 120.911 57.9032 121.806 58.1418 122.701ZM-40.8679 593.747C-40.262 593.396 -39.6489 593.048 -39.0371 592.7C-39.0222 591.865 -39.0137 591.029 -38.9938 590.194C-39.5593 590.563 -40.1248 590.933 -40.6836 591.303C-40.7506 592.117 -40.8088 592.932 -40.8679 593.747ZM-43.6586 595.376C-43.0837 595.035 -42.4978 594.698 -41.9178 594.359C-41.8622 593.578 -41.8142 592.796 -41.7539 592.017C-42.294 592.379 -42.8264 592.744 -43.3623 593.109C-43.4667 593.863 -43.5618 594.62 -43.6586 595.376ZM-46.3954 597.025C-45.8502 596.693 -45.3047 596.361 -44.7536 596.031C-44.6623 595.308 -44.571 594.586 -44.4738 593.864C-44.9837 594.215 -45.4838 594.57 -45.9886 594.922C-46.1275 595.622 -46.2625 596.323 -46.3954 597.025ZM-49.0783 598.679C-48.5676 598.36 -48.0623 598.038 -47.5469 597.72C-47.4233 597.063 -47.293 596.407 -47.1652 595.751C-47.6318 596.082 -48.1005 596.413 -48.5624 596.746C-48.7365 597.39 -48.9128 598.033 -49.0783 598.679ZM-51.6814 600.322C-51.2237 600.028 -50.7592 599.735 -50.2964 599.443C-50.1474 598.852 -49.9911 598.263 -49.8336 597.674C-50.2574 597.984 -50.6857 598.291 -51.1057 598.603C-51.301 599.175 -51.4929 599.748 -51.6814 600.322ZM-54.203 601.965C-53.8005 601.699 -53.3891 601.436 -52.9844 601.171C-52.8205 600.664 -52.6643 600.156 -52.4966 599.65C-52.8668 599.929 -53.2341 600.209 -53.6009 600.489C-53.8051 600.98 -54.0034 601.473 -54.203 601.965ZM-56.6519 603.614C-56.3144 603.383 -55.9777 603.153 -55.6359 602.923C-55.4674 602.501 -55.2912 602.08 -55.1201 601.658C-55.4253 601.897 -55.7246 602.139 -56.0278 602.378C-56.2358 602.79 -56.4485 603.2 -56.6519 603.614ZM-58.9472 605.194C-58.7026 605.024 -58.4653 604.85 -58.2203 604.68C-58.0768 604.38 -57.9409 604.078 -57.794 603.778C-58.0106 603.953 -58.2182 604.13 -58.4326 604.305C-58.6084 604.6 -58.7735 604.898 -58.9472 605.194ZM-61.0743 606.702L-60.7737 606.489C-60.6854 606.333 -60.5928 606.177 -60.5033 606.021C-60.578 606.084 -60.6553 606.146 -60.7308 606.209L-61.0743 606.702ZM128.503 191.901L129.672 193.083L129.601 192.992C129.197 192.568 128.764 192.13 128.352 191.702L128.503 191.901ZM121.656 185.059C122.402 185.786 123.162 186.52 123.883 187.235L123.372 186.56C122.586 185.748 121.794 184.933 121.017 184.126C121.237 184.44 121.436 184.745 121.656 185.059ZM114.592 178.157C115.741 179.281 116.903 180.412 118.049 181.535C117.606 180.914 117.142 180.285 116.694 179.661C115.652 178.605 114.557 177.524 113.477 176.449C113.856 177.022 114.217 177.586 114.592 178.157ZM107.305 171.081C108.761 172.475 110.164 173.845 111.593 175.227C111.147 174.56 110.696 173.891 110.244 173.222C108.841 171.821 107.431 170.416 106.028 169.015C106.454 169.704 106.886 170.395 107.305 171.081ZM99.9325 164.097C101.531 165.608 103.138 167.123 104.708 168.621C104.209 167.816 103.727 167.018 103.217 166.209C101.7 164.717 100.133 163.202 98.5632 161.686C99.0209 162.49 99.4837 163.296 99.9325 164.097ZM92.1483 156.741C94.0088 158.48 95.7865 160.182 97.6236 161.91C97.1358 161.053 96.62 160.187 96.1211 159.326C94.3888 157.648 92.651 155.967 90.906 154.284C91.331 155.106 91.7348 155.921 92.1483 156.741ZM84.3374 149.553C86.2976 151.349 88.2643 153.149 90.1723 154.922C89.7142 154.031 89.2735 153.146 88.8026 152.251C86.9315 150.463 85.0095 148.653 83.0789 146.839C83.4937 147.742 83.9349 148.653 84.3374 149.553ZM76.1286 141.998C78.2897 143.971 80.3646 145.903 82.5053 147.867C82.0854 146.945 81.6523 146.02 81.2201 145.095C79.1932 143.188 77.1607 141.279 75.1083 139.36C75.4603 140.243 75.7877 141.119 76.1286 141.998ZM67.8184 134.547C70.0767 136.561 72.3477 138.582 74.5356 140.563C74.1738 139.642 73.8197 138.723 73.444 137.799C71.302 135.81 69.1112 133.798 66.9059 131.78C67.2137 132.703 67.5228 133.626 67.8184 134.547ZM59.2245 126.851C61.6323 128.997 63.9793 131.116 66.3803 133.258C66.0721 132.316 65.7375 131.368 65.4187 130.423C63.1298 128.329 60.8349 126.232 58.5125 124.123C58.7502 125.032 58.9978 125.943 59.2245 126.851ZM-41.1005 597.149C-40.4297 596.81 -39.7559 596.473 -39.0799 596.137C-39.0753 595.267 -39.0651 594.399 -39.0507 593.531C-39.6807 593.892 -40.3036 594.257 -40.9294 594.621C-40.9897 595.463 -41.0496 596.306 -41.1005 597.149ZM-44.0675 598.676C-43.4225 598.341 -42.7831 598.004 -42.1322 597.671C-42.0868 596.858 -42.0337 596.046 -41.9785 595.234C-42.5802 595.587 -43.1826 595.941 -43.777 596.297C-43.8777 597.089 -43.9762 597.882 -44.0675 598.676ZM-46.9784 600.209C-46.3661 599.882 -45.7543 599.555 -45.1357 599.231C-45.0517 598.473 -44.9659 597.716 -44.8729 596.959C-45.4439 597.304 -46.0201 597.647 -46.5844 597.994C-46.7211 598.731 -46.8489 599.469 -46.9784 600.209ZM-49.8336 601.747C-49.26 601.433 -48.6745 601.122 -48.0962 600.809C-47.9769 600.111 -47.8623 599.41 -47.7367 598.713C-48.275 599.047 -48.8104 599.382 -49.3428 599.718C-49.5097 600.394 -49.6719 601.071 -49.8336 601.747ZM-52.6431 603.318C-52.1039 603.013 -51.5583 602.71 -51.0144 602.407C-50.8637 601.763 -50.704 601.121 -50.5478 600.479C-51.0526 600.802 -51.5459 601.13 -52.0452 601.455C-52.2469 602.076 -52.4512 602.695 -52.6431 603.318ZM-55.351 604.874C-54.8606 604.588 -54.3745 604.301 -53.8782 604.017C-53.7058 603.445 -53.5275 602.873 -53.3462 602.303C-53.8052 602.607 -54.2598 602.912 -54.7141 603.217C-54.932 603.768 -55.14 604.322 -55.351 604.874ZM-57.9885 606.429C-57.5542 606.169 -57.1219 605.908 -56.6838 605.649C-56.4991 605.157 -56.3144 604.666 -56.1263 604.176C-56.5178 604.443 -56.9151 604.707 -57.3019 604.975C-57.5312 605.46 -57.7639 605.943 -57.9885 606.429ZM-60.5279 607.968C-60.1768 607.752 -59.8163 607.539 -59.4639 607.323C-59.2784 606.914 -59.0839 606.508 -58.8916 606.101C-59.2176 606.332 -59.5476 606.563 -59.8719 606.795C-60.0931 607.185 -60.3109 607.577 -60.5279 607.968ZM-62.9378 609.49L-62.1578 608.996C-61.9995 608.701 -61.8403 608.406 -61.6789 608.112L-62.3672 608.621L-62.9378 609.49ZM-65.1842 610.943L-64.8246 610.704L-64.5427 610.261L-64.8348 610.488L-65.1842 610.943ZM132.383 197.222C133.141 197.958 133.892 198.69 134.632 199.417L134.042 198.663C133.302 197.909 132.532 197.14 131.78 196.38C131.986 196.663 132.179 196.941 132.383 197.222ZM125.267 190.329C126.435 191.463 127.617 192.604 128.786 193.738C128.399 193.212 127.975 192.67 127.583 192.142C126.41 190.965 125.279 189.807 124.101 188.626C124.491 189.194 124.882 189.763 125.267 190.329ZM117.99 183.362C119.345 184.641 120.702 185.921 122.018 187.181C121.574 186.541 121.157 185.912 120.707 185.27C119.382 183.96 118.006 182.628 116.644 181.302C117.086 181.985 117.557 182.681 117.99 183.362ZM110.333 176.127C111.947 177.649 113.551 179.167 115.157 180.685C114.66 179.917 114.155 179.147 113.649 178.375C112.089 176.858 110.569 175.358 109.004 173.838C109.466 174.608 109.881 175.361 110.333 176.127ZM102.546 168.894C104.367 170.569 106.201 172.249 107.966 173.897C107.452 173.04 106.892 172.164 106.366 171.302C104.68 169.685 102.925 168.037 101.184 166.395C101.644 167.23 102.097 168.063 102.546 168.894ZM94.5446 161.51C96.5308 163.328 98.4439 165.112 100.403 166.917C99.9253 166.047 99.4718 165.185 98.9832 164.311C97.0526 162.486 95.1539 160.677 93.2148 158.849C93.656 159.735 94.1145 160.628 94.5446 161.51ZM86.2845 154.053C88.4154 155.97 90.5515 157.888 92.6302 159.78C92.1674 158.843 91.677 157.897 91.2019 156.955C89.231 155.118 87.1714 153.239 85.13 151.37C85.5245 152.268 85.8998 153.159 86.2845 154.053ZM77.8367 146.47C80.1132 148.497 82.3406 150.502 84.5726 152.509C84.1739 151.593 83.7973 150.685 83.3859 149.766C81.1806 147.739 79.003 145.724 76.7833 143.691C77.1344 144.617 77.4983 145.547 77.8367 146.47ZM69.1295 138.776C71.5364 140.895 73.9335 143.008 76.2917 145.104C75.9312 144.143 75.5456 143.174 75.1724 142.209C72.9319 140.174 70.5964 138.096 68.2765 136.025C68.5652 136.943 68.8526 137.861 69.1295 138.776ZM60.207 130.973C62.7357 133.17 65.2488 135.36 67.7173 137.528C67.4315 136.604 67.153 135.68 66.8567 134.753C64.4188 132.573 62.014 130.408 59.5591 128.219C59.7849 129.139 59.993 130.056 60.207 130.973ZM-41.2708 600.555C-40.5401 600.231 -39.8115 599.906 -39.074 599.584C-39.0812 598.695 -39.08 597.807 -39.0787 596.919C-39.7678 597.263 -40.459 597.607 -41.1396 597.954C-41.1863 598.82 -41.2309 599.687 -41.2708 600.555ZM-44.4212 601.969C-43.7181 601.648 -43.0086 601.33 -42.2991 601.013C-42.2634 600.171 -42.218 599.33 -42.1734 598.49C-42.837 598.832 -43.4994 599.175 -44.1575 599.52C-44.2487 600.335 -44.3396 601.151 -44.4212 601.969ZM-47.5137 603.393C-46.8425 603.079 -46.1606 602.77 -45.4821 602.458C-45.4057 601.663 -45.3161 600.871 -45.227 600.079C-45.8677 600.418 -46.4977 600.761 -47.132 601.103C-47.2624 601.865 -47.3927 602.628 -47.5137 603.393ZM-50.5414 604.839C-49.899 604.528 -49.2537 604.219 -48.6036 603.912C-48.4903 603.175 -48.3718 602.438 -48.2491 601.704C-48.8601 602.036 -49.463 602.372 -50.0663 602.707C-50.231 603.416 -50.3847 604.127 -50.5414 604.839ZM-53.5198 606.297C-52.9063 605.992 -52.2992 605.685 -51.6789 605.382C-51.532 604.709 -51.3914 604.035 -51.2402 603.363C-51.8075 603.682 -52.3781 603.999 -52.939 604.32C-53.1356 604.979 -53.33 605.637 -53.5198 606.297ZM-56.4277 607.76C-55.8626 607.47 -55.2924 607.183 -54.7226 606.895C-54.5464 606.275 -54.3609 605.658 -54.177 605.04C-54.7069 605.347 -55.2402 605.652 -55.7628 605.961C-55.9883 606.559 -56.2125 607.158 -56.4277 607.76ZM-59.2448 609.22C-58.7328 608.95 -58.2097 608.684 -57.6926 608.415C-57.4981 607.864 -57.3062 607.312 -57.1041 606.762C-57.5894 607.053 -58.0696 607.344 -58.5485 607.637C-58.7854 608.163 -59.0134 608.692 -59.2448 609.22ZM-62.0139 610.712C-61.552 610.46 -61.0892 610.209 -60.6226 609.959C-60.4145 609.476 -60.1989 608.994 -59.9874 608.513C-60.4167 608.78 -60.8353 609.051 -61.2603 609.32C-61.5129 609.783 -61.7689 610.246 -62.0139 610.712ZM-64.634 612.164C-64.2502 611.948 -63.8748 611.73 -63.4876 611.514C-63.2894 611.128 -63.0974 610.739 -62.8945 610.354C-63.2443 610.58 -63.5887 610.806 -63.9364 611.033C-64.1738 611.409 -64.4009 611.788 -64.634 612.164ZM-67.1517 613.597C-66.8749 613.435 -66.5904 613.276 -66.3106 613.114C-66.1374 612.828 -65.9561 612.543 -65.7816 612.256C-66.0266 612.421 -66.2788 612.582 -66.5225 612.748C-66.7305 613.031 -66.9471 613.312 -67.1517 613.597ZM-69.4491 614.961L-69.061 614.731L-68.7621 614.301L-69.0878 614.527C-69.2088 614.671 -69.3277 614.816 -69.4491 614.961ZM143.469 209.59C144.215 210.306 144.976 211.029 145.703 211.737C145.466 211.441 145.213 211.137 144.976 210.84C144.255 210.113 143.497 209.369 142.757 208.633L143.469 209.59ZM136.296 202.691L139.586 205.854C139.22 205.369 138.881 204.897 138.511 204.41C137.372 203.279 136.246 202.154 135.101 201.02C135.493 201.575 135.909 202.138 136.296 202.691ZM128.853 195.637C130.181 196.881 131.523 198.13 132.815 199.358C132.346 198.701 131.879 198.045 131.403 197.385C130.137 196.148 128.83 194.891 127.536 193.641C127.984 194.31 128.413 194.971 128.853 195.637ZM121.069 188.327C122.714 189.862 124.308 191.372 125.938 192.899C125.404 192.105 124.836 191.298 124.293 190.5C122.744 189.008 121.23 187.531 119.654 186.027C120.136 186.798 120.595 187.56 121.069 188.327ZM113.237 181.124C115.025 182.76 116.82 184.401 118.568 186.018C118.049 185.192 117.552 184.372 117.023 183.541C115.284 181.889 113.514 180.223 111.746 178.558C112.242 179.413 112.753 180.273 113.237 181.124ZM105.094 173.68C107.071 175.472 108.998 177.24 110.942 179.017C110.421 178.117 109.905 177.22 109.372 176.315C107.514 174.575 105.63 172.823 103.726 171.06C104.191 171.937 104.64 172.808 105.094 173.68ZM96.7397 166.174C98.8821 168.093 101.017 170.008 103.122 171.91C102.63 170.975 102.091 170.024 101.584 169.085C99.5461 167.2 97.5031 165.314 95.4434 163.42C95.8837 164.341 96.3125 165.258 96.7397 166.174ZM88.2027 158.58C90.464 160.577 92.7062 162.564 94.9161 164.536C94.4678 163.591 94.0453 162.654 93.5838 161.705C91.449 159.756 89.2327 157.77 87.0313 155.79C87.4245 156.721 87.8219 157.653 88.2027 158.58ZM79.3796 150.813C81.7963 152.931 84.1786 155.034 86.5651 157.139C86.166 156.179 85.7342 155.21 85.3202 154.247C83.0071 152.163 80.731 150.097 78.3788 147.995C78.7198 148.936 79.0518 149.875 79.3796 150.813ZM70.3679 143C72.8908 145.172 75.4212 147.348 77.8744 149.487C77.5382 148.546 77.2185 147.609 76.8712 146.664C74.48 144.536 72.0289 142.378 69.5769 140.221C69.8533 141.15 70.1034 142.073 70.3679 143ZM61.1266 135.032C63.7934 137.316 66.3824 139.564 69.0165 141.832C68.741 140.882 68.4535 139.928 68.1656 138.974C65.6356 136.75 63.0915 134.52 60.5109 132.272C60.722 133.193 60.927 134.113 61.1266 135.032ZM-41.3956 603.968C-40.6097 603.663 -39.8162 603.362 -39.0218 603.061C-39.0388 602.149 -39.0625 601.237 -39.0736 600.327C-39.8234 600.656 -40.5656 600.988 -41.3086 601.32C-41.3442 602.201 -41.3688 603.085 -41.3956 603.968ZM-44.7162 605.272C-43.9537 604.969 -43.1852 604.668 -42.415 604.368C-42.3891 603.504 -42.3696 602.639 -42.3361 601.776C-43.0642 602.104 -43.7809 602.436 -44.501 602.766C-44.5787 603.6 -44.6457 604.436 -44.7162 605.272ZM-47.988 606.598C-47.248 606.295 -46.5092 605.99 -45.7615 605.689C-45.6953 604.875 -45.6236 604.062 -45.5514 603.249C-46.249 603.573 -46.9457 603.897 -47.6365 604.223C-47.7566 605.014 -47.8772 605.805 -47.988 606.598ZM-51.1974 607.934C-50.49 607.635 -49.7827 607.335 -49.0664 607.039C-48.962 606.272 -48.844 605.508 -48.7268 604.745C-49.3955 605.063 -50.0676 605.38 -50.7287 605.701C-50.8887 606.444 -51.0475 607.188 -51.1974 607.934ZM-54.3393 609.277C-53.6676 608.984 -52.9853 608.695 -52.3059 608.405C-52.1646 607.691 -52.0211 606.977 -51.8695 606.266C-52.5136 606.582 -53.1542 606.901 -53.7903 607.22C-53.9813 607.904 -54.1576 608.591 -54.3393 609.277ZM-57.4323 610.646C-56.7946 610.359 -56.1458 610.075 -55.5009 609.791C-55.3285 609.131 -55.1549 608.471 -54.9748 607.812C-55.5807 608.12 -56.1713 608.433 -56.77 608.743C-56.9929 609.377 -57.22 610.009 -57.4323 610.646ZM-60.4358 612.023C-59.8418 611.747 -59.2503 611.471 -58.6517 611.198C-58.4526 610.596 -58.2428 609.997 -58.0344 609.398C-58.5995 609.695 -59.1573 609.994 -59.7161 610.293C-59.9628 610.868 -60.198 611.446 -60.4358 612.023ZM-63.3794 613.412C-62.8291 613.147 -62.2839 612.882 -61.7269 612.619C-61.5133 612.09 -61.3023 611.56 -61.082 611.033C-61.5847 611.306 -62.0925 611.578 -62.5901 611.853C-62.8533 612.373 -63.1221 612.89 -63.3794 613.412ZM-66.2113 614.787C-65.7396 614.552 -65.2568 614.321 -64.7804 614.089C-64.5554 613.624 -64.3202 613.162 -64.0863 612.7C-64.5367 612.954 -64.9885 613.207 -65.4339 613.463C-65.6988 613.903 -65.954 614.345 -66.2113 614.787ZM-68.9566 616.177C-68.5554 615.97 -68.1465 615.767 -67.7419 615.561C-67.5249 615.183 -67.3084 614.805 -67.0889 614.428C-67.4595 614.646 -67.8281 614.865 -68.1966 615.085C-68.4492 615.449 -68.7069 615.811 -68.9566 616.177ZM-71.5499 617.536C-71.2557 617.379 -70.9623 617.222 -70.6659 617.066C-70.4808 616.789 -70.2974 616.512 -70.1101 616.236C-70.387 616.406 -70.6583 616.579 -70.9343 616.75C-71.1449 617.01 -71.3432 617.275 -71.5499 617.536ZM-73.942 618.821C-73.7942 618.74 -73.6524 618.657 -73.5034 618.576C-73.3934 618.433 -73.2792 618.291 -73.1688 618.148C-73.2954 618.23 -73.4168 618.313 -73.5437 618.394C-73.6758 618.537 -73.8112 618.678 -73.942 618.821ZM154.897 222.142C155.6 222.816 156.319 223.497 157.013 224.167C156.808 223.914 156.622 223.67 156.417 223.418C155.69 222.692 154.927 221.95 154.184 221.217C154.419 221.524 154.665 221.836 154.897 222.142ZM147.579 215.138C148.623 216.13 149.625 217.101 150.662 218.089C150.29 217.609 149.929 217.133 149.554 216.651C148.51 215.626 147.493 214.613 146.443 213.584C146.818 214.101 147.206 214.623 147.579 215.138ZM139.943 207.976C141.288 209.232 142.643 210.492 143.966 211.737C143.476 211.071 142.966 210.396 142.468 209.726C141.209 208.506 139.912 207.269 138.633 206.039C139.081 206.69 139.501 207.328 139.943 207.976ZM132.124 200.696C133.766 202.21 135.361 203.702 136.976 205.203C136.437 204.425 135.868 203.635 135.318 202.853C133.765 201.369 132.219 199.89 130.634 198.392C131.135 199.162 131.634 199.931 132.124 200.696ZM124.241 193.486C125.988 195.082 127.739 196.679 129.466 198.265C128.929 197.441 128.419 196.627 127.87 195.798C126.141 194.17 124.394 192.532 122.648 190.897C123.17 191.756 123.731 192.631 124.241 193.486ZM115.937 185.968C117.903 187.732 119.854 189.489 121.774 191.229C121.225 190.324 120.657 189.411 120.095 188.5C118.275 186.809 116.402 185.094 114.531 183.379C115.019 184.249 115.462 185.103 115.937 185.968ZM107.496 178.407C109.633 180.315 111.743 182.21 113.859 184.108C113.341 183.178 112.806 182.242 112.272 181.308C110.206 179.413 108.179 177.536 106.083 175.628C106.559 176.556 107.034 177.484 107.496 178.407ZM98.8634 170.797C101.109 172.763 103.367 174.735 105.553 176.672C105.078 175.736 104.613 174.804 104.125 173.862C101.986 171.926 99.7907 169.964 97.6007 168.002C98.0283 168.937 98.4482 169.868 98.8634 170.797ZM89.9507 162.988C92.3899 165.109 94.7586 167.197 97.1583 169.3C96.7189 168.329 96.2328 167.342 95.778 166.365C93.479 164.31 91.1807 162.256 88.8366 160.179C89.2145 161.117 89.586 162.054 89.9507 162.988ZM80.8592 155.152C83.3821 157.319 85.8964 159.481 88.3658 161.623C87.9892 160.671 87.6257 159.724 87.2343 158.768C84.8167 156.632 82.3788 154.486 79.9184 152.33C80.2428 153.273 80.548 154.212 80.8592 155.152ZM71.5466 147.188C74.2036 149.446 76.8257 151.687 79.4288 153.919C79.1023 152.951 78.7529 151.977 78.4128 151.006C75.8976 148.808 73.3302 146.586 70.7496 144.358C71.0133 145.301 71.2952 146.248 71.5466 147.188ZM61.9758 139.087C64.7478 141.422 67.4761 143.737 70.2032 146.051C69.9433 145.1 69.6703 144.146 69.3978 143.192C66.7276 140.886 64.0952 138.599 61.3873 136.276C61.5869 137.214 61.7877 138.152 61.9758 139.087ZM-41.4831 607.402C-40.6373 607.117 -39.789 606.834 -38.9356 606.553C-38.9653 605.621 -38.9874 604.691 -39.0078 603.762C-39.8136 604.071 -40.6191 604.381 -41.4181 604.693C-41.4453 605.595 -41.4682 606.497 -41.4831 607.402ZM-44.9688 608.596C-44.1439 608.31 -43.3253 608.021 -42.4927 607.738C-42.4791 606.856 -42.46 605.974 -42.4358 605.093C-43.2187 605.401 -44.0059 605.707 -44.7799 606.018C-44.8478 606.876 -44.9111 607.736 -44.9688 608.596ZM-48.4028 609.805C-47.6059 609.52 -46.8068 609.235 -46.0006 608.953C-45.9454 608.116 -45.8898 607.279 -45.8257 606.444C-46.5869 606.753 -47.3477 607.061 -48.0997 607.372C-48.2084 608.181 -48.3026 608.994 -48.4028 609.805ZM-51.7901 611.029C-51.022 610.746 -50.2399 610.467 -49.4625 610.187C-49.3683 609.395 -49.2706 608.603 -49.1687 607.814C-49.9024 608.12 -50.6264 608.43 -51.3515 608.74C-51.5023 609.502 -51.6508 610.264 -51.7901 611.029ZM-55.1065 612.276C-54.3707 611.996 -53.6293 611.718 -52.8859 611.441C-52.753 610.695 -52.6049 609.952 -52.4597 609.21C-53.1674 609.515 -53.8667 609.824 -54.566 610.132C-54.7524 610.845 -54.9303 611.56 -55.1065 612.276ZM-58.3621 613.539C-57.6522 613.26 -56.9487 612.98 -56.2307 612.703C-56.0664 612.016 -55.9025 611.329 -55.7276 610.645C-56.3972 610.943 -57.0659 611.24 -57.727 611.541C-57.9431 612.206 -58.1541 612.872 -58.3621 613.539ZM-61.5541 614.816C-60.8854 614.545 -60.2175 614.272 -59.5416 614.003C-59.3459 613.367 -59.1417 612.733 -58.937 612.1C-59.5662 612.389 -60.1989 612.677 -60.8209 612.969C-61.0697 613.584 -61.3167 614.199 -61.5541 614.816ZM-64.6599 616.095C-64.0425 615.835 -63.4129 615.58 -62.7888 615.323C-62.5693 614.745 -62.3502 614.166 -62.1222 613.59C-62.7132 613.872 -63.2991 614.156 -63.8842 614.441C-64.1474 614.991 -64.4026 615.543 -64.6599 616.095ZM-67.7045 617.406C-67.1369 617.159 -66.5628 616.913 -65.9892 616.668C-65.7519 616.147 -65.5031 615.629 -65.259 615.11C-65.8007 615.379 -66.3301 615.652 -66.8655 615.923C-67.1492 616.417 -67.4303 616.91 -67.7045 617.406ZM-70.6375 618.714C-70.1289 618.484 -69.6266 618.253 -69.1133 618.025C-68.8742 617.583 -68.642 617.137 -68.397 616.698C-68.8683 616.941 -69.334 617.187 -69.8015 617.432C-70.0834 617.858 -70.3607 618.285 -70.6375 618.714ZM-73.4681 620.015C-73.0457 619.817 -72.6266 619.618 -72.202 619.422C-71.9711 619.055 -71.7269 618.693 -71.4896 618.33C-71.8789 618.538 -72.2755 618.743 -72.6602 618.953C-72.9319 619.306 -73.2019 619.66 -73.4681 620.015ZM-76.1345 621.284C-75.8284 621.135 -75.5117 620.989 -75.203 620.84C-75.0094 620.578 -74.8196 620.314 -74.6239 620.053C-74.9049 620.21 -75.1903 620.366 -75.4684 620.524C-75.6917 620.778 -75.9146 621.03 -76.1345 621.284ZM-78.6357 622.53L-78.175 622.299C-78.0655 622.169 -77.9606 622.037 -77.8498 621.907L-78.2646 622.152C-78.3915 622.277 -78.5092 622.404 -78.6357 622.53ZM166.625 234.838C167.204 235.392 167.796 235.952 168.375 236.507C168.182 236.272 167.996 236.042 167.8 235.807C167.2 235.214 166.577 234.609 165.97 234.013C166.183 234.285 166.414 234.566 166.625 234.838ZM158.967 227.567C159.994 228.53 160.998 229.479 162.006 230.432C161.638 229.969 161.266 229.503 160.895 229.039C159.882 228.051 158.918 227.088 157.89 226.093C158.26 226.59 158.601 227.073 158.967 227.567ZM151.3 220.419C152.673 221.701 154.058 222.989 155.429 224.269C154.929 223.605 154.382 222.919 153.874 222.252C152.574 221.004 151.249 219.744 149.942 218.492C150.4 219.137 150.848 219.778 151.3 220.419ZM143.492 213.221C145.04 214.633 146.594 216.047 148.102 217.439C147.582 216.712 147.103 216.003 146.575 215.272C145.048 213.827 143.487 212.365 141.92 210.899C142.439 211.671 142.982 212.453 143.492 213.221ZM135.382 205.822C137.153 207.431 138.89 209.023 140.646 210.625C140.087 209.795 139.529 208.966 138.958 208.132C137.251 206.536 135.563 204.951 133.839 203.348C134.362 204.176 134.87 204.999 135.382 205.822ZM127.055 198.355C129.02 200.107 130.993 201.862 132.912 203.591C132.342 202.688 131.726 201.766 131.144 200.858C129.312 199.169 127.427 197.455 125.55 195.745C126.065 196.62 126.554 197.485 127.055 198.355ZM118.551 190.778C120.676 192.658 122.748 194.511 124.837 196.373C124.305 195.464 123.812 194.571 123.267 193.657C121.203 191.779 119.148 189.904 117.044 188.006C117.543 188.93 118.064 189.86 118.551 190.778ZM109.794 183.101C112.049 185.073 114.299 187.041 116.515 188.994C116.007 188.048 115.491 187.099 114.968 186.147C112.823 184.218 110.654 182.278 108.474 180.333C108.931 181.262 109.351 182.178 109.794 183.101ZM100.828 175.313C103.241 177.394 105.635 179.467 107.993 181.522C107.52 180.55 107.017 179.567 106.527 178.59C104.251 176.568 101.927 174.523 99.592 172.473C100.01 173.421 100.425 174.369 100.828 175.313ZM91.6363 167.399C94.1646 169.567 96.6561 171.717 99.1526 173.87C98.7352 172.908 98.328 171.95 97.8958 170.983C95.4553 168.841 93.048 166.713 90.5727 164.554C90.9387 165.506 91.2843 166.451 91.6363 167.399ZM82.2446 159.432C84.8902 161.662 87.5497 163.901 90.1239 166.098C89.7588 165.128 89.3631 164.15 88.9827 163.176C86.473 160.997 83.8941 158.784 81.319 156.574C81.629 157.527 81.9487 158.482 82.2446 159.432ZM72.5868 151.283C75.3682 153.616 78.0829 155.917 80.8236 158.229C80.517 157.268 80.2071 156.306 79.8878 155.341C77.2321 153.062 74.5827 150.785 71.8786 148.482C72.1236 149.418 72.3532 150.35 72.5868 151.283ZM62.74 143.092C65.6178 145.477 68.4811 147.854 71.2944 150.208C71.0528 149.265 70.829 148.326 70.5777 147.381C67.8222 145.039 65.0395 142.684 62.2284 140.315C62.4105 141.243 62.5684 142.166 62.74 143.092ZM-41.5179 610.85C-40.6127 610.587 -39.7105 610.323 -38.7985 610.062C-38.8413 609.116 -38.877 608.172 -38.9093 607.228C-39.7737 607.514 -40.6377 607.799 -41.4907 608.088C-41.5038 609.008 -41.5158 609.928 -41.5179 610.85ZM-45.1782 611.932C-44.2989 611.668 -43.4128 611.405 -42.5263 611.145C-42.5246 610.24 -42.5126 609.337 -42.4991 608.434C-43.3423 608.723 -44.1783 609.014 -45.0143 609.305C-45.0733 610.179 -45.1327 611.054 -45.1782 611.932ZM-48.7722 613.024C-47.9226 612.76 -47.0574 612.503 -46.1993 612.242C-46.1564 611.38 -46.1021 610.521 -46.0464 609.662C-46.8705 609.952 -47.6802 610.248 -48.495 610.541C-48.5935 611.367 -48.6847 612.195 -48.7722 613.024ZM-52.3183 614.148C-51.4878 613.882 -50.6543 613.617 -49.8162 613.354C-49.7338 612.543 -49.6502 611.732 -49.5551 610.923C-50.3503 611.212 -51.1409 611.503 -51.9289 611.796C-52.064 612.578 -52.1913 613.363 -52.3183 614.148ZM-55.8193 615.292C-55.0101 615.024 -54.2076 614.753 -53.3899 614.488C-53.268 613.725 -53.1403 612.964 -53.0125 612.203C-53.7733 612.489 -54.5405 612.773 -55.2933 613.063C-55.4733 613.805 -55.6537 614.546 -55.8193 615.292ZM-59.2317 616.441C-58.4644 616.177 -57.6926 615.916 -56.9168 615.656C-56.7593 614.937 -56.5917 614.22 -56.4222 613.505C-57.161 613.792 -57.8955 614.08 -58.6258 614.37C-58.8347 615.058 -59.0317 615.75 -59.2317 616.441ZM-62.5973 617.61C-61.8649 617.349 -61.1155 617.095 -60.375 616.838C-60.184 616.171 -59.998 615.502 -59.7997 614.837C-60.5007 615.12 -61.189 615.406 -61.8806 615.691C-62.1222 616.33 -62.3671 616.968 -62.5973 617.61ZM-65.8775 618.805C-65.1884 618.551 -64.4939 618.298 -63.7954 618.046C-63.5764 617.428 -63.3445 616.812 -63.1144 616.198C-63.7823 616.477 -64.4433 616.761 -65.1044 617.043C-65.3702 617.628 -65.6224 618.217 -65.8775 618.805ZM-69.1056 620.02C-68.4488 619.768 -67.7983 619.514 -67.133 619.265C-66.8965 618.712 -66.6618 618.158 -66.4176 617.608C-67.0256 617.872 -67.6366 618.136 -68.239 618.403C-68.5299 618.941 -68.825 619.478 -69.1056 620.02ZM-72.2148 621.23C-71.6246 620.995 -71.0336 620.762 -70.4375 620.53C-70.1845 620.033 -69.9238 619.539 -69.6597 619.045C-70.224 619.299 -70.7937 619.552 -71.3516 619.809C-71.6467 620.28 -71.9252 620.756 -72.2148 621.23ZM-75.259 622.457C-74.7334 622.24 -74.1942 622.029 -73.6634 621.814C-73.4074 621.385 -73.1451 620.957 -72.8839 620.529C-73.3777 620.762 -73.8702 620.996 -74.3589 621.231C-74.6595 621.64 -74.9673 622.045 -75.259 622.457ZM-78.1551 623.685C-77.7165 623.497 -77.2757 623.309 -76.8325 623.123C-76.5896 622.773 -76.3548 622.423 -76.1073 622.075C-76.5234 622.28 -76.9302 622.488 -77.342 622.694C-77.6171 623.023 -77.8855 623.354 -78.1551 623.685ZM-80.9437 624.905C-80.61 624.756 -80.2826 624.605 -79.9464 624.457C-79.7375 624.196 -79.5197 623.939 -79.3074 623.68C-79.6228 623.842 -79.9273 624.009 -80.2385 624.172C-80.4737 624.416 -80.7123 624.659 -80.9437 624.905ZM-83.4342 626.025C-83.2793 625.953 -83.1179 625.884 -82.9613 625.812L-82.6097 625.427C-82.746 625.501 -82.8887 625.574 -83.0245 625.648L-83.4342 626.025ZM178.25 247.303L180.017 248.985L179.508 248.382C178.931 247.816 178.339 247.243 177.761 246.676C177.929 246.888 178.083 247.093 178.25 247.303ZM170.657 240.171C171.682 241.123 172.72 242.083 173.724 243.026C173.336 242.545 172.92 242.051 172.528 241.568C171.553 240.626 170.56 239.675 169.561 238.721C169.932 239.207 170.29 239.687 170.657 240.171ZM162.911 232.962C164.269 234.215 165.573 235.442 166.916 236.689C166.462 236.098 166.048 235.528 165.588 234.935C164.23 233.642 162.885 232.352 161.517 231.054C161.98 231.689 162.455 232.33 162.911 232.962ZM155.1 225.834C156.597 227.198 158.107 228.566 159.583 229.918C159.037 229.174 158.506 228.437 157.952 227.689C156.493 226.319 154.988 224.925 153.498 223.539C154.025 224.301 154.582 225.076 155.1 225.834ZM146.796 218.307C148.581 219.911 150.33 221.496 152.081 223.083C151.503 222.25 150.896 221.404 150.306 220.565C148.626 219.007 146.966 217.458 145.257 215.886C145.786 216.7 146.274 217.496 146.796 218.307ZM138.419 210.826C140.383 212.576 142.344 214.325 144.284 216.064C143.704 215.176 143.106 214.279 142.513 213.385C140.633 211.663 138.726 209.929 136.821 208.195C137.359 209.074 137.893 209.952 138.419 210.826ZM129.9 203.304C131.971 205.118 134.041 206.931 136.059 208.719C135.503 207.806 134.969 206.904 134.399 205.986C132.398 204.176 130.35 202.343 128.295 200.507C128.822 201.436 129.387 202.38 129.9 203.304ZM120.974 195.483C123.26 197.474 125.487 199.437 127.743 201.414C127.204 200.458 126.634 199.49 126.08 198.528C123.911 196.591 121.775 194.67 119.577 192.718C120.061 193.647 120.504 194.56 120.974 195.483ZM111.977 187.733C114.364 189.781 116.758 191.832 119.087 193.851C118.591 192.89 118.097 191.93 117.586 190.964C115.305 188.949 112.962 186.904 110.624 184.863C111.076 185.82 111.54 186.781 111.977 187.733ZM102.693 179.781C105.227 181.938 107.714 184.071 110.201 186.204C109.747 185.233 109.293 184.261 108.824 183.285C106.415 181.181 103.999 179.074 101.54 176.946C101.939 177.896 102.307 178.836 102.693 179.781ZM93.2259 171.774C95.8778 174.009 98.511 176.235 101.115 178.447C100.711 177.47 100.284 176.486 99.8646 175.504C97.3235 173.31 94.7625 171.106 92.178 168.89C92.5292 169.852 92.8887 170.816 93.2259 171.774ZM83.5078 163.636C86.2705 165.938 89.0251 168.235 91.725 170.505C91.3781 169.535 91.0278 168.564 90.6661 167.588C88.0473 165.351 85.3657 163.083 82.6815 160.813C82.9711 161.758 83.2292 162.695 83.5078 163.636ZM73.5892 155.384C76.4767 157.774 79.3015 160.134 82.1474 162.504C81.8596 161.545 81.5764 160.587 81.2741 159.624C78.4884 157.268 75.7393 154.929 72.9069 152.551C73.1396 153.497 73.3684 154.442 73.5892 155.384ZM63.4584 147.078C66.4419 149.514 69.4347 151.955 72.3384 154.351C72.1104 153.396 71.8531 152.434 71.614 151.476C68.7775 149.1 65.8691 146.69 62.9586 144.278C63.1276 145.212 63.2991 146.146 63.4584 147.078ZM-41.4932 614.309C-40.5379 614.07 -39.5737 613.835 -38.6095 613.599C-38.6651 612.638 -38.725 611.676 -38.7734 610.716C-39.6969 610.98 -40.6089 611.25 -41.5243 611.517C-41.5213 612.447 -41.5038 613.379 -41.4932 614.309ZM-45.3183 615.279C-44.385 615.039 -43.4395 614.802 -42.4965 614.564C-42.5076 613.646 -42.5224 612.727 -42.5263 611.81C-43.4259 612.076 -44.3167 612.345 -45.2066 612.614C-45.2474 613.502 -45.2864 614.39 -45.3183 615.279ZM-49.0932 616.276C-48.1786 616.031 -47.2611 615.787 -46.3368 615.546C-46.3071 614.67 -46.268 613.797 -46.2269 612.925C-47.1023 613.191 -47.9765 613.459 -48.8423 613.729C-48.931 614.577 -49.018 615.425 -49.0932 616.276ZM-52.7946 617.284C-51.9064 617.038 -51.0216 616.792 -50.1249 616.549C-50.0532 615.717 -49.9712 614.888 -49.8876 614.059C-50.7397 614.328 -51.5952 614.596 -52.4371 614.868C-52.5641 615.671 -52.6791 616.478 -52.7946 617.284ZM-56.4528 618.313C-55.5905 618.065 -54.7218 617.821 -53.8493 617.577C-53.7385 616.791 -53.6319 616.003 -53.5109 615.22C-54.3371 615.49 -55.1583 615.762 -55.976 616.036C-56.1386 616.794 -56.2999 617.552 -56.4528 618.313ZM-60.0401 619.357C-59.2138 619.111 -58.3748 618.871 -57.5384 618.629C-57.3907 617.883 -57.2319 617.141 -57.0718 616.399C-57.8747 616.67 -58.6623 616.948 -59.455 617.222C-59.6558 617.932 -59.852 618.643 -60.0401 619.357ZM-63.5644 620.432C-62.765 620.184 -61.9621 619.938 -61.1533 619.694C-60.9724 619.001 -60.7916 618.309 -60.5997 617.619C-61.3652 617.888 -62.1277 618.158 -62.886 618.431C-63.1174 619.096 -63.342 619.763 -63.5644 620.432ZM-67.026 621.524C-66.2597 621.278 -65.5005 621.029 -64.7248 620.786C-64.5142 620.144 -64.2926 619.503 -64.0723 618.863C-64.7974 619.127 -65.5302 619.389 -66.2465 619.656C-66.5119 620.277 -66.7726 620.9 -67.026 621.524ZM-70.4061 622.627C-69.6856 622.387 -68.9591 622.149 -68.2318 621.912C-67.9953 621.32 -67.7588 620.728 -67.5113 620.14C-68.1987 620.401 -68.8831 620.66 -69.5612 620.924C-69.8456 621.491 -70.1288 622.058 -70.4061 622.627ZM-73.7046 623.747C-73.0419 623.516 -72.3638 623.292 -71.6926 623.064C-71.4327 622.52 -71.1597 621.981 -70.8889 621.442C-71.5363 621.697 -72.1723 621.957 -72.813 622.216C-73.1162 622.724 -73.4113 623.235 -73.7046 623.747ZM-76.9276 624.897C-76.3094 624.673 -75.6891 624.45 -75.0633 624.229C-74.7949 623.752 -74.5351 623.272 -74.2579 622.798C-74.8433 623.038 -75.4144 623.285 -75.9914 623.528C-76.3047 623.984 -76.621 624.438 -76.9276 624.897ZM-80.0351 626.046C-79.4887 625.84 -78.9503 625.63 -78.3971 625.426C-78.1279 625.013 -77.8464 624.605 -77.5662 624.196C-78.0897 624.421 -78.614 624.646 -79.1324 624.874C-79.4415 625.262 -79.7336 625.656 -80.0351 626.046ZM-83.0419 627.197C-82.58 627.016 -82.1125 626.836 -81.6455 626.656C-81.3933 626.323 -81.1381 625.991 -80.8834 625.659C-81.3071 625.851 -81.738 626.038 -82.1575 626.231C-82.4509 626.554 -82.7536 626.873 -83.0419 627.197ZM-85.8505 628.325C-85.5177 628.189 -85.1784 628.056 -84.843 627.92C-84.6383 627.684 -84.4431 627.444 -84.2342 627.209C-84.545 627.356 -84.8562 627.502 -85.1631 627.65C-85.3962 627.874 -85.6208 628.101 -85.8505 628.325ZM-88.5198 629.444L-87.9874 629.217C-87.8673 629.095 -87.7394 628.976 -87.6167 628.854L-88.1025 629.098C-88.2392 629.214 -88.3827 629.328 -88.5198 629.444ZM190.083 259.838C190.746 260.459 191.369 261.06 192.023 261.676L191.684 261.281L189.662 259.312L190.083 259.838ZM182.591 252.871C183.613 253.823 184.652 254.784 185.673 255.736C185.313 255.298 184.97 254.867 184.606 254.428C183.59 253.453 182.537 252.46 181.504 251.477C181.865 251.941 182.234 252.408 182.591 252.871ZM174.872 245.746C176.106 246.87 177.334 247.992 178.539 249.101C178.084 248.523 177.65 247.955 177.19 247.374C175.91 246.162 174.662 244.967 173.36 243.745C173.852 244.407 174.386 245.087 174.872 245.746ZM166.749 238.349C168.278 239.738 169.799 241.124 171.319 242.51C170.763 241.769 170.194 241.021 169.628 240.276C168.197 238.94 166.743 237.593 165.305 236.254C165.806 236.961 166.255 237.645 166.749 238.349ZM158.475 230.919C160.253 232.503 162.045 234.092 163.776 235.652C163.175 234.808 162.515 233.938 161.903 233.09C160.254 231.571 158.556 230.029 156.861 228.487C157.409 229.303 157.938 230.109 158.475 230.919ZM150.025 223.384C151.98 225.114 153.871 226.812 155.798 228.529C155.221 227.673 154.69 226.835 154.101 225.974C152.175 224.221 150.284 222.486 148.332 220.721C148.893 221.607 149.477 222.503 150.025 223.384ZM141.379 215.808C143.458 217.625 145.539 219.443 147.579 221.24C146.995 220.317 146.409 219.393 145.812 218.464C143.837 216.689 141.814 214.89 139.796 213.094C140.334 214.003 140.855 214.905 141.379 215.808ZM132.437 208.031C134.721 210.003 136.977 211.962 139.213 213.91C138.645 212.947 138.021 211.96 137.439 210.99C135.291 209.083 133.132 207.17 130.939 205.24C131.452 206.176 131.939 207.101 132.437 208.031ZM123.371 200.229C125.746 202.267 128.104 204.297 130.449 206.32C129.931 205.367 129.452 204.43 128.92 203.471C126.597 201.432 124.261 199.386 121.906 197.33C122.391 198.294 122.902 199.27 123.371 200.229ZM114.005 192.269C116.519 194.392 119.044 196.522 121.494 198.613C121.008 197.635 120.505 196.649 120.003 195.664C117.639 193.611 115.202 191.521 112.775 189.436C113.205 190.388 113.589 191.322 114.005 192.269ZM104.461 184.206C107.126 186.443 109.72 188.645 112.34 190.861C111.903 189.883 111.46 188.901 111.007 187.916C108.445 185.714 105.907 183.525 103.301 181.301C103.688 182.27 104.089 183.242 104.461 184.206ZM94.6873 176.07C97.4445 178.357 100.202 180.645 102.897 182.903C102.511 181.926 102.122 180.948 101.723 179.967C99.1037 177.74 96.4285 175.484 93.7503 173.228C94.0806 174.18 94.371 175.121 94.6873 176.07ZM84.7305 167.835C87.6019 170.198 90.4462 172.547 93.2594 174.881C92.9308 173.91 92.5983 172.938 92.2549 171.963C89.4993 169.642 86.7095 167.306 83.8937 164.956C84.1705 165.914 84.4669 166.879 84.7305 167.835ZM74.5024 159.452C77.4898 161.891 80.4478 164.316 83.3829 166.73C83.1116 165.765 82.8182 164.793 82.5325 163.824C79.6624 161.431 76.7828 159.033 73.8656 156.617C74.0813 157.562 74.2978 158.508 74.5024 159.452ZM64.0851 151.008C67.1645 153.492 70.2524 155.982 73.2546 158.428C73.0436 157.478 72.8356 156.528 72.6131 155.574C69.6805 153.152 66.655 150.682 63.6409 148.219C63.7934 149.149 63.9424 150.079 64.0851 151.008ZM73.5246 159.638C70.4872 157.159 67.3738 154.644 64.2651 152.13C77.1395 238.165 45.7917 316.835 14.4817 395.414C-4.5313 443.131 -23.5264 490.815 -32.5903 540.092C-21.311 497.734 -1.94051 456.839 17.5463 415.707C55.5578 335.469 93.9867 254.32 73.5246 159.638ZM83.7514 168.016C80.7938 165.582 77.7908 163.125 74.7746 160.661C94.7366 254.968 56.407 335.864 18.5105 415.859C-2.03604 459.23 -22.448 502.336 -33.3741 547.169C-20.4491 508.228 0.37471 470.871 21.4049 433.157C66.2759 352.694 112.06 270.605 83.7514 168.016ZM165.732 238.466C163.891 236.801 162.034 235.128 160.15 233.441C265.834 395.239 153.846 462.226 48.616 525.124C18.2749 543.259 -11.4922 561.058 -35.2936 580.7M-41.4266 617.791C-40.4182 617.577 -39.4018 617.366 -38.3832 617.155C-38.4533 616.18 -38.5136 615.205 -38.5726 614.231C-39.5483 614.471 -40.5205 614.712 -41.486 614.955C-41.472 615.899 -41.4525 616.845 -41.4266 617.791ZM-45.4083 618.655C-44.4156 618.437 -43.4272 618.217 -42.4256 618.003C-42.4524 617.071 -42.474 616.139 -42.4889 615.209C-43.4433 615.451 -44.4007 615.691 -45.345 615.938C-45.3739 616.842 -45.39 617.749 -45.4083 618.655ZM-49.3424 619.537C-48.3706 619.315 -47.4004 619.094 -46.4188 618.876C-46.4031 617.986 -46.3908 617.095 -46.3649 616.208C-47.2947 616.452 -48.2245 616.696 -49.1437 616.944C-49.2142 617.807 -49.2821 618.671 -49.3424 619.537ZM-53.2167 620.435C-52.275 620.212 -51.3235 619.992 -50.3703 619.773C-50.3121 618.921 -50.2442 618.07 -50.1759 617.221C-51.0878 617.469 -51.9875 617.722 -52.8906 617.974C-53.0053 618.793 -53.116 619.612 -53.2167 620.435ZM-57.0264 621.354C-56.1119 621.129 -55.1846 620.908 -54.2582 620.687C-54.1609 619.878 -54.056 619.071 -53.9452 618.266C-54.8368 618.517 -55.72 618.773 -56.6027 619.028C-56.7517 619.801 -56.8867 620.578 -57.0264 621.354ZM-60.7941 622.305C-59.8961 622.075 -58.9998 621.845 -58.0921 621.619C-57.9575 620.859 -57.8255 620.099 -57.6811 619.341C-58.5332 619.59 -59.3866 619.84 -60.2286 620.093C-60.4222 620.829 -60.6154 621.565 -60.7941 622.305ZM-64.4663 623.266C-63.6056 623.037 -62.7501 622.807 -61.881 622.581C-61.7099 621.863 -61.5265 621.149 -61.3427 620.434C-62.1714 620.686 -63.0036 620.935 -63.8226 621.191C-64.0451 621.88 -64.2548 622.573 -64.4663 623.266ZM-68.1049 624.253C-67.2744 624.023 -66.4355 623.796 -65.5952 623.568C-65.3923 622.898 -65.194 622.227 -64.9809 621.559C-65.7727 621.81 -66.5577 622.063 -67.3398 622.317C-67.5988 622.961 -67.8612 623.604 -68.1049 624.253ZM-71.6335 625.252C-70.854 625.026 -70.0584 624.805 -69.2704 624.583C-69.0373 623.954 -68.7923 623.329 -68.5443 622.704C-69.3132 622.958 -70.0656 623.218 -70.8252 623.476C-71.1041 624.064 -71.3648 624.659 -71.6335 625.252ZM-75.124 626.29C-74.3725 626.063 -73.6218 625.837 -72.8623 625.613C-72.6071 625.042 -72.349 624.471 -72.0857 623.902C-72.7982 624.147 -73.5055 624.394 -74.2099 624.642C-74.5177 625.19 -74.8268 625.738 -75.124 626.29ZM-78.4998 627.334C-77.8009 627.114 -77.1089 626.89 -76.402 626.673C-76.129 626.156 -75.8526 625.641 -75.5694 625.129C-76.2304 625.366 -76.8996 625.6 -77.5534 625.841C-77.8748 626.337 -78.1873 626.836 -78.4998 627.334ZM-81.8009 628.394C-81.1678 628.185 -80.5267 627.98 -79.8865 627.774C-79.6024 627.311 -79.3044 626.853 -79.011 626.393C-79.6182 626.621 -80.2274 626.849 -80.8282 627.08C-81.1581 627.516 -81.4808 627.955 -81.8009 628.394ZM-84.992 629.468C-84.4303 629.275 -83.8554 629.085 -83.2878 628.894C-83.0067 628.501 -82.735 628.104 -82.4467 627.712C-82.9812 627.922 -83.5064 628.135 -84.0346 628.348C-84.3543 628.721 -84.6782 629.093 -84.992 629.468ZM-88.0562 630.553C-87.5887 630.385 -87.1208 630.216 -86.6479 630.049C-86.3787 629.72 -86.1001 629.394 -85.8216 629.067C-86.2899 629.261 -86.7417 629.46 -87.2045 629.655C-87.4962 629.952 -87.77 630.255 -88.0562 630.553ZM-90.9858 631.629C-90.6198 631.491 -90.2631 631.349 -89.8942 631.213C-89.6772 630.981 -89.4552 630.751 -89.2378 630.521C-89.5685 630.665 -89.8972 630.811 -90.2275 630.957C-90.4771 631.182 -90.7383 631.403 -90.9858 631.629ZM-93.6181 632.633C-93.4496 632.566 -93.2747 632.503 -93.1061 632.438C-92.9864 632.326 -92.8713 632.212 -92.7516 632.1C-92.9044 632.171 -93.0632 632.239 -93.2156 632.31L-93.6181 632.633ZM53.1866 139.679C53.2766 140.597 53.3747 141.515 53.4558 142.432C56.6647 145.003 59.7747 147.527 62.92 150.067C62.7735 149.133 62.6322 148.2 62.4729 147.264C59.3871 144.74 56.3306 142.231 53.1866 139.679ZM52.7939 135.873C52.8953 136.787 52.9896 137.7 53.0821 138.612C56.1909 141.134 59.2245 143.618 62.2814 146.114C62.1176 145.171 61.9329 144.225 61.7596 143.281C58.7884 140.82 55.8177 138.359 52.7939 135.873ZM52.337 132.034C52.4525 132.948 52.5569 133.86 52.6614 134.773C55.6487 137.227 58.6072 139.667 61.5401 142.094C61.3631 141.155 61.1865 140.216 60.998 139.275C58.1495 136.88 55.2428 134.456 52.337 132.034ZM51.816 128.157C51.9455 129.078 52.0831 129.999 52.2032 130.918C55.0581 133.297 57.9418 135.689 60.7402 138.041C60.5483 137.101 60.3539 136.162 60.1501 135.22C57.4247 132.891 54.6012 130.515 51.816 128.157ZM51.2496 124.254C51.391 125.171 51.5231 126.087 51.6547 127.003C54.414 129.337 57.1916 131.678 59.8902 133.985C59.6835 133.047 59.4508 132.104 59.233 131.165C56.5997 128.874 53.9449 126.574 51.2496 124.254ZM50.6204 120.356C50.772 121.254 50.9125 122.151 51.0552 123.049C53.7211 125.341 56.3204 127.601 58.9277 129.866C58.7052 128.929 58.4904 127.992 58.2569 127.052C55.7697 124.847 53.1679 122.589 50.6204 120.356ZM49.9127 116.385C50.0817 117.3 50.2587 118.216 50.4179 119.13C52.8961 121.3 55.4691 123.513 57.8939 125.658C57.6595 124.74 57.4192 123.821 57.1742 122.902C54.7948 120.748 52.3506 118.566 49.9127 116.385ZM49.1552 112.396C49.3365 113.303 49.5089 114.21 49.68 115.116C52.0567 117.238 54.4828 119.383 56.8031 121.479C56.5535 120.56 56.2826 119.638 56.0215 118.716C53.7576 116.621 51.476 114.517 49.1552 112.396ZM48.3256 108.371C48.5201 109.272 48.7001 110.173 48.8835 111.073C51.1354 113.128 53.3933 115.186 55.5926 117.217C55.3311 116.315 55.0836 115.415 54.8127 114.512C52.6584 112.469 50.5334 110.438 48.3256 108.371ZM47.4094 104.299C47.6178 105.201 47.831 106.102 48.0288 107.002C50.153 108.987 52.2414 110.955 54.3129 112.918C54.0374 112.017 53.753 111.116 53.4664 110.213C51.4416 108.239 49.483 106.294 47.4094 104.299ZM46.4502 100.263C46.6655 101.135 46.8791 102.007 47.0846 102.879C49.0801 104.794 51.0051 106.679 52.9531 108.574C52.6618 107.679 52.348 106.779 52.0479 105.883C50.1823 104.01 48.3566 102.153 46.4502 100.263ZM45.4295 96.2145C45.649 97.0464 45.8486 97.8773 46.0588 98.7084C47.9027 100.533 49.6452 102.315 51.4479 104.121C51.1512 103.259 50.8696 102.398 50.5639 101.534C48.8661 99.7662 47.1656 97.9979 45.4295 96.2145ZM44.3044 92.1069C44.5324 92.9238 44.76 93.7407 44.9786 94.5572C46.6396 96.2559 48.2266 97.9241 49.857 99.6112C49.5505 98.7625 49.2388 97.9136 48.9212 97.0637C47.4072 95.4209 45.8541 93.7637 44.3044 92.1069ZM43.1224 88.0008C43.3568 88.7894 43.5979 89.5787 43.8242 90.3669C45.2954 91.9312 46.7288 93.4811 48.1732 95.035C47.8577 94.2079 47.5155 93.3763 47.1915 92.5479C45.8681 91.044 44.4794 89.5166 43.1224 88.0008ZM41.892 83.9139C42.12 84.6442 42.3314 85.3727 42.5535 86.1019C43.8128 87.5023 45.0652 88.8995 46.3008 90.2903C46.0019 89.5446 45.7076 88.7994 45.4011 88.0523C44.2564 86.6816 43.0634 85.2935 41.892 83.9139ZM40.5507 79.78C40.7732 80.4527 40.9885 81.1257 41.2054 81.7982C42.2308 82.9982 43.2735 84.2044 44.2811 85.3978C44.0127 84.763 43.7487 84.1288 43.4757 83.4929C42.5055 82.2567 41.5417 81.0232 40.5507 79.78ZM39.1951 75.7856C39.3887 76.3426 39.5891 76.9 39.7784 77.4568C40.5384 78.402 41.3302 79.3575 42.0775 80.2985C41.8669 79.8208 41.647 79.3419 41.4322 78.8638C40.6849 77.8369 39.9568 76.8165 39.1951 75.7856ZM37.9184 72.1403C38.0271 72.4362 38.1264 72.7321 38.2321 73.0278C38.6877 73.637 39.164 74.2529 39.6137 74.8596C39.5088 74.6357 39.3959 74.4108 39.291 74.1865L37.9184 72.1403ZM-33.6309 613.042C-33.5273 614.07 -33.4199 615.098 -33.3044 616.128C-0.133911 609.552 37.6335 604.716 76.1286 599.791C151.029 590.209 228.664 580.276 280.192 556.454C355.732 521.53 375.225 456.655 248.122 319.124C363.774 451.048 338.81 513.835 262.177 548.995C212.828 571.636 142.092 582.795 73.6852 593.586C35.8498 599.555 -1.26543 605.414 -33.6309 613.042ZM-33.9952 609.373C-33.9014 610.388 -33.7944 611.405 -33.6921 612.422C-1.34824 604.829 35.6783 598.983 73.4227 593.029C141.728 582.254 212.362 571.111 261.553 548.542C340.405 512.365 364.198 446.728 235.259 306.003C352.886 441.529 323.014 505.166 242.664 541.729C196.088 562.923 132.581 574.997 71.0107 586.701C33.9205 593.752 -2.46318 600.671 -33.9952 609.373ZM-34.2941 605.724C-34.2169 606.726 -34.1366 607.728 -34.0483 608.731C-2.55234 600.077 33.7235 593.181 70.6965 586.152C132.186 574.462 195.608 562.405 242.045 541.274C324.731 503.648 353.636 437.158 222.189 292.527C342.528 432.502 306.686 497.089 221.97 535.297C178.709 554.808 122.737 567.421 68.3142 579.684C31.9921 587.869 -3.62694 595.901 -34.2941 605.724ZM-34.5603 602.09C-34.4937 603.081 -34.4245 604.072 -34.348 605.064C-3.72626 595.301 31.7658 587.299 67.9504 579.145C122.309 566.896 178.216 554.298 221.355 534.842C308.082 495.727 343.354 428.82 211.026 281.017L210.346 280.355C332.604 424.733 289.193 489.982 199.601 529.999C160.416 547.502 112.417 560.166 65.5948 572.52C30.0641 581.895 -4.78049 591.092 -34.5603 602.09ZM-34.7913 598.481C-34.7344 599.456 -34.6669 600.433 -34.6032 601.409C-4.88029 590.485 29.8094 581.327 65.1783 571.995C111.948 559.655 159.893 547.005 198.99 529.542C289.609 489.065 332.737 422.627 203.776 273.963C203.098 273.31 202.459 272.675 201.774 272.017C322.716 419.394 269.403 484.471 174.65 526.351C140.654 541.377 101.343 553.409 62.8482 565.192C28.1263 575.819 -5.92688 586.245 -34.7913 598.481ZM-34.9616 594.889C-34.9195 595.847 -34.8788 596.804 -34.8274 597.763C-6.03003 585.62 27.847 575.25 62.3816 564.68C100.842 552.908 140.114 540.887 174.043 525.891C269.54 483.683 322.789 417.809 196.73 267.216C195.718 266.252 194.69 265.281 193.678 264.316C345.967 456.829 197.712 509.141 60.0779 557.674C26.1894 569.624 -7.04266 581.349 -34.9616 594.889ZM-35.1042 591.31C-35.0724 592.251 -35.0363 593.193 -34.9972 594.136C-7.15433 580.709 25.8782 569.056 59.5565 557.18C197.91 508.394 346.991 455.765 188.996 259.876C187.881 258.828 186.719 257.757 185.573 256.695C325.845 441.423 186.716 497.63 57.2706 549.943C24.2376 563.292 -8.16098 576.389 -35.1042 591.31ZM-35.2078 587.761C-35.1845 588.678 -35.1565 589.596 -35.1276 590.513C-8.26968 575.731 23.901 562.725 56.6991 549.47C186.717 496.925 326.441 440.405 181.535 252.942C180.044 251.56 178.593 250.198 177.085 248.807C305.775 425.951 175.779 485.973 54.4285 541.968C22.2668 556.809 -9.27338 571.369 -35.2078 587.761ZM-35.2643 584.218C-35.2554 585.111 -35.2477 586.004 -35.2299 586.899C-9.38802 570.677 21.9071 556.234 53.8052 541.516C175.577 485.325 306.113 425.09 173.845 245.849C172.147 244.294 170.409 242.719 168.681 241.149C285.718 410.576 164.802 474.19 51.5477 533.71C20.2869 550.139 -10.3764 566.26 -35.2643 584.218ZM-35.2804 577.194C-35.2851 578.02 -35.2889 578.845 -35.2906 579.671C-11.5907 560.28 17.8749 542.667 47.8942 524.723C153.45 461.631 265.793 394.405 157.475 231.056C155.486 229.277 153.491 227.496 151.482 225.707C246.084 379.931 142.908 450.055 45.6312 516.155C16.2365 536.129 -12.6114 555.737 -35.2804 577.194ZM-35.2299 573.703C-35.2473 574.492 -35.2669 575.281 -35.2753 576.07C-12.7044 554.91 15.8127 535.524 44.8674 515.782C142.439 449.481 245.939 379.118 149.041 223.537C146.914 221.657 144.714 219.742 142.526 217.832C226.425 364.582 132.001 437.624 42.5849 506.734C14.1607 528.702 -13.7442 550.277 -35.2299 573.703ZM-35.1573 570.237C-35.1781 570.964 -35.1878 571.693 -35.204 572.421C-13.8125 549.356 13.7345 528.064 41.7803 506.387C131.445 437.085 226.182 363.835 140.39 215.963C138.084 213.947 135.791 211.939 133.442 209.903C206.983 349.239 121.12 424.878 39.4668 496.77C12.0366 520.921 -14.9113 544.65 -35.1573 570.237ZM-35.0329 566.774C-35.0562 567.443 -35.0838 568.111 -35.1059 568.78C-14.944 543.631 11.6056 520.245 38.6287 496.453C120.505 424.364 206.613 348.499 131.457 208.194C129.066 206.129 126.638 204.045 124.203 201.957C187.698 333.885 110.251 411.762 36.2646 486.152C9.85977 512.702 -16.0959 538.809 -35.0329 566.774ZM-34.8847 563.33C-34.9144 563.916 -34.9467 564.502 -34.9722 565.089C-16.1031 537.652 9.43262 511.972 35.3993 485.864C109.588 411.271 187.27 333.17 122.398 200.404C119.866 198.237 117.285 196.047 114.691 193.85C168.581 318.424 99.42 398.163 32.9703 474.733C7.61417 503.951 -17.3365 532.711 -34.8847 563.33ZM-34.7102 559.905C-34.7374 560.374 -34.7569 560.844 -34.7828 561.314C-17.2758 531.351 7.20528 503.134 32.0757 474.475C98.7072 397.697 168.066 317.73 113.028 192.443C110.379 190.2 107.743 187.964 105.055 185.701C149.74 302.892 88.6158 383.974 29.5682 462.318C5.28497 494.537 -18.6451 526.291 -34.7102 559.905ZM-34.4907 556.465L-34.5552 557.436C-18.4935 524.65 4.90836 493.589 28.6511 462.087C87.8643 383.525 149.142 302.197 103.491 184.388C100.76 182.097 97.9404 179.764 95.1382 177.439C131.068 287.178 77.8396 369.03 26.0361 448.643C2.85805 484.263 -20.0284 519.437 -34.4907 556.465ZM-34.2551 553.074L-34.2771 553.339C-19.7532 517.38 2.53282 483.12 25.0987 448.439C77.0473 368.602 130.429 286.512 93.7095 176.25C90.8474 173.873 87.9747 171.491 85.0579 169.087C112.729 271.239 67.1004 353.098 22.3563 433.334C0.297424 472.894 -21.5436 512.061 -34.2551 553.074ZM10.2708 370.725C-7.40312 424.012 -25.2035 477.688 -32.1988 532.855C-22.6726 486.091 -4.59158 440.703 13.5069 395.285C44.9141 316.458 76.3468 237.538 63.1 151.19C59.9272 148.624 56.784 146.073 53.5415 143.472C60.0804 220.539 35.3081 295.242 10.2708 370.725ZM-35.8846 563.221L-35.8379 562.307L-35.9929 562.635C-36.0311 562.963 -36.0735 563.29 -36.11 563.618L-35.8846 563.221ZM-36.0336 566.652C-36.015 566.189 -36.0031 565.725 -35.9831 565.262C-36.1075 565.482 -36.237 565.702 -36.3597 565.924L-36.5075 567.352L-36.0336 566.652ZM-36.1567 570.092C-36.1398 569.507 -36.1147 568.924 -36.0943 568.34C-36.3028 568.652 -36.5032 568.965 -36.7074 569.278C-36.763 569.847 -36.8072 570.419 -36.859 570.989C-36.6251 570.69 -36.3936 570.39 -36.1567 570.092ZM-36.2306 573.543L-36.192 571.561L-36.9995 572.602C-37.0573 573.259 -37.1189 573.916 -37.1702 574.574C-36.8573 574.231 -36.5461 573.886 -36.2306 573.543ZM-36.2837 577.018C-36.2778 576.288 -36.2689 575.559 -36.257 574.83C-36.5932 575.201 -36.9342 575.571 -37.2658 575.943C-37.3167 576.66 -37.3697 577.378 -37.4173 578.096C-37.0424 577.736 -36.6624 577.377 -36.2837 577.018ZM-36.2977 580.505C-36.2981 579.719 -36.2922 578.934 -36.2888 578.149C-36.6977 578.54 -37.0989 578.934 -37.5039 579.327C-37.5506 580.089 -37.5889 580.853 -37.6305 581.615C-37.1864 581.246 -36.7444 580.875 -36.2977 580.505ZM-36.2714 584.003C-36.2803 583.181 -36.2981 582.359 -36.3028 581.538C-36.763 581.923 -37.2322 582.306 -37.6886 582.692C-37.7332 583.502 -37.7778 584.313 -37.8118 585.125C-37.3018 584.75 -36.7877 584.376 -36.2714 584.003ZM-36.2208 587.529C-36.2395 586.663 -36.2498 585.799 -36.2591 584.934C-36.7936 585.324 -37.3179 585.715 -37.8465 586.107C-37.8784 586.944 -37.909 587.781 -37.9349 588.619C-37.3659 588.255 -36.7936 587.892 -36.2208 587.529ZM-36.1164 591.055C-36.1444 590.166 -36.1716 589.277 -36.195 588.388C-36.7877 588.765 -37.3812 589.141 -37.9667 589.52C-37.9901 590.388 -38.0032 591.257 -38.0206 592.126C-37.3884 591.768 -36.7562 591.41 -36.1164 591.055ZM-35.9797 594.613C-36.0204 593.695 -36.0595 592.777 -36.093 591.86C-36.7452 592.224 -37.3893 592.591 -38.0346 592.957C-38.0516 593.848 -38.0682 594.74 -38.0737 595.632C-37.3812 595.291 -36.679 594.952 -35.9797 594.613ZM-35.812 598.182C-35.8638 597.242 -35.9033 596.304 -35.944 595.366C-36.6565 595.714 -37.3672 596.064 -38.0729 596.415C-38.0741 597.327 -38.0754 598.239 -38.069 599.152C-37.318 598.828 -36.5681 598.504 -35.812 598.182ZM-35.5857 601.769C-35.649 600.812 -35.7122 599.856 -35.7691 598.901C-36.5376 599.23 -37.3056 599.557 -38.069 599.888C-38.0588 600.818 -38.0401 601.751 -38.0236 602.682C-37.2143 602.376 -36.4034 602.071 -35.5857 601.769ZM-35.3284 605.379C-35.4044 604.402 -35.4757 603.426 -35.5411 602.45C-36.3716 602.759 -37.1902 603.071 -38.0088 603.383C-37.9913 604.328 -37.9722 605.274 -37.9425 606.221C-37.0768 605.938 -36.2001 605.66 -35.3284 605.379ZM-35.0308 609.005C-35.1182 608.015 -35.1968 607.026 -35.274 606.038C-36.1584 606.323 -37.0411 606.608 -37.9166 606.897C-37.8831 607.858 -37.8466 608.82 -37.8033 609.783C-36.8819 609.522 -35.9602 609.262 -35.0308 609.005ZM-34.6758 612.651C-34.7773 611.65 -34.8839 610.648 -34.9777 609.648C-35.9147 609.909 -36.8488 610.17 -37.7786 610.433C-37.7319 611.407 -37.6725 612.383 -37.616 613.358C-36.6408 613.12 -35.6621 612.884 -34.6758 612.651ZM-34.2878 616.324C-34.4024 615.306 -34.5098 614.288 -34.6134 613.271C-35.6107 613.508 -36.5941 613.749 -37.5803 613.99C-37.5226 614.975 -37.4623 615.961 -37.3923 616.949C-36.3627 616.738 -35.3258 616.531 -34.2878 616.324ZM-0.656143 725.518C-19.8411 688.358 -30.1524 652.252 -34.2151 616.933C-35.2622 617.142 -36.3058 617.354 -37.3439 617.568C-34.8011 652.223 -25.4158 687.984 -6.12257 725.353L-7.08253 725.518C-26.3698 688.161 -35.77 652.414 -38.3336 617.774C-39.3619 617.987 -40.3898 618.198 -41.4066 618.415C-40.3957 652.381 -31.9509 687.778 -12.552 725.353L-13.5128 725.518C-32.9032 687.961 -41.3642 652.582 -42.4052 618.633C-43.4153 618.851 -44.4199 619.07 -45.4193 619.292C-45.967 652.553 -38.4851 687.573 -18.9788 725.353L-19.9392 725.518C-39.4345 687.758 -46.9423 652.756 -46.4315 619.512C-47.4263 619.735 -48.4075 619.963 -49.3925 620.189C-51.5307 652.731 -45.0189 687.366 -25.4052 725.353L-26.3664 725.518C-45.9645 687.557 -52.5089 652.944 -50.4208 620.425C-51.3834 620.648 -52.3386 620.874 -53.2918 621.102C-57.0557 652.911 -51.557 687.15 -31.8337 725.353L-32.7932 725.518C-52.5 687.35 -58.0344 653.137 -54.3346 621.352C-55.2759 621.58 -56.2184 621.805 -57.1495 622.037C-62.5692 653.098 -58.0993 686.933 -38.2631 725.353L-39.223 725.518C-59.0359 687.143 -63.5568 653.34 -58.2169 622.307C-59.1319 622.537 -60.0468 622.767 -60.9507 623C-68.0573 653.297 -64.6391 686.714 -44.6899 725.353L-45.6503 725.518C-65.5723 686.933 -69.0504 653.549 -62.0385 623.282C-62.9301 623.515 -63.8069 623.753 -64.6883 623.991C-73.5183 653.505 -71.1801 686.492 -51.1159 725.353L-52.0762 725.518C-72.1061 686.724 -74.5232 653.775 -65.8156 624.292C-66.6766 624.527 -67.5249 624.766 -68.3745 625.005C-78.9618 653.721 -77.7258 686.267 -57.5461 725.353L-58.5061 725.518C-78.6429 686.516 -79.9735 654.015 -69.5391 625.334C-70.3602 625.568 -71.1818 625.802 -71.9928 626.04C-84.3738 653.942 -84.2719 686.036 -63.9725 725.353L-64.9333 725.518C-85.1754 686.311 -85.4111 654.269 -73.224 626.408C-73.998 626.639 -74.7784 626.867 -75.5439 627.101C-89.7605 654.171 -90.8206 685.801 -70.3997 725.353L-71.3601 725.518C-91.7122 686.1 -90.807 654.532 -76.8329 627.505C-77.5781 627.737 -78.319 627.973 -79.0552 628.209C-95.1301 654.424 -97.3659 685.573 -76.8283 725.353L-77.7865 725.518C-98.2435 685.896 -96.2 654.815 -80.4181 628.643C-81.1101 628.869 -81.7848 629.102 -82.4683 629.332C-100.455 654.677 -103.92 685.331 -83.2563 725.353L-84.2163 725.518C-104.773 685.703 -101.562 655.129 -83.9539 629.831C-84.587 630.048 -85.2136 630.269 -85.8386 630.489C-105.767 654.944 -110.47 685.092 -89.6827 725.353L-90.6436 725.518C-111.295 685.518 -106.901 655.472 -87.4558 631.067C-88.0056 631.265 -88.5653 631.461 -89.1108 631.662C-111.039 655.209 -117.027 684.838 -96.11 725.353L-97.0704 725.518C-117.804 685.36 -112.246 655.856 -90.9649 632.368C-91.4192 632.54 -91.877 632.711 -92.3253 632.886C-116.281 655.503 -123.585 684.591 -102.539 725.353L-103.5 725.518C-124.301 685.228 -117.573 656.293 -94.4762 633.74C-94.8222 633.879 -95.167 634.02 -95.5105 634.16C-121.51 655.823 -130.133 684.356 -108.967 725.353L-109.927 725.518C-130.772 685.143 -122.894 656.808 -98.0333 635.211C-98.2083 635.286 -98.3806 635.363 -98.5539 635.438C-126.684 656.13 -136.696 684.093 -115.393 725.353L-116.354 725.518C-137.041 685.449 -128.39 657.86 -102.346 637.289C-132.03 656.948 -143.065 684.205 -121.822 725.353L-122.781 725.518C-143.032 686.294 -134.168 659.624 -107.83 640.123C-137.822 658.704 -149.059 685.048 -128.25 725.353L-129.21 725.518C-149.009 687.168 -140.003 661.394 -113.513 642.905C-143.666 660.47 -155.036 685.921 -134.677 725.353L-135.637 725.518C-158.099 682.014 -142.271 655.42 -105.252 637.667C-103.477 636.649 -101.63 635.662 -99.7423 634.69C-98.0198 633.632 -96.2556 632.59 -94.4231 631.576C-92.7728 630.487 -91.0584 629.424 -89.3057 628.376C-87.6762 627.218 -86.0029 626.077 -84.2724 624.959C-82.7333 623.78 -81.1454 622.62 -79.5137 621.476C-77.9958 620.212 -76.427 618.969 -74.8149 617.741C-73.3938 616.458 -71.9375 615.188 -70.4328 613.935C-69.0479 612.566 -67.6077 611.216 -66.1378 609.876C-64.8153 608.443 -63.4562 607.022 -62.0538 605.617C-60.8433 604.172 -59.5989 602.738 -58.3167 601.317C-57.1555 599.775 -55.9467 598.248 -54.7146 596.729C-53.6175 595.102 -52.4851 593.486 -51.3188 591.881C-50.313 590.2 -49.2813 588.527 -48.2118 586.865C-47.3053 585.143 -46.3767 583.427 -45.4129 581.721C-44.5931 579.922 -43.7507 578.13 -42.8752 576.346C-42.1488 574.475 -41.3986 572.609 -40.6225 570.751C-39.9911 568.802 -39.3402 566.857 -38.6596 564.918C-38.1459 562.957 -37.6054 561.001 -37.0496 559.049C-36.6208 556.937 -36.1661 554.83 -35.694 552.726C-35.3776 550.578 -35.0401 548.433 -34.6835 546.291C-29.0918 486.343 -9.82956 428.252 9.28618 370.616C34.4071 294.883 59.2648 219.937 52.4648 142.614C-1.17159 99.6433 -63.5097 52.3989 -135.548 0.406982L-134.769 0.046875C-63.1233 51.7552 -1.08455 98.7668 52.3612 141.562C52.278 140.641 52.185 139.719 52.0912 138.797C0.461761 96.9373 -59.5972 50.9695 -129.123 0.406982L-128.34 0.046875C-59.2121 50.3195 0.547958 96.0506 51.9872 137.73C51.8895 136.807 51.7808 135.883 51.6755 134.959C2.06453 94.2147 -55.703 49.5289 -122.696 0.405823L-121.909 0.0482788C-55.3311 48.8664 2.13246 93.3051 51.5452 133.859C51.4352 132.94 51.3367 132.022 51.2174 131.104C3.63972 91.4781 -51.8296 48.0774 -116.269 0.404358L-115.483 0.0490112C-51.4755 47.4023 3.68512 90.5458 51.0598 129.968C50.9367 129.042 50.8034 128.115 50.6705 127.187C5.14992 88.6985 -48.0054 46.5964 -109.843 0.403198L-109.052 0.0500488C-47.6547 45.9142 5.19363 87.7547 50.5092 126.032C50.3708 125.101 50.2213 124.169 50.0744 123.237C6.62959 85.8976 -44.2186 45.0935 -103.419 0.401978L-102.624 0.0513306C-43.8887 44.3917 6.65167 84.9204 49.8796 122.032C49.7331 121.13 49.5955 120.229 49.4401 119.327C8.05743 83.108 -40.3911 43.6266 -96.9923 0.400879L-96.1923 0.0523682C-40.0662 42.9152 8.04384 82.0991 49.2108 118.079C49.0469 117.157 48.8771 116.235 48.7035 115.312C9.4267 80.2529 -36.6531 42.0985 -90.568 0.400146L-89.7642 0.0533447C-36.3266 41.3824 9.40971 79.2299 48.4712 114.043C48.2925 113.118 48.098 112.194 47.9095 111.269C10.7527 77.3755 -32.9418 40.5557 -84.1428 0.397522L-83.3353 0.055542C-32.6319 39.8232 10.7021 76.3155 47.6374 109.945C47.445 109.031 47.2586 108.116 47.0582 107.2C12.0374 74.477 -29.257 38.9997 -77.7156 0.396057L-76.9043 0.0567017C-28.9644 38.2469 11.9491 73.3721 46.741 105.811C46.536 104.898 46.3297 103.985 46.1144 103.072C13.2509 71.5342 -25.6145 37.418 -71.2909 0.394043L-70.4749 0.0593262C-25.3258 36.656 13.1498 70.4054 45.782 101.645C45.5612 100.73 45.32 99.8135 45.0899 98.8983C14.4032 68.5558 -22.0081 35.8151 -64.8641 0.391418L-64.0451 0.0615234C-21.7394 35.0302 14.2626 67.3761 44.7107 97.3962C44.4827 96.5145 44.2509 95.6326 44.0136 94.7501C15.5037 65.5864 -18.3967 34.229 -58.4424 0.389954L-57.6149 0.0634766C-18.1903 33.3787 15.3118 64.302 43.5559 93.0878C43.3232 92.2444 43.099 91.4013 42.8575 90.5569C16.5464 62.5814 -14.8256 32.6189 -52.0164 0.385925L-51.1817 0.0667725C-14.6485 31.7278 16.298 61.2119 42.3318 88.7667C42.0894 87.9411 41.8393 87.1147 41.5884 86.2883C17.5021 59.5205 -11.3075 30.9748 -45.5921 0.383728L-44.7532 0.0692749C-11.1496 30.0523 17.2151 58.08 41.0199 84.3904C40.7711 83.5897 40.5015 82.788 40.2442 81.9871C18.4022 56.4333 -7.82854 29.311 -39.1704 0.379395L-38.3199 0.0740967C-7.72067 28.3205 18.0193 54.8461 39.5585 79.8719C39.3135 79.1283 39.0698 78.3846 38.8172 77.6401C19.2429 53.3107 -4.38992 27.625 -32.7453 0.374695L-31.8868 0.0780029C-4.3521 26.5397 18.7287 51.5266 37.9774 75.2325C37.7409 74.5587 37.5121 73.8849 37.2705 73.2102C19.9915 50.1252 -1.01324 25.9006 -26.3244 0.369995L-25.4536 0.0827026C-1.05994 24.6889 19.3172 48.0767 36.2413 70.4081C36.0281 69.8324 35.8129 69.2562 35.5951 68.6794C20.6385 46.8638 2.30525 24.1337 -19.9023 0.363892L-19.0204 0.0896606C2.12184 22.7195 19.7244 44.3991 34.2814 65.254C34.1494 64.9171 34.0106 64.5792 33.8764 64.2425C21.2461 43.6568 5.6297 22.3976 -13.4814 0.355286L-12.5876 0.0977783C4.9474 20.3229 19.5371 39.8874 31.5909 58.8796C21.393 39.8125 8.65736 20.3261 -7.06175 0.345459L-6.14807 0.107788C7.32715 17.2379 18.6107 34.0047 27.9939 50.4557C20.4368 33.9134 10.9904 17.216 -0.641739 0.33313L0.285995 0.120361C14.1166 20.191 24.8737 39.9995 33.0251 59.5945C34.726 62.7937 36.3665 65.9836 37.9268 69.16C39.9346 72.5506 41.8334 75.9159 43.6867 79.2711C45.9199 82.7471 48.0831 86.2041 50.1466 89.6335C52.6562 93.2761 55.0912 96.8956 57.4048 100.478C60.069 104.155 62.6075 107.789 65.0828 111.402C67.8617 115.078 70.5531 118.724 73.1494 122.335C76.1923 126.203 79.1456 130.036 81.9788 133.824C85.24 137.84 88.3577 141.799 91.3904 145.724C94.5654 149.537 97.6419 153.31 100.614 157.039C103.865 160.847 107.027 164.618 110.077 168.341C114.047 172.871 117.824 177.318 121.496 181.719C124.994 185.661 128.388 189.554 131.666 193.399C135.185 197.294 138.598 201.142 141.91 204.944C146.064 209.464 150.095 213.93 153.974 218.324C157.89 222.532 161.686 226.684 165.35 230.775C169.356 235.026 173.248 239.225 176.996 243.355C181.13 247.693 185.153 251.978 189.019 256.189C193.079 260.413 197.039 264.589 200.853 268.694C204.882 272.845 208.805 276.944 212.597 280.98C216.681 285.144 220.631 289.242 224.475 293.287C378.562 448.874 361.224 519.729 280.814 556.904C229.102 580.811 151.355 590.758 76.3456 600.354C37.7791 605.289 -0.0528564 610.134 -33.2319 616.736C-29.1865 652.068 -18.8854 688.185 0.30423 725.353L-0.656143 725.518Z" fill="url(#paint0_linear_364_196)"/>
<g opacity="0.2" filter="url(#filter0_f_364_196)">
<circle cx="65.5" cy="545.5" r="266.5" fill="#983131" fill-opacity="0.6"/>
</g>
<defs>
<filter id="filter0_f_364_196" x="-349" y="131" width="829" height="829" filterUnits="userSpaceOnUse" color-interpolation-filters="sRGB">
<feFlood flood-opacity="0" result="BackgroundImageFix"/>
<feBlend mode="normal" in="SourceGraphic" in2="BackgroundImageFix" result="shape"/>
<feGaussianBlur stdDeviation="74" result="effect1_foregroundBlur_364_196"/>
</filter>
<linearGradient id="paint0_linear_364_196" x1="97.5985" y1="0.046875" x2="97.5985" y2="725.518" gradientUnits="userSpaceOnUse">
<stop stop-color="#983131"/>
<stop offset="1" stop-color="#321010"/>
</linearGradient>
</defs>
</svg>
