<svg width="268" height="286" viewBox="0 0 268 286" fill="none" xmlns="http://www.w3.org/2000/svg">
<path d="M296.755 -356.691L295.455 -355.02C295.556 -355.207 295.647 -355.392 295.746 -355.58C296.183 -356.199 296.623 -356.82 297.071 -357.442C296.963 -357.192 296.862 -356.942 296.755 -356.691ZM289.892 -346.129C289.538 -345.698 289.177 -345.263 288.827 -344.833L288.929 -345.009L290.139 -346.635L289.892 -346.129ZM294.833 -352.143C294.044 -351.193 293.289 -350.255 292.503 -349.307C292.751 -349.798 293.017 -350.292 293.266 -350.784C293.974 -351.712 294.716 -352.65 295.442 -353.584C295.241 -353.104 295.031 -352.622 294.833 -352.143ZM282.455 -335.376C282.151 -335.016 281.869 -334.664 281.567 -334.305L281.573 -334.314C281.894 -334.727 282.23 -335.145 282.555 -335.559L282.455 -335.376ZM287.56 -341.323C286.829 -340.474 286.086 -339.62 285.364 -338.774C285.579 -339.16 285.786 -339.544 286.003 -339.93C286.768 -340.891 287.495 -341.838 288.273 -342.803C288.038 -342.311 287.791 -341.815 287.56 -341.323ZM293.04 -347.645C291.987 -346.451 290.975 -345.271 289.941 -344.083C290.237 -344.696 290.536 -345.309 290.836 -345.923C291.804 -347.11 292.791 -348.303 293.769 -349.493C293.523 -348.876 293.283 -348.261 293.04 -347.645ZM379.162 129.563L378.889 129.148C378.858 128.831 378.824 128.516 378.79 128.2L379.003 128.585C379.057 128.911 379.108 129.237 379.162 129.563ZM274.312 -324.129L273.99 -323.756C274.126 -323.925 274.254 -324.092 274.391 -324.261L274.312 -324.129ZM279.818 -330.442C279.114 -329.654 278.433 -328.875 277.746 -328.093C277.931 -328.4 278.108 -328.705 278.294 -329.012C278.978 -329.843 279.681 -330.679 280.366 -331.51C280.178 -331.153 280.004 -330.799 279.818 -330.442ZM285.451 -336.708C284.426 -335.567 283.392 -334.424 282.375 -333.286C282.71 -333.913 283.062 -334.544 283.401 -335.172C284.347 -336.292 285.32 -337.422 286.295 -338.554C286.012 -337.938 285.73 -337.322 285.451 -336.708ZM291.309 -343.133C290.043 -341.768 288.796 -340.411 287.568 -339.061C287.885 -339.748 288.185 -340.432 288.508 -341.121C289.717 -342.517 290.904 -343.907 292.117 -345.305C291.838 -344.58 291.58 -343.857 291.309 -343.133ZM379.742 133.175C379.558 132.934 379.367 132.694 379.182 132.452L379.061 131.058C379.212 131.293 379.369 131.526 379.519 131.761C379.593 132.233 379.67 132.704 379.742 133.175ZM381.344 135.305L380.991 134.831L380.853 133.882L381.113 134.296C381.19 134.633 381.27 134.968 381.344 135.305ZM382.806 137.277L382.758 137.211L382.695 136.912L382.806 137.277ZM271.475 -319.185C270.816 -318.447 270.143 -317.705 269.477 -316.965L270.184 -318.063C270.795 -318.781 271.441 -319.514 272.068 -320.239C271.868 -319.887 271.675 -319.537 271.475 -319.185ZM277.317 -325.568C276.308 -324.49 275.292 -323.409 274.321 -322.347C274.621 -322.867 274.95 -323.396 275.255 -323.918C276.253 -325.067 277.236 -326.209 278.236 -327.359C277.933 -326.763 277.617 -326.163 277.317 -325.568ZM283.419 -332.109L279.656 -328.075C280.027 -328.795 280.387 -329.513 280.764 -330.235C281.915 -331.535 283.112 -332.851 284.297 -334.164C283.995 -333.476 283.716 -332.795 283.419 -332.109ZM289.668 -338.665C288.205 -337.157 286.736 -335.645 285.333 -334.16C285.675 -334.937 286.045 -335.72 286.397 -336.499C287.793 -338.039 289.151 -339.564 290.567 -341.112C290.269 -340.297 289.957 -339.479 289.668 -338.665ZM380.25 136.687C379.983 136.384 379.72 136.081 379.45 135.779C379.408 135.212 379.369 134.644 379.323 134.078C379.553 134.381 379.776 134.686 380.005 134.99C380.086 135.555 380.171 136.12 380.25 136.687ZM382.067 138.755C381.863 138.517 381.654 138.282 381.447 138.045C381.385 137.584 381.321 137.124 381.256 136.663L381.779 137.378C381.875 137.837 381.974 138.295 382.067 138.755ZM383.798 140.791L383.399 140.322C383.337 140.003 383.275 139.684 383.21 139.366C383.312 139.508 383.415 139.649 383.516 139.792C383.609 140.125 383.706 140.457 383.798 140.791ZM385.392 142.704L385.306 142.6L385.208 142.222L385.227 142.249L385.392 142.704ZM262.654 -307.743C262.039 -307.082 261.411 -306.416 260.809 -305.761C260.954 -305.975 261.106 -306.192 261.253 -306.406C261.918 -307.17 262.566 -307.927 263.234 -308.693L262.654 -307.743ZM268.676 -314.209C267.694 -313.161 266.734 -312.121 265.756 -311.074C266.075 -311.589 266.373 -312.098 266.694 -312.614C267.636 -313.673 268.614 -314.748 269.576 -315.816C269.281 -315.282 268.966 -314.742 268.676 -314.209ZM274.992 -320.821C273.752 -319.541 272.502 -318.257 271.305 -316.995C271.672 -317.654 272.046 -318.315 272.421 -318.976C273.624 -320.303 274.791 -321.615 276.017 -322.951C275.667 -322.239 275.334 -321.531 274.992 -320.821ZM281.466 -327.539C279.989 -326.017 278.549 -324.51 277.086 -322.993C277.473 -323.78 277.865 -324.568 278.263 -325.358C279.639 -326.847 281.049 -328.35 282.453 -329.85C282.129 -329.081 281.783 -328.307 281.466 -327.539ZM288.181 -334.311C286.541 -332.673 284.883 -331.028 283.307 -329.416C283.655 -330.243 284.01 -331.072 284.368 -331.901C285.904 -333.532 287.455 -335.168 289.031 -336.816C288.742 -335.98 288.462 -335.146 288.181 -334.311ZM380.702 140.129C380.366 139.8 380.025 139.472 379.686 139.144C379.644 138.49 379.596 137.837 379.549 137.184C379.854 137.529 380.159 137.873 380.46 138.219C380.543 138.855 380.621 139.493 380.702 140.129ZM382.735 142.156C382.441 141.861 382.149 141.567 381.856 141.273C381.786 140.71 381.712 140.149 381.641 139.586C381.903 139.891 382.161 140.197 382.42 140.502C382.528 141.053 382.63 141.605 382.735 142.156ZM384.687 144.142C384.452 143.899 384.223 143.655 383.986 143.412C383.902 142.956 383.812 142.501 383.726 142.045C383.931 142.292 384.131 142.541 384.335 142.789L384.687 144.142ZM386.539 146.069C386.39 145.911 386.236 145.755 386.087 145.598C386.005 145.271 385.916 144.946 385.832 144.62L386.203 145.077C386.315 145.407 386.429 145.737 386.539 146.069ZM388.265 147.926L388.129 147.778C388.084 147.639 388.042 147.499 387.997 147.36L388.057 147.436C388.125 147.6 388.197 147.762 388.265 147.926ZM253.452 -296.226C252.83 -295.57 252.265 -294.937 251.653 -294.285C251.75 -294.423 251.839 -294.557 251.936 -294.695C252.556 -295.393 253.199 -296.099 253.825 -296.799C253.703 -296.609 253.572 -296.416 253.452 -296.226ZM259.617 -302.656C258.688 -301.687 257.746 -300.714 256.832 -299.752C257.147 -300.235 257.456 -300.717 257.776 -301.201C258.694 -302.214 259.588 -303.215 260.527 -304.236C260.213 -303.706 259.928 -303.185 259.617 -302.656ZM266.156 -309.46C264.866 -308.137 263.646 -306.844 262.375 -305.529C262.772 -306.194 263.196 -306.867 263.598 -307.534C264.775 -308.806 265.977 -310.089 267.167 -311.367C266.826 -310.73 266.49 -310.095 266.156 -309.46ZM272.73 -316.085C271.287 -314.636 269.836 -313.185 268.431 -311.752C268.836 -312.506 269.214 -313.252 269.628 -314.008C271.012 -315.478 272.419 -316.957 273.848 -318.445C273.476 -317.659 273.092 -316.869 272.73 -316.085ZM279.685 -323.074C278.003 -321.404 276.385 -319.761 274.733 -318.104C275.127 -318.939 275.537 -319.779 275.942 -320.617C277.501 -322.241 279.073 -323.87 280.65 -325.502C280.323 -324.691 280.004 -323.883 279.685 -323.074ZM286.76 -329.984C284.951 -328.225 283.132 -326.462 281.375 -324.725C281.725 -325.595 282.057 -326.461 282.416 -327.333C284.095 -329.054 285.837 -330.802 287.581 -332.55C287.299 -331.693 287.033 -330.839 286.76 -329.984ZM381.114 143.559C380.699 143.204 380.291 142.846 379.871 142.492C379.835 141.782 379.801 141.073 379.759 140.362C380.133 140.729 380.502 141.096 380.871 141.464C380.957 142.162 381.036 142.861 381.114 143.559ZM383.343 145.488C382.973 145.162 382.598 144.839 382.224 144.515C382.156 143.882 382.093 143.249 382.02 142.617C382.348 142.949 382.685 143.278 383.01 143.61C383.126 144.235 383.235 144.862 383.343 145.488ZM385.503 147.41C385.183 147.122 384.858 146.836 384.536 146.549C384.443 146.002 384.352 145.453 384.256 144.907C384.544 145.206 384.835 145.505 385.121 145.805C385.253 146.339 385.374 146.875 385.503 147.41ZM387.586 149.315C387.326 149.075 387.067 148.834 386.805 148.595L386.485 147.252C386.713 147.498 386.941 147.745 387.168 147.99C387.31 148.431 387.448 148.873 387.586 149.315ZM389.567 151.164C389.388 150.995 389.215 150.823 389.035 150.654C388.936 150.332 388.832 150.012 388.73 149.69C388.882 149.857 389.028 150.026 389.177 150.193C389.307 150.517 389.44 150.84 389.567 151.164ZM391.394 152.917L391.213 152.742C391.156 152.593 391.102 152.443 391.044 152.293L391.152 152.416L391.394 152.917ZM243.685 -284.27C243.193 -283.752 242.693 -283.23 242.199 -282.711C242.343 -282.908 242.482 -283.103 242.627 -283.3C243.106 -283.828 243.603 -284.363 244.095 -284.896C243.952 -284.685 243.824 -284.48 243.685 -284.27ZM250.213 -291.052C249.293 -290.118 248.386 -289.189 247.495 -288.267C247.763 -288.658 248.038 -289.052 248.307 -289.444C249.215 -290.425 250.134 -291.411 251.039 -292.391C250.759 -291.943 250.49 -291.499 250.213 -291.052ZM256.761 -297.69C255.535 -296.447 254.299 -295.2 253.083 -293.962C253.513 -294.641 253.953 -295.325 254.39 -296.007C255.526 -297.213 256.718 -298.444 257.9 -299.67C257.522 -299.01 257.133 -298.347 256.761 -297.69ZM263.619 -304.578C262.163 -303.136 260.741 -301.709 259.319 -300.283C259.734 -301.002 260.137 -301.719 260.559 -302.441L264.746 -306.801C264.361 -306.057 263.995 -305.319 263.619 -304.578ZM270.667 -311.496C269.007 -309.873 267.348 -308.249 265.718 -306.638C266.165 -307.504 266.646 -308.381 267.103 -309.25C268.612 -310.798 270.2 -312.38 271.771 -313.954C271.399 -313.134 271.028 -312.314 270.667 -311.496ZM277.948 -318.578C276.117 -316.817 274.324 -315.074 272.537 -313.332C272.92 -314.181 273.286 -315.026 273.682 -315.878C275.43 -317.64 277.158 -319.393 278.925 -321.163C278.591 -320.299 278.271 -319.44 277.948 -318.578ZM285.414 -325.691C283.439 -323.817 281.469 -321.945 279.536 -320.091C279.888 -321.012 280.272 -321.942 280.637 -322.867C282.449 -324.668 284.359 -326.511 286.247 -328.345C285.969 -327.46 285.679 -326.573 285.414 -325.691ZM376.464 143.29C351.673 125.536 321.287 109.56 290.316 93.2826C176.684 33.5638 55.304 -30.2763 175.456 -201.534M381.481 146.958C381.005 146.6 380.517 146.245 380.034 145.889C380.003 145.124 379.969 144.36 379.931 143.596C380.369 143.971 380.805 144.346 381.239 144.722C381.322 145.467 381.407 146.211 381.481 146.958ZM383.907 148.809C383.462 148.467 383.015 148.125 382.565 147.785C382.499 147.084 382.427 146.386 382.351 145.687C382.758 146.044 383.156 146.403 383.559 146.762C383.677 147.443 383.798 148.125 383.907 148.809ZM386.263 150.645C385.858 150.326 385.46 150.004 385.051 149.686C384.953 149.064 384.855 148.442 384.751 147.822C385.117 148.151 385.476 148.483 385.838 148.814C385.982 149.424 386.125 150.034 386.263 150.645ZM388.544 152.462C388.195 152.18 387.843 151.898 387.491 151.616C387.374 151.084 387.267 150.55 387.144 150.019C387.456 150.308 387.773 150.594 388.079 150.883C388.239 151.408 388.389 151.936 388.544 152.462ZM390.748 154.271C390.465 154.036 390.175 153.802 389.89 153.567L389.507 152.252C389.759 152.494 390.014 152.735 390.264 152.978L390.748 154.271ZM392.856 156.053L392.26 155.544C392.145 155.224 392.021 154.906 391.902 154.587L392.409 155.093C392.557 155.413 392.711 155.732 392.856 156.053ZM394.769 157.7L394.545 157.502L394.352 157.062L394.517 157.234C394.603 157.389 394.684 157.545 394.769 157.7ZM233.747 -272.419C233.314 -271.975 232.869 -271.526 232.442 -271.085L232.529 -271.199C233.037 -271.748 233.53 -272.291 234.039 -272.841L233.747 -272.419ZM240.332 -279.15C239.397 -278.193 238.464 -277.236 237.521 -276.277C237.842 -276.728 238.191 -277.191 238.514 -277.643C239.379 -278.562 240.281 -279.497 241.166 -280.424C240.888 -279.999 240.607 -279.573 240.332 -279.15ZM246.99 -285.825C245.841 -284.693 244.679 -283.556 243.57 -282.441C243.927 -282.98 244.261 -283.51 244.622 -284.049C245.832 -285.313 247.005 -286.56 248.226 -287.829C247.822 -287.164 247.388 -286.488 246.99 -285.825ZM254.067 -292.823L249.747 -288.551C250.212 -289.311 250.685 -290.074 251.157 -290.837C252.482 -292.196 253.857 -293.578 255.22 -294.955C254.824 -294.24 254.456 -293.536 254.067 -292.823ZM261.244 -299.801C259.594 -298.219 257.945 -296.638 256.348 -295.08C256.788 -295.872 257.25 -296.672 257.699 -297.468C259.313 -299.098 260.871 -300.702 262.509 -302.342C262.086 -301.494 261.656 -300.645 261.244 -299.801ZM268.681 -306.93C266.865 -305.193 265.058 -303.462 263.258 -301.732C263.694 -302.61 264.122 -303.485 264.569 -304.366C266.257 -306.043 268.006 -307.748 269.746 -309.447C269.378 -308.605 269.037 -307.77 268.681 -306.93ZM276.313 -314.136C274.324 -312.279 272.349 -310.428 270.418 -308.596C270.803 -309.488 271.218 -310.388 271.614 -311.283C273.515 -313.142 275.381 -314.984 277.315 -316.857C276.98 -315.95 276.635 -315.041 276.313 -314.136ZM284.202 -321.484C282.079 -319.515 279.976 -317.555 277.882 -315.598C278.217 -316.52 278.555 -317.444 278.902 -318.369C280.878 -320.274 282.926 -322.211 284.965 -324.143C284.702 -323.255 284.454 -322.37 284.202 -321.484ZM381.788 150.355C381.243 149.997 380.702 149.638 380.153 149.282C380.13 148.477 380.099 147.674 380.068 146.87C380.574 147.249 381.079 147.628 381.579 148.008C381.65 148.79 381.72 149.573 381.788 150.355ZM384.397 152.093C383.886 151.748 383.375 151.402 382.858 151.058C382.796 150.316 382.728 149.575 382.66 148.833C383.131 149.194 383.608 149.553 384.073 149.915C384.182 150.641 384.293 151.367 384.397 152.093ZM386.953 153.832C386.481 153.505 386 153.182 385.523 152.858C385.427 152.178 385.323 151.5 385.219 150.822C385.654 151.166 386.093 151.509 386.524 151.854C386.668 152.513 386.816 153.171 386.953 153.832ZM389.441 155.583C389.012 155.277 388.578 154.974 388.143 154.669C388.021 154.06 387.889 153.452 387.757 152.845C388.153 153.166 388.545 153.49 388.938 153.813C389.109 154.402 389.279 154.992 389.441 155.583ZM391.847 157.32C391.466 157.041 391.09 156.762 390.705 156.484C390.564 155.963 390.43 155.438 390.283 154.917C390.633 155.21 390.972 155.505 391.319 155.799C391.501 156.305 391.669 156.813 391.847 157.32ZM394.169 159.035C393.856 158.8 393.546 158.565 393.232 158.332C393.085 157.904 392.934 157.478 392.786 157.051C393.062 157.289 393.34 157.526 393.613 157.764C393.798 158.188 393.987 158.61 394.169 159.035ZM396.376 160.713C396.159 160.546 395.938 160.381 395.72 160.214C395.59 159.904 395.458 159.594 395.323 159.284C395.512 159.453 395.703 159.619 395.889 159.787C396.053 160.095 396.215 160.404 396.376 160.713ZM398.402 162.305L398.136 162.095L397.908 161.642L398.109 161.83L398.402 162.305ZM223.559 -260.562L223.47 -260.473L223.572 -260.58L223.559 -260.562ZM230.009 -267.003C229.178 -266.172 228.332 -265.335 227.51 -264.508C227.766 -264.855 228.002 -265.195 228.26 -265.543C229.181 -266.508 230.05 -267.448 230.988 -268.421C230.668 -267.95 230.327 -267.472 230.009 -267.003ZM237.034 -274.015C235.84 -272.836 234.706 -271.683 233.519 -270.506C233.91 -271.073 234.296 -271.637 234.692 -272.206C235.785 -273.331 236.907 -274.469 238.012 -275.599C237.672 -275.066 237.369 -274.546 237.034 -274.015ZM244.124 -280.893C242.69 -279.511 241.245 -278.125 239.849 -276.76C240.31 -277.477 240.8 -278.205 241.266 -278.924C242.648 -280.321 244.006 -281.709 245.417 -283.12C244.978 -282.375 244.554 -281.635 244.124 -280.893ZM251.445 -287.972C249.805 -286.394 248.202 -284.832 246.565 -283.256C247.029 -284.042 247.459 -284.817 247.933 -285.608C249.512 -287.179 251.124 -288.767 252.731 -290.352C252.306 -289.56 251.859 -288.761 251.445 -287.972ZM259.016 -295.119C257.211 -293.431 255.389 -291.735 253.642 -290.075C254.093 -290.917 254.551 -291.761 255.011 -292.607C256.733 -294.294 258.445 -295.978 260.205 -297.683C259.795 -296.824 259.418 -295.975 259.016 -295.119ZM266.793 -302.415C264.808 -300.559 262.853 -298.716 260.875 -296.863C261.307 -297.769 261.749 -298.678 262.194 -299.588C264.068 -301.398 265.982 -303.226 267.896 -305.055C267.531 -304.175 267.149 -303.292 266.793 -302.415ZM274.814 -309.787C272.692 -307.857 270.554 -305.921 268.506 -304.023C268.878 -304.921 269.251 -305.82 269.633 -306.721C271.649 -308.639 273.67 -310.559 275.733 -312.499C275.415 -311.593 275.119 -310.692 274.814 -309.787ZM283.047 -317.299C280.781 -315.24 278.555 -313.199 276.302 -311.145C276.622 -312.072 276.935 -312.997 277.266 -313.927C279.405 -315.932 281.585 -317.957 283.772 -319.984C283.523 -319.088 283.285 -318.194 283.047 -317.299ZM382.056 153.747C381.45 153.396 380.837 153.049 380.226 152.7C380.211 151.865 380.202 151.029 380.182 150.194C380.748 150.564 381.313 150.933 381.872 151.303C381.939 152.117 381.997 152.932 382.056 153.747ZM384.847 155.376C384.272 155.035 383.686 154.698 383.106 154.36C383.051 153.578 383.003 152.797 382.942 152.017C383.482 152.379 384.015 152.744 384.551 153.109C384.655 153.863 384.75 154.62 384.847 155.376ZM387.584 157.025C387.039 156.693 386.493 156.361 385.942 156.031C385.851 155.308 385.759 154.586 385.662 153.864C386.172 154.215 386.672 154.57 387.177 154.923C387.316 155.622 387.451 156.323 387.584 157.025ZM390.267 158.679C389.756 158.36 389.251 158.038 388.735 157.72C388.612 157.063 388.481 156.407 388.354 155.751C388.82 156.083 389.289 156.413 389.751 156.746C389.925 157.39 390.101 158.033 390.267 158.679ZM392.87 160.322C392.412 160.028 391.948 159.735 391.485 159.443C391.336 158.852 391.18 158.263 391.022 157.674C391.446 157.984 391.874 158.291 392.294 158.603C392.489 159.175 392.681 159.748 392.87 160.322ZM395.391 161.966C394.989 161.699 394.578 161.436 394.173 161.171C394.009 160.665 393.853 160.156 393.685 159.65C394.055 159.929 394.423 160.209 394.789 160.489C394.994 160.98 395.192 161.474 395.391 161.966ZM397.84 163.614C397.503 163.383 397.166 163.153 396.824 162.924C396.656 162.501 396.48 162.08 396.309 161.658C396.614 161.897 396.913 162.139 397.216 162.379C397.424 162.79 397.637 163.2 397.84 163.614ZM400.136 165.194C399.891 165.024 399.654 164.85 399.409 164.68C399.265 164.38 399.129 164.078 398.983 163.778C399.199 163.953 399.407 164.13 399.621 164.305C399.797 164.6 399.962 164.898 400.136 165.194ZM402.263 166.702L401.962 166.49C401.874 166.333 401.781 166.177 401.692 166.021C401.766 166.084 401.844 166.146 401.919 166.21L402.263 166.702ZM212.686 -248.098L211.516 -246.917L211.588 -247.008C211.992 -247.432 212.425 -247.87 212.836 -248.298L212.686 -248.098ZM219.533 -254.941C218.786 -254.214 218.027 -253.48 217.306 -252.764L217.816 -253.44C218.602 -254.252 219.395 -255.067 220.172 -255.874C219.951 -255.56 219.752 -255.255 219.533 -254.941ZM226.596 -261.843C225.448 -260.718 224.285 -259.588 223.139 -258.465C223.582 -259.086 224.047 -259.715 224.494 -260.339C225.536 -261.395 226.631 -262.476 227.712 -263.551C227.332 -262.978 226.971 -262.413 226.596 -261.843ZM233.884 -268.919C232.427 -267.525 231.025 -266.155 229.595 -264.773C230.041 -265.44 230.492 -266.109 230.945 -266.778C232.348 -268.179 233.758 -269.584 235.161 -270.985C234.734 -270.296 234.302 -269.605 233.884 -268.919ZM241.256 -275.902C239.657 -274.391 238.05 -272.877 236.48 -271.379C236.979 -272.184 237.462 -272.982 237.971 -273.791C239.488 -275.283 241.056 -276.798 242.625 -278.314C242.168 -277.51 241.705 -276.704 241.256 -275.902ZM249.04 -283.259C247.18 -281.52 245.402 -279.818 243.565 -278.09C244.053 -278.946 244.569 -279.813 245.067 -280.674C246.8 -282.352 248.537 -284.032 250.283 -285.716C249.857 -284.894 249.454 -284.079 249.04 -283.259ZM256.851 -290.447C254.891 -288.651 252.924 -286.851 251.016 -285.078C251.474 -285.969 251.915 -286.854 252.386 -287.749C254.257 -289.536 256.179 -291.347 258.11 -293.161C257.695 -292.258 257.254 -291.347 256.851 -290.447ZM265.06 -298.002C262.899 -296.029 260.824 -294.097 258.683 -292.133C259.103 -293.054 259.536 -293.98 259.968 -294.905C261.995 -296.812 264.028 -298.721 266.08 -300.639C265.728 -299.757 265.401 -298.881 265.06 -298.002ZM273.37 -305.453C271.112 -303.439 268.841 -301.418 266.653 -299.437C267.015 -300.358 267.369 -301.277 267.744 -302.201C269.886 -304.19 272.077 -306.202 274.283 -308.22C273.975 -307.297 273.666 -306.374 273.37 -305.453ZM281.964 -313.149C279.556 -311.002 277.209 -308.884 274.808 -306.742C275.116 -307.684 275.451 -308.632 275.77 -309.577C278.059 -311.671 280.354 -313.768 282.676 -315.877C282.438 -314.968 282.191 -314.057 281.964 -313.149ZM382.289 157.149C381.618 156.81 380.944 156.473 380.268 156.137C380.264 155.267 380.254 154.399 380.239 153.531C380.869 153.892 381.492 154.257 382.118 154.621C382.178 155.464 382.238 156.306 382.289 157.149ZM385.256 158.676C384.611 158.341 383.972 158.004 383.321 157.671C383.275 156.858 383.222 156.046 383.167 155.234C383.769 155.588 384.371 155.942 384.966 156.297C385.066 157.089 385.165 157.882 385.256 158.676ZM388.167 160.209C387.555 159.882 386.943 159.556 386.324 159.231C386.24 158.473 386.154 157.716 386.061 156.959C386.632 157.305 387.209 157.647 387.773 157.995C387.91 158.731 388.037 159.469 388.167 160.209ZM391.022 161.748C390.449 161.433 389.863 161.122 389.285 160.81C389.165 160.111 389.051 159.41 388.925 158.713C389.464 159.047 389.999 159.382 390.531 159.719C390.698 160.394 390.86 161.071 391.022 161.748ZM393.832 163.318C393.292 163.013 392.747 162.71 392.203 162.407C392.052 161.764 391.892 161.122 391.736 160.479C392.241 160.803 392.734 161.13 393.234 161.456C393.435 162.076 393.64 162.695 393.832 163.318ZM396.539 164.874C396.049 164.588 395.563 164.301 395.067 164.017C394.894 163.445 394.716 162.873 394.535 162.303C394.994 162.607 395.448 162.912 395.903 163.217C396.12 163.768 396.328 164.322 396.539 164.874ZM399.177 166.429C398.743 166.169 398.31 165.908 397.872 165.649C397.688 165.157 397.503 164.666 397.315 164.176C397.706 164.443 398.104 164.707 398.49 164.976C398.72 165.46 398.952 165.944 399.177 166.429ZM401.716 167.969C401.365 167.752 401.005 167.539 400.652 167.323C400.467 166.914 400.272 166.508 400.08 166.101C400.406 166.332 400.736 166.563 401.06 166.795C401.282 167.185 401.499 167.577 401.716 167.969ZM404.126 169.49L403.346 168.996C403.188 168.702 403.029 168.406 402.867 168.112L403.556 168.621L404.126 169.49ZM406.373 170.943L406.013 170.704L405.731 170.261L406.023 170.488L406.373 170.943ZM208.805 -242.778C208.047 -242.042 207.297 -241.31 206.557 -240.583L207.147 -241.337C207.886 -242.091 208.656 -242.859 209.408 -243.619C209.203 -243.337 209.009 -243.059 208.805 -242.778ZM215.921 -249.671C214.753 -248.537 213.571 -247.396 212.403 -246.262C212.79 -246.788 213.214 -247.33 213.605 -247.858C214.779 -249.035 215.909 -250.193 217.087 -251.374C216.697 -250.806 216.307 -250.237 215.921 -249.671ZM223.198 -256.638C221.843 -255.359 220.487 -254.079 219.17 -252.819C219.614 -253.459 220.031 -254.088 220.481 -254.73C221.806 -256.04 223.183 -257.372 224.544 -258.698C224.103 -258.015 223.631 -257.319 223.198 -256.638ZM230.855 -263.873C229.241 -262.351 227.638 -260.833 226.031 -259.315C226.528 -260.083 227.033 -260.853 227.54 -261.625C229.099 -263.142 230.62 -264.642 232.185 -266.162C231.723 -265.392 231.307 -264.639 230.855 -263.873ZM238.642 -271.105C236.822 -269.431 234.988 -267.751 233.223 -266.103C233.736 -266.96 234.296 -267.836 234.822 -268.698C236.509 -270.315 238.264 -271.963 240.005 -273.605C239.545 -272.77 239.092 -271.936 238.642 -271.105ZM246.644 -278.49C244.658 -276.672 242.745 -274.888 240.786 -273.083C241.263 -273.953 241.717 -274.815 242.205 -275.689C244.136 -277.513 246.035 -279.323 247.974 -281.151C247.533 -280.265 247.074 -279.372 246.644 -278.49ZM254.904 -285.947C252.773 -284.03 250.637 -282.111 248.558 -280.22C249.021 -281.157 249.511 -282.103 249.987 -283.044C251.957 -284.882 254.017 -286.761 256.058 -288.63C255.664 -287.732 255.289 -286.841 254.904 -285.947ZM263.352 -293.53C261.075 -291.503 258.848 -289.498 256.616 -287.491C257.015 -288.406 257.391 -289.314 257.803 -290.234C260.008 -292.261 262.186 -294.276 264.405 -296.309C264.054 -295.383 263.69 -294.453 263.352 -293.53ZM272.059 -301.224C269.652 -299.105 267.255 -296.991 264.897 -294.896C265.257 -295.857 265.643 -296.826 266.016 -297.791C268.257 -299.825 270.592 -301.904 272.912 -303.975C272.623 -303.057 272.336 -302.139 272.059 -301.224ZM280.982 -309.026C278.453 -306.83 275.94 -304.64 273.471 -302.472C273.757 -303.396 274.035 -304.319 274.332 -305.246C276.77 -307.427 279.175 -309.592 281.629 -311.781C281.404 -310.861 281.195 -309.944 280.982 -309.026ZM382.459 160.555C381.729 160.231 381 159.906 380.262 159.584C380.27 158.695 380.268 157.807 380.267 156.919C380.956 157.263 381.647 157.607 382.328 157.954C382.375 158.82 382.419 159.687 382.459 160.555ZM385.61 161.969C384.907 161.648 384.197 161.33 383.488 161.013C383.452 160.171 383.406 159.33 383.362 158.49C384.026 158.832 384.688 159.175 385.346 159.52C385.437 160.335 385.528 161.151 385.61 161.969ZM388.702 163.394C388.031 163.079 387.349 162.77 386.671 162.458C386.594 161.664 386.505 160.872 386.415 160.079C387.056 160.418 387.686 160.761 388.321 161.103C388.451 161.865 388.581 162.628 388.702 163.394ZM391.73 164.839C391.087 164.529 390.442 164.219 389.792 163.912C389.679 163.175 389.56 162.439 389.438 161.704C390.049 162.036 390.651 162.372 391.255 162.707C391.42 163.416 391.573 164.127 391.73 164.839ZM394.708 166.297C394.095 165.992 393.488 165.685 392.867 165.382C392.72 164.709 392.58 164.035 392.429 163.363C392.996 163.682 393.567 163.999 394.127 164.32C394.324 164.979 394.519 165.637 394.708 166.297ZM397.616 167.76C397.051 167.47 396.481 167.183 395.911 166.896C395.735 166.275 395.549 165.658 395.366 165.04C395.895 165.347 396.429 165.652 396.951 165.961C397.177 166.559 397.401 167.158 397.616 167.76ZM400.433 169.22C399.921 168.95 399.398 168.684 398.881 168.416C398.687 167.864 398.495 167.312 398.293 166.762C398.778 167.053 399.258 167.344 399.737 167.637C399.974 168.163 400.202 168.692 400.433 169.22ZM403.202 170.712C402.74 170.46 402.278 170.209 401.811 169.959C401.603 169.476 401.387 168.995 401.176 168.513C401.605 168.78 402.024 169.051 402.449 169.32C402.701 169.783 402.957 170.246 403.202 170.712ZM405.822 172.164C405.439 171.948 405.063 171.73 404.676 171.515C404.478 171.128 404.286 170.739 404.083 170.354C404.433 170.58 404.777 170.807 405.125 171.033C405.362 171.409 405.589 171.788 405.822 172.164ZM408.34 173.597C408.063 173.435 407.779 173.276 407.499 173.115C407.326 172.828 407.145 172.543 406.97 172.256C407.215 172.421 407.467 172.582 407.711 172.748C407.919 173.031 408.136 173.312 408.34 173.597ZM410.638 174.961L410.25 174.731L409.951 174.301L410.276 174.527C410.397 174.671 410.516 174.817 410.638 174.961ZM197.719 -230.41C196.974 -229.694 196.212 -228.97 195.486 -228.263C195.722 -228.559 195.976 -228.863 196.212 -229.16C196.934 -229.887 197.691 -230.631 198.431 -231.367L197.719 -230.41ZM204.892 -237.309L201.602 -234.146C201.968 -234.63 202.308 -235.103 202.678 -235.589C203.816 -236.721 204.943 -237.846 206.088 -238.98C205.695 -238.425 205.28 -237.861 204.892 -237.309ZM212.336 -244.363C211.008 -243.119 209.666 -241.87 208.373 -240.642C208.843 -241.299 209.309 -241.954 209.785 -242.615C211.051 -243.851 212.358 -245.109 213.653 -246.359C213.204 -245.69 212.775 -245.029 212.336 -244.363ZM220.12 -251.673C218.475 -250.138 216.881 -248.628 215.25 -247.101C215.785 -247.895 216.352 -248.702 216.895 -249.5C218.444 -250.992 219.958 -252.469 221.534 -253.973C221.052 -253.202 220.594 -252.44 220.12 -251.673ZM227.951 -258.876C226.164 -257.24 224.369 -255.599 222.62 -253.981C223.139 -254.808 223.636 -255.628 224.165 -256.459C225.904 -258.111 227.674 -259.777 229.443 -261.442C228.947 -260.587 228.435 -259.727 227.951 -258.876ZM236.095 -266.32C234.118 -264.528 232.191 -262.76 230.247 -260.983C230.767 -261.883 231.283 -262.78 231.817 -263.684C233.675 -265.425 235.559 -267.177 237.463 -268.94C236.997 -268.063 236.548 -267.192 236.095 -266.32ZM244.449 -273.826C242.306 -271.907 240.172 -269.992 238.066 -268.09C238.559 -269.025 239.098 -269.976 239.605 -270.915C241.642 -272.799 243.685 -274.686 245.745 -276.58C245.305 -275.659 244.876 -274.742 244.449 -273.826ZM252.986 -281.42C250.724 -279.423 248.482 -277.436 246.272 -275.464C246.721 -276.409 247.143 -277.346 247.605 -278.295C249.739 -280.244 251.956 -282.23 254.157 -284.21C253.764 -283.279 253.367 -282.346 252.986 -281.42ZM261.809 -289.187C259.392 -287.068 257.01 -284.966 254.623 -282.861C255.022 -283.821 255.454 -284.789 255.868 -285.753C258.181 -287.837 260.457 -289.903 262.81 -292.005C262.469 -291.064 262.137 -290.125 261.809 -289.187ZM270.821 -297C268.298 -294.828 265.767 -292.652 263.314 -290.513C263.65 -291.454 263.97 -292.391 264.317 -293.336C266.708 -295.464 269.16 -297.621 271.612 -299.779C271.335 -298.85 271.085 -297.927 270.821 -297ZM280.062 -304.968C277.395 -302.684 274.806 -300.436 272.172 -298.167C272.448 -299.118 272.735 -300.072 273.023 -301.026C275.553 -303.25 278.097 -305.48 280.678 -307.728C280.467 -306.807 280.261 -305.887 280.062 -304.968ZM382.584 163.968C381.798 163.663 381.005 163.362 380.21 163.061C380.227 162.149 380.251 161.237 380.262 160.327C381.012 160.656 381.754 160.988 382.497 161.32C382.533 162.201 382.557 163.085 382.584 163.968ZM385.905 165.272C385.142 164.969 384.374 164.668 383.603 164.368C383.578 163.504 383.558 162.639 383.525 161.776C384.253 162.104 384.969 162.436 385.689 162.766C385.767 163.6 385.834 164.436 385.905 165.272ZM389.177 166.599C388.436 166.295 387.698 165.99 386.95 165.689C386.884 164.876 386.812 164.063 386.74 163.249C387.437 163.573 388.134 163.897 388.825 164.223C388.945 165.014 389.066 165.805 389.177 166.599ZM392.386 167.934C391.679 167.635 390.971 167.335 390.255 167.039C390.15 166.272 390.032 165.508 389.915 164.745C390.584 165.063 391.256 165.38 391.917 165.701C392.077 166.444 392.236 167.188 392.386 167.934ZM395.528 169.277C394.856 168.984 394.174 168.695 393.494 168.405C393.353 167.691 393.21 166.978 393.058 166.266C393.702 166.582 394.343 166.901 394.979 167.221C395.17 167.904 395.346 168.591 395.528 169.277ZM398.621 170.646C397.983 170.359 397.334 170.075 396.689 169.791C396.517 169.131 396.343 168.471 396.163 167.813C396.769 168.12 397.36 168.433 397.958 168.743C398.181 169.377 398.408 170.009 398.621 170.646ZM401.624 172.023C401.03 171.747 400.439 171.471 399.84 171.198C399.641 170.596 399.431 169.997 399.223 169.398C399.788 169.695 400.346 169.995 400.905 170.294C401.151 170.868 401.386 171.446 401.624 172.023ZM404.568 173.412C404.018 173.147 403.472 172.882 402.915 172.62C402.702 172.09 402.491 171.56 402.27 171.033C402.773 171.306 403.281 171.578 403.779 171.853C404.042 172.373 404.311 172.89 404.568 173.412ZM407.4 174.787C406.928 174.552 406.445 174.322 405.969 174.089C405.744 173.624 405.509 173.162 405.275 172.7C405.725 172.954 406.177 173.207 406.622 173.463C406.887 173.903 407.142 174.345 407.4 174.787ZM410.145 176.177C409.744 175.97 409.335 175.767 408.93 175.562C408.713 175.184 408.497 174.805 408.277 174.428C408.648 174.646 409.017 174.865 409.385 175.085C409.638 175.449 409.895 175.812 410.145 176.177ZM412.738 177.536C412.444 177.379 412.151 177.222 411.854 177.066C411.669 176.789 411.486 176.512 411.299 176.236C411.575 176.406 411.847 176.579 412.123 176.75C412.333 177.01 412.532 177.275 412.738 177.536ZM415.13 178.821C414.983 178.74 414.841 178.657 414.692 178.576C414.582 178.433 414.468 178.291 414.357 178.148C414.484 178.23 414.605 178.313 414.732 178.395C414.864 178.537 415 178.678 415.13 178.821ZM186.291 -217.858C185.588 -217.184 184.869 -216.502 184.175 -215.833C184.38 -216.086 184.566 -216.329 184.772 -216.582C185.498 -217.308 186.261 -218.05 187.004 -218.783C186.77 -218.476 186.524 -218.164 186.291 -217.858ZM193.609 -224.862C192.565 -223.87 191.563 -222.899 190.526 -221.911C190.899 -222.391 191.259 -222.867 191.634 -223.349C192.678 -224.374 193.696 -225.386 194.746 -226.416C194.37 -225.899 193.982 -225.377 193.609 -224.862ZM201.246 -232.023C199.901 -230.768 198.545 -229.507 197.223 -228.262C197.713 -228.929 198.223 -229.604 198.72 -230.274C199.98 -231.494 201.276 -232.731 202.556 -233.961C202.107 -233.31 201.688 -232.672 201.246 -232.023ZM209.065 -239.303C207.422 -237.789 205.827 -236.298 204.212 -234.797C204.752 -235.575 205.321 -236.365 205.87 -237.147C207.424 -238.63 208.969 -240.11 210.555 -241.608C210.053 -240.838 209.555 -240.069 209.065 -239.303ZM216.947 -246.514C215.2 -244.918 213.45 -243.321 211.722 -241.735C212.259 -242.559 212.77 -243.373 213.318 -244.202C215.047 -245.83 216.794 -247.468 218.54 -249.103C218.018 -248.244 217.457 -247.369 216.947 -246.514ZM225.252 -254.031C223.286 -252.268 221.334 -250.511 219.414 -248.771C219.963 -249.676 220.531 -250.589 221.094 -251.5C222.913 -253.191 224.786 -254.906 226.658 -256.621C226.17 -255.751 225.727 -254.897 225.252 -254.031ZM233.693 -261.592C231.555 -259.685 229.445 -257.79 227.329 -255.892C227.847 -256.821 228.382 -257.758 228.916 -258.692C230.983 -260.587 233.01 -262.464 235.105 -264.372C234.63 -263.444 234.154 -262.516 233.693 -261.592ZM242.325 -269.202C240.079 -267.237 237.822 -265.265 235.636 -263.328C236.111 -264.264 236.575 -265.196 237.064 -266.138C239.203 -268.074 241.398 -270.036 243.588 -271.997C243.16 -271.063 242.74 -270.132 242.325 -269.202ZM251.238 -277.012C248.799 -274.891 246.43 -272.803 244.03 -270.699C244.47 -271.671 244.956 -272.658 245.41 -273.635C247.71 -275.69 250.008 -277.744 252.352 -279.821C251.974 -278.883 251.603 -277.946 251.238 -277.012ZM260.329 -284.848C257.806 -282.681 255.292 -280.519 252.823 -278.377C253.199 -279.329 253.563 -280.276 253.954 -281.232C256.372 -283.368 258.81 -285.513 261.27 -287.67C260.946 -286.726 260.64 -285.788 260.329 -284.848ZM269.642 -292.811C266.985 -290.554 264.363 -288.312 261.76 -286.081C262.086 -287.049 262.436 -288.023 262.776 -288.994C265.291 -291.192 267.858 -293.414 270.439 -295.642C270.175 -294.699 269.893 -293.751 269.642 -292.811ZM279.213 -300.912C276.441 -298.577 273.712 -296.262 270.985 -293.949C271.245 -294.9 271.518 -295.854 271.791 -296.808C274.461 -299.114 277.093 -301.401 279.801 -303.724C279.602 -302.786 279.401 -301.848 279.213 -300.912ZM382.672 167.402C381.826 167.117 380.977 166.834 380.124 166.553C380.154 165.621 380.176 164.691 380.196 163.762C381.002 164.071 381.808 164.381 382.607 164.693C382.634 165.595 382.657 166.498 382.672 167.402ZM386.157 168.596C385.332 168.311 384.514 168.021 383.681 167.739C383.668 166.856 383.648 165.974 383.624 165.093C384.407 165.401 385.194 165.707 385.968 166.018C386.036 166.876 386.1 167.736 386.157 168.596ZM389.591 169.805C388.794 169.52 387.995 169.235 387.189 168.954C387.134 168.117 387.078 167.28 387.014 166.445C387.775 166.753 388.536 167.061 389.288 167.372C389.397 168.181 389.491 168.994 389.591 169.805ZM392.979 171.029C392.211 170.746 391.428 170.467 390.651 170.187C390.557 169.395 390.459 168.604 390.357 167.814C391.091 168.12 391.815 168.43 392.54 168.74C392.691 169.502 392.839 170.264 392.979 171.029ZM396.295 172.276C395.559 171.996 394.818 171.718 394.074 171.441C393.941 170.695 393.793 169.952 393.648 169.21C394.356 169.515 395.055 169.824 395.754 170.132C395.941 170.845 396.119 171.56 396.295 172.276ZM399.551 173.539C398.841 173.26 398.137 172.98 397.419 172.703C397.255 172.016 397.091 171.329 396.916 170.645C397.586 170.943 398.254 171.241 398.915 171.541C399.132 172.206 399.343 172.872 399.551 173.539ZM402.743 174.817C402.074 174.545 401.406 174.272 400.73 174.003C400.534 173.367 400.33 172.734 400.125 172.1C400.755 172.389 401.387 172.677 402.009 172.969C402.258 173.584 402.505 174.199 402.743 174.817ZM405.848 176.095C405.231 175.836 404.601 175.581 403.977 175.323C403.758 174.745 403.539 174.167 403.311 173.59C403.902 173.873 404.488 174.156 405.073 174.441C405.336 174.991 405.591 175.543 405.848 176.095ZM408.893 177.406C408.325 177.159 407.751 176.914 407.178 176.668C406.94 176.147 406.692 175.629 406.447 175.11C406.989 175.379 407.519 175.653 408.054 175.923C408.338 176.417 408.619 176.91 408.893 177.406ZM411.826 178.714C411.317 178.484 410.815 178.253 410.302 178.025C410.063 177.583 409.83 177.138 409.585 176.698C410.057 176.941 410.523 177.187 410.99 177.432C411.272 177.858 411.549 178.285 411.826 178.714ZM414.657 180.015C414.234 179.817 413.815 179.618 413.391 179.422C413.16 179.056 412.915 178.694 412.678 178.33C413.067 178.538 413.464 178.743 413.849 178.953C414.12 179.306 414.39 179.66 414.657 180.015ZM417.323 181.285C417.017 181.135 416.7 180.989 416.391 180.84C416.198 180.578 416.008 180.314 415.812 180.053C416.093 180.21 416.379 180.366 416.657 180.525C416.88 180.778 417.103 181.03 417.323 181.285ZM419.824 182.53L419.364 182.3C419.254 182.169 419.149 182.037 419.038 181.907L419.453 182.152C419.58 182.277 419.698 182.405 419.824 182.53ZM174.563 -205.162C173.985 -204.607 173.393 -204.047 172.814 -203.493C173.007 -203.728 173.193 -203.958 173.389 -204.193C173.988 -204.786 174.611 -205.391 175.219 -205.986C175.005 -205.715 174.774 -205.434 174.563 -205.162ZM182.222 -212.433C181.194 -211.47 180.19 -210.521 179.183 -209.568C179.55 -210.03 179.923 -210.497 180.294 -210.961C181.307 -211.949 182.271 -212.912 183.299 -213.907C182.928 -213.41 182.588 -212.927 182.222 -212.433ZM189.889 -219.58C188.516 -218.298 187.13 -217.011 185.759 -215.731C186.259 -216.395 186.807 -217.08 187.314 -217.747C188.614 -218.996 189.939 -220.256 191.247 -221.508C190.789 -220.863 190.34 -220.222 189.889 -219.58ZM197.697 -226.779C196.148 -225.367 194.595 -223.953 193.086 -222.561C193.606 -223.288 194.086 -223.997 194.614 -224.728C196.14 -226.173 197.701 -227.635 199.268 -229.1C198.75 -228.329 198.207 -227.546 197.697 -226.779ZM205.807 -234.178C204.035 -232.569 202.299 -230.977 200.542 -229.375C201.101 -230.204 201.66 -231.034 202.231 -231.868C203.938 -233.464 205.625 -235.049 207.35 -236.652C206.826 -235.824 206.319 -235.001 205.807 -234.178ZM214.134 -241.645C212.169 -239.893 210.195 -238.138 208.277 -236.409C208.847 -237.312 209.462 -238.234 210.044 -239.142C211.876 -240.831 213.762 -242.545 215.638 -244.255C215.124 -243.38 214.635 -242.515 214.134 -241.645ZM222.638 -249.221C220.513 -247.342 218.441 -245.489 216.351 -243.627C216.884 -244.536 217.376 -245.429 217.921 -246.343C219.986 -248.221 222.041 -250.096 224.145 -251.994C223.645 -251.07 223.124 -250.139 222.638 -249.221ZM231.394 -256.899C229.139 -254.927 226.889 -252.958 224.673 -251.006C225.181 -251.952 225.698 -252.901 226.221 -253.853C228.365 -255.782 230.535 -257.722 232.714 -259.667C232.257 -258.738 231.838 -257.822 231.394 -256.899ZM240.36 -264.687C237.947 -262.606 235.553 -260.533 233.195 -258.478C233.668 -259.45 234.172 -260.433 234.661 -261.41C236.937 -263.432 239.262 -265.477 241.596 -267.527C241.179 -266.579 240.763 -265.631 240.36 -264.687ZM249.552 -272.601C247.024 -270.433 244.532 -268.283 242.036 -266.13C242.453 -267.092 242.86 -268.05 243.293 -269.017C245.733 -271.159 248.14 -273.287 250.616 -275.446C250.25 -274.494 249.904 -273.549 249.552 -272.601ZM258.944 -280.568C256.298 -278.337 253.639 -276.099 251.065 -273.902C251.43 -274.872 251.825 -275.85 252.206 -276.823C254.715 -279.003 257.294 -281.215 259.869 -283.426C259.559 -282.473 259.24 -281.518 258.944 -280.568ZM268.602 -288.717C265.82 -286.384 263.106 -284.083 260.365 -281.771C260.671 -282.732 260.981 -283.694 261.301 -284.659C263.956 -286.938 266.606 -289.215 269.31 -291.518C269.065 -290.582 268.835 -289.65 268.602 -288.717ZM278.449 -296.908C275.571 -294.523 272.707 -292.146 269.894 -289.792C270.136 -290.735 270.359 -291.674 270.611 -292.619C273.366 -294.961 276.149 -297.316 278.96 -299.685C278.778 -298.757 278.62 -297.834 278.449 -296.908ZM382.706 170.851C381.801 170.587 380.899 170.323 379.987 170.062C380.03 169.116 380.065 168.172 380.098 167.228C380.962 167.514 381.826 167.799 382.679 168.088C382.692 169.008 382.704 169.928 382.706 170.851ZM386.367 171.932C385.487 171.668 384.601 171.406 383.715 171.145C383.713 170.24 383.701 169.337 383.688 168.435C384.531 168.723 385.367 169.014 386.203 169.305C386.262 170.18 386.321 171.054 386.367 171.932ZM389.961 173.024C389.111 172.76 388.246 172.503 387.388 172.242C387.345 171.38 387.291 170.522 387.235 169.662C388.059 169.952 388.869 170.248 389.683 170.541C389.782 171.367 389.873 172.196 389.961 173.024ZM393.507 174.148C392.676 173.882 391.843 173.617 391.005 173.354C390.922 172.543 390.839 171.732 390.744 170.923C391.539 171.212 392.329 171.503 393.117 171.796C393.252 172.578 393.38 173.363 393.507 174.148ZM397.008 175.292C396.199 175.024 395.396 174.753 394.578 174.488C394.457 173.725 394.329 172.964 394.201 172.203C394.962 172.489 395.729 172.773 396.482 173.063C396.662 173.805 396.842 174.546 397.008 175.292ZM400.42 176.441C399.653 176.178 398.881 175.916 398.105 175.656C397.948 174.937 397.78 174.22 397.611 173.505C398.349 173.792 399.084 174.08 399.814 174.37C400.023 175.058 400.22 175.75 400.42 176.441ZM403.786 177.61C403.053 177.349 402.304 177.095 401.564 176.838C401.372 176.171 401.186 175.502 400.988 174.837C401.689 175.12 402.377 175.406 403.069 175.691C403.311 176.33 403.556 176.968 403.786 177.61ZM407.066 178.805C406.377 178.551 405.682 178.298 404.984 178.046C404.765 177.428 404.533 176.813 404.303 176.198C404.971 176.477 405.632 176.761 406.293 177.043C406.559 177.628 406.811 178.217 407.066 178.805ZM410.294 180.02C409.637 179.769 408.987 179.514 408.322 179.265C408.085 178.712 407.85 178.158 407.606 177.608C408.214 177.872 408.825 178.136 409.428 178.403C409.718 178.941 410.013 179.478 410.294 180.02ZM413.403 181.23C412.813 180.995 412.222 180.762 411.626 180.53C411.373 180.033 411.112 179.539 410.848 179.045C411.412 179.299 411.982 179.552 412.54 179.809C412.835 180.28 413.114 180.756 413.403 181.23ZM416.447 182.457C415.922 182.24 415.383 182.029 414.852 181.814C414.596 181.385 414.334 180.957 414.072 180.529C414.566 180.762 415.059 180.996 415.547 181.231C415.848 181.64 416.156 182.045 416.447 182.457ZM419.344 183.685C418.905 183.497 418.464 183.309 418.021 183.123C417.778 182.773 417.543 182.423 417.296 182.076C417.712 182.28 418.119 182.488 418.53 182.694C418.806 183.023 419.074 183.354 419.344 183.685ZM422.132 184.905C421.798 184.756 421.471 184.605 421.135 184.457C420.926 184.196 420.708 183.939 420.496 183.68C420.811 183.842 421.116 184.009 421.427 184.172C421.662 184.416 421.901 184.659 422.132 184.905ZM424.623 186.025C424.468 185.953 424.306 185.884 424.15 185.812L423.798 185.427C423.934 185.502 424.077 185.574 424.213 185.648L424.623 186.025ZM162.938 -192.696L161.172 -191.015L161.68 -191.618C162.258 -192.184 162.85 -192.757 163.428 -193.323C163.259 -193.112 163.106 -192.907 162.938 -192.696ZM170.532 -199.829C169.507 -198.877 168.468 -197.917 167.464 -196.974C167.853 -197.455 168.269 -197.949 168.66 -198.431C169.635 -199.374 170.629 -200.325 171.628 -201.279C171.256 -200.793 170.898 -200.312 170.532 -199.829ZM178.277 -207.038C176.92 -205.784 175.616 -204.557 174.273 -203.311C174.727 -203.901 175.14 -204.472 175.6 -205.065C176.958 -206.358 178.304 -207.647 179.671 -208.946C179.209 -208.311 178.734 -207.67 178.277 -207.038ZM186.089 -214.166C184.591 -212.802 183.081 -211.434 181.606 -210.082C182.151 -210.826 182.682 -211.563 183.236 -212.311C184.695 -213.681 186.2 -215.074 187.691 -216.461C187.164 -215.699 186.607 -214.924 186.089 -214.166ZM194.392 -221.693C192.607 -220.089 190.859 -218.504 189.108 -216.917C189.685 -217.75 190.292 -218.596 190.882 -219.434C192.563 -220.993 194.222 -222.541 195.932 -224.114C195.402 -223.3 194.914 -222.503 194.392 -221.693ZM202.77 -229.174C200.806 -227.424 198.844 -225.675 196.904 -223.936C197.484 -224.824 198.083 -225.721 198.676 -226.615C200.556 -228.337 202.462 -230.071 204.368 -231.805C203.829 -230.926 203.296 -230.048 202.77 -229.174ZM211.288 -236.696C209.217 -234.882 207.148 -233.069 205.13 -231.281C205.686 -232.193 206.219 -233.096 206.789 -234.014C208.79 -235.824 210.839 -237.657 212.893 -239.493C212.367 -238.564 211.802 -237.62 211.288 -236.696ZM220.215 -244.516C217.928 -242.525 215.701 -240.563 213.446 -238.586C213.985 -239.542 214.555 -240.51 215.109 -241.472C217.278 -243.409 219.413 -245.33 221.611 -247.281C221.127 -246.353 220.685 -245.44 220.215 -244.516ZM229.211 -252.267C226.824 -250.219 224.43 -248.168 222.101 -246.149C222.597 -247.11 223.091 -248.07 223.603 -249.036C225.883 -251.051 228.227 -253.096 230.565 -255.137C230.113 -254.18 229.648 -253.218 229.211 -252.267ZM238.496 -260.219C235.962 -258.062 233.475 -255.929 230.988 -253.796C231.442 -254.767 231.896 -255.739 232.364 -256.715C234.774 -258.819 237.19 -260.926 239.648 -263.054C239.249 -262.104 238.881 -261.164 238.496 -260.219ZM247.963 -268.225C245.311 -265.991 242.677 -263.764 240.073 -261.553C240.477 -262.53 240.905 -263.514 241.324 -264.496C243.865 -266.69 246.426 -268.894 249.01 -271.11C248.659 -270.148 248.3 -269.184 247.963 -268.225ZM257.681 -276.364C254.918 -274.062 252.163 -271.765 249.463 -269.494C249.81 -270.465 250.161 -271.436 250.522 -272.411C253.141 -274.648 255.823 -276.917 258.507 -279.187C258.217 -278.242 257.959 -277.305 257.681 -276.364ZM267.599 -284.615C264.712 -282.225 261.887 -279.866 259.041 -277.496C259.329 -278.455 259.612 -279.413 259.914 -280.376C262.7 -282.732 265.449 -285.071 268.282 -287.449C268.049 -286.503 267.82 -285.558 267.599 -284.615ZM277.73 -292.922C274.747 -290.486 271.754 -288.045 268.85 -285.649C269.078 -286.604 269.335 -287.566 269.574 -288.524C272.411 -290.899 275.319 -293.31 278.23 -295.722C278.061 -294.788 277.889 -293.854 277.73 -292.922ZM382.682 174.31C381.726 174.071 380.762 173.835 379.798 173.599C379.854 172.638 379.914 171.676 379.962 170.716C380.885 170.981 381.797 171.25 382.713 171.518C382.71 172.447 382.692 173.379 382.682 174.31ZM386.507 175.28C385.574 175.039 384.628 174.802 383.685 174.564C383.696 173.646 383.711 172.727 383.715 171.81C384.614 172.076 385.505 172.345 386.395 172.615C386.436 173.502 386.475 174.39 386.507 175.28ZM390.282 176.276C389.367 176.031 388.45 175.787 387.525 175.546C387.496 174.67 387.457 173.797 387.415 172.925C388.291 173.191 389.165 173.459 390.031 173.729C390.119 174.577 390.206 175.425 390.282 176.276ZM393.983 177.284C393.095 177.038 392.21 176.792 391.313 176.549C391.242 175.717 391.16 174.888 391.076 174.06C391.928 174.328 392.784 174.596 393.626 174.868C393.753 175.672 393.868 176.478 393.983 177.284ZM397.641 178.313C396.779 178.065 395.91 177.821 395.038 177.577C394.927 176.791 394.82 176.003 394.699 175.22C395.526 175.49 396.347 175.762 397.164 176.036C397.327 176.794 397.488 177.552 397.641 178.313ZM401.229 179.357C400.402 179.111 399.563 178.871 398.727 178.629C398.579 177.883 398.42 177.142 398.26 176.399C399.063 176.67 399.851 176.948 400.643 177.222C400.844 177.932 401.04 178.643 401.229 179.357ZM404.753 180.432C403.953 180.185 403.151 179.938 402.342 179.694C402.161 179.001 401.98 178.309 401.788 177.619C402.554 177.888 403.316 178.158 404.074 178.431C404.306 179.096 404.53 179.764 404.753 180.432ZM408.215 181.524C407.448 181.278 406.689 181.03 405.913 180.786C405.703 180.144 405.481 179.504 405.261 178.863C405.986 179.127 406.719 179.389 407.435 179.656C407.7 180.277 407.961 180.9 408.215 181.524ZM411.595 182.628C410.874 182.387 410.148 182.149 409.42 181.912C409.184 181.32 408.947 180.729 408.7 180.14C409.387 180.401 410.072 180.66 410.75 180.924C411.034 181.491 411.317 182.058 411.595 182.628ZM414.893 183.747C414.23 183.516 413.552 183.292 412.881 183.064C412.621 182.521 412.348 181.981 412.077 181.442C412.725 181.697 413.361 181.957 414.002 182.216C414.305 182.724 414.6 183.235 414.893 183.747ZM418.116 184.897C417.498 184.673 416.878 184.45 416.252 184.229C415.983 183.752 415.724 183.272 415.446 182.798C416.032 183.039 416.603 183.285 417.18 183.528C417.493 183.984 417.81 184.438 418.116 184.897ZM421.224 186.046C420.677 185.84 420.139 185.63 419.586 185.426C419.316 185.014 419.035 184.605 418.755 184.196C419.278 184.421 419.802 184.647 420.321 184.874C420.63 185.262 420.922 185.656 421.224 186.046ZM424.23 187.197C423.768 187.016 423.301 186.836 422.834 186.657C422.582 186.323 422.327 185.992 422.072 185.66C422.496 185.851 422.927 186.039 423.346 186.231C423.639 186.554 423.942 186.873 424.23 187.197ZM427.039 188.326C426.706 188.189 426.367 188.056 426.031 187.921C425.827 187.684 425.632 187.444 425.423 187.209C425.733 187.356 426.045 187.503 426.352 187.65C426.585 187.874 426.809 188.101 427.039 188.326ZM429.708 189.444L429.176 189.218C429.056 189.095 428.928 188.976 428.805 188.854L429.291 189.098C429.428 189.214 429.571 189.328 429.708 189.444ZM151.105 -180.161C150.443 -179.541 149.819 -178.94 149.166 -178.324L149.504 -178.719L151.526 -180.688L151.105 -180.161ZM158.598 -187.129C157.575 -186.176 156.536 -185.216 155.515 -184.264C155.875 -184.702 156.219 -185.132 156.582 -185.572C157.598 -186.547 158.652 -187.539 159.685 -188.523C159.323 -188.059 158.954 -187.591 158.598 -187.129ZM166.317 -194.254C165.082 -193.13 163.855 -192.008 162.65 -190.899C163.104 -191.477 163.538 -192.045 163.998 -192.626C165.279 -193.838 166.526 -195.033 167.829 -196.255C167.336 -195.593 166.802 -194.913 166.317 -194.254ZM174.439 -201.651C172.911 -200.262 171.39 -198.876 169.869 -197.49C170.426 -198.231 170.994 -198.979 171.561 -199.724C172.991 -201.06 174.446 -202.407 175.883 -203.746C175.382 -203.038 174.933 -202.354 174.439 -201.651ZM182.713 -209.08C180.935 -207.497 179.144 -205.908 177.413 -204.348C178.014 -205.192 178.674 -206.062 179.286 -206.91C180.935 -208.429 182.632 -209.971 184.327 -211.513C183.779 -210.697 183.25 -209.891 182.713 -209.08ZM191.163 -216.616C189.208 -214.886 187.318 -213.188 185.391 -211.471C185.968 -212.327 186.499 -213.164 187.087 -214.026C189.013 -215.779 190.904 -217.514 192.857 -219.279C192.295 -218.393 191.712 -217.497 191.163 -216.616ZM199.81 -224.192C197.73 -222.375 195.649 -220.557 193.609 -218.76C194.193 -219.683 194.779 -220.607 195.376 -221.536C197.351 -223.311 199.375 -225.11 201.393 -226.906C200.854 -225.997 200.334 -225.095 199.81 -224.192ZM208.751 -231.969C206.467 -229.997 204.212 -228.038 201.976 -226.09C202.543 -227.053 203.168 -228.04 203.75 -229.01C205.897 -230.917 208.057 -232.83 210.25 -234.76C209.736 -233.824 209.25 -232.899 208.751 -231.969ZM217.818 -239.771C215.442 -237.733 213.085 -235.703 210.74 -233.68C211.258 -234.633 211.737 -235.57 212.269 -236.529C214.591 -238.568 216.928 -240.614 219.282 -242.669C218.798 -241.706 218.286 -240.73 217.818 -239.771ZM227.183 -247.731C224.669 -245.607 222.144 -243.478 219.694 -241.386C220.18 -242.365 220.684 -243.351 221.185 -244.336C223.549 -246.389 225.986 -248.478 228.414 -250.563C227.984 -249.612 227.599 -248.678 227.183 -247.731ZM236.727 -255.794C234.063 -253.557 231.469 -251.354 228.848 -249.139C229.285 -250.117 229.729 -251.099 230.182 -252.084C232.744 -254.285 235.281 -256.475 237.888 -258.699C237.5 -257.73 237.1 -256.758 236.727 -255.794ZM246.501 -263.93C243.744 -261.642 240.986 -259.355 238.292 -257.097C238.677 -258.073 239.066 -259.051 239.466 -260.033C242.085 -262.26 244.76 -264.516 247.438 -266.772C247.108 -265.82 246.818 -264.879 246.501 -263.93ZM256.458 -272.165C253.587 -269.802 250.742 -267.453 247.929 -265.119C248.258 -266.09 248.59 -267.062 248.934 -268.037C251.689 -270.357 254.479 -272.694 257.295 -275.044C257.018 -274.085 256.722 -273.12 256.458 -272.165ZM266.686 -280.548C263.699 -278.108 260.741 -275.684 257.806 -273.269C258.077 -274.235 258.37 -275.207 258.656 -276.175C261.526 -278.569 264.406 -280.967 267.323 -283.383C267.107 -282.437 266.891 -281.491 266.686 -280.548ZM277.103 -288.992C274.024 -286.508 270.936 -284.018 267.934 -281.572C268.145 -282.522 268.353 -283.472 268.575 -284.425C271.508 -286.848 274.533 -289.317 277.548 -291.781C277.395 -290.851 277.246 -289.921 277.103 -288.992ZM267.664 -280.362C270.701 -282.841 273.815 -285.356 276.923 -287.87C264.049 -201.835 295.397 -123.165 326.707 -44.586C345.72 3.13116 364.715 50.8149 373.779 100.092C362.499 57.7342 343.129 16.8395 323.642 -24.2926C285.631 -104.531 247.202 -185.68 267.664 -280.362ZM257.437 -271.984C260.395 -274.418 263.398 -276.875 266.414 -279.339C246.452 -185.032 284.781 -104.136 322.678 -24.1409C343.225 19.2301 363.636 62.3366 374.563 107.169C361.638 68.2283 340.814 30.8709 319.784 -6.84274C274.913 -87.3056 229.128 -169.395 257.437 -271.984ZM175.456 -201.534C177.297 -203.198 179.155 -204.872 181.039 -206.559C75.3542 -44.7611 187.342 22.2266 292.572 85.1241C322.914 103.26 352.681 121.058 376.482 140.7M382.615 177.791C381.607 177.577 380.59 177.366 379.572 177.155C379.642 176.18 379.702 175.205 379.761 174.231C380.737 174.471 381.709 174.712 382.674 174.955C382.66 175.899 382.641 176.845 382.615 177.791ZM386.597 178.655C385.604 178.437 384.616 178.217 383.614 178.003C383.641 177.071 383.663 176.139 383.677 175.209C384.632 175.451 385.589 175.692 386.533 175.938C386.562 176.842 386.578 177.749 386.597 178.655ZM390.531 179.537C389.559 179.316 388.589 179.094 387.607 178.876C387.592 177.986 387.579 177.095 387.553 176.208C388.483 176.452 389.413 176.696 390.332 176.944C390.403 177.807 390.471 178.671 390.531 179.537ZM394.405 180.435C393.463 180.212 392.512 179.992 391.559 179.773C391.501 178.921 391.433 178.07 391.364 177.221C392.276 177.469 393.176 177.722 394.079 177.974C394.194 178.793 394.305 179.613 394.405 180.435ZM398.215 181.354C397.3 181.129 396.373 180.908 395.447 180.687C395.349 179.878 395.245 179.071 395.134 178.266C396.025 178.518 396.908 178.773 397.791 179.028C397.94 179.801 398.075 180.578 398.215 181.354ZM401.983 182.305C401.085 182.076 400.188 181.846 399.281 181.619C399.146 180.859 399.014 180.099 398.87 179.341C399.722 179.591 400.575 179.84 401.417 180.093C401.611 180.829 401.804 181.565 401.983 182.305ZM405.655 183.266C404.794 183.037 403.939 182.807 403.069 182.581C402.898 181.863 402.715 181.149 402.531 180.434C403.36 180.686 404.192 180.936 405.011 181.191C405.234 181.88 405.443 182.574 405.655 183.266ZM409.293 184.253C408.463 184.023 407.624 183.796 406.784 183.568C406.581 182.898 406.382 182.227 406.169 181.559C406.961 181.81 407.746 182.063 408.528 182.317C408.787 182.962 409.05 183.605 409.293 184.253ZM412.822 185.252C412.042 185.026 411.247 184.806 410.459 184.583C410.226 183.954 409.981 183.329 409.733 182.704C410.502 182.958 411.254 183.218 412.014 183.476C412.293 184.064 412.553 184.659 412.822 185.252ZM416.312 186.29C415.561 186.063 414.81 185.837 414.051 185.613C413.796 185.042 413.537 184.471 413.274 183.902C413.987 184.147 414.694 184.394 415.398 184.643C415.706 185.19 416.015 185.738 416.312 186.29ZM419.688 187.335C418.989 187.114 418.297 186.89 417.59 186.673C417.317 186.157 417.041 185.642 416.758 185.129C417.419 185.366 418.088 185.601 418.742 185.842C419.063 186.337 419.376 186.836 419.688 187.335ZM422.989 188.394C422.356 188.186 421.715 187.98 421.075 187.774C420.791 187.312 420.493 186.853 420.2 186.393C420.807 186.621 421.416 186.849 422.017 187.08C422.347 187.516 422.669 187.955 422.989 188.394ZM426.18 189.468C425.619 189.275 425.044 189.086 424.476 188.895C424.195 188.501 423.923 188.104 423.635 187.712C424.17 187.922 424.695 188.135 425.223 188.348C425.543 188.721 425.867 189.093 426.18 189.468ZM429.245 190.553C428.777 190.385 428.309 190.216 427.836 190.05C427.567 189.72 427.289 189.394 427.01 189.067C427.478 189.261 427.93 189.46 428.393 189.655C428.685 189.952 428.959 190.255 429.245 190.553ZM432.174 191.629C431.808 191.491 431.452 191.349 431.083 191.213C430.866 190.981 430.644 190.751 430.426 190.521C430.757 190.665 431.086 190.811 431.416 190.957C431.666 191.182 431.927 191.403 432.174 191.629ZM434.807 192.633C434.638 192.566 434.463 192.503 434.295 192.438C434.175 192.326 434.06 192.212 433.94 192.1C434.093 192.171 434.252 192.239 434.404 192.31L434.807 192.633ZM288.002 -300.321C287.912 -299.403 287.814 -298.485 287.733 -297.568C284.524 -294.997 281.414 -292.473 278.268 -289.933C278.415 -290.866 278.556 -291.8 278.716 -292.736C281.801 -295.26 284.858 -297.769 288.002 -300.321ZM288.395 -304.127C288.293 -303.213 288.199 -302.3 288.106 -301.388C284.998 -298.866 281.964 -296.381 278.907 -293.885C279.071 -294.828 279.256 -295.775 279.429 -296.719C282.4 -299.18 285.371 -301.64 288.395 -304.127ZM288.851 -307.966C288.736 -307.052 288.632 -306.14 288.527 -305.227C285.54 -302.773 282.581 -300.333 279.648 -297.905C279.825 -298.845 280.002 -299.783 280.191 -300.725C283.039 -303.12 285.946 -305.544 288.851 -307.966ZM289.372 -311.842C289.243 -310.922 289.105 -310.001 288.985 -309.082C286.13 -306.703 283.247 -304.311 280.448 -301.959C280.64 -302.899 280.835 -303.838 281.038 -304.78C283.764 -307.109 286.587 -309.485 289.372 -311.842ZM289.939 -315.746C289.797 -314.829 289.665 -313.913 289.534 -312.997C286.774 -310.663 283.997 -308.321 281.298 -306.015C281.505 -306.953 281.738 -307.895 281.956 -308.835C284.589 -311.126 287.244 -313.426 289.939 -315.746ZM290.568 -319.644C290.416 -318.746 290.276 -317.848 290.133 -316.951C287.467 -314.659 284.868 -312.398 282.261 -310.133C282.483 -311.071 282.698 -312.008 282.932 -312.947C285.419 -315.153 288.021 -317.41 290.568 -319.644ZM291.276 -323.615C291.107 -322.7 290.93 -321.784 290.771 -320.87C288.292 -318.7 285.719 -316.486 283.295 -314.342C283.529 -315.26 283.769 -316.179 284.014 -317.098C286.394 -319.252 288.838 -321.434 291.276 -323.615ZM292.033 -327.603C291.852 -326.697 291.68 -325.79 291.509 -324.884C289.132 -322.762 286.706 -320.617 284.385 -318.521C284.635 -319.44 284.906 -320.362 285.167 -321.283C287.431 -323.379 289.713 -325.483 292.033 -327.603ZM292.863 -331.629C292.668 -330.728 292.488 -329.827 292.305 -328.927C290.053 -326.872 287.795 -324.814 285.596 -322.783C285.857 -323.685 286.105 -324.584 286.376 -325.488C288.53 -327.531 290.655 -329.562 292.863 -331.629ZM293.779 -335.701C293.571 -334.799 293.357 -333.898 293.16 -332.998C291.035 -331.013 288.947 -329.044 286.876 -327.082C287.151 -327.983 287.436 -328.884 287.722 -329.787C289.747 -331.761 291.705 -333.706 293.779 -335.701ZM294.738 -339.737C294.523 -338.865 294.309 -337.993 294.104 -337.121C292.108 -335.205 290.183 -333.321 288.235 -331.426C288.527 -332.321 288.84 -333.22 289.141 -334.117C291.006 -335.99 292.832 -337.847 294.738 -339.737ZM295.759 -343.785C295.539 -342.953 295.34 -342.123 295.13 -341.291C293.286 -339.467 291.543 -337.685 289.741 -335.879C290.037 -336.741 290.319 -337.602 290.625 -338.466C292.322 -340.234 294.023 -342.002 295.759 -343.785ZM296.884 -347.893C296.656 -347.076 296.428 -346.259 296.21 -345.443C294.549 -343.744 292.962 -342.076 291.331 -340.389C291.638 -341.237 291.95 -342.086 292.267 -342.936C293.781 -344.579 295.334 -346.236 296.884 -347.893ZM298.066 -351.999C297.832 -351.211 297.591 -350.421 297.364 -349.633C295.893 -348.069 294.46 -346.519 293.015 -344.965C293.331 -345.792 293.673 -346.624 293.997 -347.452C295.32 -348.956 296.709 -350.483 298.066 -351.999ZM299.296 -356.086C299.068 -355.356 298.857 -354.627 298.635 -353.898C297.376 -352.498 296.123 -351.1 294.888 -349.71C295.187 -350.455 295.481 -351.201 295.787 -351.948C296.932 -353.318 298.125 -354.706 299.296 -356.086ZM300.638 -360.22C300.415 -359.547 300.2 -358.874 299.983 -358.202C298.958 -357.002 297.915 -355.795 296.907 -354.602C297.176 -355.237 297.44 -355.871 297.713 -356.507C298.683 -357.743 299.647 -358.977 300.638 -360.22ZM301.993 -364.214C301.8 -363.657 301.599 -363.1 301.41 -362.543C300.65 -361.598 299.858 -360.642 299.111 -359.701C299.322 -360.179 299.541 -360.658 299.756 -361.136C300.504 -362.163 301.232 -363.183 301.993 -364.214ZM303.27 -367.86C303.161 -367.564 303.062 -367.268 302.956 -366.972C302.501 -366.363 302.024 -365.747 301.575 -365.14C301.68 -365.364 301.793 -365.589 301.897 -365.813L303.27 -367.86ZM374.819 173.042C374.716 174.07 374.608 175.098 374.493 176.128C341.322 169.553 303.555 164.716 265.06 159.791C190.159 150.209 112.525 140.276 60.9967 116.454C-14.5432 81.5301 -34.0368 16.655 93.0663 -120.876C-22.5855 11.0486 2.37878 73.8353 79.012 108.995C128.361 131.636 199.096 142.795 267.503 153.586C305.339 159.555 342.454 165.414 374.819 173.042ZM375.184 169.373C375.09 170.388 374.983 171.405 374.881 172.422C342.537 164.829 305.51 158.983 267.766 153.03C199.461 142.254 128.827 131.111 79.6357 108.543C0.78363 72.3646 -23.0097 6.72852 105.93 -133.997C-11.6977 1.52863 18.1747 65.1658 98.5246 101.729C145.101 122.923 208.607 134.997 270.178 146.702C307.268 153.753 343.652 160.671 375.184 169.373ZM375.483 165.724C375.405 166.726 375.325 167.728 375.237 168.731C343.741 160.077 307.465 153.181 270.492 146.152C209.002 134.462 145.581 122.405 99.1436 101.274C16.4577 63.6485 -12.4479 -2.84192 118.999 -147.473C-1.33972 -7.49756 34.5027 57.0892 119.218 95.2966C162.48 114.808 218.452 127.421 272.874 139.684C309.196 147.869 344.815 155.901 375.483 165.724ZM375.749 162.09C375.682 163.081 375.613 164.072 375.537 165.065C344.915 155.301 309.423 147.299 273.238 139.146C218.88 126.896 162.973 114.298 119.833 94.8419C33.1063 55.7271 -2.16595 -11.1798 130.162 -158.983L130.843 -159.645C8.58478 -15.2665 51.9952 49.9817 141.588 89.9994C180.772 107.502 228.772 120.167 275.594 132.52C311.124 141.895 345.969 151.092 375.749 162.09ZM375.98 158.481C375.923 159.456 375.855 160.433 375.792 161.409C346.069 150.485 311.379 141.327 276.01 131.995C229.241 119.655 181.296 107.005 142.199 89.5423C51.5792 49.0652 8.45187 -17.3732 137.413 -166.036C138.09 -166.69 138.73 -167.325 139.414 -167.983C18.4727 -20.6061 71.7852 44.4714 166.538 86.351C200.535 101.377 239.845 113.409 278.34 125.192C313.062 135.819 347.115 146.245 375.98 158.481ZM376.15 154.889C376.108 155.847 376.067 156.804 376.016 157.763C347.219 145.621 313.342 135.25 278.807 124.68C240.347 112.908 201.074 100.887 167.145 85.8913C71.6481 43.6834 18.3997 -22.1905 144.459 -172.784C145.471 -173.747 146.499 -174.719 147.511 -175.684C-4.77832 16.8294 143.476 69.1415 281.111 117.674C314.999 129.624 348.231 141.349 376.15 154.889ZM376.293 151.31C376.261 152.251 376.225 153.193 376.186 154.136C348.343 140.709 315.31 129.056 281.632 117.18C143.278 68.3943 -5.80283 15.7654 152.192 -180.124C153.307 -181.172 154.47 -182.243 155.615 -183.305C15.3437 1.4234 154.472 57.6297 283.918 109.943C316.951 123.292 349.349 136.389 376.293 151.31ZM376.396 147.761C376.373 148.678 376.345 149.596 376.316 150.514C349.458 135.731 317.288 122.725 284.489 109.47C154.472 56.9256 14.748 0.405151 159.654 -187.058C161.144 -188.44 162.595 -189.802 164.104 -191.193C35.4138 -14.0489 165.41 45.9734 286.76 101.968C318.922 116.809 350.462 131.369 376.396 147.761ZM376.453 144.218C376.444 145.111 376.436 146.004 376.418 146.899C350.576 130.677 319.281 116.234 287.383 101.516C165.612 45.3256 35.075 -14.91 167.344 -194.151C169.042 -195.706 170.78 -197.28 172.507 -198.85C55.4704 -29.4236 176.387 34.1899 289.641 93.7102C320.902 110.139 351.565 126.26 376.453 144.218ZM376.469 137.194C376.474 138.02 376.477 138.845 376.479 139.672C352.779 120.28 323.314 102.667 293.294 84.7236C187.738 21.6313 75.3954 -45.5954 183.713 -208.944C185.703 -210.722 187.697 -212.504 189.707 -214.293C95.1046 -60.0692 198.281 10.0552 295.557 76.1555C324.952 96.1295 353.8 115.738 376.469 137.194ZM376.418 133.704C376.436 134.493 376.455 135.281 376.464 136.071C353.893 114.91 325.376 95.5238 296.321 75.782C198.749 9.48154 95.249 -60.8815 192.148 -216.463C194.275 -218.343 196.475 -220.258 198.662 -222.168C114.764 -75.4183 209.188 -2.37616 298.604 66.7338C327.028 88.7024 354.933 110.277 376.418 133.704ZM376.346 130.237C376.367 130.964 376.376 131.693 376.392 132.421C355.001 109.356 327.454 88.064 299.408 66.3873C209.743 -2.91461 115.007 -76.1644 200.798 -224.037C203.104 -226.052 205.397 -228.061 207.746 -230.097C134.205 -90.7609 220.068 -15.1215 301.722 56.7701C329.152 80.921 356.1 104.65 376.346 130.237ZM376.221 126.774C376.245 127.443 376.272 128.111 376.294 128.781C356.133 103.631 329.583 80.2447 302.56 56.4529C220.684 -15.6356 134.576 -91.5007 209.732 -231.806C212.122 -233.871 214.55 -235.955 216.985 -238.043C153.491 -106.115 230.937 -28.2376 304.924 46.1522C331.329 72.7018 357.284 98.8092 376.221 126.774ZM376.073 123.33C376.103 123.916 376.135 124.502 376.161 125.089C357.292 97.6521 331.756 71.9724 305.789 45.8643C231.601 -28.7288 153.918 -106.83 218.79 -239.596C221.322 -241.763 223.903 -243.953 226.497 -246.15C172.608 -121.576 241.768 -41.8367 308.218 34.733C333.574 63.9513 358.525 92.7115 376.073 123.33ZM375.899 119.905C375.926 120.374 375.945 120.845 375.971 121.314C358.464 91.3515 333.983 63.1337 309.113 34.4749C242.481 -42.3029 173.122 -122.27 228.161 -247.556C230.809 -249.799 233.445 -252.036 236.134 -254.299C191.448 -137.108 252.573 -56.0255 311.62 22.3185C335.904 54.5368 359.834 86.2914 375.899 119.905ZM375.679 116.465L375.744 117.436C359.682 84.6501 336.28 53.5896 312.537 22.0876C253.324 -56.475 192.046 -137.803 237.697 -255.612C240.428 -257.902 243.248 -260.235 246.05 -262.561C210.12 -152.822 263.349 -70.9695 315.152 8.64288C338.33 44.2631 361.217 79.437 375.679 116.465ZM375.444 113.075L375.466 113.339C360.942 77.3802 338.656 43.1203 316.09 8.43903C264.141 -71.3976 210.759 -153.488 247.479 -263.75C250.341 -266.127 253.214 -268.509 256.131 -270.913C228.459 -168.761 274.088 -86.9018 318.832 -6.66574C340.891 32.8943 362.732 72.0612 375.444 113.075ZM330.918 -69.2746C348.592 -15.9882 366.392 37.688 373.387 92.8553C363.861 46.0915 345.78 0.703033 327.682 -44.7151C296.274 -123.542 264.842 -202.462 278.088 -288.81C281.261 -291.376 284.404 -293.927 287.647 -296.527C281.108 -219.461 305.88 -144.758 330.918 -69.2746ZM377.073 123.222L377.026 122.307L377.181 122.636C377.22 122.963 377.262 123.29 377.299 123.618L377.073 123.222ZM377.222 126.652C377.203 126.189 377.192 125.725 377.172 125.262C377.296 125.483 377.425 125.703 377.548 125.924L377.696 127.352L377.222 126.652ZM377.345 130.092C377.328 129.508 377.303 128.924 377.283 128.34C377.491 128.652 377.692 128.965 377.896 129.278C377.952 129.847 377.996 130.419 378.047 130.989C377.814 130.69 377.582 130.39 377.345 130.092ZM377.419 133.543L377.38 131.561L378.188 132.602C378.246 133.259 378.307 133.916 378.359 134.574C378.046 134.231 377.735 133.886 377.419 133.543ZM377.472 137.018C377.466 136.288 377.457 135.559 377.445 134.831C377.782 135.202 378.123 135.571 378.454 135.943C378.505 136.661 378.558 137.378 378.606 138.096C378.231 137.736 377.851 137.377 377.472 137.018ZM377.486 140.506C377.487 139.719 377.481 138.934 377.477 138.149C377.886 138.541 378.287 138.935 378.692 139.327C378.739 140.09 378.777 140.853 378.819 141.615C378.375 141.246 377.933 140.875 377.486 140.506ZM377.46 144.003C377.469 143.181 377.487 142.359 377.491 141.538C377.952 141.923 378.421 142.306 378.877 142.692C378.922 143.502 378.966 144.313 379 145.125C378.49 144.75 377.976 144.376 377.46 144.003ZM377.409 147.529C377.428 146.663 377.438 145.799 377.448 144.934C377.982 145.324 378.506 145.716 379.035 146.107C379.067 146.944 379.097 147.781 379.123 148.619C378.554 148.255 377.982 147.892 377.409 147.529ZM377.305 151.055C377.333 150.166 377.36 149.277 377.383 148.388C377.976 148.765 378.57 149.141 379.155 149.52C379.179 150.388 379.192 151.257 379.209 152.126C378.577 151.768 377.945 151.41 377.305 151.055ZM377.168 154.613C377.209 153.695 377.248 152.777 377.282 151.86C377.934 152.224 378.578 152.591 379.223 152.957C379.24 153.849 379.257 154.74 379.262 155.632C378.57 155.291 377.867 154.952 377.168 154.613ZM377 158.182C377.052 157.242 377.092 156.305 377.133 155.366C377.845 155.714 378.556 156.064 379.261 156.415C379.263 157.327 379.264 158.239 379.258 159.152C378.506 158.828 377.757 158.504 377 158.182ZM376.774 161.769C376.837 160.813 376.901 159.856 376.958 158.901C377.726 159.23 378.494 159.558 379.258 159.888C379.247 160.818 379.229 161.751 379.212 162.682C378.403 162.376 377.592 162.071 376.774 161.769ZM376.517 165.38C376.593 164.403 376.664 163.426 376.73 162.45C377.56 162.759 378.379 163.071 379.197 163.383C379.18 164.329 379.161 165.274 379.131 166.221C378.265 165.938 377.389 165.66 376.517 165.38ZM376.219 169.005C376.307 168.015 376.385 167.027 376.463 166.038C377.347 166.323 378.23 166.609 379.105 166.897C379.072 167.858 379.035 168.82 378.992 169.783C378.07 169.522 377.149 169.262 376.219 169.005ZM375.864 172.651C375.966 171.65 376.072 170.648 376.166 169.649C377.103 169.909 378.037 170.17 378.967 170.433C378.92 171.407 378.861 172.383 378.804 173.358C377.829 173.121 376.851 172.885 375.864 172.651ZM375.476 176.324C375.591 175.306 375.698 174.288 375.802 173.271C376.799 173.508 377.783 173.749 378.769 173.99C378.711 174.976 378.651 175.961 378.581 176.949C377.551 176.738 376.514 176.531 375.476 176.324ZM341.845 285.518C361.03 248.358 371.341 212.252 375.404 176.933C376.451 177.142 377.494 177.354 378.532 177.568C375.99 212.223 366.604 247.984 347.311 285.353L348.271 285.518C367.558 248.161 376.958 212.414 379.522 177.774C380.55 177.987 381.578 178.199 382.595 178.415C381.584 212.381 373.139 247.778 353.74 285.353L354.701 285.518C374.092 247.961 382.553 212.582 383.594 178.634C384.604 178.851 385.608 179.071 386.608 179.292C387.156 212.553 379.674 247.573 360.167 285.353L361.128 285.518C380.623 247.758 388.131 212.756 387.62 179.512C388.615 179.735 389.596 179.963 390.581 180.189C392.719 212.731 386.207 247.366 366.594 285.353L367.555 285.518C387.153 247.558 393.697 212.944 391.609 180.425C392.572 180.649 393.527 180.874 394.48 181.102C398.244 212.911 392.745 247.15 373.022 285.353L373.982 285.518C393.688 247.35 399.223 213.137 395.523 181.353C396.464 181.58 397.407 181.806 398.338 182.037C403.758 213.098 399.288 246.933 379.452 285.353L380.412 285.518C400.224 247.143 404.745 213.34 399.405 182.307C400.32 182.537 401.235 182.767 402.139 183.001C409.246 213.297 405.828 246.714 385.878 285.353L386.839 285.518C406.761 246.933 410.239 213.549 403.227 183.282C404.119 183.516 404.995 183.753 405.877 183.991C414.707 213.505 412.369 246.492 392.304 285.353L393.265 285.518C413.295 246.724 415.712 213.775 407.004 184.292C407.865 184.527 408.713 184.766 409.563 185.005C420.15 213.721 418.914 246.267 398.735 285.353L399.695 285.518C419.831 246.516 421.162 214.015 410.728 185.334C411.549 185.568 412.37 185.802 413.181 186.04C425.562 213.942 425.46 246.036 405.161 285.353L406.122 285.518C426.364 246.311 426.6 214.269 414.413 186.408C415.187 186.639 415.967 186.867 416.732 187.102C430.949 214.171 432.009 245.801 411.588 285.353L412.549 285.518C432.901 246.1 431.996 214.532 418.021 187.505C418.767 187.737 419.507 187.973 420.244 188.209C436.319 214.424 438.554 245.573 418.017 285.353L418.975 285.518C439.432 245.897 437.388 214.816 421.607 188.643C422.299 188.869 422.973 189.103 423.657 189.332C441.644 214.677 445.108 245.332 424.445 285.353L425.405 285.518C445.961 245.703 442.75 215.13 425.142 189.831C425.775 190.049 426.402 190.269 427.027 190.49C446.956 214.945 451.659 245.092 430.871 285.353L431.832 285.518C452.483 245.519 448.09 215.472 428.644 191.067C429.194 191.266 429.754 191.461 430.299 191.662C452.227 215.21 458.215 244.838 437.298 285.353L438.259 285.518C458.993 245.36 453.434 215.856 432.153 192.368C432.608 192.54 433.065 192.711 433.514 192.886C457.47 215.503 464.773 244.591 443.728 285.353L444.688 285.518C465.49 245.228 458.761 216.293 435.665 193.74C436.011 193.879 436.355 194.02 436.699 194.16C462.698 215.823 471.322 244.357 450.155 285.353L451.115 285.518C471.96 245.143 464.083 216.809 439.222 195.211C439.397 195.286 439.569 195.363 439.742 195.438C467.873 216.13 477.885 244.093 456.582 285.353L457.542 285.518C478.229 245.449 469.578 217.86 443.534 197.289C473.218 216.948 484.254 244.205 463.01 285.353L463.969 285.518C484.221 246.294 475.356 219.624 449.019 200.123C479.01 218.704 490.247 245.048 469.439 285.353L470.398 285.518C490.197 247.168 481.191 221.394 454.701 202.905C484.854 220.47 496.225 245.921 475.865 285.353L476.826 285.518C499.287 242.014 483.459 215.42 446.44 197.667C444.666 196.649 442.818 195.662 440.931 194.69C439.208 193.632 437.444 192.59 435.612 191.576C433.961 190.488 432.247 189.424 430.494 188.376C428.865 187.219 427.191 186.077 425.461 184.959C423.922 183.78 422.334 182.62 420.702 181.476C419.184 180.213 417.616 178.969 416.003 177.741C414.582 176.458 413.126 175.188 411.621 173.935C410.236 172.566 408.796 171.216 407.326 169.876C406.004 168.443 404.645 167.022 403.242 165.617C402.032 164.172 400.787 162.738 399.505 161.317C398.344 159.775 397.135 158.248 395.903 156.73C394.806 155.102 393.674 153.487 392.507 151.881C391.501 150.2 390.47 148.527 389.4 146.865C388.494 145.143 387.565 143.427 386.601 141.721C385.782 139.922 384.939 138.13 384.064 136.346C383.337 134.475 382.587 132.609 381.811 130.752C381.18 128.802 380.529 126.857 379.848 124.918C379.334 122.957 378.794 121.001 378.238 119.049C377.809 116.937 377.355 114.83 376.882 112.727C376.566 110.578 376.229 108.433 375.872 106.291C370.28 46.3428 351.018 -11.7481 331.902 -69.3836C306.781 -145.117 281.924 -220.063 288.724 -297.386C342.36 -340.357 404.698 -387.601 476.737 -439.593L475.958 -439.953C404.312 -388.245 342.273 -341.233 288.827 -298.438C288.91 -299.359 289.003 -300.281 289.097 -301.203C340.727 -343.063 400.786 -389.03 470.311 -439.593L469.529 -439.953C400.401 -389.68 340.641 -343.949 289.201 -302.27C289.299 -303.193 289.408 -304.117 289.513 -305.041C339.124 -345.785 396.891 -390.471 463.884 -439.594L463.098 -439.952C396.52 -391.133 339.056 -346.695 289.643 -306.141C289.753 -307.059 289.852 -307.978 289.971 -308.896C337.549 -348.522 393.018 -391.922 457.458 -439.596L456.671 -439.951C392.664 -392.598 337.503 -349.454 290.129 -310.032C290.252 -310.958 290.385 -311.885 290.518 -312.812C336.039 -351.301 389.194 -393.403 451.032 -439.597L450.241 -439.95C388.843 -394.086 335.995 -352.245 290.679 -313.968C290.818 -314.899 290.967 -315.831 291.114 -316.763C334.559 -354.102 385.407 -394.906 444.608 -439.598L443.813 -439.949C385.077 -395.608 334.537 -355.079 291.309 -317.968C291.455 -318.869 291.593 -319.771 291.748 -320.673C333.131 -356.892 381.58 -396.373 438.181 -439.599L437.381 -439.948C381.255 -397.085 333.145 -357.901 291.978 -321.921C292.142 -322.843 292.311 -323.765 292.485 -324.688C331.762 -359.747 377.842 -397.901 431.756 -439.6L430.953 -439.947C377.515 -398.617 331.779 -360.77 292.717 -325.957C292.896 -326.881 293.09 -327.806 293.279 -328.731C330.436 -362.624 374.13 -399.444 425.331 -439.602L424.524 -439.944C373.82 -400.177 330.486 -363.684 293.551 -330.054C293.743 -330.969 293.93 -331.884 294.13 -332.8C329.151 -365.523 370.445 -401 418.904 -439.604L418.093 -439.943C370.153 -401.753 329.239 -366.628 294.447 -334.188C294.652 -335.101 294.859 -336.014 295.074 -336.928C327.938 -368.466 366.803 -402.582 412.479 -439.606L411.663 -439.941C366.514 -403.344 328.039 -369.594 295.407 -338.355C295.627 -339.269 295.868 -340.186 296.099 -341.102C326.785 -371.444 363.197 -404.185 406.053 -439.608L405.234 -439.938C362.928 -404.97 326.926 -372.624 296.478 -342.604C296.706 -343.485 296.938 -344.367 297.175 -345.25C325.685 -374.414 359.585 -405.771 399.631 -439.61L398.803 -439.936C359.379 -406.621 325.877 -375.698 297.633 -346.912C297.865 -347.755 298.089 -348.599 298.331 -349.443C324.642 -377.418 356.014 -407.381 393.205 -439.614L392.37 -439.933C355.837 -408.272 324.89 -378.788 298.857 -351.233C299.099 -352.059 299.349 -352.885 299.6 -353.712C323.686 -380.479 352.496 -409.025 386.781 -439.616L385.942 -439.931C352.338 -409.948 323.973 -381.92 300.169 -355.609C300.417 -356.41 300.687 -357.212 300.944 -358.013C322.786 -383.567 349.017 -410.689 380.359 -439.62L379.508 -439.926C348.909 -411.679 323.169 -385.154 301.63 -360.128C301.875 -360.872 302.119 -361.615 302.371 -362.36C321.946 -386.689 345.578 -412.375 373.934 -439.625L373.075 -439.922C345.541 -413.46 322.46 -388.473 303.211 -364.767C303.448 -365.441 303.676 -366.115 303.918 -366.79C321.197 -389.875 342.202 -414.099 367.513 -439.63L366.642 -439.917C342.248 -415.311 321.871 -391.923 304.947 -369.592C305.16 -370.167 305.376 -370.744 305.593 -371.32C320.55 -393.136 338.883 -415.866 361.091 -439.636L360.209 -439.91C339.067 -417.28 321.464 -395.601 306.907 -374.746C307.039 -375.083 307.178 -375.421 307.312 -375.757C319.942 -396.343 335.559 -417.602 354.67 -439.645L353.776 -439.902C336.241 -419.677 321.651 -400.112 309.598 -381.12C319.796 -400.187 332.531 -419.674 348.25 -439.654L347.337 -439.892C333.861 -422.762 322.578 -405.995 313.195 -389.544C320.752 -406.086 330.198 -422.784 341.83 -439.667L340.902 -439.88C327.072 -419.809 316.315 -400 308.163 -380.405C306.463 -377.206 304.822 -374.016 303.262 -370.84C301.254 -367.449 299.355 -364.084 297.502 -360.729C295.269 -357.253 293.105 -353.796 291.042 -350.366C288.532 -346.724 286.097 -343.104 283.784 -339.522C281.119 -335.845 278.581 -332.211 276.106 -328.598C273.327 -324.922 270.635 -321.276 268.039 -317.665C264.996 -313.797 262.043 -309.963 259.21 -306.175C255.948 -302.16 252.831 -298.201 249.798 -294.276C246.623 -290.463 243.547 -286.69 240.574 -282.96C237.324 -279.153 234.161 -275.382 231.111 -271.659C227.142 -267.129 223.365 -262.682 219.692 -258.281C216.194 -254.339 212.8 -250.445 209.522 -246.601C206.003 -242.706 202.59 -238.858 199.278 -235.056C195.124 -230.536 191.093 -226.07 187.215 -221.676C183.298 -217.468 179.502 -213.316 175.838 -209.225C171.832 -204.973 167.94 -200.775 164.193 -196.645C160.058 -192.307 156.035 -188.021 152.169 -183.811C148.109 -179.587 144.149 -175.411 140.335 -171.306C136.306 -167.155 132.383 -163.056 128.591 -159.02C124.507 -154.856 120.558 -150.758 116.714 -146.713C-37.3735 8.87372 -20.0355 79.7296 60.3743 116.904C112.086 140.811 189.833 150.758 264.843 160.355C303.409 165.289 341.241 170.134 374.42 176.737C370.375 212.068 360.074 248.185 340.884 285.353L341.845 285.518Z" fill="url(#paint0_linear_184_243)"/>
<defs>
<linearGradient id="paint0_linear_184_243" x1="243.59" y1="285.518" x2="243.59" y2="-439.953" gradientUnits="userSpaceOnUse">
<stop stop-color="#983131"/>
<stop offset="1" stop-color="#321010"/>
</linearGradient>
</defs>
</svg>
