<svg width="650" height="593" viewBox="0 0 650 593" fill="none"
  xmlns="http://www.w3.org/2000/svg">
  <path fill-rule="evenodd" clip-rule="evenodd" d="M153.38 346.732H192.194C196.684 374.507 203.832 399.663 213.173 421.871L522.381 281.759L522.381 281.756L522.474 281.717L558.923 265.201L561.174 265.476L561.178 265.475L561.178 265.477L649.608 276.305L560.535 306.237C551.593 482.906 463.065 592.652 355.174 592.652C255.785 592.652 172.827 499.52 153.38 346.732ZM213.578 422.829C243.473 493.154 295.458 533.632 354.585 533.632C438.438 533.632 507.928 452.221 520.414 319.719L213.578 422.829Z" fill="url(#paint0_linear_44_82)"/>
  <path fill-rule="evenodd" clip-rule="evenodd" d="M89.0609 288.903C97.937 111.073 186.495 0 294.432 0C393.827 0 476.789 94.189 496.228 247.961H456.336C451.938 220.286 444.939 195.166 435.789 172.93L126.035 314.053L126.035 314.055L125.958 314.088L90.6849 330.158L88.4332 329.881L0 318.994L89.0609 288.903ZM127.897 275.782C140.057 141.718 209.722 58.8666 293.843 58.8666C353.309 58.8666 405.551 100.27 435.362 171.899L127.897 275.782Z" fill="url(#paint1_linear_44_82)"/>
  <defs>
    <linearGradient id="paint0_linear_44_82" x1="401.494" y1="265.201" x2="401.494" y2="592.652" gradientUnits="userSpaceOnUse">
      <stop stop-color="#111111"/>
      <stop offset="1" stop-color="#777777"/>
    </linearGradient>
    <linearGradient id="paint1_linear_44_82" x1="248.114" y1="0" x2="248.114" y2="330.158" gradientUnits="userSpaceOnUse">
      <stop stop-color="#983131"/>
      <stop offset="1" stop-color="#321010"/>
    </linearGradient>
  </defs>
</svg>
