<svg width="473" height="327" viewBox="0 0 473 327" fill="none" xmlns="http://www.w3.org/2000/svg">
<g opacity="0.2" filter="url(#filter0_f_364_197)">
<circle cx="414.5" cy="-87.5" r="266.5" fill="#983131" fill-opacity="0.6"/>
</g>
<path d="M501.755 -356.691L500.455 -355.02C500.556 -355.207 500.647 -355.392 500.746 -355.58C501.183 -356.2 501.623 -356.82 502.071 -357.442C501.963 -357.192 501.862 -356.942 501.755 -356.691ZM494.892 -346.129C494.538 -345.698 494.177 -345.263 493.827 -344.833L493.929 -345.009L495.139 -346.635L494.892 -346.129ZM499.833 -352.143C499.044 -351.194 498.289 -350.256 497.503 -349.308C497.751 -349.798 498.017 -350.293 498.266 -350.784C498.974 -351.712 499.716 -352.651 500.442 -353.584C500.241 -353.104 500.031 -352.622 499.833 -352.143ZM487.455 -335.376C487.151 -335.016 486.869 -334.664 486.567 -334.305L486.573 -334.314C486.894 -334.727 487.23 -335.145 487.555 -335.559L487.455 -335.376ZM492.56 -341.323C491.829 -340.474 491.086 -339.62 490.364 -338.775C490.579 -339.16 490.786 -339.544 491.003 -339.93C491.768 -340.892 492.495 -341.838 493.273 -342.804C493.038 -342.311 492.791 -341.815 492.56 -341.323ZM498.04 -347.645C496.987 -346.451 495.975 -345.271 494.941 -344.083C495.237 -344.696 495.536 -345.309 495.836 -345.923C496.804 -347.11 497.791 -348.303 498.769 -349.493C498.523 -348.876 498.283 -348.261 498.04 -347.645ZM584.162 129.563L583.889 129.148C583.858 128.831 583.824 128.516 583.79 128.2L584.003 128.585C584.057 128.911 584.108 129.237 584.162 129.563ZM479.312 -324.129L478.99 -323.756C479.126 -323.925 479.254 -324.092 479.391 -324.261L479.312 -324.129ZM484.818 -330.442C484.114 -329.654 483.433 -328.875 482.746 -328.094C482.931 -328.4 483.108 -328.705 483.294 -329.012C483.978 -329.843 484.681 -330.68 485.366 -331.51C485.178 -331.153 485.004 -330.799 484.818 -330.442ZM490.451 -336.708C489.426 -335.567 488.392 -334.424 487.375 -333.287C487.71 -333.913 488.062 -334.544 488.401 -335.172C489.347 -336.292 490.32 -337.422 491.295 -338.554C491.012 -337.938 490.73 -337.322 490.451 -336.708ZM496.309 -343.133C495.043 -341.768 493.796 -340.411 492.568 -339.061C492.885 -339.749 493.185 -340.432 493.508 -341.121C494.717 -342.518 495.904 -343.907 497.117 -345.305C496.838 -344.58 496.58 -343.857 496.309 -343.133ZM584.742 133.175C584.558 132.934 584.367 132.694 584.182 132.452L584.061 131.058C584.212 131.293 584.369 131.526 584.519 131.761C584.593 132.232 584.67 132.704 584.742 133.175ZM586.344 135.305L585.991 134.831L585.853 133.882L586.113 134.296C586.19 134.633 586.27 134.968 586.344 135.305ZM587.806 137.277L587.758 137.211L587.695 136.912L587.806 137.277ZM476.475 -319.185C475.816 -318.448 475.143 -317.705 474.477 -316.965L475.184 -318.063C475.795 -318.782 476.441 -319.514 477.068 -320.239C476.868 -319.887 476.675 -319.537 476.475 -319.185ZM482.317 -325.568C481.308 -324.49 480.292 -323.409 479.321 -322.347C479.621 -322.868 479.95 -323.396 480.255 -323.918C481.253 -325.067 482.236 -326.209 483.236 -327.36C482.933 -326.763 482.617 -326.163 482.317 -325.568ZM488.419 -332.109L484.656 -328.075C485.027 -328.795 485.387 -329.513 485.764 -330.235C486.915 -331.535 488.112 -332.852 489.297 -334.164C488.995 -333.477 488.716 -332.795 488.419 -332.109ZM494.668 -338.665C493.205 -337.157 491.736 -335.645 490.333 -334.16C490.675 -334.937 491.045 -335.72 491.397 -336.499C492.793 -338.039 494.151 -339.564 495.567 -341.112C495.269 -340.297 494.957 -339.479 494.668 -338.665ZM585.25 136.687C584.983 136.384 584.72 136.081 584.45 135.779C584.408 135.212 584.369 134.644 584.323 134.078C584.553 134.381 584.776 134.686 585.005 134.99C585.086 135.555 585.171 136.12 585.25 136.687ZM587.067 138.754C586.863 138.517 586.654 138.282 586.447 138.045C586.385 137.584 586.321 137.124 586.256 136.663L586.779 137.378C586.875 137.837 586.974 138.295 587.067 138.754ZM588.798 140.791L588.399 140.321C588.337 140.003 588.275 139.683 588.21 139.365C588.312 139.508 588.415 139.649 588.516 139.791C588.609 140.125 588.706 140.457 588.798 140.791ZM590.392 142.704L590.306 142.6L590.208 142.222L590.227 142.249L590.392 142.704ZM467.654 -307.743C467.039 -307.082 466.411 -306.417 465.809 -305.761C465.954 -305.975 466.106 -306.192 466.253 -306.406C466.918 -307.17 467.566 -307.927 468.234 -308.693L467.654 -307.743ZM473.676 -314.209C472.694 -313.161 471.734 -312.121 470.756 -311.074C471.075 -311.589 471.373 -312.098 471.694 -312.614C472.636 -313.673 473.614 -314.748 474.576 -315.816C474.281 -315.282 473.966 -314.742 473.676 -314.209ZM479.992 -320.821C478.752 -319.541 477.502 -318.257 476.305 -316.995C476.672 -317.654 477.046 -318.315 477.421 -318.977C478.624 -320.304 479.791 -321.615 481.017 -322.951C480.667 -322.239 480.334 -321.531 479.992 -320.821ZM486.466 -327.539C484.989 -326.017 483.549 -324.51 482.086 -322.994C482.473 -323.781 482.865 -324.568 483.263 -325.358C484.639 -326.847 486.049 -328.35 487.453 -329.85C487.129 -329.081 486.783 -328.307 486.466 -327.539ZM493.181 -334.312C491.541 -332.674 489.883 -331.028 488.307 -329.416C488.655 -330.243 489.01 -331.072 489.368 -331.901C490.904 -333.532 492.455 -335.168 494.031 -336.816C493.742 -335.98 493.462 -335.146 493.181 -334.312ZM585.702 140.129C585.366 139.8 585.025 139.472 584.686 139.143C584.644 138.49 584.596 137.837 584.549 137.184C584.854 137.529 585.159 137.873 585.46 138.218C585.543 138.855 585.621 139.493 585.702 140.129ZM587.735 142.155C587.441 141.861 587.149 141.567 586.856 141.273C586.786 140.71 586.712 140.149 586.641 139.586C586.903 139.891 587.161 140.197 587.42 140.502C587.528 141.053 587.63 141.604 587.735 142.155ZM589.687 144.142C589.452 143.899 589.223 143.655 588.986 143.412C588.902 142.956 588.812 142.5 588.726 142.045C588.931 142.292 589.131 142.541 589.335 142.789L589.687 144.142ZM591.539 146.069C591.39 145.911 591.236 145.755 591.087 145.598C591.005 145.271 590.916 144.946 590.832 144.619L591.203 145.077C591.315 145.407 591.429 145.737 591.539 146.069ZM593.265 147.926L593.129 147.778C593.084 147.639 593.042 147.499 592.997 147.36L593.057 147.436C593.125 147.6 593.197 147.762 593.265 147.926ZM458.452 -296.226C457.83 -295.57 457.265 -294.937 456.653 -294.285C456.75 -294.423 456.839 -294.557 456.936 -294.695C457.556 -295.393 458.199 -296.099 458.825 -296.799C458.703 -296.609 458.572 -296.416 458.452 -296.226ZM464.617 -302.656C463.688 -301.688 462.746 -300.714 461.832 -299.752C462.147 -300.236 462.456 -300.717 462.776 -301.201C463.694 -302.214 464.588 -303.215 465.527 -304.236C465.213 -303.706 464.928 -303.185 464.617 -302.656ZM471.156 -309.46C469.866 -308.137 468.646 -306.844 467.375 -305.529C467.772 -306.194 468.196 -306.867 468.598 -307.534C469.775 -308.807 470.977 -310.089 472.167 -311.367C471.826 -310.73 471.49 -310.095 471.156 -309.46ZM477.73 -316.085C476.287 -314.637 474.836 -313.185 473.431 -311.752C473.836 -312.506 474.214 -313.252 474.628 -314.009C476.012 -315.478 477.419 -316.958 478.848 -318.445C478.476 -317.659 478.092 -316.869 477.73 -316.085ZM484.685 -323.075C483.003 -321.404 481.385 -319.761 479.733 -318.104C480.127 -318.939 480.537 -319.779 480.942 -320.617C482.501 -322.241 484.073 -323.87 485.65 -325.502C485.323 -324.691 485.004 -323.883 484.685 -323.075ZM491.76 -329.984C489.951 -328.225 488.132 -326.462 486.375 -324.725C486.725 -325.596 487.057 -326.462 487.416 -327.333C489.095 -329.054 490.837 -330.802 492.581 -332.55C492.299 -331.693 492.033 -330.839 491.76 -329.984ZM586.114 143.559C585.699 143.204 585.291 142.846 584.871 142.492C584.835 141.782 584.801 141.072 584.759 140.362C585.133 140.729 585.502 141.096 585.871 141.464C585.957 142.162 586.036 142.861 586.114 143.559ZM588.343 145.487C587.973 145.162 587.598 144.838 587.224 144.514C587.156 143.882 587.093 143.249 587.02 142.617C587.348 142.949 587.685 143.278 588.01 143.61C588.126 144.235 588.235 144.862 588.343 145.487ZM590.503 147.41C590.183 147.122 589.858 146.836 589.536 146.549C589.443 146.002 589.352 145.453 589.256 144.907C589.544 145.206 589.835 145.505 590.121 145.805C590.253 146.338 590.374 146.875 590.503 147.41ZM592.586 149.315C592.326 149.075 592.067 148.834 591.805 148.595L591.485 147.252C591.713 147.498 591.941 147.745 592.168 147.99C592.31 148.431 592.448 148.873 592.586 149.315ZM594.567 151.164C594.388 150.995 594.215 150.823 594.035 150.654C593.936 150.332 593.832 150.011 593.73 149.689C593.882 149.857 594.028 150.026 594.177 150.193C594.307 150.517 594.44 150.84 594.567 151.164ZM596.394 152.916L596.213 152.742C596.156 152.593 596.102 152.442 596.044 152.293L596.152 152.416L596.394 152.916ZM448.685 -284.27C448.193 -283.752 447.693 -283.23 447.199 -282.711C447.343 -282.908 447.482 -283.103 447.627 -283.3C448.106 -283.828 448.603 -284.364 449.095 -284.896C448.952 -284.685 448.824 -284.48 448.685 -284.27ZM455.213 -291.052C454.293 -290.118 453.386 -289.189 452.495 -288.268C452.763 -288.659 453.038 -289.052 453.307 -289.444C454.215 -290.425 455.134 -291.412 456.039 -292.391C455.759 -291.943 455.49 -291.499 455.213 -291.052ZM461.761 -297.69C460.535 -296.447 459.299 -295.2 458.083 -293.962C458.513 -294.641 458.953 -295.325 459.39 -296.007C460.526 -297.214 461.718 -298.444 462.9 -299.67C462.522 -299.01 462.133 -298.347 461.761 -297.69ZM468.619 -304.578C467.163 -303.136 465.741 -301.709 464.319 -300.283C464.734 -301.003 465.137 -301.719 465.559 -302.441L469.746 -306.801C469.361 -306.057 468.995 -305.319 468.619 -304.578ZM475.667 -311.496C474.007 -309.873 472.348 -308.249 470.718 -306.638C471.165 -307.504 471.646 -308.381 472.103 -309.25C473.612 -310.798 475.2 -312.38 476.771 -313.954C476.399 -313.134 476.028 -312.314 475.667 -311.496ZM482.948 -318.578C481.117 -316.818 479.324 -315.074 477.537 -313.332C477.92 -314.181 478.286 -315.026 478.682 -315.878C480.43 -317.64 482.158 -319.393 483.925 -321.163C483.591 -320.299 483.271 -319.44 482.948 -318.578ZM490.414 -325.691C488.439 -323.817 486.469 -321.945 484.536 -320.091C484.888 -321.013 485.272 -321.942 485.637 -322.867C487.449 -324.668 489.359 -326.511 491.247 -328.345C490.969 -327.46 490.679 -326.573 490.414 -325.691ZM581.464 143.29C556.673 125.536 526.287 109.56 495.316 93.2825C381.684 33.5637 260.304 -30.2765 380.456 -201.534M586.481 146.958C586.005 146.6 585.517 146.245 585.034 145.888C585.003 145.124 584.969 144.36 584.931 143.596C585.369 143.971 585.805 144.346 586.239 144.722C586.322 145.466 586.407 146.211 586.481 146.958ZM588.907 148.809C588.462 148.467 588.015 148.125 587.565 147.784C587.499 147.084 587.427 146.386 587.351 145.687C587.758 146.043 588.156 146.403 588.559 146.762C588.677 147.443 588.798 148.125 588.907 148.809ZM591.263 150.645C590.858 150.325 590.46 150.004 590.051 149.686C589.953 149.064 589.855 148.442 589.751 147.821C590.117 148.151 590.476 148.483 590.838 148.814C590.982 149.424 591.125 150.034 591.263 150.645ZM593.544 152.462C593.195 152.179 592.843 151.898 592.491 151.616C592.374 151.084 592.267 150.55 592.144 150.019C592.456 150.308 592.773 150.594 593.079 150.883C593.239 151.408 593.389 151.936 593.544 152.462ZM595.748 154.271C595.465 154.036 595.175 153.802 594.89 153.567L594.507 152.252C594.759 152.494 595.014 152.735 595.264 152.978L595.748 154.271ZM597.856 156.053L597.26 155.544C597.145 155.224 597.021 154.906 596.902 154.587L597.409 155.092C597.557 155.413 597.711 155.732 597.856 156.053ZM599.769 157.7L599.545 157.501L599.352 157.062L599.517 157.234C599.603 157.389 599.684 157.545 599.769 157.7ZM438.747 -272.419C438.314 -271.975 437.869 -271.526 437.442 -271.085L437.529 -271.199C438.037 -271.748 438.53 -272.292 439.039 -272.841L438.747 -272.419ZM445.332 -279.15C444.397 -278.193 443.464 -277.236 442.521 -276.277C442.842 -276.728 443.191 -277.191 443.514 -277.644C444.379 -278.562 445.281 -279.497 446.166 -280.425C445.888 -279.999 445.607 -279.574 445.332 -279.15ZM451.99 -285.825C450.841 -284.693 449.679 -283.556 448.57 -282.441C448.927 -282.98 449.261 -283.51 449.622 -284.049C450.832 -285.313 452.005 -286.56 453.226 -287.829C452.822 -287.164 452.388 -286.488 451.99 -285.825ZM459.067 -292.824L454.747 -288.551C455.212 -289.311 455.685 -290.074 456.157 -290.837C457.482 -292.197 458.857 -293.578 460.22 -294.955C459.824 -294.24 459.456 -293.536 459.067 -292.824ZM466.244 -299.801C464.594 -298.219 462.945 -296.638 461.348 -295.08C461.788 -295.873 462.25 -296.672 462.699 -297.468C464.313 -299.098 465.871 -300.703 467.509 -302.342C467.086 -301.495 466.656 -300.645 466.244 -299.801ZM473.681 -306.931C471.865 -305.193 470.058 -303.462 468.258 -301.732C468.694 -302.61 469.122 -303.485 469.569 -304.367C471.257 -306.043 473.006 -307.748 474.746 -309.448C474.378 -308.605 474.037 -307.77 473.681 -306.931ZM481.313 -314.136C479.324 -312.279 477.349 -310.428 475.418 -308.596C475.803 -309.488 476.218 -310.388 476.614 -311.284C478.515 -313.142 480.381 -314.984 482.315 -316.857C481.98 -315.95 481.635 -315.041 481.313 -314.136ZM489.202 -321.484C487.079 -319.515 484.976 -317.555 482.882 -315.598C483.217 -316.521 483.555 -317.444 483.902 -318.369C485.878 -320.274 487.926 -322.211 489.965 -324.144C489.702 -323.256 489.454 -322.37 489.202 -321.484ZM586.788 150.355C586.243 149.997 585.702 149.638 585.153 149.282C585.13 148.477 585.099 147.673 585.068 146.87C585.574 147.249 586.079 147.628 586.579 148.008C586.65 148.79 586.72 149.573 586.788 150.355ZM589.397 152.093C588.886 151.748 588.375 151.402 587.858 151.058C587.796 150.316 587.728 149.575 587.66 148.833C588.131 149.194 588.608 149.553 589.073 149.915C589.182 150.641 589.293 151.367 589.397 152.093ZM591.953 153.832C591.481 153.505 591 153.182 590.523 152.858C590.427 152.178 590.323 151.5 590.219 150.822C590.654 151.166 591.093 151.508 591.524 151.854C591.668 152.513 591.816 153.171 591.953 153.832ZM594.441 155.582C594.012 155.277 593.578 154.973 593.143 154.669C593.021 154.06 592.889 153.452 592.757 152.845C593.153 153.166 593.545 153.49 593.938 153.813C594.109 154.402 594.279 154.992 594.441 155.582ZM596.847 157.32C596.466 157.041 596.09 156.762 595.705 156.484C595.564 155.962 595.43 155.438 595.283 154.917C595.633 155.21 595.972 155.505 596.319 155.799C596.501 156.304 596.669 156.813 596.847 157.32ZM599.169 159.035C598.856 158.8 598.546 158.565 598.232 158.332C598.085 157.904 597.934 157.478 597.786 157.05C598.062 157.289 598.34 157.526 598.613 157.764C598.798 158.188 598.987 158.61 599.169 159.035ZM601.376 160.713C601.159 160.546 600.938 160.38 600.72 160.214C600.59 159.903 600.458 159.594 600.323 159.284C600.512 159.453 600.703 159.619 600.889 159.787C601.053 160.095 601.215 160.404 601.376 160.713ZM603.402 162.305L603.136 162.095L602.908 161.642L603.109 161.829L603.402 162.305ZM428.559 -260.562L428.47 -260.473L428.572 -260.58L428.559 -260.562ZM435.009 -267.003C434.178 -266.172 433.332 -265.335 432.51 -264.508C432.766 -264.855 433.002 -265.195 433.26 -265.543C434.181 -266.508 435.05 -267.449 435.988 -268.421C435.668 -267.95 435.327 -267.472 435.009 -267.003ZM442.034 -274.015C440.84 -272.836 439.706 -271.683 438.519 -270.506C438.91 -271.073 439.296 -271.638 439.692 -272.206C440.785 -273.331 441.907 -274.469 443.012 -275.599C442.672 -275.066 442.369 -274.546 442.034 -274.015ZM449.124 -280.893C447.69 -279.511 446.245 -278.125 444.849 -276.761C445.31 -277.477 445.8 -278.205 446.266 -278.924C447.648 -280.322 449.006 -281.709 450.417 -283.12C449.978 -282.375 449.554 -281.635 449.124 -280.893ZM456.445 -287.972C454.805 -286.394 453.202 -284.833 451.565 -283.256C452.029 -284.043 452.459 -284.817 452.933 -285.608C454.512 -287.18 456.124 -288.767 457.731 -290.352C457.306 -289.561 456.859 -288.761 456.445 -287.972ZM464.016 -295.119C462.211 -293.431 460.389 -291.735 458.642 -290.075C459.093 -290.917 459.551 -291.761 460.011 -292.607C461.733 -294.294 463.445 -295.978 465.205 -297.683C464.795 -296.824 464.418 -295.975 464.016 -295.119ZM471.793 -302.415C469.808 -300.559 467.853 -298.716 465.875 -296.863C466.307 -297.769 466.749 -298.678 467.194 -299.588C469.068 -301.399 470.982 -303.226 472.896 -305.055C472.531 -304.176 472.149 -303.292 471.793 -302.415ZM479.814 -309.787C477.692 -307.857 475.554 -305.921 473.506 -304.023C473.878 -304.921 474.251 -305.82 474.633 -306.721C476.649 -308.639 478.67 -310.56 480.733 -312.499C480.415 -311.593 480.119 -310.692 479.814 -309.787ZM488.047 -317.299C485.781 -315.24 483.555 -313.199 481.302 -311.146C481.622 -312.072 481.935 -312.997 482.266 -313.927C484.405 -315.932 486.585 -317.957 488.772 -319.984C488.523 -319.089 488.285 -318.194 488.047 -317.299ZM587.056 153.747C586.45 153.396 585.837 153.048 585.226 152.7C585.211 151.865 585.202 151.029 585.182 150.194C585.748 150.563 586.313 150.933 586.872 151.303C586.939 152.117 586.997 152.932 587.056 153.747ZM589.847 155.376C589.272 155.035 588.686 154.698 588.106 154.359C588.051 153.578 588.003 152.796 587.942 152.017C588.482 152.379 589.015 152.744 589.551 153.109C589.655 153.863 589.75 154.62 589.847 155.376ZM592.584 157.025C592.039 156.693 591.493 156.361 590.942 156.031C590.851 155.308 590.759 154.586 590.662 153.864C591.172 154.215 591.672 154.57 592.177 154.922C592.316 155.622 592.451 156.323 592.584 157.025ZM595.267 158.679C594.756 158.36 594.251 158.038 593.735 157.72C593.612 157.063 593.481 156.407 593.354 155.751C593.82 156.082 594.289 156.413 594.751 156.746C594.925 157.39 595.101 158.033 595.267 158.679ZM597.87 160.322C597.412 160.028 596.948 159.735 596.485 159.443C596.336 158.852 596.18 158.263 596.022 157.674C596.446 157.984 596.874 158.291 597.294 158.603C597.489 159.175 597.681 159.748 597.87 160.322ZM600.391 161.965C599.989 161.699 599.578 161.436 599.173 161.171C599.009 160.664 598.853 160.156 598.685 159.65C599.055 159.929 599.423 160.209 599.789 160.489C599.994 160.98 600.192 161.473 600.391 161.965ZM602.84 163.614C602.503 163.383 602.166 163.153 601.824 162.923C601.656 162.501 601.48 162.08 601.309 161.658C601.614 161.897 601.913 162.139 602.216 162.378C602.424 162.79 602.637 163.2 602.84 163.614ZM605.136 165.194C604.891 165.024 604.654 164.85 604.409 164.68C604.265 164.38 604.129 164.078 603.983 163.778C604.199 163.953 604.407 164.13 604.621 164.305C604.797 164.6 604.962 164.898 605.136 165.194ZM607.263 166.702L606.962 166.489C606.874 166.333 606.781 166.177 606.692 166.021C606.766 166.084 606.844 166.146 606.919 166.209L607.263 166.702ZM417.686 -248.099L416.516 -246.917L416.588 -247.008C416.992 -247.432 417.425 -247.87 417.836 -248.298L417.686 -248.099ZM424.533 -254.941C423.786 -254.214 423.027 -253.48 422.306 -252.765L422.816 -253.44C423.602 -254.252 424.395 -255.067 425.172 -255.874C424.951 -255.56 424.752 -255.255 424.533 -254.941ZM431.596 -261.843C430.448 -260.719 429.285 -259.588 428.139 -258.465C428.582 -259.086 429.047 -259.715 429.494 -260.339C430.536 -261.395 431.631 -262.476 432.712 -263.551C432.332 -262.978 431.971 -262.414 431.596 -261.843ZM438.884 -268.919C437.427 -267.525 436.025 -266.155 434.595 -264.773C435.041 -265.44 435.492 -266.109 435.945 -266.778C437.348 -268.179 438.758 -269.584 440.161 -270.985C439.734 -270.296 439.302 -269.605 438.884 -268.919ZM446.256 -275.903C444.657 -274.392 443.05 -272.877 441.48 -271.379C441.979 -272.184 442.462 -272.982 442.971 -273.791C444.488 -275.283 446.056 -276.798 447.625 -278.314C447.168 -277.51 446.705 -276.704 446.256 -275.903ZM454.04 -283.259C452.18 -281.52 450.402 -279.818 448.565 -278.09C449.053 -278.947 449.569 -279.813 450.067 -280.674C451.8 -282.352 453.537 -284.033 455.283 -285.716C454.857 -284.894 454.454 -284.079 454.04 -283.259ZM461.851 -290.447C459.891 -288.651 457.924 -286.851 456.016 -285.078C456.474 -285.969 456.915 -286.854 457.386 -287.749C459.257 -289.537 461.179 -291.347 463.11 -293.161C462.695 -292.258 462.254 -291.347 461.851 -290.447ZM470.06 -298.002C467.899 -296.029 465.824 -294.097 463.683 -292.133C464.103 -293.055 464.536 -293.98 464.968 -294.905C466.995 -296.812 469.028 -298.721 471.08 -300.64C470.728 -299.757 470.401 -298.881 470.06 -298.002ZM478.37 -305.453C476.112 -303.439 473.841 -301.418 471.653 -299.437C472.015 -300.358 472.369 -301.277 472.744 -302.201C474.886 -304.19 477.077 -306.202 479.283 -308.22C478.975 -307.297 478.666 -306.374 478.37 -305.453ZM486.964 -313.149C484.556 -311.003 482.209 -308.884 479.808 -306.742C480.116 -307.684 480.451 -308.632 480.77 -309.577C483.059 -311.671 485.354 -313.768 487.676 -315.877C487.438 -314.968 487.191 -314.057 486.964 -313.149ZM587.289 157.149C586.618 156.81 585.944 156.473 585.268 156.137C585.264 155.267 585.254 154.399 585.239 153.531C585.869 153.892 586.492 154.257 587.118 154.621C587.178 155.463 587.238 156.306 587.289 157.149ZM590.256 158.676C589.611 158.341 588.972 158.004 588.321 157.671C588.275 156.858 588.222 156.046 588.167 155.234C588.769 155.587 589.371 155.941 589.966 156.297C590.066 157.089 590.165 157.882 590.256 158.676ZM593.167 160.209C592.555 159.882 591.943 159.555 591.324 159.231C591.24 158.473 591.154 157.716 591.061 156.959C591.632 157.304 592.209 157.647 592.773 157.994C592.91 158.731 593.037 159.469 593.167 160.209ZM596.022 161.747C595.449 161.433 594.863 161.122 594.285 160.809C594.165 160.111 594.051 159.41 593.925 158.713C594.464 159.047 594.999 159.382 595.531 159.718C595.698 160.394 595.86 161.071 596.022 161.747ZM598.832 163.318C598.292 163.013 597.747 162.71 597.203 162.407C597.052 161.763 596.892 161.121 596.736 160.479C597.241 160.802 597.734 161.13 598.234 161.455C598.435 162.076 598.64 162.695 598.832 163.318ZM601.539 164.874C601.049 164.588 600.563 164.301 600.067 164.017C599.894 163.445 599.716 162.873 599.535 162.303C599.994 162.607 600.448 162.912 600.903 163.217C601.12 163.768 601.328 164.322 601.539 164.874ZM604.177 166.429C603.743 166.169 603.31 165.908 602.872 165.649C602.688 165.157 602.503 164.666 602.315 164.176C602.706 164.443 603.104 164.707 603.49 164.975C603.72 165.46 603.952 165.943 604.177 166.429ZM606.716 167.968C606.365 167.752 606.005 167.539 605.652 167.323C605.467 166.914 605.272 166.508 605.08 166.101C605.406 166.332 605.736 166.563 606.06 166.795C606.282 167.185 606.499 167.577 606.716 167.968ZM609.126 169.49L608.346 168.996C608.188 168.701 608.029 168.406 607.867 168.112L608.556 168.621L609.126 169.49ZM611.373 170.943L611.013 170.704L610.731 170.261L611.023 170.488L611.373 170.943ZM413.805 -242.778C413.047 -242.042 412.297 -241.31 411.557 -240.583L412.147 -241.337C412.886 -242.091 413.656 -242.86 414.408 -243.62C414.203 -243.337 414.009 -243.059 413.805 -242.778ZM420.921 -249.671C419.753 -248.537 418.571 -247.396 417.403 -246.262C417.79 -246.788 418.214 -247.33 418.605 -247.858C419.779 -249.035 420.909 -250.193 422.087 -251.374C421.697 -250.806 421.307 -250.237 420.921 -249.671ZM428.198 -256.638C426.843 -255.359 425.487 -254.079 424.17 -252.819C424.614 -253.459 425.031 -254.088 425.481 -254.73C426.806 -256.04 428.183 -257.372 429.544 -258.698C429.103 -258.015 428.631 -257.319 428.198 -256.638ZM435.855 -263.873C434.241 -262.351 432.638 -260.833 431.031 -259.315C431.528 -260.083 432.033 -260.853 432.54 -261.625C434.099 -263.142 435.62 -264.642 437.185 -266.162C436.723 -265.392 436.307 -264.639 435.855 -263.873ZM443.642 -271.106C441.822 -269.431 439.988 -267.751 438.223 -266.103C438.736 -266.96 439.296 -267.836 439.822 -268.698C441.509 -270.315 443.264 -271.963 445.005 -273.605C444.545 -272.77 444.092 -271.937 443.642 -271.106ZM451.644 -278.49C449.658 -276.672 447.745 -274.888 445.786 -273.083C446.263 -273.953 446.717 -274.815 447.205 -275.689C449.136 -277.514 451.035 -279.323 452.974 -281.151C452.533 -280.265 452.074 -279.372 451.644 -278.49ZM459.904 -285.947C457.773 -284.03 455.637 -282.112 453.558 -280.22C454.021 -281.157 454.511 -282.103 454.987 -283.045C456.957 -284.882 459.017 -286.761 461.058 -288.63C460.664 -287.732 460.289 -286.841 459.904 -285.947ZM468.352 -293.53C466.075 -291.503 463.848 -289.498 461.616 -287.491C462.015 -288.407 462.391 -289.315 462.803 -290.234C465.008 -292.261 467.186 -294.276 469.405 -296.309C469.054 -295.383 468.69 -294.453 468.352 -293.53ZM477.059 -301.224C474.652 -299.105 472.255 -296.992 469.897 -294.896C470.257 -295.857 470.643 -296.826 471.016 -297.791C473.257 -299.826 475.592 -301.904 477.912 -303.975C477.623 -303.057 477.336 -302.139 477.059 -301.224ZM485.982 -309.027C483.453 -306.83 480.94 -304.64 478.471 -302.472C478.757 -303.396 479.035 -304.32 479.332 -305.247C481.77 -307.427 484.175 -309.592 486.629 -311.781C486.404 -310.861 486.195 -309.944 485.982 -309.027ZM587.459 160.555C586.729 160.231 586 159.906 585.262 159.584C585.27 158.695 585.268 157.807 585.267 156.919C585.956 157.263 586.647 157.607 587.328 157.954C587.375 158.82 587.419 159.687 587.459 160.555ZM590.61 161.969C589.907 161.648 589.197 161.33 588.488 161.013C588.452 160.171 588.406 159.33 588.362 158.49C589.026 158.832 589.688 159.175 590.346 159.52C590.437 160.335 590.528 161.151 590.61 161.969ZM593.702 163.393C593.031 163.079 592.349 162.77 591.671 162.458C591.594 161.663 591.505 160.871 591.415 160.079C592.056 160.418 592.686 160.761 593.321 161.103C593.451 161.865 593.581 162.628 593.702 163.393ZM596.73 164.839C596.087 164.528 595.442 164.219 594.792 163.912C594.679 163.175 594.56 162.438 594.438 161.704C595.049 162.036 595.651 162.372 596.255 162.707C596.42 163.416 596.573 164.127 596.73 164.839ZM599.708 166.297C599.095 165.992 598.488 165.685 597.867 165.382C597.72 164.709 597.58 164.035 597.429 163.363C597.996 163.682 598.567 163.999 599.127 164.32C599.324 164.979 599.519 165.637 599.708 166.297ZM602.616 167.76C602.051 167.47 601.481 167.183 600.911 166.895C600.735 166.275 600.549 165.658 600.366 165.04C600.895 165.347 601.429 165.652 601.951 165.961C602.177 166.559 602.401 167.158 602.616 167.76ZM605.433 169.22C604.921 168.95 604.398 168.684 603.881 168.415C603.687 167.864 603.495 167.312 603.293 166.762C603.778 167.053 604.258 167.344 604.737 167.637C604.974 168.163 605.202 168.692 605.433 169.22ZM608.202 170.712C607.74 170.46 607.278 170.209 606.811 169.959C606.603 169.476 606.387 168.994 606.176 168.513C606.605 168.78 607.024 169.051 607.449 169.32C607.701 169.783 607.957 170.246 608.202 170.712ZM610.822 172.164C610.439 171.948 610.063 171.73 609.676 171.514C609.478 171.128 609.286 170.739 609.083 170.354C609.433 170.58 609.777 170.806 610.125 171.033C610.362 171.409 610.589 171.788 610.822 172.164ZM613.34 173.597C613.063 173.435 612.779 173.276 612.499 173.114C612.326 172.828 612.145 172.543 611.97 172.256C612.215 172.421 612.467 172.582 612.711 172.748C612.919 173.031 613.136 173.312 613.34 173.597ZM615.638 174.961L615.25 174.731L614.951 174.301L615.276 174.527C615.397 174.671 615.516 174.816 615.638 174.961ZM402.719 -230.41C401.974 -229.694 401.212 -228.971 400.486 -228.263C400.722 -228.559 400.976 -228.863 401.212 -229.16C401.934 -229.887 402.691 -230.631 403.431 -231.367L402.719 -230.41ZM409.892 -237.309L406.602 -234.146C406.968 -234.631 407.308 -235.103 407.678 -235.59C408.816 -236.721 409.943 -237.846 411.088 -238.98C410.695 -238.425 410.28 -237.862 409.892 -237.309ZM417.336 -244.363C416.008 -243.119 414.666 -241.87 413.373 -240.642C413.843 -241.299 414.309 -241.955 414.785 -242.615C416.051 -243.852 417.358 -245.109 418.653 -246.359C418.204 -245.69 417.775 -245.029 417.336 -244.363ZM425.12 -251.673C423.475 -250.138 421.881 -248.628 420.25 -247.101C420.785 -247.895 421.352 -248.702 421.895 -249.5C423.444 -250.992 424.958 -252.469 426.534 -253.973C426.052 -253.202 425.594 -252.44 425.12 -251.673ZM432.951 -258.876C431.164 -257.24 429.369 -255.599 427.62 -253.982C428.139 -254.808 428.636 -255.628 429.165 -256.459C430.904 -258.111 432.674 -259.777 434.443 -261.442C433.947 -260.587 433.435 -259.727 432.951 -258.876ZM441.095 -266.32C439.118 -264.528 437.191 -262.76 435.247 -260.983C435.767 -261.883 436.283 -262.78 436.817 -263.685C438.675 -265.425 440.559 -267.177 442.463 -268.94C441.997 -268.063 441.548 -267.192 441.095 -266.32ZM449.449 -273.826C447.306 -271.907 445.172 -269.992 443.066 -268.09C443.559 -269.025 444.098 -269.976 444.605 -270.915C446.642 -272.8 448.685 -274.686 450.745 -276.58C450.305 -275.659 449.876 -274.742 449.449 -273.826ZM457.986 -281.42C455.724 -279.423 453.482 -277.436 451.272 -275.464C451.721 -276.409 452.143 -277.346 452.605 -278.295C454.739 -280.244 456.956 -282.23 459.157 -284.21C458.764 -283.279 458.367 -282.347 457.986 -281.42ZM466.809 -289.187C464.392 -287.069 462.01 -284.966 459.623 -282.861C460.022 -283.821 460.454 -284.79 460.868 -285.753C463.181 -287.837 465.457 -289.903 467.81 -292.005C467.469 -291.064 467.137 -290.125 466.809 -289.187ZM475.821 -297C473.298 -294.828 470.767 -292.652 468.314 -290.513C468.65 -291.454 468.97 -292.391 469.317 -293.336C471.708 -295.464 474.16 -297.622 476.612 -299.779C476.335 -298.85 476.085 -297.927 475.821 -297ZM485.062 -304.968C482.395 -302.684 479.806 -300.436 477.172 -298.168C477.448 -299.118 477.735 -300.072 478.023 -301.026C480.553 -303.25 483.097 -305.48 485.678 -307.728C485.467 -306.807 485.261 -305.887 485.062 -304.968ZM587.584 163.968C586.798 163.663 586.005 163.362 585.21 163.061C585.227 162.149 585.251 161.237 585.262 160.327C586.012 160.656 586.754 160.988 587.497 161.32C587.533 162.201 587.557 163.085 587.584 163.968ZM590.905 165.272C590.142 164.969 589.374 164.668 588.603 164.368C588.578 163.504 588.558 162.639 588.525 161.776C589.253 162.104 589.969 162.436 590.689 162.766C590.767 163.6 590.834 164.436 590.905 165.272ZM594.177 166.598C593.436 166.295 592.698 165.99 591.95 165.689C591.884 164.875 591.812 164.062 591.74 163.249C592.437 163.573 593.134 163.897 593.825 164.223C593.945 165.014 594.066 165.805 594.177 166.598ZM597.386 167.934C596.679 167.635 595.971 167.335 595.255 167.039C595.15 166.272 595.032 165.508 594.915 164.745C595.584 165.063 596.256 165.38 596.917 165.701C597.077 166.444 597.236 167.188 597.386 167.934ZM600.528 169.277C599.856 168.984 599.174 168.695 598.494 168.405C598.353 167.691 598.21 166.977 598.058 166.266C598.702 166.582 599.343 166.901 599.979 167.22C600.17 167.904 600.346 168.591 600.528 169.277ZM603.621 170.646C602.983 170.359 602.334 170.075 601.689 169.791C601.517 169.131 601.343 168.471 601.163 167.812C601.769 168.12 602.36 168.433 602.958 168.743C603.181 169.377 603.408 170.009 603.621 170.646ZM606.624 172.023C606.03 171.747 605.439 171.471 604.84 171.198C604.641 170.596 604.431 169.997 604.223 169.398C604.788 169.695 605.346 169.994 605.905 170.293C606.151 170.868 606.386 171.446 606.624 172.023ZM609.568 173.412C609.018 173.147 608.472 172.882 607.915 172.619C607.702 172.09 607.491 171.56 607.27 171.033C607.773 171.306 608.281 171.578 608.779 171.853C609.042 172.373 609.311 172.89 609.568 173.412ZM612.4 174.787C611.928 174.552 611.445 174.321 610.969 174.089C610.744 173.624 610.509 173.162 610.275 172.7C610.725 172.954 611.177 173.207 611.622 173.463C611.887 173.903 612.142 174.345 612.4 174.787ZM615.145 176.177C614.744 175.97 614.335 175.767 613.93 175.561C613.713 175.183 613.497 174.805 613.277 174.428C613.648 174.646 614.017 174.865 614.385 175.085C614.638 175.449 614.895 175.811 615.145 176.177ZM617.738 177.536C617.444 177.379 617.151 177.222 616.854 177.066C616.669 176.789 616.486 176.512 616.299 176.236C616.575 176.406 616.847 176.579 617.123 176.75C617.333 177.01 617.532 177.275 617.738 177.536ZM620.13 178.821C619.983 178.74 619.841 178.657 619.692 178.576C619.582 178.433 619.468 178.291 619.357 178.148C619.484 178.23 619.605 178.313 619.732 178.394C619.864 178.537 620 178.678 620.13 178.821ZM391.291 -217.858C390.588 -217.184 389.869 -216.503 389.175 -215.833C389.38 -216.086 389.566 -216.33 389.772 -216.582C390.498 -217.308 391.261 -218.05 392.004 -218.783C391.77 -218.476 391.524 -218.164 391.291 -217.858ZM398.609 -224.862C397.565 -223.87 396.563 -222.899 395.526 -221.911C395.899 -222.391 396.259 -222.867 396.634 -223.349C397.678 -224.374 398.696 -225.387 399.746 -226.416C399.37 -225.899 398.982 -225.377 398.609 -224.862ZM406.246 -232.024C404.901 -230.768 403.545 -229.508 402.223 -228.263C402.713 -228.929 403.223 -229.604 403.72 -230.274C404.98 -231.494 406.276 -232.731 407.556 -233.961C407.107 -233.31 406.688 -232.672 406.246 -232.024ZM414.065 -239.304C412.422 -237.79 410.827 -236.298 409.212 -234.797C409.752 -235.575 410.321 -236.365 410.87 -237.147C412.424 -238.631 413.969 -240.11 415.555 -241.608C415.053 -240.838 414.555 -240.069 414.065 -239.304ZM421.947 -246.514C420.2 -244.918 418.45 -243.321 416.722 -241.735C417.259 -242.559 417.77 -243.373 418.318 -244.202C420.047 -245.83 421.794 -247.468 423.54 -249.103C423.018 -248.244 422.457 -247.369 421.947 -246.514ZM430.252 -254.032C428.286 -252.268 426.334 -250.511 424.414 -248.771C424.963 -249.676 425.531 -250.589 426.094 -251.5C427.913 -253.191 429.786 -254.906 431.658 -256.621C431.17 -255.751 430.727 -254.897 430.252 -254.032ZM438.693 -261.593C436.555 -259.685 434.445 -257.79 432.329 -255.892C432.847 -256.822 433.382 -257.758 433.916 -258.692C435.983 -260.587 438.01 -262.464 440.105 -264.372C439.63 -263.444 439.154 -262.516 438.693 -261.593ZM447.325 -269.203C445.079 -267.237 442.822 -265.265 440.636 -263.328C441.111 -264.264 441.575 -265.196 442.064 -266.138C444.203 -268.074 446.398 -270.036 448.588 -271.998C448.16 -271.063 447.74 -270.132 447.325 -269.203ZM456.238 -277.012C453.799 -274.891 451.43 -272.803 449.03 -270.7C449.47 -271.671 449.956 -272.658 450.41 -273.635C452.71 -275.69 455.008 -277.744 457.352 -279.821C456.974 -278.883 456.603 -277.946 456.238 -277.012ZM465.329 -284.848C462.806 -282.681 460.292 -280.519 457.823 -278.377C458.199 -279.329 458.563 -280.276 458.954 -281.232C461.372 -283.368 463.81 -285.514 466.27 -287.67C465.946 -286.727 465.64 -285.788 465.329 -284.848ZM474.642 -292.812C471.985 -290.554 469.363 -288.313 466.76 -286.081C467.086 -287.049 467.436 -288.023 467.776 -288.994C470.291 -291.192 472.858 -293.414 475.439 -295.642C475.175 -294.699 474.893 -293.752 474.642 -292.812ZM484.213 -300.913C481.441 -298.578 478.712 -296.263 475.985 -293.949C476.245 -294.9 476.518 -295.854 476.791 -296.808C479.461 -299.114 482.093 -301.401 484.801 -303.724C484.602 -302.786 484.401 -301.848 484.213 -300.913ZM587.672 167.402C586.826 167.117 585.977 166.834 585.124 166.553C585.154 165.621 585.176 164.691 585.196 163.762C586.002 164.071 586.808 164.381 587.607 164.693C587.634 165.595 587.657 166.497 587.672 167.402ZM591.157 168.596C590.332 168.31 589.514 168.021 588.681 167.738C588.668 166.856 588.648 165.974 588.624 165.093C589.407 165.401 590.194 165.707 590.968 166.018C591.036 166.876 591.1 167.736 591.157 168.596ZM594.591 169.805C593.794 169.52 592.995 169.235 592.189 168.953C592.134 168.116 592.078 167.279 592.014 166.444C592.775 166.753 593.536 167.061 594.288 167.372C594.397 168.181 594.491 168.994 594.591 169.805ZM597.979 171.029C597.211 170.746 596.428 170.467 595.651 170.187C595.557 169.395 595.459 168.603 595.357 167.814C596.091 168.12 596.815 168.43 597.54 168.74C597.691 169.502 597.839 170.264 597.979 171.029ZM601.295 172.276C600.559 171.996 599.818 171.718 599.074 171.441C598.941 170.695 598.793 169.952 598.648 169.21C599.356 169.515 600.055 169.824 600.754 170.132C600.941 170.845 601.119 171.56 601.295 172.276ZM604.551 173.539C603.841 173.26 603.137 172.98 602.419 172.703C602.255 172.016 602.091 171.329 601.916 170.645C602.586 170.943 603.254 171.24 603.915 171.541C604.132 172.206 604.343 172.872 604.551 173.539ZM607.743 174.816C607.074 174.545 606.406 174.272 605.73 174.003C605.534 173.367 605.33 172.733 605.125 172.1C605.755 172.389 606.387 172.677 607.009 172.969C607.258 173.584 607.505 174.199 607.743 174.816ZM610.848 176.095C610.231 175.835 609.601 175.58 608.977 175.323C608.758 174.745 608.539 174.166 608.311 173.59C608.902 173.872 609.488 174.156 610.073 174.441C610.336 174.991 610.591 175.543 610.848 176.095ZM613.893 177.406C613.325 177.159 612.751 176.913 612.178 176.668C611.94 176.147 611.692 175.629 611.447 175.11C611.989 175.379 612.519 175.652 613.054 175.923C613.338 176.417 613.619 176.91 613.893 177.406ZM616.826 178.714C616.317 178.484 615.815 178.253 615.302 178.025C615.063 177.583 614.83 177.137 614.585 176.698C615.057 176.941 615.523 177.187 615.99 177.432C616.272 177.858 616.549 178.285 616.826 178.714ZM619.657 180.015C619.234 179.817 618.815 179.618 618.391 179.422C618.16 179.055 617.915 178.693 617.678 178.33C618.067 178.538 618.464 178.743 618.849 178.953C619.12 179.306 619.39 179.66 619.657 180.015ZM622.323 181.284C622.017 181.135 621.7 180.989 621.391 180.84C621.198 180.578 621.008 180.314 620.812 180.053C621.093 180.21 621.379 180.366 621.657 180.524C621.88 180.778 622.103 181.03 622.323 181.284ZM624.824 182.53L624.364 182.299C624.254 182.169 624.149 182.037 624.038 181.907L624.453 182.152C624.58 182.277 624.698 182.404 624.824 182.53ZM379.563 -205.162C378.985 -204.608 378.393 -204.048 377.814 -203.493C378.007 -203.728 378.193 -203.958 378.389 -204.193C378.988 -204.786 379.611 -205.391 380.219 -205.987C380.005 -205.715 379.774 -205.434 379.563 -205.162ZM387.222 -212.433C386.194 -211.47 385.19 -210.521 384.183 -209.568C384.55 -210.031 384.923 -210.497 385.294 -210.961C386.307 -211.949 387.271 -212.912 388.299 -213.907C387.928 -213.41 387.588 -212.927 387.222 -212.433ZM394.889 -219.581C393.516 -218.299 392.13 -217.011 390.759 -215.731C391.259 -216.395 391.807 -217.081 392.314 -217.748C393.614 -218.996 394.939 -220.256 396.247 -221.508C395.789 -220.863 395.34 -220.222 394.889 -219.581ZM402.697 -226.779C401.148 -225.367 399.595 -223.953 398.086 -222.561C398.606 -223.288 399.086 -223.997 399.614 -224.728C401.14 -226.173 402.701 -227.635 404.268 -229.101C403.75 -228.329 403.207 -227.547 402.697 -226.779ZM410.807 -234.178C409.035 -232.569 407.299 -230.977 405.542 -229.375C406.101 -230.205 406.66 -231.034 407.231 -231.868C408.938 -233.464 410.625 -235.049 412.35 -236.652C411.826 -235.824 411.319 -235.001 410.807 -234.178ZM419.134 -241.645C417.169 -239.893 415.195 -238.138 413.277 -236.409C413.847 -237.312 414.462 -238.234 415.044 -239.142C416.876 -240.831 418.762 -242.545 420.638 -244.255C420.124 -243.38 419.635 -242.515 419.134 -241.645ZM427.638 -249.222C425.513 -247.342 423.441 -245.489 421.351 -243.627C421.884 -244.536 422.376 -245.429 422.921 -246.343C424.986 -248.221 427.041 -250.096 429.145 -251.994C428.645 -251.07 428.124 -250.14 427.638 -249.222ZM436.394 -256.899C434.139 -254.927 431.889 -252.959 429.673 -251.006C430.181 -251.952 430.698 -252.901 431.221 -253.853C433.365 -255.782 435.535 -257.722 437.714 -259.667C437.257 -258.738 436.838 -257.822 436.394 -256.899ZM445.36 -264.687C442.947 -262.606 440.553 -260.533 438.195 -258.478C438.668 -259.45 439.172 -260.433 439.661 -261.41C441.937 -263.432 444.262 -265.477 446.596 -267.527C446.179 -266.579 445.763 -265.631 445.36 -264.687ZM454.552 -272.601C452.024 -270.433 449.532 -268.283 447.036 -266.13C447.453 -267.092 447.86 -268.05 448.293 -269.017C450.733 -271.159 453.14 -273.287 455.616 -275.446C455.25 -274.494 454.904 -273.549 454.552 -272.601ZM463.944 -280.568C461.298 -278.338 458.639 -276.099 456.065 -273.902C456.43 -274.872 456.825 -275.85 457.206 -276.824C459.715 -279.003 462.294 -281.216 464.869 -283.426C464.559 -282.473 464.24 -281.518 463.944 -280.568ZM473.602 -288.717C470.82 -286.384 468.106 -284.083 465.365 -281.771C465.671 -282.732 465.981 -283.694 466.301 -284.659C468.956 -286.938 471.606 -289.215 474.31 -291.518C474.065 -290.582 473.835 -289.65 473.602 -288.717ZM483.449 -296.908C480.571 -294.523 477.707 -292.146 474.894 -289.792C475.136 -290.735 475.359 -291.674 475.611 -292.619C478.366 -294.961 481.149 -297.316 483.96 -299.685C483.778 -298.757 483.62 -297.834 483.449 -296.908ZM587.706 170.85C586.801 170.587 585.899 170.323 584.987 170.062C585.03 169.116 585.065 168.172 585.098 167.228C585.962 167.514 586.826 167.799 587.679 168.088C587.692 169.008 587.704 169.928 587.706 170.85ZM591.367 171.932C590.487 171.668 589.601 171.405 588.715 171.145C588.713 170.24 588.701 169.337 588.688 168.434C589.531 168.723 590.367 169.014 591.203 169.305C591.262 170.179 591.321 171.054 591.367 171.932ZM594.961 173.024C594.111 172.76 593.246 172.503 592.388 172.242C592.345 171.38 592.291 170.521 592.235 169.662C593.059 169.952 593.869 170.248 594.683 170.541C594.782 171.367 594.873 172.195 594.961 173.024ZM598.507 174.148C597.676 173.882 596.843 173.617 596.005 173.354C595.922 172.543 595.839 171.732 595.744 170.923C596.539 171.212 597.329 171.503 598.117 171.796C598.252 172.578 598.38 173.363 598.507 174.148ZM602.008 175.292C601.199 175.024 600.396 174.753 599.578 174.488C599.457 173.725 599.329 172.964 599.201 172.203C599.962 172.489 600.729 172.773 601.482 173.063C601.662 173.805 601.842 174.546 602.008 175.292ZM605.42 176.441C604.653 176.177 603.881 175.916 603.105 175.656C602.948 174.937 602.78 174.22 602.611 173.505C603.349 173.792 604.084 174.08 604.814 174.37C605.023 175.058 605.22 175.75 605.42 176.441ZM608.786 177.61C608.053 177.349 607.304 177.095 606.564 176.838C606.372 176.171 606.186 175.502 605.988 174.837C606.689 175.12 607.377 175.406 608.069 175.691C608.311 176.33 608.556 176.968 608.786 177.61ZM612.066 178.805C611.377 178.551 610.682 178.298 609.984 178.046C609.765 177.428 609.533 176.812 609.303 176.198C609.971 176.477 610.632 176.761 611.293 177.043C611.559 177.628 611.811 178.217 612.066 178.805ZM615.294 180.02C614.637 179.768 613.987 179.514 613.322 179.265C613.085 178.712 612.85 178.158 612.606 177.608C613.214 177.872 613.825 178.136 614.428 178.403C614.718 178.941 615.013 179.478 615.294 180.02ZM618.403 181.23C617.813 180.995 617.222 180.762 616.626 180.53C616.373 180.033 616.112 179.539 615.848 179.045C616.412 179.299 616.982 179.552 617.54 179.809C617.835 180.28 618.114 180.756 618.403 181.23ZM621.447 182.457C620.922 182.24 620.383 182.029 619.852 181.814C619.596 181.385 619.334 180.957 619.072 180.529C619.566 180.762 620.059 180.996 620.547 181.231C620.848 181.64 621.156 182.045 621.447 182.457ZM624.344 183.685C623.905 183.497 623.464 183.309 623.021 183.123C622.778 182.773 622.543 182.423 622.296 182.075C622.712 182.28 623.119 182.488 623.53 182.694C623.806 183.023 624.074 183.354 624.344 183.685ZM627.132 184.905C626.798 184.756 626.471 184.605 626.135 184.457C625.926 184.196 625.708 183.939 625.496 183.68C625.811 183.842 626.116 184.009 626.427 184.172C626.662 184.416 626.901 184.659 627.132 184.905ZM629.623 186.025C629.468 185.953 629.306 185.884 629.15 185.812L628.798 185.427C628.934 185.501 629.077 185.574 629.213 185.648L629.623 186.025ZM367.938 -192.697L366.172 -191.015L366.68 -191.618C367.258 -192.184 367.85 -192.757 368.428 -193.324C368.259 -193.112 368.106 -192.907 367.938 -192.697ZM375.532 -199.829C374.507 -198.877 373.468 -197.917 372.464 -196.974C372.853 -197.455 373.269 -197.949 373.66 -198.432C374.635 -199.374 375.629 -200.325 376.628 -201.279C376.256 -200.793 375.898 -200.313 375.532 -199.829ZM383.277 -207.038C381.92 -205.785 380.616 -204.558 379.273 -203.311C379.727 -203.902 380.14 -204.472 380.6 -205.065C381.958 -206.358 383.304 -207.648 384.671 -208.946C384.209 -208.311 383.734 -207.67 383.277 -207.038ZM391.089 -214.166C389.591 -212.802 388.081 -211.434 386.606 -210.082C387.151 -210.826 387.682 -211.563 388.236 -212.311C389.695 -213.681 391.2 -215.075 392.691 -216.461C392.164 -215.699 391.607 -214.924 391.089 -214.166ZM399.392 -221.693C397.607 -220.089 395.859 -218.504 394.108 -216.917C394.685 -217.75 395.292 -218.596 395.882 -219.435C397.563 -220.993 399.222 -222.542 400.932 -224.114C400.402 -223.3 399.914 -222.504 399.392 -221.693ZM407.77 -229.174C405.806 -227.424 403.844 -225.675 401.904 -223.936C402.484 -224.824 403.083 -225.721 403.676 -226.615C405.556 -228.337 407.462 -230.071 409.368 -231.805C408.829 -230.926 408.296 -230.048 407.77 -229.174ZM416.288 -236.696C414.217 -234.882 412.148 -233.069 410.13 -231.281C410.686 -232.194 411.219 -233.096 411.789 -234.014C413.79 -235.824 415.839 -237.657 417.893 -239.493C417.367 -238.564 416.802 -237.62 416.288 -236.696ZM425.215 -244.517C422.928 -242.526 420.701 -240.563 418.446 -238.586C418.985 -239.542 419.555 -240.51 420.109 -241.472C422.278 -243.409 424.413 -245.33 426.611 -247.282C426.127 -246.353 425.685 -245.44 425.215 -244.517ZM434.211 -252.267C431.824 -250.219 429.43 -248.168 427.101 -246.149C427.597 -247.11 428.091 -248.07 428.603 -249.036C430.883 -251.051 433.227 -253.096 435.565 -255.137C435.113 -254.18 434.648 -253.219 434.211 -252.267ZM443.496 -260.219C440.962 -258.062 438.475 -255.929 435.988 -253.796C436.442 -254.767 436.896 -255.739 437.364 -256.715C439.774 -258.819 442.19 -260.926 444.648 -263.054C444.249 -262.104 443.881 -261.164 443.496 -260.219ZM452.963 -268.226C450.311 -265.991 447.677 -263.765 445.073 -261.553C445.477 -262.53 445.905 -263.514 446.324 -264.496C448.865 -266.69 451.426 -268.894 454.01 -271.11C453.659 -270.148 453.3 -269.184 452.963 -268.226ZM462.681 -276.364C459.918 -274.062 457.163 -271.765 454.463 -269.495C454.81 -270.465 455.161 -271.436 455.522 -272.412C458.141 -274.649 460.823 -276.917 463.507 -279.187C463.217 -278.242 462.959 -277.305 462.681 -276.364ZM472.599 -284.616C469.712 -282.226 466.887 -279.866 464.041 -277.496C464.329 -278.455 464.612 -279.413 464.914 -280.376C467.7 -282.732 470.449 -285.071 473.282 -287.449C473.049 -286.503 472.82 -285.558 472.599 -284.616ZM482.73 -292.922C479.747 -290.486 476.754 -288.045 473.85 -285.649C474.078 -286.604 474.335 -287.566 474.574 -288.524C477.411 -290.9 480.319 -293.31 483.23 -295.722C483.061 -294.788 482.889 -293.854 482.73 -292.922ZM587.682 174.309C586.726 174.07 585.762 173.835 584.798 173.599C584.854 172.638 584.914 171.676 584.962 170.716C585.885 170.98 586.797 171.25 587.713 171.517C587.71 172.447 587.692 173.379 587.682 174.309ZM591.507 175.279C590.574 175.039 589.628 174.802 588.685 174.564C588.696 173.646 588.711 172.727 588.715 171.81C589.614 172.076 590.505 172.345 591.395 172.614C591.436 173.502 591.475 174.39 591.507 175.279ZM595.282 176.276C594.367 176.031 593.45 175.787 592.525 175.546C592.496 174.67 592.457 173.797 592.415 172.925C593.291 173.191 594.165 173.459 595.031 173.729C595.119 174.577 595.206 175.425 595.282 176.276ZM598.983 177.284C598.095 177.038 597.21 176.792 596.313 176.549C596.242 175.717 596.16 174.888 596.076 174.059C596.928 174.328 597.784 174.596 598.626 174.868C598.753 175.671 598.868 176.478 598.983 177.284ZM602.641 178.313C601.779 178.065 600.91 177.821 600.038 177.577C599.927 176.791 599.82 176.003 599.699 175.22C600.526 175.49 601.347 175.762 602.164 176.036C602.327 176.794 602.488 177.552 602.641 178.313ZM606.229 179.357C605.402 179.111 604.563 178.871 603.727 178.629C603.579 177.883 603.42 177.141 603.26 176.399C604.063 176.67 604.851 176.948 605.643 177.222C605.844 177.932 606.04 178.643 606.229 179.357ZM609.753 180.432C608.953 180.184 608.151 179.938 607.342 179.694C607.161 179.001 606.98 178.309 606.788 177.619C607.554 177.888 608.316 178.158 609.074 178.431C609.306 179.096 609.53 179.763 609.753 180.432ZM613.215 181.524C612.448 181.278 611.689 181.029 610.913 180.786C610.703 180.144 610.481 179.503 610.261 178.863C610.986 179.127 611.719 179.389 612.435 179.656C612.7 180.277 612.961 180.9 613.215 181.524ZM616.595 182.627C615.874 182.387 615.148 182.149 614.42 181.912C614.184 181.32 613.947 180.728 613.7 180.14C614.387 180.401 615.072 180.66 615.75 180.924C616.034 181.491 616.317 182.058 616.595 182.627ZM619.893 183.747C619.23 183.516 618.552 183.292 617.881 183.064C617.621 182.52 617.348 181.981 617.077 181.442C617.725 181.697 618.361 181.957 619.002 182.216C619.305 182.724 619.6 183.235 619.893 183.747ZM623.116 184.897C622.498 184.673 621.878 184.45 621.252 184.229C620.983 183.752 620.724 183.272 620.446 182.798C621.032 183.038 621.603 183.285 622.18 183.528C622.493 183.984 622.81 184.438 623.116 184.897ZM626.224 186.046C625.677 185.84 625.139 185.63 624.586 185.426C624.316 185.013 624.035 184.605 623.755 184.196C624.278 184.421 624.802 184.646 625.321 184.874C625.63 185.262 625.922 185.656 626.224 186.046ZM629.23 187.197C628.768 187.016 628.301 186.836 627.834 186.656C627.582 186.323 627.327 185.991 627.072 185.659C627.496 185.851 627.927 186.038 628.346 186.231C628.639 186.554 628.942 186.873 629.23 187.197ZM632.039 188.325C631.706 188.189 631.367 188.056 631.031 187.92C630.827 187.684 630.632 187.444 630.423 187.209C630.733 187.356 631.045 187.502 631.352 187.65C631.585 187.874 631.809 188.101 632.039 188.325ZM634.708 189.444L634.176 189.217C634.056 189.095 633.928 188.976 633.805 188.854L634.291 189.098C634.428 189.214 634.571 189.328 634.708 189.444ZM356.105 -180.162C355.443 -179.541 354.819 -178.94 354.166 -178.324L354.504 -178.719L356.526 -180.688L356.105 -180.162ZM363.598 -187.129C362.575 -186.177 361.536 -185.216 360.515 -184.264C360.875 -184.702 361.219 -185.133 361.582 -185.572C362.598 -186.547 363.652 -187.54 364.685 -188.523C364.323 -188.059 363.954 -187.592 363.598 -187.129ZM371.317 -194.254C370.082 -193.13 368.855 -192.008 367.65 -190.899C368.104 -191.477 368.538 -192.045 368.998 -192.626C370.279 -193.838 371.526 -195.033 372.829 -196.255C372.336 -195.593 371.802 -194.913 371.317 -194.254ZM379.439 -201.651C377.911 -200.262 376.39 -198.876 374.869 -197.49C375.426 -198.231 375.994 -198.979 376.561 -199.724C377.991 -201.06 379.446 -202.407 380.883 -203.746C380.382 -203.039 379.933 -202.355 379.439 -201.651ZM387.713 -209.081C385.935 -207.497 384.144 -205.908 382.413 -204.348C383.014 -205.192 383.674 -206.062 384.286 -206.91C385.935 -208.429 387.632 -209.971 389.327 -211.513C388.779 -210.697 388.25 -209.891 387.713 -209.081ZM396.163 -216.616C394.208 -214.886 392.318 -213.188 390.391 -211.471C390.968 -212.327 391.499 -213.165 392.087 -214.026C394.013 -215.779 395.904 -217.514 397.857 -219.279C397.295 -218.393 396.712 -217.497 396.163 -216.616ZM404.81 -224.192C402.73 -222.375 400.649 -220.557 398.609 -218.76C399.193 -219.683 399.779 -220.607 400.376 -221.536C402.351 -223.311 404.375 -225.11 406.393 -226.906C405.854 -225.997 405.334 -225.095 404.81 -224.192ZM413.751 -231.969C411.467 -229.997 409.212 -228.038 406.976 -226.09C407.543 -227.053 408.168 -228.04 408.75 -229.01C410.897 -230.917 413.057 -232.83 415.25 -234.76C414.736 -233.824 414.25 -232.899 413.751 -231.969ZM422.818 -239.771C420.442 -237.733 418.085 -235.703 415.74 -233.68C416.258 -234.633 416.737 -235.57 417.269 -236.529C419.591 -238.568 421.928 -240.614 424.282 -242.67C423.798 -241.706 423.286 -240.73 422.818 -239.771ZM432.183 -247.731C429.669 -245.608 427.144 -243.478 424.694 -241.387C425.18 -242.365 425.684 -243.351 426.185 -244.336C428.549 -246.389 430.986 -248.479 433.414 -250.564C432.984 -249.612 432.599 -248.678 432.183 -247.731ZM441.727 -255.794C439.063 -253.557 436.469 -251.355 433.848 -249.139C434.285 -250.117 434.729 -251.099 435.182 -252.084C437.744 -254.286 440.281 -256.475 442.888 -258.699C442.5 -257.73 442.1 -256.758 441.727 -255.794ZM451.501 -263.93C448.744 -261.643 445.986 -259.355 443.292 -257.097C443.677 -258.074 444.066 -259.052 444.466 -260.033C447.085 -262.26 449.76 -264.516 452.438 -266.772C452.108 -265.82 451.818 -264.879 451.501 -263.93ZM461.458 -272.165C458.587 -269.802 455.742 -267.453 452.929 -265.119C453.258 -266.09 453.59 -267.062 453.934 -268.037C456.689 -270.358 459.479 -272.694 462.295 -275.044C462.018 -274.086 461.722 -273.121 461.458 -272.165ZM471.686 -280.548C468.699 -278.109 465.741 -275.684 462.806 -273.27C463.077 -274.235 463.37 -275.207 463.656 -276.176C466.526 -278.569 469.406 -280.967 472.323 -283.383C472.107 -282.438 471.891 -281.492 471.686 -280.548ZM482.103 -288.992C479.024 -286.508 475.936 -284.018 472.934 -281.572C473.145 -282.522 473.353 -283.472 473.575 -284.426C476.508 -286.848 479.533 -289.318 482.548 -291.781C482.395 -290.851 482.246 -289.921 482.103 -288.992ZM472.664 -280.362C475.701 -282.841 478.815 -285.356 481.923 -287.87C469.049 -201.835 500.397 -123.165 531.707 -44.5861C550.72 3.13104 569.715 50.8148 578.779 100.092C567.499 57.7341 548.129 16.8394 528.642 -24.2928C490.631 -104.531 452.202 -185.68 472.664 -280.362ZM462.437 -271.984C465.395 -274.418 468.398 -276.875 471.414 -279.339C451.452 -185.032 489.781 -104.136 527.678 -24.141C548.225 19.23 568.636 62.3365 579.563 107.169C566.638 68.2281 545.814 30.8707 524.784 -6.84286C479.913 -87.3057 434.128 -169.395 462.437 -271.984ZM380.456 -201.534C382.297 -203.199 384.155 -204.872 386.039 -206.559C280.354 -44.7612 392.342 22.2265 497.572 85.1239C527.914 103.259 557.681 121.058 581.482 140.7M587.615 177.791C586.607 177.577 585.59 177.366 584.572 177.155C584.642 176.18 584.702 175.205 584.761 174.231C585.737 174.471 586.709 174.712 587.674 174.955C587.66 175.899 587.641 176.845 587.615 177.791ZM591.597 178.655C590.604 178.437 589.616 178.217 588.614 178.003C588.641 177.071 588.663 176.139 588.677 175.209C589.632 175.451 590.589 175.691 591.533 175.938C591.562 176.842 591.578 177.749 591.597 178.655ZM595.531 179.537C594.559 179.315 593.589 179.094 592.607 178.876C592.592 177.986 592.579 177.095 592.553 176.208C593.483 176.452 594.413 176.696 595.332 176.944C595.403 177.807 595.471 178.671 595.531 179.537ZM599.405 180.435C598.463 180.212 597.512 179.992 596.559 179.773C596.501 178.921 596.433 178.07 596.364 177.221C597.276 177.469 598.176 177.722 599.079 177.974C599.194 178.793 599.305 179.612 599.405 180.435ZM603.215 181.354C602.3 181.129 601.373 180.908 600.447 180.687C600.349 179.878 600.245 179.071 600.134 178.266C601.025 178.517 601.908 178.773 602.791 179.028C602.94 179.801 603.075 180.578 603.215 181.354ZM606.983 182.305C606.085 182.075 605.188 181.845 604.281 181.619C604.146 180.859 604.014 180.099 603.87 179.341C604.722 179.59 605.575 179.84 606.417 180.093C606.611 180.829 606.804 181.565 606.983 182.305ZM610.655 183.266C609.794 183.037 608.939 182.807 608.069 182.581C607.898 181.863 607.715 181.149 607.531 180.434C608.36 180.686 609.192 180.935 610.011 181.191C610.234 181.88 610.443 182.573 610.655 183.266ZM614.293 184.253C613.463 184.023 612.624 183.796 611.784 183.568C611.581 182.898 611.382 182.227 611.169 181.559C611.961 181.81 612.746 182.063 613.528 182.317C613.787 182.961 614.05 183.604 614.293 184.253ZM617.822 185.252C617.042 185.026 616.247 184.805 615.459 184.583C615.226 183.954 614.981 183.329 614.733 182.704C615.502 182.958 616.254 183.218 617.014 183.476C617.293 184.064 617.553 184.659 617.822 185.252ZM621.312 186.29C620.561 186.063 619.81 185.837 619.051 185.613C618.796 185.042 618.537 184.471 618.274 183.902C618.987 184.147 619.694 184.394 620.398 184.642C620.706 185.19 621.015 185.738 621.312 186.29ZM624.688 187.334C623.989 187.114 623.297 186.89 622.59 186.673C622.317 186.156 622.041 185.641 621.758 185.129C622.419 185.366 623.088 185.6 623.742 185.841C624.063 186.337 624.376 186.836 624.688 187.334ZM627.989 188.394C627.356 188.185 626.715 187.98 626.075 187.774C625.791 187.311 625.493 186.853 625.2 186.393C625.807 186.621 626.416 186.849 627.017 187.08C627.347 187.516 627.669 187.955 627.989 188.394ZM631.18 189.468C630.619 189.275 630.044 189.085 629.476 188.894C629.195 188.501 628.923 188.104 628.635 187.712C629.17 187.922 629.695 188.135 630.223 188.348C630.543 188.721 630.867 189.093 631.18 189.468ZM634.245 190.553C633.777 190.385 633.309 190.216 632.836 190.049C632.567 189.72 632.289 189.394 632.01 189.067C632.478 189.261 632.93 189.46 633.393 189.655C633.685 189.952 633.959 190.255 634.245 190.553ZM637.174 191.629C636.808 191.491 636.452 191.349 636.083 191.213C635.866 190.981 635.644 190.751 635.426 190.521C635.757 190.665 636.086 190.811 636.416 190.957C636.666 191.182 636.927 191.403 637.174 191.629ZM639.807 192.633C639.638 192.566 639.463 192.503 639.295 192.438C639.175 192.326 639.06 192.212 638.94 192.1C639.093 192.171 639.252 192.239 639.404 192.31L639.807 192.633ZM493.002 -300.321C492.912 -299.403 492.814 -298.485 492.733 -297.568C489.524 -294.997 486.414 -292.473 483.268 -289.933C483.415 -290.867 483.556 -291.8 483.716 -292.736C486.801 -295.26 489.858 -297.769 493.002 -300.321ZM493.395 -304.127C493.293 -303.213 493.199 -302.3 493.106 -301.388C489.998 -298.866 486.964 -296.382 483.907 -293.886C484.071 -294.829 484.256 -295.775 484.429 -296.719C487.4 -299.18 490.371 -301.641 493.395 -304.127ZM493.851 -307.966C493.736 -307.052 493.632 -306.14 493.527 -305.227C490.54 -302.773 487.581 -300.333 484.648 -297.906C484.825 -298.845 485.002 -299.784 485.191 -300.725C488.039 -303.12 490.946 -305.544 493.851 -307.966ZM494.372 -311.843C494.243 -310.922 494.105 -310.001 493.985 -309.082C491.13 -306.703 488.247 -304.311 485.448 -301.959C485.64 -302.899 485.835 -303.838 486.038 -304.78C488.764 -307.109 491.587 -309.485 494.372 -311.843ZM494.939 -315.746C494.797 -314.829 494.665 -313.913 494.534 -312.997C491.774 -310.663 488.997 -308.322 486.298 -306.015C486.505 -306.953 486.738 -307.896 486.956 -308.835C489.589 -311.126 492.244 -313.426 494.939 -315.746ZM495.568 -319.644C495.416 -318.746 495.276 -317.849 495.133 -316.951C492.467 -314.659 489.868 -312.399 487.261 -310.134C487.483 -311.071 487.698 -312.008 487.932 -312.948C490.419 -315.153 493.021 -317.411 495.568 -319.644ZM496.276 -323.615C496.107 -322.7 495.93 -321.784 495.771 -320.87C493.292 -318.7 490.719 -316.487 488.295 -314.342C488.529 -315.26 488.769 -316.179 489.014 -317.098C491.394 -319.252 493.838 -321.434 496.276 -323.615ZM497.033 -327.604C496.852 -326.697 496.68 -325.79 496.509 -324.884C494.132 -322.762 491.706 -320.617 489.385 -318.521C489.635 -319.44 489.906 -320.362 490.167 -321.284C492.431 -323.379 494.713 -325.483 497.033 -327.604ZM497.863 -331.629C497.668 -330.728 497.488 -329.827 497.305 -328.927C495.053 -326.872 492.795 -324.814 490.596 -322.783C490.857 -323.685 491.105 -324.585 491.376 -325.488C493.53 -327.531 495.655 -329.562 497.863 -331.629ZM498.779 -335.701C498.571 -334.799 498.357 -333.898 498.16 -332.998C496.035 -331.013 493.947 -329.045 491.876 -327.082C492.151 -327.983 492.436 -328.884 492.722 -329.787C494.747 -331.761 496.705 -333.706 498.779 -335.701ZM499.738 -339.737C499.523 -338.865 499.309 -337.993 499.104 -337.121C497.108 -335.206 495.183 -333.321 493.235 -331.426C493.527 -332.321 493.84 -333.221 494.141 -334.117C496.006 -335.99 497.832 -337.847 499.738 -339.737ZM500.759 -343.785C500.539 -342.954 500.34 -342.123 500.13 -341.292C498.286 -339.467 496.543 -337.685 494.741 -335.879C495.037 -336.741 495.319 -337.602 495.625 -338.466C497.322 -340.234 499.023 -342.002 500.759 -343.785ZM501.884 -347.893C501.656 -347.076 501.428 -346.259 501.21 -345.443C499.549 -343.744 497.962 -342.076 496.331 -340.389C496.638 -341.238 496.95 -342.086 497.267 -342.936C498.781 -344.579 500.334 -346.236 501.884 -347.893ZM503.066 -351.999C502.832 -351.211 502.591 -350.421 502.364 -349.633C500.893 -348.069 499.46 -346.519 498.015 -344.965C498.331 -345.792 498.673 -346.624 498.997 -347.452C500.32 -348.956 501.709 -350.483 503.066 -351.999ZM504.296 -356.086C504.068 -355.356 503.857 -354.627 503.635 -353.898C502.376 -352.498 501.123 -351.101 499.888 -349.71C500.187 -350.455 500.481 -351.201 500.787 -351.948C501.932 -353.318 503.125 -354.707 504.296 -356.086ZM505.638 -360.22C505.415 -359.547 505.2 -358.874 504.983 -358.202C503.958 -357.002 502.915 -355.796 501.907 -354.602C502.176 -355.237 502.44 -355.871 502.713 -356.507C503.683 -357.743 504.647 -358.977 505.638 -360.22ZM506.993 -364.214C506.8 -363.657 506.599 -363.1 506.41 -362.543C505.65 -361.598 504.858 -360.642 504.111 -359.702C504.322 -360.179 504.541 -360.658 504.756 -361.136C505.504 -362.163 506.232 -363.184 506.993 -364.214ZM508.27 -367.86C508.161 -367.564 508.062 -367.268 507.956 -366.972C507.501 -366.363 507.024 -365.747 506.575 -365.14C506.68 -365.364 506.793 -365.589 506.897 -365.813L508.27 -367.86ZM579.819 173.042C579.716 174.07 579.608 175.098 579.493 176.128C546.322 169.552 508.555 164.716 470.06 159.791C395.159 150.209 317.525 140.276 265.997 116.454C190.457 81.53 170.963 16.6549 298.066 -120.876C182.414 11.0484 207.379 73.8352 284.012 108.995C333.361 131.636 404.096 142.795 472.503 153.586C510.339 159.555 547.454 165.414 579.819 173.042ZM580.184 169.373C580.09 170.388 579.983 171.405 579.881 172.422C547.537 164.829 510.51 158.983 472.766 153.029C404.461 142.254 333.827 131.111 284.636 108.542C205.784 72.3645 181.99 6.72839 310.93 -133.997C193.302 1.5285 223.175 65.1657 303.525 101.729C350.101 122.923 413.607 134.997 475.178 146.701C512.268 153.752 548.652 160.671 580.184 169.373ZM580.483 165.724C580.405 166.726 580.325 167.728 580.237 168.731C548.741 160.077 512.465 153.181 475.492 146.152C414.002 134.462 350.581 122.405 304.144 101.274C221.458 63.6484 192.552 -2.84204 323.999 -147.473C203.66 -7.49768 239.503 57.0891 324.218 95.2965C367.48 114.808 423.452 127.421 477.874 139.684C514.196 147.869 549.815 155.901 580.483 165.724ZM580.749 162.09C580.682 163.081 580.613 164.072 580.537 165.064C549.915 155.301 514.423 147.299 478.238 139.145C423.88 126.896 367.973 114.298 324.833 94.8418C238.106 55.727 202.834 -11.1799 335.162 -158.983L335.843 -159.645C213.585 -15.2666 256.995 49.9815 346.588 89.9993C385.772 107.502 433.772 120.166 480.594 132.52C516.124 141.895 550.969 151.092 580.749 162.09ZM580.98 158.481C580.923 159.456 580.855 160.433 580.792 161.409C551.069 150.485 516.379 141.327 481.01 131.995C434.241 119.655 386.296 107.005 347.199 89.5422C256.579 49.0651 213.452 -17.3734 342.413 -166.037C343.09 -166.69 343.73 -167.325 344.414 -167.983C223.473 -20.6062 276.785 44.4713 371.538 86.3509C405.535 101.377 444.845 113.409 483.34 125.192C518.062 135.819 552.115 146.245 580.98 158.481ZM581.15 154.889C581.108 155.847 581.067 156.804 581.016 157.763C552.219 145.62 518.342 135.25 483.807 124.68C445.347 112.908 406.074 100.887 372.145 85.8912C276.648 43.6833 223.4 -22.1906 349.459 -172.784C350.471 -173.748 351.499 -174.719 352.511 -175.684C200.222 16.8293 348.476 69.1414 486.111 117.674C519.999 129.624 553.231 141.349 581.15 154.889ZM581.293 151.31C581.261 152.251 581.225 153.193 581.186 154.136C553.343 140.709 520.31 129.056 486.632 117.18C348.278 68.3941 199.197 15.7653 357.192 -180.124C358.307 -181.172 359.47 -182.243 360.615 -183.305C220.344 1.42328 359.472 57.6296 488.918 109.943C521.951 123.292 554.349 136.389 581.293 151.31ZM581.396 147.761C581.373 148.678 581.345 149.596 581.316 150.513C554.458 135.731 522.288 122.725 489.489 109.47C359.472 56.9255 219.748 0.405029 364.654 -187.058C366.144 -188.44 367.595 -189.802 369.104 -191.193C240.414 -14.049 370.41 45.9733 491.76 101.968C523.922 116.809 555.462 131.369 581.396 147.761ZM581.453 144.218C581.444 145.111 581.436 146.004 581.418 146.899C555.576 130.677 524.281 116.234 492.383 101.516C370.612 45.3255 240.075 -14.9101 372.344 -194.151C374.042 -195.706 375.78 -197.281 377.507 -198.851C260.47 -29.4237 381.387 34.1898 494.641 93.7101C525.902 110.139 556.565 126.26 581.453 144.218ZM581.469 137.194C581.474 138.02 581.477 138.845 581.479 139.671C557.779 120.28 528.314 102.667 498.294 84.7235C392.738 21.6312 280.395 -45.5955 388.713 -208.944C390.703 -210.723 392.697 -212.504 394.707 -214.293C300.105 -60.0694 403.281 10.0551 500.557 76.1554C529.952 96.1293 558.8 115.737 581.469 137.194ZM581.418 133.703C581.436 134.492 581.455 135.281 581.464 136.07C558.893 114.91 530.376 95.5237 501.321 75.7819C403.749 9.48141 300.249 -60.8816 397.148 -216.463C399.275 -218.343 401.475 -220.258 403.662 -222.168C319.764 -75.4185 414.188 -2.37628 503.604 66.7337C532.028 88.7023 559.933 110.277 581.418 133.703ZM581.346 130.237C581.367 130.964 581.376 131.693 581.392 132.421C560.001 109.356 532.454 88.0638 504.408 66.3872C414.743 -2.91473 320.007 -76.1645 405.798 -224.037C408.104 -226.053 410.397 -228.061 412.746 -230.097C339.205 -90.761 425.068 -15.1216 506.722 56.7699C534.152 80.9209 561.1 104.65 581.346 130.237ZM581.221 126.774C581.245 127.443 581.272 128.111 581.294 128.78C561.133 103.631 534.583 80.2446 507.56 56.4528C425.684 -15.6357 339.576 -91.5009 414.732 -231.806C417.122 -233.871 419.55 -235.955 421.985 -238.043C358.491 -106.115 435.937 -28.2377 509.924 46.1521C536.329 72.7017 562.284 98.8091 581.221 126.774ZM581.073 123.33C581.103 123.916 581.135 124.502 581.161 125.089C562.292 97.652 536.756 71.9723 510.789 45.8642C436.601 -28.7289 358.918 -106.83 423.79 -239.596C426.322 -241.763 428.903 -243.953 431.497 -246.15C377.608 -121.576 446.768 -41.8368 513.218 34.7329C538.574 63.9512 563.525 92.7114 581.073 123.33ZM580.899 119.905C580.926 120.374 580.945 120.844 580.971 121.314C563.464 91.3514 538.983 63.1336 514.113 34.4747C447.481 -42.303 378.122 -122.27 433.161 -247.557C435.809 -249.8 438.445 -252.036 441.134 -254.299C396.448 -137.108 457.573 -56.0256 516.62 22.3183C540.904 54.5366 564.834 86.2912 580.899 119.905ZM580.679 116.465L580.744 117.436C564.682 84.6499 541.28 53.5895 517.537 22.0875C458.324 -56.4751 397.046 -137.803 442.697 -255.612C445.428 -257.903 448.248 -260.236 451.05 -262.561C415.12 -152.822 468.349 -70.9696 520.152 8.64276C543.33 44.263 566.217 79.4368 580.679 116.465ZM580.444 113.074L580.466 113.339C565.942 77.3801 543.656 43.1202 521.09 8.4389C469.141 -71.3977 415.759 -153.488 452.479 -263.75C455.341 -266.127 458.214 -268.509 461.131 -270.913C433.459 -168.761 479.088 -86.9019 523.832 -6.66586C545.891 32.8942 567.732 72.0611 580.444 113.074ZM535.918 -69.2747C553.592 -15.9883 571.392 37.6879 578.387 92.8551C568.861 46.0914 550.78 0.702911 532.682 -44.7152C501.274 -123.542 469.842 -202.462 483.088 -288.81C486.261 -291.376 489.404 -293.927 492.647 -296.528C486.108 -219.461 510.88 -144.758 535.918 -69.2747ZM582.073 123.221L582.026 122.307L582.181 122.635C582.22 122.963 582.262 123.29 582.299 123.618L582.073 123.221ZM582.222 126.652C582.203 126.189 582.192 125.725 582.172 125.262C582.296 125.482 582.425 125.702 582.548 125.924L582.696 127.352L582.222 126.652ZM582.345 130.092C582.328 129.507 582.303 128.924 582.283 128.34C582.491 128.652 582.692 128.965 582.896 129.278C582.952 129.847 582.996 130.419 583.047 130.989C582.814 130.69 582.582 130.39 582.345 130.092ZM582.419 133.543L582.38 131.561L583.188 132.602C583.246 133.259 583.307 133.916 583.359 134.574C583.046 134.231 582.735 133.886 582.419 133.543ZM582.472 137.018C582.466 136.288 582.457 135.559 582.445 134.83C582.782 135.201 583.123 135.571 583.454 135.943C583.505 136.66 583.558 137.378 583.606 138.096C583.231 137.736 582.851 137.377 582.472 137.018ZM582.486 140.505C582.487 139.719 582.481 138.934 582.477 138.149C582.886 138.54 583.287 138.934 583.692 139.327C583.739 140.089 583.777 140.853 583.819 141.615C583.375 141.246 582.933 140.875 582.486 140.505ZM582.46 144.003C582.469 143.181 582.487 142.359 582.491 141.538C582.952 141.923 583.421 142.306 583.877 142.692C583.922 143.502 583.966 144.313 584 145.125C583.49 144.75 582.976 144.376 582.46 144.003ZM582.409 147.529C582.428 146.663 582.438 145.799 582.448 144.934C582.982 145.324 583.506 145.715 584.035 146.107C584.067 146.944 584.097 147.781 584.123 148.619C583.554 148.255 582.982 147.892 582.409 147.529ZM582.305 151.055C582.333 150.166 582.36 149.277 582.383 148.388C582.976 148.765 583.57 149.141 584.155 149.52C584.179 150.388 584.192 151.257 584.209 152.126C583.577 151.768 582.945 151.41 582.305 151.055ZM582.168 154.613C582.209 153.695 582.248 152.777 582.282 151.86C582.934 152.224 583.578 152.591 584.223 152.957C584.24 153.848 584.257 154.74 584.262 155.632C583.57 155.291 582.867 154.952 582.168 154.613ZM582 158.182C582.052 157.242 582.092 156.304 582.133 155.366C582.845 155.714 583.556 156.064 584.261 156.415C584.263 157.327 584.264 158.239 584.258 159.152C583.506 158.828 582.757 158.504 582 158.182ZM581.774 161.769C581.837 160.812 581.901 159.856 581.958 158.901C582.726 159.23 583.494 159.557 584.258 159.888C584.247 160.818 584.229 161.751 584.212 162.682C583.403 162.376 582.592 162.071 581.774 161.769ZM581.517 165.379C581.593 164.402 581.664 163.426 581.73 162.45C582.56 162.759 583.379 163.071 584.197 163.383C584.18 164.328 584.161 165.274 584.131 166.221C583.265 165.938 582.389 165.66 581.517 165.379ZM581.219 169.005C581.307 168.015 581.385 167.026 581.463 166.038C582.347 166.323 583.23 166.608 584.105 166.897C584.072 167.858 584.035 168.82 583.992 169.783C583.07 169.522 582.149 169.262 581.219 169.005ZM580.864 172.651C580.966 171.65 581.072 170.648 581.166 169.648C582.103 169.909 583.037 170.17 583.967 170.433C583.92 171.407 583.861 172.383 583.804 173.358C582.829 173.12 581.851 172.884 580.864 172.651ZM580.476 176.324C580.591 175.306 580.698 174.288 580.802 173.271C581.799 173.508 582.783 173.749 583.769 173.99C583.711 174.975 583.651 175.961 583.581 176.949C582.551 176.738 581.514 176.531 580.476 176.324ZM546.845 285.518C566.03 248.358 576.341 212.252 580.404 176.933C581.451 177.142 582.494 177.354 583.532 177.568C580.99 212.223 571.604 247.984 552.311 285.353L553.271 285.518C572.558 248.161 581.958 212.414 584.522 177.774C585.55 177.987 586.578 178.198 587.595 178.415C586.584 212.381 578.139 247.778 558.74 285.353L559.701 285.518C579.092 247.961 587.553 212.582 588.594 178.633C589.604 178.851 590.608 179.07 591.608 179.292C592.156 212.553 584.674 247.573 565.167 285.353L566.128 285.518C585.623 247.758 593.131 212.756 592.62 179.512C593.615 179.735 594.596 179.963 595.581 180.189C597.719 212.731 591.207 247.366 571.594 285.353L572.555 285.518C592.153 247.557 598.697 212.944 596.609 180.425C597.572 180.648 598.527 180.874 599.48 181.102C603.244 212.911 597.745 247.15 578.022 285.353L578.982 285.518C598.688 247.35 604.223 213.137 600.523 181.352C601.464 181.58 602.407 181.805 603.338 182.037C608.758 213.098 604.288 246.933 584.452 285.353L585.412 285.518C605.224 247.143 609.745 213.34 604.405 182.307C605.32 182.537 606.235 182.767 607.139 183C614.246 213.297 610.828 246.714 590.878 285.353L591.839 285.518C611.761 246.933 615.239 213.549 608.227 183.282C609.119 183.515 609.995 183.753 610.877 183.991C619.707 213.505 617.369 246.492 597.304 285.353L598.265 285.518C618.295 246.724 620.712 213.775 612.004 184.292C612.865 184.527 613.713 184.766 614.563 185.005C625.15 213.721 623.914 246.267 603.735 285.353L604.695 285.518C624.831 246.516 626.162 214.015 615.728 185.334C616.549 185.568 617.37 185.802 618.181 186.04C630.562 213.942 630.46 246.036 610.161 285.353L611.122 285.518C631.364 246.311 631.6 214.269 619.413 186.408C620.187 186.639 620.967 186.867 621.732 187.101C635.949 214.171 637.009 245.801 616.588 285.353L617.549 285.518C637.901 246.1 636.996 214.532 623.021 187.505C623.767 187.737 624.507 187.973 625.244 188.209C641.319 214.424 643.554 245.573 623.017 285.353L623.975 285.518C644.432 245.896 642.388 214.815 626.607 188.643C627.299 188.869 627.973 189.102 628.657 189.332C646.644 214.677 650.108 245.331 629.445 285.353L630.405 285.518C650.961 245.703 647.75 215.129 630.142 189.831C630.775 190.048 631.402 190.269 632.027 190.489C651.956 214.944 656.659 245.092 635.871 285.353L636.832 285.518C657.483 245.518 653.09 215.472 633.644 191.067C634.194 191.265 634.754 191.461 635.299 191.662C657.227 215.209 663.215 244.838 642.298 285.353L643.259 285.518C663.993 245.36 658.434 215.856 637.153 192.368C637.608 192.54 638.065 192.711 638.514 192.886C662.47 215.503 669.773 244.591 648.728 285.353L649.688 285.518C670.49 245.228 663.761 216.293 640.665 193.74C641.011 193.879 641.355 194.02 641.699 194.16C667.698 215.823 676.322 244.356 655.155 285.353L656.115 285.518C676.96 245.143 669.083 216.808 644.222 195.211C644.397 195.286 644.569 195.363 644.742 195.438C672.873 216.13 682.885 244.093 661.582 285.353L662.542 285.518C683.229 245.449 674.578 217.86 648.534 197.289C678.218 216.948 689.254 244.205 668.01 285.353L668.969 285.518C689.221 246.294 680.356 219.624 654.019 200.123C684.01 218.704 695.247 245.048 674.439 285.353L675.398 285.518C695.197 247.168 686.191 221.394 659.701 202.905C689.854 220.47 701.225 245.921 680.865 285.353L681.826 285.518C704.287 242.014 688.459 215.42 651.44 197.667C649.666 196.649 647.818 195.662 645.931 194.69C644.208 193.632 642.444 192.59 640.612 191.576C638.961 190.487 637.247 189.424 635.494 188.376C633.865 187.218 632.191 186.077 630.461 184.959C628.922 183.78 627.334 182.62 625.702 181.476C624.184 180.212 622.616 178.969 621.003 177.741C619.582 176.458 618.126 175.188 616.621 173.935C615.236 172.566 613.796 171.216 612.326 169.876C611.004 168.443 609.645 167.022 608.242 165.617C607.032 164.172 605.787 162.738 604.505 161.317C603.344 159.775 602.135 158.248 600.903 156.729C599.806 155.102 598.674 153.486 597.507 151.881C596.501 150.2 595.47 148.527 594.4 146.865C593.494 145.143 592.565 143.427 591.601 141.721C590.782 139.922 589.939 138.13 589.064 136.346C588.337 134.475 587.587 132.609 586.811 130.751C586.18 128.802 585.529 126.857 584.848 124.918C584.334 122.957 583.794 121.001 583.238 119.049C582.809 116.937 582.355 114.83 581.882 112.726C581.566 110.578 581.229 108.433 580.872 106.291C575.28 46.3427 556.018 -11.7482 536.902 -69.3837C511.781 -145.117 486.924 -220.063 493.724 -297.386C547.36 -340.357 609.698 -387.601 681.737 -439.593L680.958 -439.953C609.312 -388.245 547.273 -341.233 493.827 -298.438C493.91 -299.359 494.003 -300.281 494.097 -301.203C545.727 -343.063 605.786 -389.03 675.311 -439.593L674.529 -439.953C605.401 -389.68 545.641 -343.949 494.201 -302.27C494.299 -303.193 494.408 -304.117 494.513 -305.041C544.124 -345.785 601.891 -390.471 668.884 -439.594L668.098 -439.952C601.52 -391.134 544.056 -346.695 494.643 -306.141C494.753 -307.06 494.852 -307.978 494.971 -308.896C542.549 -348.522 598.018 -391.923 662.458 -439.596L661.671 -439.951C597.664 -392.598 542.503 -349.454 495.129 -310.032C495.252 -310.958 495.385 -311.885 495.518 -312.813C541.039 -351.301 594.194 -393.404 656.032 -439.597L655.241 -439.95C593.843 -394.086 540.995 -352.245 495.679 -313.968C495.818 -314.899 495.967 -315.831 496.114 -316.763C539.559 -354.102 590.407 -394.906 649.608 -439.598L648.813 -439.949C590.077 -395.608 539.537 -355.08 496.309 -317.968C496.455 -318.87 496.593 -319.771 496.748 -320.673C538.131 -356.892 586.58 -396.373 643.181 -439.599L642.381 -439.948C586.255 -397.085 538.145 -357.901 496.978 -321.921C497.142 -322.843 497.311 -323.765 497.485 -324.688C536.762 -359.747 582.842 -397.901 636.756 -439.6L635.953 -439.947C582.515 -398.618 536.779 -360.77 497.717 -325.957C497.896 -326.882 498.09 -327.806 498.279 -328.731C535.436 -362.625 579.13 -399.444 630.331 -439.602L629.524 -439.944C578.82 -400.177 535.486 -363.685 498.551 -330.055C498.743 -330.969 498.93 -331.884 499.13 -332.8C534.151 -365.523 575.445 -401 623.904 -439.604L623.093 -439.943C575.153 -401.753 534.239 -366.628 499.447 -334.189C499.652 -335.102 499.859 -336.015 500.074 -336.928C532.938 -368.466 571.803 -402.582 617.479 -439.606L616.663 -439.941C571.514 -403.344 533.039 -369.595 500.407 -338.355C500.627 -339.27 500.868 -340.187 501.099 -341.102C531.785 -371.444 568.197 -404.185 611.053 -439.609L610.234 -439.938C567.928 -404.97 531.926 -372.624 501.478 -342.604C501.706 -343.486 501.938 -344.367 502.175 -345.25C530.685 -374.414 564.585 -405.771 604.631 -439.61L603.803 -439.937C564.379 -406.621 530.877 -375.698 502.633 -346.912C502.865 -347.756 503.089 -348.599 503.331 -349.443C529.642 -377.419 561.014 -407.381 598.205 -439.614L597.37 -439.933C560.837 -408.272 529.89 -378.788 503.857 -351.233C504.099 -352.059 504.349 -352.885 504.6 -353.712C528.686 -380.479 557.496 -409.025 591.781 -439.616L590.942 -439.931C557.338 -409.948 528.973 -381.92 505.169 -355.61C505.417 -356.41 505.687 -357.212 505.944 -358.013C527.786 -383.567 554.017 -410.689 585.359 -439.621L584.508 -439.926C553.909 -411.68 528.169 -385.154 506.63 -360.128C506.875 -360.872 507.119 -361.615 507.371 -362.36C526.946 -386.689 550.578 -412.375 578.934 -439.625L578.075 -439.922C550.541 -413.46 527.46 -388.473 508.211 -364.768C508.448 -365.441 508.676 -366.115 508.918 -366.79C526.197 -389.875 547.202 -414.099 572.513 -439.63L571.642 -439.917C547.248 -415.311 526.871 -391.923 509.947 -369.592C510.16 -370.168 510.376 -370.744 510.593 -371.321C525.55 -393.136 543.883 -415.866 566.091 -439.636L565.209 -439.91C544.067 -417.28 526.464 -395.601 511.907 -374.746C512.039 -375.083 512.178 -375.421 512.312 -375.758C524.942 -396.343 540.559 -417.602 559.67 -439.645L558.776 -439.902C541.241 -419.677 526.651 -400.113 514.598 -381.12C524.796 -400.188 537.531 -419.674 553.25 -439.655L552.337 -439.892C538.861 -422.762 527.578 -405.995 518.195 -389.544C525.752 -406.087 535.198 -422.784 546.83 -439.667L545.902 -439.88C532.072 -419.809 521.315 -400 513.163 -380.406C511.463 -377.206 509.822 -374.016 508.262 -370.84C506.254 -367.449 504.355 -364.084 502.502 -360.729C500.269 -357.253 498.105 -353.796 496.042 -350.366C493.532 -346.724 491.097 -343.104 488.784 -339.522C486.119 -335.845 483.581 -332.211 481.106 -328.598C478.327 -324.922 475.635 -321.276 473.039 -317.665C469.996 -313.797 467.043 -309.964 464.21 -306.176C460.948 -302.16 457.831 -298.201 454.798 -294.276C451.623 -290.463 448.547 -286.69 445.574 -282.961C442.324 -279.153 439.161 -275.382 436.111 -271.659C432.142 -267.129 428.365 -262.682 424.692 -258.281C421.194 -254.339 417.8 -250.446 414.522 -246.601C411.003 -242.706 407.59 -238.858 404.278 -235.056C400.124 -230.536 396.093 -226.07 392.215 -221.676C388.298 -217.468 384.502 -213.316 380.838 -209.225C376.832 -204.974 372.94 -200.775 369.193 -196.645C365.058 -192.307 361.035 -188.022 357.169 -183.811C353.109 -179.587 349.149 -175.411 345.335 -171.306C341.306 -167.155 337.383 -163.056 333.591 -159.02C329.507 -154.856 325.558 -150.758 321.714 -146.713C167.626 8.8736 184.964 79.7295 265.374 116.904C317.086 140.811 394.833 150.758 469.843 160.354C508.409 165.289 546.241 170.134 579.42 176.736C575.375 212.068 565.074 248.185 545.884 285.353L546.845 285.518Z" fill="#983131"/>
<defs>
<filter id="filter0_f_364_197" x="0" y="-502" width="829" height="829" filterUnits="userSpaceOnUse" color-interpolation-filters="sRGB">
<feFlood flood-opacity="0" result="BackgroundImageFix"/>
<feBlend mode="normal" in="SourceGraphic" in2="BackgroundImageFix" result="shape"/>
<feGaussianBlur stdDeviation="74" result="effect1_foregroundBlur_364_197"/>
</filter>
</defs>
</svg>
