<svg width="310" height="543" viewBox="0 0 310 543" fill="none" xmlns="http://www.w3.org/2000/svg">
<path d="M12.4339 83.2619L13.7331 84.9333C13.6329 84.7462 13.5416 84.5607 13.4427 84.3731C13.0054 83.7535 12.5655 83.1331 12.1176 82.5108C12.2254 82.7613 12.3269 83.0112 12.4339 83.2619ZM19.2963 93.8237C19.65 94.2552 20.0118 94.6902 20.3616 95.1201L20.2593 94.9442L19.0493 93.3179L19.2963 93.8237ZM14.356 87.8101C15.144 88.7596 15.8998 89.6975 16.6852 90.6455C16.4377 90.1551 16.1719 89.6605 15.9223 89.1688C15.2141 88.2413 14.4728 87.3026 13.7463 86.3688C13.9471 86.8487 14.1577 87.3309 14.356 87.8101ZM26.7332 104.577C27.0376 104.937 27.3192 105.289 27.6219 105.648L27.616 105.639C27.2946 105.226 26.9587 104.808 26.6335 104.394L26.7332 104.577ZM21.6281 98.6304C22.3597 99.4793 23.1022 100.333 23.8249 101.179C23.6096 100.793 23.4028 100.409 23.1859 100.023C22.4204 99.0616 21.694 98.1149 20.9157 97.1495C21.1505 97.6425 21.3972 98.1379 21.6281 98.6304ZM16.1481 92.3077C17.2011 93.5023 18.2133 94.6818 19.2471 95.8701C18.9516 95.2571 18.6527 94.644 18.3521 94.0297C17.3845 92.8431 16.3973 91.65 15.4195 90.4604C15.6654 91.0768 15.9057 91.6921 16.1481 92.3077ZM-69.9731 569.516L-69.7005 569.101C-69.6695 568.784 -69.6351 568.469 -69.602 568.153L-69.8143 568.538C-69.8686 568.864 -69.9192 569.19 -69.9731 569.516ZM34.8766 115.824L35.1989 116.197C35.0622 116.028 34.9344 115.861 34.7977 115.692L34.8766 115.824ZM29.3703 109.511C30.0742 110.299 30.7557 111.078 31.4422 111.86C31.2575 111.553 31.0805 111.248 30.8945 110.941C30.2101 110.11 29.5078 109.274 28.8226 108.443C29.0107 108.8 29.1848 109.154 29.3703 109.511ZM23.7374 103.245C24.7628 104.386 25.7962 105.529 26.8131 106.667C26.4781 106.04 26.127 105.409 25.7877 104.781C24.8418 103.661 23.8682 102.531 22.8938 101.399C23.1761 102.015 23.4589 102.631 23.7374 103.245ZM17.8796 96.8202C19.1452 98.1848 20.3922 99.542 21.6209 100.892C21.3034 100.205 21.0031 99.5209 20.6809 98.8321C19.4713 97.4355 18.2841 96.0462 17.072 94.6478C17.3501 95.3733 17.6083 96.096 17.8796 96.8202ZM-70.5535 573.128C-70.3696 572.887 -70.1786 572.647 -69.9931 572.406L-69.872 571.011C-70.0236 571.246 -70.1803 571.479 -70.3301 571.714C-70.4049 572.186 -70.4813 572.657 -70.5535 573.128ZM-72.1554 575.258L-71.8022 574.784L-71.6642 573.835L-71.9249 574.249C-72.0017 574.586 -72.082 574.921 -72.1554 575.258ZM-73.6172 577.23L-73.5697 577.164L-73.5064 576.865L-73.6172 577.23ZM37.7132 120.768C38.3726 121.506 39.0451 122.248 39.7117 122.988L39.0048 121.89C38.3938 121.172 37.7476 120.439 37.1201 119.714C37.3205 120.066 37.5137 120.416 37.7132 120.768ZM31.8715 114.385C32.8803 115.463 33.8963 116.544 34.8677 117.606C34.5676 117.086 34.2389 116.557 33.9337 116.035C32.9351 114.886 31.9526 113.744 30.9527 112.594C31.2554 113.19 31.5717 113.79 31.8715 114.385ZM25.769 107.844L29.5329 111.878C29.1618 111.158 28.8013 110.44 28.4247 109.718C27.2733 108.418 26.0764 107.102 24.891 105.789C25.1937 106.477 25.4722 107.158 25.769 107.844ZM19.5206 101.288C20.9832 102.796 22.4522 104.308 23.8555 105.793C23.5137 105.016 23.143 104.233 22.7919 103.454C21.3959 101.914 20.0377 100.389 18.6217 98.8414C18.9197 99.6564 19.2314 100.474 19.5206 101.288ZM-71.0613 576.64C-70.7942 576.337 -70.5314 576.034 -70.2614 575.732C-70.2193 575.165 -70.1803 574.597 -70.1349 574.031C-70.365 574.334 -70.5874 574.639 -70.8167 574.943C-70.8974 575.508 -70.9827 576.073 -71.0613 576.64ZM-72.8789 578.708C-72.6747 578.47 -72.4653 578.235 -72.2586 577.998C-72.1966 577.537 -72.1325 577.077 -72.0671 576.616L-72.5906 577.331C-72.687 577.79 -72.7851 578.248 -72.8789 578.708ZM-74.6099 580.744L-74.2108 580.275C-74.1484 579.956 -74.0868 579.637 -74.0214 579.319C-74.1233 579.461 -74.2265 579.602 -74.328 579.745C-74.4201 580.078 -74.5173 580.41 -74.6099 580.744ZM-76.2033 582.657L-76.118 582.553L-76.0195 582.175L-76.0381 582.202L-76.2033 582.657ZM46.5347 132.21C47.149 132.871 47.777 133.537 48.379 134.192C48.2347 133.978 48.0822 133.761 47.9353 133.547C47.27 132.783 46.623 132.026 45.9543 131.26L46.5347 132.21ZM40.5129 125.744C41.4945 126.792 42.4545 127.832 43.4323 128.879C43.1139 128.364 42.8158 127.855 42.4944 127.339C41.5527 126.28 40.5749 125.205 39.6124 124.137C39.907 124.671 40.2221 125.211 40.5129 125.744ZM34.1969 119.132C35.4367 120.412 36.6862 121.696 37.8831 122.958C37.5167 122.299 37.1422 121.638 36.7677 120.977C35.564 119.65 34.3977 118.338 33.1711 117.002C33.521 117.714 33.8543 118.422 34.1969 119.132ZM27.7221 112.414C29.1996 113.936 30.6398 115.443 32.1029 116.96C31.7153 116.173 31.3233 115.385 30.9259 114.595C29.5494 113.106 28.1398 111.603 26.7354 110.103C27.0593 110.872 27.4054 111.646 27.7221 112.414ZM21.0078 105.642C22.6479 107.28 24.3051 108.925 25.8819 110.537C25.5338 109.71 25.1785 108.881 24.821 108.052C23.2844 106.421 21.7339 104.785 20.1574 103.137C20.4465 103.973 20.7267 104.807 21.0078 105.642ZM-71.5134 580.082C-71.1772 579.753 -70.8363 579.425 -70.4974 579.097C-70.4554 578.443 -70.4074 577.79 -70.3607 577.137C-70.6651 577.482 -70.9704 577.826 -71.2715 578.172C-71.3542 578.808 -71.4328 579.446 -71.5134 580.082ZM-73.5463 582.109C-73.2529 581.814 -72.9608 581.52 -72.667 581.226C-72.5974 580.663 -72.524 580.102 -72.4522 579.539C-72.7146 579.844 -72.9723 580.15 -73.2317 580.455C-73.3391 581.006 -73.4414 581.558 -73.5463 582.109ZM-75.4985 584.095C-75.2637 583.852 -75.0345 583.608 -74.7971 583.365C-74.7135 582.909 -74.6231 582.454 -74.5373 581.998C-74.7428 582.245 -74.9423 582.494 -75.1465 582.742L-75.4985 584.095ZM-77.3505 586.022C-77.2015 585.864 -77.0474 585.708 -76.8983 585.551C-76.8164 585.224 -76.7277 584.899 -76.644 584.573L-77.0147 585.03C-77.1264 585.36 -77.241 585.69 -77.3505 586.022ZM-79.0768 587.879L-78.9402 587.731C-78.8956 587.592 -78.8535 587.452 -78.8081 587.313L-78.8684 587.389C-78.9363 587.553 -79.0089 587.715 -79.0768 587.879ZM55.7365 143.727C56.3585 144.383 56.9237 145.016 57.5355 145.668C57.4382 145.53 57.3499 145.396 57.2523 145.258C56.632 144.56 55.9892 143.854 55.3638 143.154C55.4856 143.344 55.6164 143.537 55.7365 143.727ZM49.5712 137.297C50.5006 138.266 51.4424 139.239 52.3569 140.201C52.041 139.718 51.7328 139.236 51.4126 138.752C50.4943 137.739 49.6006 136.738 48.6614 135.717C48.9756 136.247 49.2605 136.768 49.5712 137.297ZM43.0323 130.493C44.3222 131.816 45.5429 133.109 46.8132 134.424C46.4166 133.759 45.9929 133.086 45.5904 132.419C44.4135 131.147 43.2119 129.864 42.021 128.586C42.3628 129.223 42.6986 129.858 43.0323 130.493ZM36.4586 123.868C37.9013 125.317 39.3521 126.768 40.7574 128.201C40.3528 127.447 39.9745 126.701 39.561 125.945C38.176 124.475 36.769 122.996 35.3407 121.508C35.7126 122.294 36.0964 123.084 36.4586 123.868ZM29.5036 116.879C31.1853 118.549 32.8034 120.192 34.4559 121.849C34.0619 121.014 33.6517 120.174 33.2463 119.336C31.6877 117.712 30.1154 116.083 28.5381 114.451C28.8655 115.262 29.1847 116.07 29.5036 116.879ZM22.4289 109.969C24.2376 111.728 26.056 113.491 27.8134 115.228C27.4635 114.358 27.1319 113.492 26.7727 112.62C25.0935 110.899 23.3515 109.151 21.6078 107.403C21.8897 108.26 22.1559 109.114 22.4289 109.969ZM-71.9253 583.512C-71.5105 583.157 -71.1021 582.799 -70.683 582.445C-70.6465 581.735 -70.6121 581.026 -70.5709 580.315C-70.9441 580.682 -71.3131 581.049 -71.6829 581.417C-71.7682 582.115 -71.8471 582.814 -71.9253 583.512ZM-74.1543 585.441C-73.7849 585.115 -73.4092 584.792 -73.036 584.468C-72.9672 583.835 -72.9043 583.202 -72.8317 582.57C-73.1599 582.902 -73.4962 583.231 -73.8214 583.563C-73.9378 584.188 -74.0464 584.815 -74.1543 585.441ZM-76.315 587.363C-75.9949 587.075 -75.6696 586.789 -75.3474 586.502C-75.2544 585.955 -75.1635 585.406 -75.0676 584.86C-75.3559 585.159 -75.6467 585.458 -75.9325 585.758C-76.0649 586.292 -76.1855 586.828 -76.315 587.363ZM-78.3971 589.268C-78.1373 589.028 -77.8787 588.787 -77.6163 588.548L-77.2966 587.205C-77.525 587.451 -77.7522 587.698 -77.9797 587.943C-78.1211 588.384 -78.2595 588.826 -78.3971 589.268ZM-80.3782 591.117C-80.1994 590.948 -80.0262 590.776 -79.8462 590.607C-79.7477 590.285 -79.6433 589.965 -79.5418 589.643C-79.6934 589.81 -79.8398 589.979 -79.9889 590.146C-80.1184 590.47 -80.2512 590.793 -80.3782 591.117ZM-82.2051 592.87L-82.0243 592.695C-81.9674 592.546 -81.9135 592.396 -81.8557 592.246L-81.964 592.369L-82.2051 592.87ZM65.5039 155.683C65.9956 156.201 66.4953 156.723 66.9899 157.242C66.8456 157.045 66.7067 156.85 66.5615 156.653C66.0826 156.125 65.5855 155.59 65.0938 155.057C65.236 155.268 65.3642 155.473 65.5039 155.683ZM58.9752 148.901C59.8953 149.835 60.8022 150.764 61.6938 151.686C61.4254 151.295 61.1507 150.901 60.8816 150.509C59.9738 149.528 59.0546 148.542 58.1494 147.562C58.4296 148.01 58.6984 148.454 58.9752 148.901ZM52.4274 142.263C53.6531 143.506 54.8895 144.753 56.1051 145.991C55.6758 145.312 55.2359 144.628 54.7986 143.946C53.6625 142.74 52.4707 141.509 51.2887 140.283C51.6665 140.943 52.0559 141.606 52.4274 142.263ZM45.5692 135.375C47.0255 136.817 48.4478 138.244 49.8697 139.67C49.4549 138.951 49.0511 138.234 48.6291 137.512L44.4428 133.152C44.827 133.896 45.193 134.634 45.5692 135.375ZM38.5216 128.457C40.1817 130.08 41.8401 131.704 43.4701 133.315C43.023 132.449 42.5428 131.572 42.0851 130.703C40.5766 129.155 38.9887 127.573 37.4177 125.999C37.7897 126.819 38.1603 127.639 38.5216 128.457ZM31.2406 121.375C33.0714 123.136 34.8648 124.879 36.6518 126.621C36.268 125.772 35.902 124.927 35.5067 124.075C33.7587 122.313 32.0303 120.56 30.2636 118.79C30.5977 119.654 30.917 120.513 31.2406 121.375ZM23.7744 114.262C25.7495 116.136 27.7191 118.008 29.6522 119.862C29.3002 118.941 28.9164 118.011 28.5513 117.086C26.7392 115.285 24.8295 113.442 22.9418 111.608C23.2195 112.493 23.509 113.38 23.7744 114.262ZM-67.2758 583.243C-42.4847 565.489 -12.0986 549.513 18.8726 533.236C132.504 473.517 253.885 409.677 133.732 238.419M-72.293 586.911C-71.8162 586.553 -71.3283 586.198 -70.846 585.842C-70.8141 585.077 -70.7807 584.313 -70.7424 583.549C-71.1802 583.924 -71.6166 584.299 -72.0509 584.675C-72.1337 585.42 -72.2187 586.164 -72.293 586.911ZM-74.719 588.762C-74.2736 588.42 -73.8265 588.078 -73.3769 587.738C-73.3107 587.037 -73.2381 586.339 -73.1625 585.64C-73.5693 585.997 -73.9679 586.356 -74.3704 586.715C-74.4889 587.396 -74.6099 588.078 -74.719 588.762ZM-77.075 590.598C-76.6699 590.279 -76.2713 589.957 -75.8624 589.639C-75.7647 589.017 -75.6662 588.395 -75.5626 587.775C-75.9286 588.104 -76.2878 588.436 -76.65 588.767C-76.7939 589.377 -76.9366 589.987 -77.075 590.598ZM-79.3558 592.415C-79.0064 592.133 -78.6544 591.851 -78.3024 591.569C-78.1857 591.037 -78.0783 590.503 -77.956 589.972C-78.2676 590.261 -78.5843 590.547 -78.8909 590.836C-79.0505 591.361 -79.2009 591.889 -79.3558 592.415ZM-81.5598 594.224C-81.2766 593.989 -80.987 593.755 -80.7017 593.52L-80.3187 592.205C-80.5705 592.447 -80.8257 592.688 -81.0753 592.931L-81.5598 594.224ZM-83.6678 596.006L-83.0717 595.497C-82.9562 595.177 -82.8327 594.859 -82.7134 594.54L-83.2207 595.046C-83.3685 595.366 -83.5226 595.685 -83.6678 596.006ZM-85.5801 597.653L-85.3563 597.455L-85.164 597.015L-85.3288 597.187C-85.415 597.342 -85.4952 597.498 -85.5801 597.653ZM75.4412 167.534C75.8746 167.978 76.3192 168.427 76.7467 168.868L76.6593 168.754C76.1519 168.205 75.6581 167.662 75.1499 167.112L75.4412 167.534ZM68.8564 160.803C69.7913 161.76 70.7245 162.717 71.6675 163.676C71.3461 163.225 70.9979 162.762 70.674 162.31C69.8091 161.391 68.9073 160.456 68.0221 159.529C68.3006 159.954 68.5813 160.38 68.8564 160.803ZM62.1986 154.128C63.347 155.26 64.5091 156.397 65.6186 157.512C65.2619 156.973 64.9278 156.443 64.566 155.904C63.3564 154.64 62.1837 153.393 60.9622 152.124C61.366 152.789 61.8007 153.465 62.1986 154.128ZM55.1213 147.13L59.4414 151.402C58.9769 150.642 58.5035 149.879 58.0314 149.116C56.7063 147.757 55.3315 146.375 53.9686 144.998C54.3643 145.713 54.7324 146.417 55.1213 147.13ZM47.9447 140.152C49.5942 141.734 51.2432 143.315 52.84 144.873C52.4006 144.081 51.9387 143.281 51.489 142.485C49.8752 140.855 48.3179 139.251 46.6799 137.611C47.1024 138.459 47.532 139.308 47.9447 140.152ZM40.5078 133.023C42.3237 134.76 44.1303 136.491 45.93 138.221C45.4944 137.343 45.0669 136.468 44.6198 135.587C42.9317 133.91 41.1824 132.205 39.443 130.506C39.8102 131.348 40.1511 132.183 40.5078 133.023ZM32.8756 125.817C34.8643 127.674 36.8399 129.525 38.7709 131.357C38.3853 130.465 37.9709 129.565 37.5744 128.67C35.6731 126.811 33.808 124.969 31.8736 123.096C32.2082 124.003 32.5533 124.912 32.8756 125.817ZM24.987 118.469C27.1094 120.438 29.2128 122.398 31.3063 124.355C30.9718 123.433 30.6334 122.509 30.2861 121.584C28.311 119.679 26.2624 117.742 24.2235 115.81C24.4868 116.698 24.7348 117.583 24.987 118.469ZM-72.5995 590.308C-72.0548 589.95 -71.5135 589.591 -70.9645 589.235C-70.9411 588.43 -70.9106 587.627 -70.8796 586.823C-71.3852 587.202 -71.8901 587.581 -72.3902 587.961C-72.4611 588.743 -72.5316 589.526 -72.5995 590.308ZM-75.2089 592.046C-74.6973 591.701 -74.1861 591.355 -73.6694 591.011C-73.6075 590.269 -73.5391 589.528 -73.4712 588.786C-73.9425 589.147 -74.4193 589.506 -74.8846 589.868C-74.9937 590.594 -75.1045 591.32 -75.2089 592.046ZM-77.7641 593.785C-77.2924 593.458 -76.8113 593.135 -76.3345 592.811C-76.2385 592.131 -76.1341 591.453 -76.0305 590.775C-76.4657 591.119 -76.9047 591.462 -77.3353 591.807C-77.4796 592.466 -77.6278 593.124 -77.7641 593.785ZM-80.2525 595.536C-79.8233 595.23 -79.3893 594.927 -78.9546 594.622C-78.8323 594.013 -78.7002 593.405 -78.5682 592.798C-78.9648 593.119 -79.3563 593.443 -79.7494 593.766C-79.9201 594.355 -80.0903 594.945 -80.2525 595.536ZM-82.6586 597.273C-82.2777 596.994 -81.9016 596.715 -81.5169 596.437C-81.3755 595.916 -81.2414 595.391 -81.0949 594.87C-81.4443 595.163 -81.784 595.458 -82.1304 595.752C-82.3121 596.258 -82.4807 596.766 -82.6586 597.273ZM-84.9802 598.988C-84.6673 598.753 -84.3573 598.518 -84.0431 598.285C-83.8966 597.857 -83.7451 597.431 -83.5978 597.004C-83.8733 597.242 -84.1514 597.479 -84.4248 597.717C-84.6095 598.141 -84.798 598.563 -84.9802 598.988ZM-87.1871 600.666C-86.9702 600.499 -86.7498 600.334 -86.5316 600.167C-86.4013 599.857 -86.2696 599.547 -86.135 599.237C-86.324 599.406 -86.5146 599.572 -86.7001 599.74C-86.864 600.048 -87.0262 600.357 -87.1871 600.666ZM-89.2136 602.258L-88.9474 602.048L-88.7198 601.595L-88.9203 601.783L-89.2136 602.258ZM85.6297 179.391L85.718 179.48L85.6165 179.373L85.6297 179.391ZM79.1791 172.95C80.0104 173.781 80.8562 174.618 81.6786 175.445C81.4226 175.098 81.1865 174.758 80.9288 174.41C80.0079 173.445 79.1388 172.505 78.2009 171.532C78.5206 172.003 78.8615 172.481 79.1791 172.95ZM72.1549 165.938C73.348 167.117 74.482 168.27 75.6691 169.447C75.279 168.88 74.8926 168.316 74.4969 167.747C73.4036 166.622 72.2819 165.484 71.1763 164.354C71.5163 164.887 71.8199 165.407 72.1549 165.938ZM65.0645 159.06C66.4987 160.442 67.9431 161.828 69.3396 163.193C68.8789 162.476 68.3889 161.748 67.9223 161.029C66.5408 159.632 65.1825 158.244 63.7717 156.833C64.2103 157.578 64.6344 158.318 65.0645 159.06ZM57.7439 151.981C59.3837 153.559 60.9869 155.121 62.6236 156.697C62.1591 155.911 61.7299 155.136 61.2552 154.345C59.6766 152.774 58.0645 151.186 56.4575 149.601C56.8824 150.393 57.3295 151.192 57.7439 151.981ZM50.172 144.834C51.9778 146.522 53.7992 148.218 55.5463 149.878C55.0954 149.036 54.6373 148.192 54.1775 147.346C52.4558 145.659 50.7431 143.975 48.9832 142.27C49.3938 143.129 49.7708 143.978 50.172 144.834ZM42.3955 137.538C44.3808 139.394 46.3355 141.237 48.3132 143.09C47.8814 142.184 47.439 141.275 46.9949 140.365C45.12 138.555 43.2064 136.727 41.292 134.898C41.658 135.778 42.0397 136.661 42.3955 137.538ZM34.3744 130.166C36.4964 132.096 38.6342 134.032 40.6827 135.93C40.3104 135.032 39.9376 134.133 39.5551 133.232C37.5392 131.314 35.5182 129.394 33.4556 127.454C33.7731 128.36 34.0691 129.261 34.3744 130.166ZM26.1418 122.654C28.4073 124.713 30.6338 126.754 32.8866 128.808C32.5665 127.881 32.2536 126.956 31.9228 126.026C29.7838 124.021 27.6036 121.996 25.4166 119.969C25.6659 120.865 25.9032 121.759 26.1418 122.654ZM-72.8679 593.7C-72.262 593.349 -71.6489 593.002 -71.0371 592.653C-71.0222 591.818 -71.0137 590.982 -70.9938 590.147C-71.5593 590.517 -72.1248 590.886 -72.6836 591.256C-72.7506 592.07 -72.8088 592.885 -72.8679 593.7ZM-75.6586 595.329C-75.0837 594.988 -74.4978 594.651 -73.9178 594.313C-73.8622 593.531 -73.8142 592.75 -73.7539 591.97C-74.294 592.332 -74.8264 592.697 -75.3623 593.062C-75.4667 593.816 -75.5618 594.573 -75.6586 595.329ZM-78.3954 596.978C-77.8502 596.646 -77.3047 596.314 -76.7536 595.984C-76.6623 595.261 -76.571 594.539 -76.4738 593.817C-76.9837 594.168 -77.4838 594.523 -77.9886 594.876C-78.1275 595.575 -78.2625 596.276 -78.3954 596.978ZM-81.0783 598.632C-80.5676 598.313 -80.0623 597.991 -79.5469 597.673C-79.4233 597.016 -79.293 596.36 -79.1652 595.704C-79.6318 596.036 -80.1005 596.366 -80.5624 596.699C-80.7365 597.343 -80.9128 597.986 -81.0783 598.632ZM-83.6814 600.275C-83.2237 599.981 -82.7592 599.688 -82.2964 599.396C-82.1474 598.805 -81.9911 598.216 -81.8336 597.627C-82.2574 597.937 -82.6857 598.244 -83.1057 598.556C-83.301 599.128 -83.4929 599.701 -83.6814 600.275ZM-86.203 601.919C-85.8005 601.652 -85.3891 601.389 -84.9844 601.124C-84.8205 600.618 -84.6643 600.109 -84.4966 599.603C-84.8668 599.882 -85.2341 600.162 -85.6009 600.442C-85.8051 600.933 -86.0034 601.427 -86.203 601.919ZM-88.6519 603.567C-88.3144 603.336 -87.9777 603.106 -87.6359 602.877C-87.4674 602.454 -87.2912 602.033 -87.1201 601.611C-87.4253 601.85 -87.7246 602.092 -88.0278 602.332C-88.2358 602.743 -88.4485 603.153 -88.6519 603.567ZM-90.9472 605.147C-90.7026 604.977 -90.4653 604.803 -90.2203 604.633C-90.0768 604.333 -89.9409 604.031 -89.794 603.731C-90.0106 603.906 -90.2182 604.083 -90.4326 604.258C-90.6084 604.553 -90.7735 604.851 -90.9472 605.147ZM-93.0743 606.655L-92.7737 606.443C-92.6854 606.286 -92.5928 606.13 -92.5033 605.974C-92.578 606.037 -92.6553 606.099 -92.7308 606.163L-93.0743 606.655ZM96.5027 191.855L97.6724 193.036L97.6007 192.945C97.1965 192.521 96.7638 192.083 96.3524 191.655L96.5027 191.855ZM89.6556 185.012C90.402 185.739 91.1615 186.473 91.8829 187.189L91.3721 186.513C90.5862 185.701 89.7935 184.886 89.0166 184.079C89.2374 184.393 89.4365 184.698 89.6556 185.012ZM82.5923 178.11C83.7408 179.235 84.9033 180.365 86.0492 181.488C85.6064 180.867 85.1419 180.238 84.6944 179.614C83.652 178.558 82.5575 177.477 81.4769 176.402C81.8561 176.975 82.217 177.54 82.5923 178.11ZM75.3048 171.034C76.7611 172.428 78.1639 173.798 79.5931 175.18C79.1472 174.513 78.6964 173.844 78.2438 173.175C76.841 171.774 75.4305 170.369 74.0277 168.968C74.454 169.657 74.8862 170.348 75.3048 171.034ZM67.9325 164.051C69.5314 165.562 71.1381 167.076 72.7081 168.574C72.2093 167.769 71.7265 166.971 71.2171 166.162C69.7 164.67 68.1329 163.155 66.5632 161.639C67.0209 162.443 67.4837 163.249 67.9325 164.051ZM60.1483 156.694C62.0088 158.433 63.7865 160.135 65.6236 161.863C65.1358 161.007 64.62 160.14 64.1211 159.279C62.3888 157.601 60.651 155.921 58.906 154.237C59.331 155.059 59.7348 155.874 60.1483 156.694ZM52.3374 149.506C54.2976 151.302 56.2643 153.102 58.1723 154.875C57.7142 153.984 57.2735 153.099 56.8026 152.204C54.9315 150.417 53.0095 148.606 51.0789 146.792C51.4937 147.695 51.9349 148.606 52.3374 149.506ZM44.1286 141.951C46.2897 143.924 48.3646 145.856 50.5053 147.82C50.0854 146.899 49.6523 145.973 49.2201 145.048C47.1932 143.141 45.1607 141.232 43.1083 139.314C43.4603 140.196 43.7877 141.072 44.1286 141.951ZM35.8184 134.5C38.0767 136.514 40.3477 138.535 42.5356 140.516C42.1738 139.595 41.8197 138.676 41.444 137.752C39.302 135.763 37.1112 133.751 34.9059 131.733C35.2137 132.656 35.5228 133.579 35.8184 134.5ZM27.2245 126.804C29.6323 128.951 31.9793 131.069 34.3803 133.211C34.0721 132.269 33.7375 131.321 33.4187 130.376C31.1298 128.282 28.8349 126.185 26.5125 124.076C26.7502 124.985 26.9978 125.896 27.2245 126.804ZM-73.1005 597.102C-72.4297 596.763 -71.7559 596.426 -71.0799 596.09C-71.0753 595.22 -71.0651 594.352 -71.0507 593.484C-71.6807 593.845 -72.3036 594.21 -72.9294 594.574C-72.9897 595.417 -73.0496 596.259 -73.1005 597.102ZM-76.0675 598.629C-75.4225 598.294 -74.7831 597.957 -74.1322 597.624C-74.0868 596.811 -74.0337 595.999 -73.9785 595.187C-74.5802 595.541 -75.1826 595.895 -75.777 596.25C-75.8777 597.042 -75.9762 597.835 -76.0675 598.629ZM-78.9784 600.162C-78.3661 599.835 -77.7543 599.509 -77.1357 599.184C-77.0517 598.426 -76.9659 597.669 -76.8729 596.912C-77.4439 597.258 -78.0201 597.6 -78.5844 597.948C-78.7211 598.684 -78.8489 599.422 -78.9784 600.162ZM-81.8336 601.701C-81.26 601.386 -80.6745 601.075 -80.0962 600.763C-79.9769 600.064 -79.8623 599.363 -79.7367 598.666C-80.275 599 -80.8104 599.335 -81.3428 599.672C-81.5097 600.347 -81.6719 601.024 -81.8336 601.701ZM-84.6431 603.271C-84.1039 602.966 -83.5583 602.663 -83.0144 602.36C-82.8637 601.717 -82.704 601.075 -82.5478 600.432C-83.0526 600.756 -83.5459 601.083 -84.0452 601.409C-84.2469 602.029 -84.4512 602.648 -84.6431 603.271ZM-87.351 604.827C-86.8606 604.541 -86.3745 604.254 -85.8782 603.97C-85.7058 603.398 -85.5275 602.826 -85.3462 602.256C-85.8052 602.56 -86.2598 602.865 -86.7141 603.17C-86.932 603.721 -87.14 604.275 -87.351 604.827ZM-89.9885 606.382C-89.5542 606.122 -89.1219 605.861 -88.6838 605.602C-88.4991 605.11 -88.3144 604.619 -88.1263 604.129C-88.5178 604.396 -88.9151 604.66 -89.3019 604.929C-89.5312 605.413 -89.7639 605.897 -89.9885 606.382ZM-92.5279 607.922C-92.1768 607.705 -91.8163 607.492 -91.4639 607.276C-91.2784 606.867 -91.0839 606.461 -90.8916 606.054C-91.2176 606.285 -91.5476 606.516 -91.8719 606.748C-92.0931 607.138 -92.3109 607.53 -92.5279 607.922ZM-94.9378 609.443L-94.1578 608.949C-93.9995 608.655 -93.8403 608.359 -93.6789 608.065L-94.3672 608.574L-94.9378 609.443ZM-97.1842 610.896L-96.8246 610.657L-96.5427 610.214L-96.8348 610.441L-97.1842 610.896ZM100.383 197.175C101.141 197.911 101.892 198.643 102.632 199.37L102.042 198.616C101.302 197.862 100.532 197.094 99.78 196.334C99.9855 196.616 100.179 196.894 100.383 197.175ZM93.267 190.282C94.4355 191.416 95.6175 192.557 96.7859 193.691C96.3987 193.165 95.9745 192.623 95.5831 192.095C94.4095 190.918 93.2793 189.76 92.1011 188.579C92.4913 189.147 92.8815 189.716 93.267 190.282ZM85.9902 183.315C87.345 184.594 88.7015 185.874 90.0182 187.134C89.5745 186.494 89.1571 185.865 88.7075 185.223C87.3824 183.913 86.0059 182.581 84.6443 181.255C85.0858 181.938 85.5571 182.634 85.9902 183.315ZM78.3334 176.08C79.9472 177.602 81.5508 179.12 83.1574 180.638C82.6602 179.87 82.1554 179.1 81.6489 178.328C80.089 176.811 78.5686 175.311 77.0036 173.791C77.4655 174.561 77.8812 175.314 78.3334 176.08ZM70.5462 168.848C72.3668 170.522 74.2005 172.202 75.9659 173.85C75.4522 172.993 74.8922 172.117 74.3661 171.255C72.6797 169.638 70.9249 167.99 69.1837 166.348C69.6435 167.183 70.0966 168.017 70.5462 168.848ZM62.5446 161.463C64.5308 163.281 66.4439 165.065 68.4025 166.87C67.9253 166 67.4718 165.138 66.9832 164.264C65.0526 162.44 63.1539 160.63 61.2148 158.802C61.656 159.688 62.1145 160.581 62.5446 161.463ZM54.2845 154.006C56.4154 155.923 58.5515 157.842 60.6302 159.733C60.1674 158.796 59.677 157.85 59.2019 156.909C57.231 155.071 55.1714 153.192 53.13 151.323C53.5245 152.221 53.8998 153.112 54.2845 154.006ZM45.8367 146.423C48.1132 148.45 50.3406 150.455 52.5726 152.462C52.1739 151.547 51.7973 150.639 51.3859 149.719C49.1806 147.692 47.003 145.677 44.7833 143.644C45.1344 144.57 45.4983 145.5 45.8367 146.423ZM37.1295 138.729C39.5364 140.848 41.9335 142.962 44.2917 145.057C43.9312 144.096 43.5456 143.127 43.1724 142.162C40.9319 140.128 38.5964 138.049 36.2765 135.978C36.5652 136.896 36.8526 137.814 37.1295 138.729ZM28.207 130.927C30.7357 133.123 33.2488 135.313 35.7173 137.481C35.4315 136.557 35.153 135.634 34.8567 134.707C32.4188 132.526 30.014 130.361 27.5591 128.172C27.7849 129.092 27.993 130.009 28.207 130.927ZM-73.2708 600.508C-72.5401 600.184 -71.8115 599.859 -71.074 599.537C-71.0812 598.648 -71.08 597.76 -71.0787 596.872C-71.7678 597.216 -72.459 597.56 -73.1396 597.907C-73.1863 598.773 -73.2309 599.64 -73.2708 600.508ZM-76.4212 601.922C-75.7181 601.601 -75.0086 601.283 -74.2991 600.966C-74.2634 600.124 -74.218 599.283 -74.1734 598.443C-74.837 598.785 -75.4994 599.128 -76.1575 599.473C-76.2487 600.288 -76.3396 601.104 -76.4212 601.922ZM-79.5137 603.347C-78.8425 603.032 -78.1606 602.723 -77.4821 602.411C-77.4057 601.617 -77.3161 600.825 -77.227 600.032C-77.8677 600.371 -78.4977 600.714 -79.132 601.056C-79.2624 601.818 -79.3927 602.581 -79.5137 603.347ZM-82.5414 604.792C-81.899 604.482 -81.2537 604.172 -80.6036 603.865C-80.4903 603.128 -80.3718 602.392 -80.2491 601.657C-80.8601 601.989 -81.463 602.325 -82.0663 602.66C-82.231 603.369 -82.3847 604.08 -82.5414 604.792ZM-85.5198 606.25C-84.9063 605.945 -84.2992 605.638 -83.6789 605.336C-83.532 604.662 -83.3914 603.988 -83.2402 603.316C-83.8075 603.635 -84.3781 603.952 -84.939 604.273C-85.1356 604.932 -85.33 605.59 -85.5198 606.25ZM-88.4277 607.713C-87.8626 607.423 -87.2924 607.136 -86.7226 606.849C-86.5464 606.228 -86.3609 605.611 -86.177 604.993C-86.7069 605.3 -87.2402 605.605 -87.7628 605.914C-87.9883 606.512 -88.2125 607.111 -88.4277 607.713ZM-91.2448 609.173C-90.7328 608.903 -90.2097 608.637 -89.6926 608.369C-89.4981 607.817 -89.3062 607.265 -89.1041 606.715C-89.5894 607.006 -90.0696 607.297 -90.5485 607.59C-90.7854 608.116 -91.0134 608.645 -91.2448 609.173ZM-94.0139 610.665C-93.552 610.413 -93.0892 610.162 -92.6226 609.912C-92.4145 609.429 -92.1989 608.948 -91.9874 608.466C-92.4167 608.733 -92.8353 609.005 -93.2603 609.273C-93.5129 609.736 -93.7689 610.199 -94.0139 610.665ZM-96.634 612.117C-96.2502 611.901 -95.8748 611.683 -95.4876 611.468C-95.2894 611.081 -95.0974 610.692 -94.8945 610.307C-95.2443 610.533 -95.5887 610.76 -95.9364 610.986C-96.1738 611.362 -96.4009 611.741 -96.634 612.117ZM-99.1517 613.55C-98.8749 613.388 -98.5904 613.229 -98.3106 613.068C-98.1374 612.781 -97.9561 612.496 -97.7816 612.209C-98.0266 612.374 -98.2788 612.535 -98.5225 612.701C-98.7305 612.984 -98.9471 613.265 -99.1517 613.55ZM-101.449 614.914L-101.061 614.684L-100.762 614.254L-101.088 614.48C-101.209 614.624 -101.328 614.77 -101.449 614.914ZM111.469 209.543C112.215 210.259 112.976 210.983 113.703 211.69C113.466 211.394 113.213 211.09 112.976 210.793C112.255 210.066 111.497 209.322 110.757 208.586L111.469 209.543ZM104.296 202.644L107.586 205.807C107.22 205.323 106.881 204.85 106.511 204.364C105.372 203.232 104.246 202.107 103.101 200.973C103.493 201.528 103.909 202.092 104.296 202.644ZM96.8525 195.59C98.1806 196.834 99.5227 198.083 100.815 199.311C100.346 198.654 99.8794 197.999 99.403 197.338C98.1374 196.102 96.8301 194.844 95.5356 193.594C95.9843 194.263 96.4131 194.924 96.8525 195.59ZM89.0688 188.28C90.7136 189.815 92.3079 191.325 93.9383 192.852C93.4037 192.058 92.8361 191.251 92.2931 190.453C90.7442 188.961 89.2302 187.484 87.6541 185.98C88.1364 186.751 88.5945 187.513 89.0688 188.28ZM81.2371 181.077C83.025 182.714 84.8196 184.354 86.5685 185.972C86.0492 185.145 85.552 184.325 85.023 183.494C83.2844 181.842 81.5143 180.176 79.746 178.511C80.2419 179.366 80.7531 180.226 81.2371 181.077ZM73.0936 173.633C75.0709 175.425 76.9977 177.193 78.9418 178.97C78.4213 178.07 77.9054 177.173 77.3717 176.269C75.5138 174.528 73.6299 172.776 71.7257 171.013C72.191 171.89 72.6402 172.761 73.0936 173.633ZM64.7397 166.127C66.8821 168.046 69.0169 169.961 71.1224 171.863C70.6299 170.928 70.0906 169.977 69.5837 169.038C67.5461 167.154 65.5031 165.267 63.4434 163.373C63.8837 164.294 64.3125 165.211 64.7397 166.127ZM56.2027 158.533C58.464 160.53 60.7062 162.517 62.9161 164.489C62.4678 163.544 62.0453 162.607 61.5838 161.658C59.449 159.709 57.2327 157.723 55.0313 155.743C55.4245 156.674 55.8219 157.607 56.2027 158.533ZM47.3796 150.766C49.7963 152.885 52.1786 154.987 54.5651 157.092C54.166 156.132 53.7342 155.164 53.3202 154.2C51.0071 152.116 48.731 150.05 46.3788 147.948C46.7198 148.889 47.0518 149.828 47.3796 150.766ZM38.3679 142.953C40.8908 145.125 43.4212 147.301 45.8744 149.44C45.5382 148.499 45.2185 147.562 44.8712 146.617C42.48 144.489 40.0289 142.332 37.5769 140.174C37.8533 141.103 38.1034 142.026 38.3679 142.953ZM29.1266 134.985C31.7934 137.269 34.3824 139.517 37.0165 141.786C36.741 140.835 36.4535 139.881 36.1656 138.927C33.6356 136.703 31.0915 134.473 28.5109 132.225C28.722 133.146 28.927 134.066 29.1266 134.985ZM-73.3956 603.921C-72.6097 603.616 -71.8162 603.315 -71.0218 603.014C-71.0388 602.102 -71.0625 601.19 -71.0736 600.28C-71.8234 600.609 -72.5656 600.941 -73.3086 601.273C-73.3442 602.154 -73.3688 603.038 -73.3956 603.921ZM-76.7162 605.225C-75.9537 604.922 -75.1852 604.621 -74.415 604.321C-74.3891 603.457 -74.3696 602.592 -74.3361 601.729C-75.0642 602.057 -75.7809 602.389 -76.501 602.719C-76.5787 603.553 -76.6457 604.389 -76.7162 605.225ZM-79.988 606.552C-79.248 606.248 -78.5092 605.943 -77.7615 605.642C-77.6953 604.829 -77.6236 604.016 -77.5514 603.202C-78.249 603.526 -78.9457 603.85 -79.6365 604.176C-79.7566 604.967 -79.8772 605.758 -79.988 606.552ZM-83.1974 607.887C-82.49 607.588 -81.7827 607.288 -81.0664 606.992C-80.962 606.225 -80.844 605.461 -80.7268 604.698C-81.3955 605.016 -82.0676 605.333 -82.7287 605.654C-82.8887 606.397 -83.0475 607.141 -83.1974 607.887ZM-86.3393 609.23C-85.6676 608.937 -84.9853 608.648 -84.3059 608.358C-84.1646 607.644 -84.0211 606.931 -83.8695 606.219C-84.5136 606.535 -85.1542 606.854 -85.7903 607.174C-85.9813 607.857 -86.1576 608.544 -86.3393 609.23ZM-89.4323 610.599C-88.7946 610.312 -88.1458 610.028 -87.5009 609.744C-87.3285 609.084 -87.1549 608.424 -86.9748 607.766C-87.5807 608.073 -88.1713 608.386 -88.77 608.696C-88.9929 609.33 -89.22 609.962 -89.4323 610.599ZM-92.4358 611.976C-91.8418 611.7 -91.2503 611.424 -90.6517 611.151C-90.4526 610.549 -90.2428 609.95 -90.0344 609.351C-90.5995 609.648 -91.1573 609.948 -91.7161 610.247C-91.9628 610.821 -92.198 611.399 -92.4358 611.976ZM-95.3794 613.365C-94.8291 613.1 -94.2839 612.835 -93.7269 612.573C-93.5133 612.043 -93.3023 611.513 -93.082 610.986C-93.5847 611.259 -94.0925 611.531 -94.5901 611.806C-94.8533 612.326 -95.1221 612.843 -95.3794 613.365ZM-98.2113 614.74C-97.7396 614.505 -97.2568 614.275 -96.7804 614.042C-96.5554 613.577 -96.3202 613.115 -96.0863 612.653C-96.5367 612.907 -96.9885 613.16 -97.4339 613.416C-97.6988 613.856 -97.954 614.298 -98.2113 614.74ZM-100.957 616.13C-100.555 615.923 -100.147 615.72 -99.7419 615.515C-99.5249 615.137 -99.3084 614.758 -99.0889 614.381C-99.4595 614.599 -99.8281 614.818 -100.197 615.038C-100.449 615.402 -100.707 615.765 -100.957 616.13ZM-103.55 617.489C-103.256 617.332 -102.962 617.175 -102.666 617.019C-102.481 616.742 -102.297 616.465 -102.11 616.189C-102.387 616.359 -102.658 616.532 -102.934 616.703C-103.145 616.963 -103.343 617.228 -103.55 617.489ZM-105.942 618.774C-105.794 618.693 -105.652 618.61 -105.503 618.529C-105.393 618.386 -105.279 618.244 -105.169 618.101C-105.295 618.183 -105.417 618.266 -105.544 618.348C-105.676 618.49 -105.811 618.632 -105.942 618.774ZM122.897 222.095C123.6 222.769 124.319 223.451 125.013 224.12C124.808 223.867 124.622 223.624 124.417 223.371C123.69 222.645 122.927 221.903 122.184 221.17C122.419 221.477 122.665 221.789 122.897 222.095ZM115.579 215.091C116.623 216.083 117.625 217.054 118.662 218.042C118.29 217.562 117.929 217.086 117.554 216.604C116.51 215.579 115.493 214.567 114.443 213.537C114.818 214.054 115.206 214.576 115.579 215.091ZM107.943 207.93C109.288 209.185 110.643 210.446 111.966 211.691C111.476 211.024 110.966 210.349 110.468 209.679C109.209 208.459 107.912 207.222 106.633 205.992C107.081 206.643 107.501 207.281 107.943 207.93ZM100.124 200.65C101.766 202.164 103.361 203.655 104.976 205.156C104.437 204.378 103.868 203.588 103.318 202.806C101.765 201.323 100.219 199.843 98.6337 198.345C99.1351 199.115 99.6336 199.884 100.124 200.65ZM92.2412 193.439C93.9884 195.035 95.7389 196.632 97.4665 198.218C96.9294 197.394 96.4186 196.58 95.8701 195.751C94.1412 194.123 92.3941 192.485 90.6482 190.85C91.1705 191.709 91.7313 192.584 92.2412 193.439ZM83.937 185.922C85.9027 187.685 87.8545 189.442 89.774 191.182C89.225 190.277 88.6574 189.364 88.0948 188.453C86.2751 186.762 84.4023 185.047 82.5307 183.332C83.0186 184.202 83.4619 185.056 83.937 185.922ZM75.4959 178.361C77.6333 180.268 79.7434 182.163 81.8595 184.061C81.3415 183.132 80.8061 182.195 80.2724 181.261C78.2056 179.366 76.1786 177.489 74.0834 175.581C74.5589 176.509 75.034 177.437 75.4959 178.361ZM66.8634 170.751C69.1094 172.716 71.3669 174.688 73.5526 176.625C73.0775 175.689 72.613 174.757 72.1248 173.815C69.9857 171.879 67.7907 169.917 65.6007 167.956C66.0283 168.89 66.4482 169.821 66.8634 170.751ZM57.9507 162.941C60.3899 165.062 62.7586 167.15 65.1583 169.254C64.7189 168.282 64.2328 167.295 63.778 166.318C61.479 164.263 59.1807 162.209 56.8366 160.132C57.2145 161.07 57.586 162.007 57.9507 162.941ZM48.8592 155.105C51.3821 157.272 53.8964 159.434 56.3658 161.576C55.9892 160.624 55.6257 159.677 55.2343 158.721C52.8167 156.585 50.3788 154.44 47.9184 152.283C48.2428 153.227 48.548 154.165 48.8592 155.105ZM39.5466 147.142C42.2036 149.399 44.8257 151.641 47.4288 153.872C47.1023 152.904 46.7529 151.93 46.4128 150.959C43.8976 148.761 41.3302 146.539 38.7496 144.311C39.0133 145.254 39.2952 146.202 39.5466 147.142ZM29.9758 139.041C32.7478 141.376 35.4761 143.691 38.2032 146.004C37.9433 145.053 37.6703 144.099 37.3978 143.145C34.7276 140.839 32.0952 138.552 29.3873 136.229C29.5869 137.167 29.7877 138.105 29.9758 139.041ZM-73.4831 607.355C-72.6373 607.07 -71.789 606.787 -70.9356 606.506C-70.9653 605.574 -70.9874 604.644 -71.0078 603.715C-71.8136 604.024 -72.6191 604.334 -73.4181 604.646C-73.4453 605.548 -73.4682 606.451 -73.4831 607.355ZM-76.9688 608.549C-76.1439 608.264 -75.3253 607.974 -74.4927 607.692C-74.4791 606.809 -74.46 605.927 -74.4358 605.046C-75.2187 605.354 -76.0059 605.66 -76.7799 605.971C-76.8478 606.829 -76.9111 607.689 -76.9688 608.549ZM-80.4028 609.758C-79.6059 609.473 -78.8068 609.188 -78.0006 608.907C-77.9454 608.07 -77.8898 607.233 -77.8257 606.398C-78.5869 606.706 -79.3477 607.014 -80.0997 607.325C-80.2084 608.134 -80.3026 608.947 -80.4028 609.758ZM-83.7901 610.982C-83.022 610.699 -82.2399 610.42 -81.4625 610.14C-81.3683 609.348 -81.2706 608.557 -81.1687 607.767C-81.9024 608.073 -82.6264 608.383 -83.3515 608.693C-83.5023 609.455 -83.6508 610.217 -83.7901 610.982ZM-87.1065 612.229C-86.3707 611.949 -85.6293 611.671 -84.8859 611.394C-84.753 610.648 -84.6049 609.905 -84.4597 609.163C-85.1674 609.468 -85.8667 609.777 -86.566 610.085C-86.7524 610.798 -86.9303 611.513 -87.1065 612.229ZM-90.3621 613.492C-89.6522 613.213 -88.9487 612.933 -88.2307 612.656C-88.0664 611.969 -87.9025 611.282 -87.7276 610.598C-88.3972 610.896 -89.0659 611.194 -89.727 611.494C-89.9431 612.159 -90.1541 612.825 -90.3621 613.492ZM-93.5541 614.77C-92.8854 614.498 -92.2175 614.225 -91.5416 613.956C-91.3459 613.32 -91.1417 612.687 -90.937 612.053C-91.5662 612.342 -92.1989 612.63 -92.8209 612.922C-93.0697 613.537 -93.3167 614.152 -93.5541 614.77ZM-96.6599 616.048C-96.0425 615.789 -95.4129 615.534 -94.7888 615.276C-94.5693 614.698 -94.3502 614.12 -94.1222 613.543C-94.7132 613.826 -95.2991 614.109 -95.8842 614.394C-96.1474 614.944 -96.4026 615.496 -96.6599 616.048ZM-99.7045 617.359C-99.1369 617.112 -98.5628 616.867 -97.9892 616.621C-97.7519 616.1 -97.5031 615.582 -97.259 615.063C-97.8007 615.332 -98.3301 615.606 -98.8655 615.876C-99.1492 616.37 -99.4303 616.863 -99.7045 617.359ZM-102.637 618.667C-102.129 618.437 -101.627 618.206 -101.113 617.978C-100.874 617.536 -100.642 617.091 -100.397 616.651C-100.868 616.894 -101.334 617.14 -101.802 617.385C-102.083 617.811 -102.361 618.238 -102.637 618.667ZM-105.468 619.968C-105.046 619.77 -104.627 619.571 -104.202 619.375C-103.971 619.009 -103.727 618.647 -103.49 618.283C-103.879 618.491 -104.276 618.697 -104.66 618.906C-104.932 619.259 -105.202 619.613 -105.468 619.968ZM-108.134 621.238C-107.828 621.088 -107.512 620.942 -107.203 620.793C-107.009 620.531 -106.82 620.267 -106.624 620.006C-106.905 620.163 -107.19 620.319 -107.468 620.478C-107.692 620.731 -107.915 620.983 -108.134 621.238ZM-110.636 622.483L-110.175 622.253C-110.065 622.122 -109.961 621.99 -109.85 621.86L-110.265 622.105C-110.392 622.23 -110.509 622.358 -110.636 622.483ZM134.625 234.791C135.204 235.346 135.796 235.906 136.375 236.46C136.182 236.225 135.996 235.995 135.8 235.76C135.2 235.167 134.577 234.562 133.97 233.967C134.183 234.238 134.414 234.519 134.625 234.791ZM126.967 227.52C127.994 228.483 128.998 229.432 130.006 230.385C129.638 229.923 129.266 229.456 128.895 228.992C127.882 228.004 126.918 227.041 125.89 226.046C126.26 226.543 126.601 227.026 126.967 227.52ZM119.3 220.373C120.673 221.655 122.058 222.942 123.429 224.222C122.929 223.558 122.382 222.873 121.874 222.206C120.574 220.957 119.249 219.697 117.942 218.445C118.4 219.09 118.848 219.731 119.3 220.373ZM111.492 213.174C113.04 214.586 114.594 216 116.102 217.392C115.582 216.665 115.103 215.956 114.575 215.225C113.048 213.78 111.487 212.318 109.92 210.853C110.439 211.624 110.982 212.407 111.492 213.174ZM103.382 205.775C105.153 207.384 106.89 208.976 108.646 210.578C108.087 209.749 107.529 208.919 106.958 208.085C105.251 206.489 103.563 204.904 101.839 203.301C102.362 204.129 102.87 204.952 103.382 205.775ZM95.0549 198.308C97.0198 200.06 98.9933 201.815 100.912 203.544C100.342 202.641 99.7261 201.719 99.144 200.811C97.312 199.122 95.4268 197.408 93.5502 195.698C94.0648 196.573 94.5539 197.438 95.0549 198.308ZM86.5507 190.732C88.6757 192.611 90.7476 194.464 92.8374 196.326C92.3049 195.417 91.8124 194.524 91.2673 193.61C89.2025 191.732 87.1476 189.857 85.0438 187.959C85.5431 188.883 86.0641 189.814 86.5507 190.732ZM77.7942 183.054C80.0495 185.026 82.2993 186.995 84.5152 188.947C84.0074 188.001 83.4907 187.052 82.9676 186.1C80.8231 184.171 78.6539 182.231 76.4742 180.286C76.931 181.215 77.3509 182.131 77.7942 183.054ZM68.8283 175.266C71.2412 177.347 73.6354 179.42 75.9931 181.475C75.5201 180.503 75.0166 179.52 74.5275 178.543C72.2513 176.521 69.9267 174.476 67.592 172.426C68.0098 173.374 68.4254 174.322 68.8283 175.266ZM59.6363 167.352C62.1646 169.52 64.6561 171.67 67.1526 173.823C66.7352 172.861 66.328 171.903 65.8958 170.936C63.4553 168.794 61.048 166.666 58.5727 164.507C58.9387 165.459 59.2843 166.404 59.6363 167.352ZM50.2446 159.385C52.8902 161.616 55.5497 163.854 58.1239 166.051C57.7588 165.081 57.3631 164.103 56.9827 163.13C54.473 160.95 51.8941 158.738 49.319 156.527C49.629 157.48 49.9487 158.435 50.2446 159.385ZM40.5868 151.236C43.3682 153.569 46.0829 155.87 48.8236 158.182C48.517 157.221 48.2071 156.259 47.8878 155.294C45.2321 153.015 42.5827 150.738 39.8786 148.435C40.1236 149.371 40.3532 150.303 40.5868 151.236ZM30.74 143.045C33.6178 145.43 36.4811 147.807 39.2944 150.161C39.0528 149.218 38.829 148.279 38.5777 147.334C35.8222 144.992 33.0395 142.637 30.2284 140.268C30.4105 141.196 30.5684 142.119 30.74 143.045ZM-73.5179 610.804C-72.6127 610.54 -71.7105 610.276 -70.7985 610.015C-70.8413 609.069 -70.877 608.125 -70.9093 607.181C-71.7737 607.467 -72.6377 607.752 -73.4907 608.041C-73.5038 608.961 -73.5158 609.881 -73.5179 610.804ZM-77.1782 611.885C-76.2989 611.621 -75.4128 611.359 -74.5263 611.098C-74.5246 610.193 -74.5126 609.29 -74.4991 608.388C-75.3423 608.676 -76.1783 608.967 -77.0143 609.258C-77.0733 610.133 -77.1327 611.007 -77.1782 611.885ZM-80.7722 612.977C-79.9226 612.713 -79.0574 612.456 -78.1993 612.195C-78.1564 611.333 -78.1021 610.475 -78.0464 609.615C-78.8705 609.905 -79.6802 610.201 -80.495 610.494C-80.5935 611.32 -80.6847 612.149 -80.7722 612.977ZM-84.3183 614.101C-83.4878 613.835 -82.6543 613.57 -81.8162 613.307C-81.7338 612.496 -81.6502 611.685 -81.5551 610.876C-82.3503 611.165 -83.1409 611.456 -83.9289 611.749C-84.064 612.531 -84.1913 613.316 -84.3183 614.101ZM-87.8193 615.245C-87.0101 614.977 -86.2076 614.706 -85.3899 614.441C-85.268 613.678 -85.1403 612.917 -85.0125 612.156C-85.7733 612.442 -86.5405 612.726 -87.2933 613.016C-87.4733 613.758 -87.6537 614.499 -87.8193 615.245ZM-91.2317 616.394C-90.4644 616.131 -89.6926 615.869 -88.9168 615.609C-88.7593 614.89 -88.5917 614.173 -88.4222 613.458C-89.161 613.745 -89.8955 614.033 -90.6258 614.323C-90.8347 615.011 -91.0317 615.703 -91.2317 616.394ZM-94.5973 617.563C-93.8649 617.302 -93.1155 617.048 -92.375 616.791C-92.184 616.124 -91.998 615.455 -91.7997 614.79C-92.5007 615.073 -93.189 615.359 -93.8806 615.644C-94.1222 616.283 -94.3671 616.921 -94.5973 617.563ZM-97.8775 618.758C-97.1884 618.504 -96.4939 618.251 -95.7954 617.999C-95.5764 617.381 -95.3445 616.766 -95.1144 616.151C-95.7823 616.43 -96.4433 616.714 -97.1044 616.996C-97.3702 617.581 -97.6224 618.17 -97.8775 618.758ZM-101.106 619.973C-100.449 619.722 -99.7983 619.467 -99.133 619.218C-98.8965 618.665 -98.6618 618.111 -98.4176 617.561C-99.0256 617.825 -99.6366 618.089 -100.239 618.356C-100.53 618.894 -100.825 619.431 -101.106 619.973ZM-104.215 621.183C-103.625 620.948 -103.034 620.715 -102.438 620.483C-102.184 619.986 -101.924 619.492 -101.66 618.998C-102.224 619.252 -102.794 619.505 -103.352 619.762C-103.647 620.233 -103.925 620.709 -104.215 621.183ZM-107.259 622.41C-106.733 622.193 -106.194 621.982 -105.663 621.767C-105.407 621.338 -105.145 620.91 -104.884 620.482C-105.378 620.715 -105.87 620.949 -106.359 621.184C-106.66 621.593 -106.967 621.998 -107.259 622.41ZM-110.155 623.638C-109.716 623.45 -109.276 623.262 -108.832 623.076C-108.59 622.727 -108.355 622.376 -108.107 622.029C-108.523 622.233 -108.93 622.441 -109.342 622.647C-109.617 622.976 -109.885 623.307 -110.155 623.638ZM-112.944 624.858C-112.61 624.709 -112.283 624.558 -111.946 624.41C-111.737 624.149 -111.52 623.892 -111.307 623.633C-111.623 623.795 -111.927 623.962 -112.238 624.125C-112.474 624.369 -112.712 624.612 -112.944 624.858ZM-115.434 625.978C-115.279 625.906 -115.118 625.837 -114.961 625.765L-114.61 625.38C-114.746 625.455 -114.889 625.527 -115.025 625.601L-115.434 625.978ZM146.25 247.257L148.017 248.938L147.508 248.335C146.931 247.769 146.339 247.196 145.761 246.63C145.929 246.841 146.083 247.046 146.25 247.257ZM138.657 240.124C139.682 241.076 140.72 242.036 141.724 242.979C141.336 242.498 140.92 242.004 140.528 241.522C139.553 240.579 138.56 239.628 137.561 238.674C137.932 239.16 138.29 239.641 138.657 240.124ZM130.911 232.915C132.269 234.169 133.573 235.396 134.916 236.642C134.462 236.052 134.048 235.481 133.588 234.888C132.23 233.595 130.885 232.306 129.517 231.007C129.98 231.642 130.455 232.283 130.911 232.915ZM123.1 225.787C124.597 227.151 126.107 228.519 127.583 229.871C127.037 229.128 126.506 228.39 125.952 227.642C124.493 226.272 122.988 224.879 121.498 223.492C122.025 224.254 122.582 225.029 123.1 225.787ZM114.796 218.26C116.581 219.864 118.33 221.449 120.081 223.036C119.503 222.203 118.896 221.357 118.306 220.519C116.626 218.96 114.966 217.412 113.257 215.839C113.786 216.653 114.274 217.45 114.796 218.26ZM106.419 210.779C108.383 212.529 110.344 214.278 112.284 216.017C111.704 215.129 111.106 214.232 110.513 213.338C108.633 211.616 106.726 209.882 104.821 208.148C105.359 209.027 105.893 209.905 106.419 210.779ZM97.9004 203.257C99.9711 205.071 102.041 206.884 104.059 208.672C103.503 207.76 102.969 206.857 102.399 205.939C100.398 204.129 98.3496 202.296 96.2951 200.46C96.8216 201.389 97.3867 202.333 97.9004 203.257ZM88.9737 195.437C91.26 197.428 93.4874 199.39 95.7427 201.367C95.2035 200.411 94.6337 199.443 94.0796 198.481C91.9109 196.544 89.7753 194.623 87.5773 192.672C88.0613 193.6 88.5037 194.513 88.9737 195.437ZM79.9773 187.686C82.3643 189.734 84.7581 191.785 87.0873 193.804C86.5914 192.843 86.0972 191.883 85.5855 190.917C83.3051 188.902 80.9619 186.857 78.6238 184.816C79.076 185.773 79.5404 186.735 79.9773 187.686ZM70.6927 179.734C73.2266 181.891 75.7137 184.024 78.2009 186.157C77.7466 185.186 77.2927 184.214 76.824 183.238C74.4149 181.134 71.9987 179.027 69.5404 176.899C69.9395 177.849 70.3072 178.789 70.6927 179.734ZM61.2259 171.728C63.8778 173.962 66.511 176.189 69.1154 178.4C68.7112 177.423 68.2836 176.439 67.8646 175.457C65.3235 173.263 62.7625 171.059 60.178 168.843C60.5292 169.805 60.8887 170.769 61.2259 171.728ZM51.5078 163.589C54.2705 165.891 57.0251 168.188 59.725 170.459C59.3781 169.488 59.0278 168.517 58.6661 167.542C56.0473 165.305 53.3657 163.036 50.6815 160.766C50.9711 161.711 51.2292 162.648 51.5078 163.589ZM41.5892 155.338C44.4767 157.728 47.3015 160.087 50.1474 162.457C49.8596 161.498 49.5764 160.54 49.2741 159.577C46.4884 157.221 43.7393 154.882 40.9069 152.504C41.1396 153.45 41.3684 154.395 41.5892 155.338ZM31.4584 147.031C34.4419 149.467 37.4347 151.908 40.3384 154.304C40.1104 153.349 39.8531 152.387 39.614 151.429C36.7775 149.054 33.8691 146.643 30.9586 144.231C31.1276 145.165 31.2991 146.099 31.4584 147.031ZM-73.4932 614.263C-72.5379 614.024 -71.5737 613.788 -70.6095 613.552C-70.6651 612.591 -70.725 611.629 -70.7734 610.669C-71.6969 610.934 -72.6089 611.203 -73.5243 611.471C-73.5213 612.4 -73.5038 613.332 -73.4932 614.263ZM-77.3183 615.233C-76.385 614.992 -75.4395 614.755 -74.4965 614.517C-74.5076 613.599 -74.5224 612.68 -74.5263 611.763C-75.4259 612.029 -76.3167 612.298 -77.2066 612.568C-77.2474 613.455 -77.2864 614.343 -77.3183 615.233ZM-81.0932 616.229C-80.1786 615.984 -79.2611 615.74 -78.3368 615.499C-78.3071 614.623 -78.268 613.75 -78.2269 612.878C-79.1023 613.144 -79.9765 613.412 -80.8423 613.682C-80.931 614.53 -81.018 615.378 -81.0932 616.229ZM-84.7946 617.237C-83.9064 616.991 -83.0216 616.745 -82.1249 616.502C-82.0532 615.67 -81.9712 614.841 -81.8876 614.013C-82.7397 614.281 -83.5952 614.549 -84.4371 614.821C-84.5641 615.625 -84.6791 616.431 -84.7946 617.237ZM-88.4528 618.266C-87.5905 618.018 -86.7218 617.774 -85.8493 617.53C-85.7385 616.744 -85.6319 615.956 -85.5109 615.173C-86.3371 615.443 -87.1583 615.715 -87.976 615.989C-88.1386 616.747 -88.2999 617.505 -88.4528 618.266ZM-92.0401 619.31C-91.2138 619.064 -90.3748 618.824 -89.5384 618.582C-89.3907 617.836 -89.2319 617.095 -89.0718 616.352C-89.8747 616.623 -90.6623 616.901 -91.455 617.175C-91.6558 617.885 -91.852 618.596 -92.0401 619.31ZM-95.5644 620.385C-94.765 620.138 -93.9621 619.891 -93.1533 619.647C-92.9724 618.954 -92.7916 618.262 -92.5997 617.572C-93.3652 617.841 -94.1277 618.111 -94.886 618.384C-95.1174 619.049 -95.342 619.717 -95.5644 620.385ZM-99.026 621.477C-98.2597 621.231 -97.5005 620.983 -96.7248 620.739C-96.5142 620.097 -96.2926 619.457 -96.0723 618.816C-96.7974 619.08 -97.5302 619.342 -98.2465 619.609C-98.5119 620.23 -98.7726 620.853 -99.026 621.477ZM-102.406 622.581C-101.686 622.34 -100.959 622.102 -100.232 621.865C-99.9953 621.273 -99.7588 620.682 -99.5113 620.093C-100.199 620.354 -100.883 620.613 -101.561 620.877C-101.846 621.444 -102.129 622.011 -102.406 622.581ZM-105.705 623.7C-105.042 623.469 -104.364 623.245 -103.693 623.017C-103.433 622.474 -103.16 621.934 -102.889 621.395C-103.536 621.65 -104.172 621.91 -104.813 622.169C-105.116 622.677 -105.411 623.188 -105.705 623.7ZM-108.928 624.85C-108.309 624.626 -107.689 624.403 -107.063 624.182C-106.795 623.705 -106.535 623.225 -106.258 622.751C-106.843 622.992 -107.414 623.238 -107.991 623.481C-108.305 623.937 -108.621 624.391 -108.928 624.85ZM-112.035 625.999C-111.489 625.793 -110.95 625.583 -110.397 625.379C-110.128 624.967 -109.846 624.558 -109.566 624.149C-110.09 624.374 -110.614 624.6 -111.132 624.827C-111.441 625.215 -111.734 625.609 -112.035 625.999ZM-115.042 627.15C-114.58 626.969 -114.113 626.789 -113.646 626.61C-113.393 626.276 -113.138 625.945 -112.883 625.613C-113.307 625.804 -113.738 625.992 -114.158 626.184C-114.451 626.507 -114.754 626.826 -115.042 627.15ZM-117.851 628.279C-117.518 628.142 -117.178 628.009 -116.843 627.874C-116.638 627.637 -116.443 627.397 -116.234 627.162C-116.545 627.309 -116.856 627.456 -117.163 627.603C-117.396 627.827 -117.621 628.054 -117.851 628.279ZM-120.52 629.397L-119.987 629.171C-119.867 629.048 -119.739 628.929 -119.617 628.807L-120.102 629.051C-120.239 629.167 -120.383 629.281 -120.52 629.397ZM158.083 259.792C158.746 260.412 159.369 261.013 160.023 261.629L159.684 261.234L157.662 259.265L158.083 259.792ZM150.591 252.824C151.613 253.777 152.652 254.737 153.673 255.689C153.313 255.251 152.97 254.821 152.606 254.381C151.59 253.406 150.537 252.414 149.504 251.43C149.865 251.894 150.234 252.362 150.591 252.824ZM142.872 245.699C144.106 246.823 145.334 247.945 146.539 249.054C146.084 248.476 145.65 247.908 145.19 247.327C143.91 246.115 142.662 244.92 141.36 243.698C141.852 244.36 142.386 245.04 142.872 245.699ZM134.749 238.302C136.278 239.691 137.799 241.077 139.319 242.463C138.763 241.722 138.194 240.974 137.628 240.229C136.197 238.893 134.743 237.546 133.305 236.207C133.806 236.915 134.255 237.599 134.749 238.302ZM126.475 230.873C128.253 232.456 130.045 234.045 131.776 235.605C131.175 234.761 130.515 233.891 129.903 233.043C128.254 231.524 126.556 229.982 124.861 228.44C125.409 229.256 125.938 230.062 126.475 230.873ZM118.025 223.337C119.98 225.067 121.871 226.765 123.798 228.482C123.221 227.626 122.69 226.789 122.101 225.927C120.175 224.174 118.284 222.439 116.332 220.674C116.893 221.56 117.477 222.456 118.025 223.337ZM109.379 215.761C111.458 217.578 113.539 219.396 115.579 221.193C114.995 220.27 114.409 219.346 113.812 218.417C111.837 216.642 109.814 214.843 107.796 213.047C108.334 213.956 108.855 214.858 109.379 215.761ZM100.437 207.984C102.721 209.956 104.977 211.915 107.213 213.863C106.645 212.9 106.021 211.913 105.439 210.943C103.291 209.036 101.132 207.123 98.9389 205.193C99.4523 206.129 99.9388 207.054 100.437 207.984ZM91.3708 200.182C93.7463 202.22 96.1036 204.25 98.449 206.273C97.931 205.32 97.4517 204.383 96.9197 203.424C94.5972 201.385 92.2607 199.339 89.9065 197.284C90.3905 198.247 90.9021 199.223 91.3708 200.182ZM82.0051 192.222C84.519 194.346 87.0444 196.475 89.4942 198.567C89.0081 197.588 88.5045 196.602 88.0031 195.617C85.6395 193.564 83.2024 191.475 80.7747 189.39C81.2048 190.341 81.589 191.275 82.0051 192.222ZM72.4614 184.159C75.1257 186.396 77.7198 188.599 80.3403 190.814C79.9034 189.836 79.4597 188.854 79.0067 187.869C76.4448 185.668 73.9071 183.478 71.3006 181.254C71.6883 182.223 72.0887 183.195 72.4614 184.159ZM62.6873 176.023C65.4445 178.311 68.2021 180.598 70.8969 182.856C70.5114 181.88 70.1225 180.902 69.7225 179.92C67.1037 177.693 64.4285 175.437 61.7503 173.181C62.0806 174.133 62.371 175.074 62.6873 176.023ZM52.7305 167.788C55.6019 170.151 58.4462 172.5 61.2594 174.834C60.9308 173.863 60.5983 172.891 60.2549 171.916C57.4993 169.596 54.7095 167.259 51.8937 164.909C52.1705 165.868 52.4669 166.833 52.7305 167.788ZM42.5024 159.405C45.4898 161.845 48.4478 164.269 51.3829 166.684C51.1116 165.718 50.8182 164.746 50.5325 163.778C47.6624 161.384 44.7828 158.986 41.8656 156.57C42.0813 157.516 42.2978 158.462 42.5024 159.405ZM32.0851 150.961C35.1645 153.445 38.2524 155.935 41.2546 158.381C41.0436 157.431 40.8356 156.481 40.6131 155.528C37.6805 153.105 34.655 150.636 31.6409 148.172C31.7934 149.102 31.9424 150.032 32.0851 150.961ZM41.5246 159.591C38.4872 157.112 35.3738 154.597 32.2651 152.083C45.1395 238.118 13.7917 316.788 -17.5183 395.367C-36.5313 443.084 -55.5264 490.768 -64.5903 540.045C-53.311 497.687 -33.9405 456.793 -14.4537 415.66C23.5578 335.422 61.9867 254.273 41.5246 159.591ZM51.7514 167.969C48.7938 165.535 45.7908 163.078 42.7746 160.614C62.7366 254.921 24.407 335.817 -13.4895 415.812C-34.036 459.183 -54.448 502.29 -65.3741 547.122C-52.4491 508.181 -31.6253 470.824 -10.5951 433.11C34.2759 352.647 80.0601 270.558 51.7514 167.969ZM133.732 238.419C131.891 236.755 130.034 235.081 128.15 233.394C233.834 395.192 121.846 462.18 16.616 525.077C-13.7251 543.213 -43.4922 561.011 -67.2936 580.653M-73.4266 617.744C-72.4182 617.53 -71.4018 617.319 -70.3832 617.108C-70.4533 616.133 -70.5136 615.158 -70.5726 614.184C-71.5483 614.424 -72.5205 614.665 -73.486 614.908C-73.472 615.852 -73.4525 616.798 -73.4266 617.744ZM-77.4083 618.608C-76.4156 618.39 -75.4272 618.17 -74.4256 617.956C-74.4524 617.024 -74.474 616.092 -74.4889 615.162C-75.4433 615.404 -76.4007 615.645 -77.345 615.891C-77.3739 616.795 -77.39 617.702 -77.4083 618.608ZM-81.3424 619.49C-80.3706 619.269 -79.4004 619.047 -78.4188 618.829C-78.4031 617.939 -78.3908 617.048 -78.3649 616.161C-79.2947 616.405 -80.2245 616.649 -81.1437 616.897C-81.2142 617.76 -81.2821 618.624 -81.3424 619.49ZM-85.2167 620.388C-84.275 620.165 -83.3235 619.945 -82.3703 619.726C-82.3121 618.874 -82.2442 618.023 -82.1759 617.174C-83.0878 617.422 -83.9875 617.675 -84.8906 617.927C-85.0053 618.746 -85.116 619.566 -85.2167 620.388ZM-89.0264 621.307C-88.1119 621.082 -87.1846 620.861 -86.2582 620.64C-86.1609 619.831 -86.056 619.024 -85.9452 618.219C-86.8368 618.471 -87.72 618.726 -88.6027 618.981C-88.7517 619.754 -88.8867 620.531 -89.0264 621.307ZM-92.7941 622.258C-91.8961 622.029 -90.9998 621.799 -90.0921 621.572C-89.9575 620.812 -89.8255 620.052 -89.6811 619.294C-90.5332 619.544 -91.3866 619.793 -92.2286 620.046C-92.4222 620.782 -92.6154 621.518 -92.7941 622.258ZM-96.4663 623.219C-95.6056 622.99 -94.7501 622.76 -93.881 622.534C-93.7099 621.816 -93.5265 621.102 -93.3427 620.387C-94.1714 620.639 -95.0036 620.889 -95.8226 621.144C-96.0451 621.833 -96.2548 622.527 -96.4663 623.219ZM-100.105 624.206C-99.2744 623.976 -98.4355 623.749 -97.5952 623.521C-97.3923 622.851 -97.194 622.18 -96.9809 621.512C-97.7727 621.763 -98.5577 622.016 -99.3398 622.27C-99.5988 622.915 -99.8612 623.558 -100.105 624.206ZM-103.634 625.205C-102.854 624.979 -102.058 624.759 -101.27 624.536C-101.037 623.907 -100.792 623.282 -100.544 622.657C-101.313 622.911 -102.066 623.171 -102.825 623.429C-103.104 624.017 -103.365 624.612 -103.634 625.205ZM-107.124 626.243C-106.373 626.016 -105.622 625.79 -104.862 625.566C-104.607 624.995 -104.349 624.424 -104.086 623.855C-104.798 624.1 -105.505 624.347 -106.21 624.596C-106.518 625.143 -106.827 625.691 -107.124 626.243ZM-110.5 627.288C-109.801 627.067 -109.109 626.843 -108.402 626.626C-108.129 626.11 -107.853 625.595 -107.569 625.082C-108.23 625.319 -108.9 625.554 -109.553 625.795C-109.875 626.29 -110.187 626.789 -110.5 627.288ZM-113.801 628.347C-113.168 628.139 -112.527 627.933 -111.886 627.727C-111.602 627.265 -111.304 626.806 -111.011 626.346C-111.618 626.574 -112.227 626.802 -112.828 627.033C-113.158 627.469 -113.481 627.908 -113.801 628.347ZM-116.992 629.421C-116.43 629.228 -115.855 629.039 -115.288 628.848C-115.007 628.454 -114.735 628.057 -114.447 627.665C-114.981 627.875 -115.506 628.088 -116.035 628.301C-116.354 628.674 -116.678 629.046 -116.992 629.421ZM-120.056 630.506C-119.589 630.338 -119.121 630.169 -118.648 630.003C-118.379 629.673 -118.1 629.347 -117.822 629.02C-118.29 629.214 -118.742 629.413 -119.204 629.608C-119.496 629.905 -119.77 630.208 -120.056 630.506ZM-122.986 631.582C-122.62 631.444 -122.263 631.302 -121.894 631.166C-121.677 630.934 -121.455 630.704 -121.238 630.474C-121.569 630.618 -121.897 630.764 -122.227 630.91C-122.477 631.135 -122.738 631.356 -122.986 631.582ZM-125.618 632.586C-125.45 632.519 -125.275 632.456 -125.106 632.391C-124.986 632.279 -124.871 632.165 -124.752 632.053C-124.904 632.124 -125.063 632.192 -125.216 632.263L-125.618 632.586ZM21.1866 139.632C21.2766 140.55 21.3747 141.468 21.4558 142.385C24.6647 144.956 27.7747 147.48 30.92 150.02C30.7735 149.087 30.6322 148.153 30.4729 147.217C27.3871 144.693 24.3306 142.184 21.1866 139.632ZM20.7939 135.826C20.8953 136.74 20.9896 137.653 21.0821 138.565C24.1909 141.087 27.2245 143.572 30.2814 146.068C30.1176 145.125 29.9329 144.178 29.7596 143.234C26.7884 140.773 23.8177 138.313 20.7939 135.826ZM20.337 131.987C20.4525 132.901 20.5569 133.813 20.6614 134.726C23.6487 137.18 26.6072 139.62 29.5401 142.048C29.3631 141.108 29.1865 140.17 28.998 139.228C26.1495 136.833 23.2428 134.409 20.337 131.987ZM19.816 128.111C19.9455 129.031 20.0831 129.952 20.2032 130.871C23.0581 133.25 25.9418 135.642 28.7402 137.994C28.5483 137.054 28.3539 136.115 28.1501 135.173C25.4247 132.844 22.6012 130.468 19.816 128.111ZM19.2496 124.207C19.391 125.124 19.5231 126.04 19.6547 126.956C22.414 129.29 25.1916 131.632 27.8902 133.938C27.6835 133 27.4508 132.058 27.233 131.118C24.5997 128.827 21.9449 126.527 19.2496 124.207ZM18.6204 120.309C18.772 121.207 18.9125 122.105 19.0552 123.002C21.7211 125.294 24.3204 127.555 26.9277 129.82C26.7052 128.882 26.4904 127.945 26.2569 127.006C23.7697 124.8 21.1679 122.543 18.6204 120.309ZM17.9127 116.338C18.0817 117.253 18.2587 118.169 18.4179 119.083C20.8961 121.253 23.4691 123.467 25.8939 125.611C25.6595 124.693 25.4192 123.774 25.1742 122.855C22.7948 120.701 20.3506 118.519 17.9127 116.338ZM17.1552 112.35C17.3365 113.256 17.5089 114.163 17.68 115.069C20.0567 117.191 22.4828 119.336 24.8031 121.432C24.5535 120.513 24.2826 119.591 24.0215 118.67C21.7576 116.574 19.476 114.47 17.1552 112.35ZM16.3256 108.324C16.5201 109.225 16.7001 110.126 16.8835 111.026C19.1354 113.081 21.3933 115.139 23.5926 117.17C23.3311 116.268 23.0836 115.369 22.8127 114.465C20.6584 112.422 18.5334 110.391 16.3256 108.324ZM15.4094 104.252C15.6178 105.154 15.831 106.055 16.0288 106.955C18.153 108.94 20.2414 110.909 22.3129 112.871C22.0374 111.97 21.753 111.069 21.4664 110.166C19.4416 108.192 17.483 106.247 15.4094 104.252ZM14.4502 100.216C14.6655 101.088 14.8791 101.96 15.0846 102.832C17.0801 104.748 19.0051 106.632 20.9531 108.527C20.6618 107.632 20.348 106.733 20.0479 105.836C18.1823 103.963 16.3566 102.106 14.4502 100.216ZM13.4295 96.1677C13.649 96.9995 13.8486 97.8304 14.0588 98.6616C15.9027 100.486 17.6452 102.268 19.4479 104.074C19.1512 103.212 18.8696 102.351 18.5639 101.487C16.8661 99.7193 15.1656 97.951 13.4295 96.1677ZM12.3044 92.0601C12.5324 92.877 12.76 93.6938 12.9786 94.5103C14.6396 96.209 16.2266 97.8772 17.857 99.5643C17.5505 98.7156 17.2388 97.8668 16.9212 97.0168C15.4072 95.374 13.8541 93.7169 12.3044 92.0601ZM11.1224 87.9539C11.3568 88.7425 11.5979 89.5319 11.8242 90.32C13.2954 91.8843 14.7288 93.4343 16.1732 94.9881C15.8577 94.1611 15.5155 93.3295 15.1915 92.501C13.8681 90.9971 12.4794 89.4697 11.1224 87.9539ZM9.892 83.8671C10.12 84.5973 10.3314 85.3259 10.5535 86.0551C11.8128 87.4554 13.0652 88.8526 14.3008 90.2435C14.0019 89.4977 13.7076 88.7525 13.4011 88.0054C12.2564 86.6347 11.0634 85.2466 9.892 83.8671ZM8.55074 79.7332C8.77321 80.4058 8.98846 81.0788 9.20543 81.7513C10.2308 82.9514 11.2735 84.1575 12.2811 85.351C12.0127 84.7161 11.7487 84.082 11.4757 83.446C10.5055 82.2098 9.5417 80.9763 8.55074 79.7332ZM7.19507 75.7387C7.38867 76.2957 7.58908 76.8531 7.77844 77.4099C8.53844 78.3551 9.33023 79.3107 10.0775 80.2516C9.8669 79.7739 9.64702 79.295 9.43217 78.8169C8.68492 77.79 7.95676 76.7696 7.19507 75.7387ZM5.91838 72.0934C6.02707 72.3893 6.12637 72.6852 6.23209 72.9809C6.68767 73.5901 7.16405 74.2061 7.61368 74.8127C7.5088 74.5888 7.39587 74.364 7.291 74.1396L5.91838 72.0934ZM-65.6309 612.995C-65.5273 614.023 -65.4199 615.051 -65.3044 616.081C-32.1339 609.506 5.63347 604.669 44.1286 599.744C119.029 590.162 196.664 580.229 248.192 556.407C323.732 521.483 343.225 456.608 216.122 319.077C331.774 451.002 306.81 513.788 230.177 548.948C180.828 571.589 110.092 582.748 41.6852 593.539C3.84982 599.508 -33.2654 605.367 -65.6309 612.995ZM-65.9952 609.326C-65.9014 610.341 -65.7944 611.358 -65.6921 612.375C-33.3482 604.782 3.67828 598.936 41.4227 592.983C109.728 582.207 180.362 571.064 229.553 548.496C308.405 512.318 332.198 446.682 203.259 305.956C320.886 441.482 291.014 505.119 210.664 541.682C164.088 562.876 100.581 574.95 39.0107 586.655C1.92052 593.706 -34.4632 600.624 -65.9952 609.326ZM-66.2941 605.677C-66.2169 606.679 -66.1366 607.681 -66.0483 608.684C-34.5523 600.03 1.72351 593.134 38.6965 586.105C100.186 574.415 163.608 562.358 210.045 541.227C292.731 503.602 321.636 437.111 190.189 292.48C310.528 432.455 274.686 497.042 189.97 535.25C146.709 554.761 90.7365 567.374 36.3142 579.637C-0.00788879 587.822 -35.6269 595.854 -66.2941 605.677ZM-66.5603 602.043C-66.4937 603.034 -66.4245 604.025 -66.348 605.018C-35.7263 595.254 -0.234161 587.252 35.9504 579.099C90.3086 566.849 146.216 554.251 189.355 534.795C276.082 495.68 311.354 428.773 179.026 280.97L178.346 280.308C300.604 424.686 257.193 489.935 167.601 529.952C128.416 547.455 80.4167 560.12 33.5948 572.473C-1.93591 581.848 -36.7805 591.045 -66.5603 602.043ZM-66.7913 598.434C-66.7344 599.409 -66.6669 600.386 -66.6032 601.362C-36.8803 590.438 -2.19064 581.28 33.1783 571.948C79.9476 559.608 127.893 546.958 166.99 529.495C257.609 489.018 300.737 422.58 171.776 273.917C171.098 273.263 170.459 272.628 169.774 271.97C290.716 419.347 237.403 484.424 142.65 526.304C108.654 541.33 69.3434 553.362 30.8482 565.145C-3.87367 575.772 -37.9269 586.198 -66.7913 598.434ZM-66.9616 594.842C-66.9195 595.8 -66.8788 596.757 -66.8274 597.716C-38.03 585.574 -4.15305 575.203 30.3816 564.633C68.8415 552.861 108.114 540.84 142.043 525.844C237.54 483.636 290.789 417.762 164.73 267.169C163.718 266.206 162.69 265.234 161.678 264.269C313.967 456.782 165.712 509.095 28.0779 557.627C-5.81061 569.577 -39.0427 581.302 -66.9616 594.842ZM-67.1042 591.263C-67.0724 592.204 -67.0363 593.146 -66.9972 594.089C-39.1543 580.662 -6.12178 569.009 27.5565 557.133C165.91 508.347 314.991 455.718 156.996 259.829C155.881 258.781 154.719 257.71 153.573 256.648C293.845 441.376 154.716 497.583 25.2706 549.896C-7.76236 563.245 -40.161 576.342 -67.1042 591.263ZM-67.2078 587.714C-67.1845 588.631 -67.1565 589.549 -67.1276 590.467C-40.2697 575.684 -8.09903 562.678 24.6991 549.423C154.717 496.879 294.441 440.358 149.535 252.895C148.044 251.513 146.593 250.151 145.085 248.76C273.775 425.904 143.779 485.926 22.4285 541.921C-9.73323 556.762 -41.2734 571.322 -67.2078 587.714ZM-67.2643 584.171C-67.2554 585.064 -67.2477 585.957 -67.2299 586.852C-41.388 570.63 -10.0929 556.187 21.8052 541.469C143.577 485.279 274.113 425.043 141.845 245.802C140.147 244.247 138.409 242.673 136.681 241.103C253.718 410.529 132.802 474.143 19.5477 533.663C-11.7131 550.092 -42.3764 566.213 -67.2643 584.171ZM-67.2804 577.147C-67.2851 577.973 -67.2889 578.798 -67.2906 579.625C-43.5907 560.233 -14.1251 542.62 15.8942 524.677C121.45 461.584 233.793 394.358 125.475 231.009C123.486 229.231 121.491 227.449 119.482 225.66C214.084 379.884 110.908 450.008 13.6312 516.109C-15.7635 536.082 -44.6114 555.691 -67.2804 577.147ZM-67.2299 573.657C-67.2473 574.446 -67.2669 575.234 -67.2753 576.024C-44.7044 554.863 -16.1873 535.477 12.8674 515.735C110.439 449.435 213.939 379.072 117.041 223.49C114.914 221.61 112.714 219.695 110.526 217.785C194.425 364.535 100.001 437.577 10.5849 506.687C-17.8393 528.655 -45.7442 550.23 -67.2299 573.657ZM-67.1573 570.19C-67.1781 570.917 -67.1878 571.646 -67.204 572.374C-45.8125 549.309 -18.2655 528.017 9.7803 506.34C99.445 437.038 194.182 363.789 108.39 215.916C106.084 213.901 103.791 211.892 101.442 209.856C174.983 349.192 89.1202 424.831 7.4668 496.723C-19.9634 520.874 -46.9113 544.603 -67.1573 570.19ZM-67.0329 566.727C-67.0562 567.396 -67.0838 568.064 -67.1059 568.734C-46.944 543.584 -20.3944 520.198 6.62868 496.406C88.5045 424.317 174.613 348.452 99.4565 208.147C97.0661 206.082 94.6384 203.998 92.2035 201.91C155.698 333.838 78.2514 411.715 4.26465 486.105C-22.1402 512.655 -48.0959 538.762 -67.0329 566.727ZM-66.8847 563.283C-66.9144 563.869 -66.9467 564.455 -66.9722 565.042C-48.1031 537.605 -22.5674 511.925 3.39932 485.817C77.5878 411.224 155.27 333.123 90.3982 200.357C87.866 198.19 85.2854 196 82.6912 193.803C136.581 318.377 67.42 398.116 0.970337 474.686C-24.3858 503.904 -49.3365 532.664 -66.8847 563.283ZM-66.7102 559.858C-66.7374 560.327 -66.7569 560.798 -66.7828 561.267C-49.2758 531.305 -24.7947 503.087 0.0757294 474.428C66.7072 397.65 136.066 317.683 81.0277 192.397C78.3792 190.154 75.743 187.917 73.0546 185.654C117.74 302.845 56.6158 383.928 -2.43178 462.271C-26.715 494.49 -50.6451 526.244 -66.7102 559.858ZM-66.4907 556.418L-66.5552 557.389C-50.4935 524.603 -27.0916 493.543 -3.34888 462.041C55.8643 383.478 117.142 302.15 71.4913 184.341C68.76 182.051 65.9404 179.718 63.1382 177.392C99.068 287.131 45.8396 368.984 -5.96387 448.596C-29.142 484.216 -52.0284 519.39 -66.4907 556.418ZM-66.2551 553.028L-66.2771 553.292C-51.7532 517.333 -29.4672 483.073 -6.90134 448.392C45.0473 368.555 98.4294 286.465 61.7095 176.203C58.8474 173.826 55.9747 171.444 53.0579 169.04C80.7293 271.192 35.1004 353.051 -9.64368 433.287C-31.7026 472.847 -53.5436 512.014 -66.2551 553.028ZM-21.7292 370.678C-39.4031 423.965 -57.2035 477.641 -64.1988 532.808C-54.6726 486.045 -36.5916 440.656 -18.4931 395.238C12.9141 316.411 44.3468 237.491 31.1 151.143C27.9272 148.577 24.784 146.026 21.5415 143.426C28.0804 220.492 3.30806 295.195 -21.7292 370.678ZM-67.8846 563.175L-67.8379 562.26L-67.9929 562.589C-68.0311 562.916 -68.0735 563.243 -68.11 563.571L-67.8846 563.175ZM-68.0336 566.605C-68.015 566.142 -68.0031 565.678 -67.9831 565.215C-68.1075 565.436 -68.237 565.656 -68.3597 565.877L-68.5075 567.305L-68.0336 566.605ZM-68.1567 570.045C-68.1398 569.461 -68.1147 568.877 -68.0943 568.293C-68.3028 568.605 -68.5032 568.918 -68.7074 569.231C-68.763 569.8 -68.8072 570.372 -68.859 570.942C-68.6251 570.643 -68.3936 570.343 -68.1567 570.045ZM-68.2306 573.496L-68.192 571.514L-68.9995 572.555C-69.0573 573.212 -69.1189 573.869 -69.1702 574.527C-68.8573 574.184 -68.5461 573.839 -68.2306 573.496ZM-68.2837 576.971C-68.2778 576.241 -68.2689 575.512 -68.257 574.784C-68.5932 575.155 -68.9342 575.524 -69.2658 575.896C-69.3167 576.614 -69.3697 577.331 -69.4173 578.049C-69.0424 577.689 -68.6624 577.33 -68.2837 576.971ZM-68.2977 580.459C-68.2981 579.672 -68.2922 578.887 -68.2888 578.102C-68.6977 578.494 -69.0989 578.888 -69.5039 579.281C-69.5506 580.043 -69.5889 580.806 -69.6305 581.568C-69.1864 581.199 -68.7444 580.828 -68.2977 580.459ZM-68.2714 583.956C-68.2803 583.134 -68.2981 582.312 -68.3028 581.491C-68.763 581.876 -69.2322 582.259 -69.6886 582.645C-69.7332 583.455 -69.7778 584.266 -69.8118 585.078C-69.3018 584.703 -68.7877 584.329 -68.2714 583.956ZM-68.2208 587.482C-68.2395 586.616 -68.2498 585.752 -68.2591 584.887C-68.7936 585.277 -69.3179 585.669 -69.8465 586.06C-69.8784 586.897 -69.909 587.734 -69.9349 588.572C-69.3659 588.208 -68.7936 587.845 -68.2208 587.482ZM-68.1164 591.008C-68.1444 590.119 -68.1716 589.23 -68.195 588.341C-68.7877 588.718 -69.3812 589.094 -69.9667 589.473C-69.9901 590.341 -70.0032 591.21 -70.0206 592.079C-69.3884 591.721 -68.7562 591.363 -68.1164 591.008ZM-67.9797 594.566C-68.0204 593.648 -68.0595 592.73 -68.093 591.813C-68.7452 592.177 -69.3893 592.544 -70.0346 592.91C-70.0516 593.802 -70.0682 594.693 -70.0737 595.585C-69.3812 595.244 -68.679 594.905 -67.9797 594.566ZM-67.812 598.135C-67.8638 597.195 -67.9033 596.258 -67.944 595.319C-68.6565 595.667 -69.3672 596.017 -70.0729 596.368C-70.0741 597.28 -70.0754 598.192 -70.069 599.105C-69.318 598.781 -68.5681 598.457 -67.812 598.135ZM-67.5857 601.722C-67.649 600.766 -67.7122 599.809 -67.7691 598.854C-68.5376 599.183 -69.3056 599.511 -70.069 599.841C-70.0588 600.771 -70.0401 601.704 -70.0236 602.635C-69.2143 602.329 -68.4034 602.024 -67.5857 601.722ZM-67.3284 605.333C-67.4044 604.356 -67.4757 603.379 -67.5411 602.403C-68.3716 602.712 -69.1902 603.024 -70.0088 603.336C-69.9913 604.282 -69.9722 605.227 -69.9425 606.174C-69.0768 605.892 -68.2001 605.613 -67.3284 605.333ZM-67.0308 608.958C-67.1182 607.968 -67.1968 606.98 -67.274 605.991C-68.1584 606.276 -69.0411 606.562 -69.9166 606.85C-69.8831 607.811 -69.8466 608.773 -69.8033 609.736C-68.8819 609.475 -67.9602 609.215 -67.0308 608.958ZM-66.6758 612.604C-66.7773 611.603 -66.8839 610.601 -66.9777 609.602C-67.9147 609.862 -68.8488 610.123 -69.7786 610.386C-69.7319 611.36 -69.6725 612.336 -69.616 613.311C-68.6408 613.074 -67.6621 612.838 -66.6758 612.604ZM-66.2878 616.277C-66.4024 615.259 -66.5098 614.241 -66.6134 613.224C-67.6107 613.461 -68.5941 613.702 -69.5803 613.943C-69.5226 614.929 -69.4623 615.914 -69.3923 616.902C-68.3627 616.691 -67.3258 616.484 -66.2878 616.277ZM-32.6561 725.471C-51.8411 688.311 -62.1524 652.205 -66.2151 616.886C-67.2622 617.095 -68.3058 617.307 -69.3439 617.521C-66.8011 652.176 -57.4158 687.937 -38.1226 725.306L-39.0825 725.471C-58.3698 688.114 -67.77 652.367 -70.3336 617.727C-71.3619 617.94 -72.3898 618.152 -73.4066 618.368C-72.3957 652.334 -63.9509 687.731 -44.552 725.306L-45.5128 725.471C-64.9032 687.914 -73.3642 652.535 -74.4052 618.587C-75.4153 618.804 -76.4199 619.024 -77.4193 619.245C-77.967 652.506 -70.4851 687.526 -50.9788 725.306L-51.9392 725.471C-71.4345 687.711 -78.9423 652.709 -78.4315 619.465C-79.4263 619.688 -80.4075 619.916 -81.3925 620.142C-83.5307 652.684 -77.0189 687.319 -57.4052 725.306L-58.3664 725.471C-77.9645 687.511 -84.5089 652.897 -82.4208 620.378C-83.3834 620.602 -84.3386 620.827 -85.2918 621.055C-89.0557 652.864 -83.557 687.103 -63.8337 725.306L-64.7932 725.471C-84.5 687.303 -90.0344 653.09 -86.3346 621.306C-87.2759 621.533 -88.2184 621.759 -89.1495 621.99C-94.5692 653.051 -90.0993 686.886 -70.2631 725.306L-71.223 725.471C-91.0359 687.096 -95.5568 653.293 -90.2169 622.26C-91.1319 622.49 -92.0468 622.72 -92.9507 622.954C-100.057 653.25 -96.6391 686.667 -76.6899 725.306L-77.6503 725.471C-97.5723 686.886 -101.05 653.502 -94.0385 623.235C-94.9301 623.469 -95.8069 623.706 -96.6883 623.944C-105.518 653.458 -103.18 686.445 -83.1159 725.306L-84.0762 725.471C-104.106 686.677 -106.523 653.728 -97.8156 624.245C-98.6766 624.48 -99.5249 624.719 -100.375 624.958C-110.962 653.674 -109.726 686.22 -89.5461 725.306L-90.5061 725.471C-110.643 686.469 -111.974 653.968 -101.539 625.287C-102.36 625.521 -103.182 625.755 -103.993 625.993C-116.374 653.895 -116.272 685.989 -95.9725 725.306L-96.9333 725.471C-117.175 686.264 -117.411 654.222 -105.224 626.361C-105.998 626.592 -106.778 626.82 -107.544 627.055C-121.76 654.124 -122.821 685.754 -102.4 725.306L-103.36 725.471C-123.712 686.053 -122.807 654.485 -108.833 627.458C-109.578 627.69 -110.319 627.926 -111.055 628.162C-127.13 654.377 -129.366 685.526 -108.828 725.306L-109.787 725.471C-130.243 685.85 -128.2 654.769 -112.418 628.596C-113.11 628.822 -113.785 629.056 -114.468 629.285C-132.455 654.63 -135.92 685.285 -115.256 725.306L-116.216 725.471C-136.773 685.656 -133.562 655.083 -115.954 629.784C-116.587 630.002 -117.214 630.222 -117.839 630.443C-137.767 654.898 -142.47 685.045 -121.683 725.306L-122.644 725.471C-143.295 685.472 -138.901 655.425 -119.456 631.02C-120.006 631.219 -120.565 631.414 -121.111 631.615C-143.039 655.163 -149.027 684.791 -128.11 725.306L-129.07 725.471C-149.804 685.313 -144.246 655.809 -122.965 632.321C-123.419 632.493 -123.877 632.664 -124.325 632.839C-148.281 655.456 -155.585 684.544 -134.539 725.306L-135.5 725.471C-156.301 685.181 -149.573 656.246 -126.476 633.693C-126.822 633.832 -127.167 633.973 -127.51 634.113C-153.51 655.776 -162.133 684.31 -140.967 725.306L-141.927 725.471C-162.772 685.096 -154.894 656.762 -130.033 635.164C-130.208 635.239 -130.381 635.316 -130.554 635.391C-158.684 656.083 -168.696 684.047 -147.393 725.306L-148.354 725.471C-169.041 685.402 -160.39 657.813 -134.346 637.242C-164.03 656.901 -175.065 684.158 -153.822 725.306L-154.781 725.471C-175.032 686.247 -166.168 659.577 -139.83 640.076C-169.822 658.657 -181.059 685.001 -160.25 725.306L-161.21 725.471C-181.009 687.121 -172.003 661.347 -145.513 642.858C-175.666 660.423 -187.036 685.874 -166.677 725.306L-167.637 725.471C-190.099 681.967 -174.271 655.373 -137.252 637.62C-135.477 636.602 -133.63 635.615 -131.742 634.643C-130.02 633.585 -128.256 632.543 -126.423 631.529C-124.773 630.441 -123.058 629.377 -121.306 628.329C-119.676 627.172 -118.003 626.03 -116.272 624.912C-114.733 623.733 -113.145 622.573 -111.514 621.429C-109.996 620.166 -108.427 618.922 -106.815 617.694C-105.394 616.411 -103.938 615.141 -102.433 613.888C-101.048 612.519 -99.6077 611.169 -98.1378 609.829C-96.8153 608.396 -95.4562 606.975 -94.0538 605.57C-92.8433 604.125 -91.5989 602.691 -90.3167 601.27C-89.1555 599.728 -87.9467 598.201 -86.7146 596.683C-85.6175 595.055 -84.4851 593.44 -83.3188 591.834C-82.313 590.153 -81.2813 588.48 -80.2118 586.818C-79.3053 585.096 -78.3767 583.38 -77.4129 581.674C-76.5931 579.875 -75.7507 578.083 -74.8752 576.299C-74.1488 574.428 -73.3986 572.562 -72.6225 570.705C-71.9911 568.755 -71.3402 566.81 -70.6596 564.871C-70.1459 562.91 -69.6054 560.954 -69.0496 559.002C-68.6208 556.89 -68.1661 554.783 -67.694 552.68C-67.3776 550.531 -67.0401 548.386 -66.6835 546.244C-61.0918 486.296 -41.8296 428.205 -22.7138 370.569C2.40712 294.836 27.2648 219.89 20.4648 142.567C-33.1716 99.5964 -95.5097 52.352 -167.548 0.360107L-166.769 0C-95.1233 51.7084 -33.0845 98.7199 20.3612 141.515C20.278 140.594 20.185 139.672 20.0912 138.75C-31.5382 96.8904 -91.5972 50.9227 -161.123 0.360107L-160.34 0C-91.2121 50.2726 -31.452 96.0037 19.9872 137.683C19.8895 136.76 19.7808 135.836 19.6755 134.912C-29.9355 94.1678 -87.703 49.4821 -154.696 0.358948L-153.909 0.00140381C-87.3311 48.8195 -29.8675 93.2582 19.5452 133.812C19.4352 132.894 19.3367 131.975 19.2174 131.057C-28.3603 91.4312 -83.8296 48.0305 -148.269 0.357483L-147.483 0.00213623C-83.4755 47.3554 -28.3149 90.499 19.0598 129.921C18.9367 128.995 18.8034 128.068 18.6705 127.141C-26.8501 88.6517 -80.0054 46.5496 -141.843 0.356323L-141.052 0.00317383C-79.6547 45.8673 -26.8064 87.7078 18.5092 125.985C18.3708 125.054 18.2213 124.122 18.0744 123.19C-25.3704 85.8508 -76.2186 45.0466 -135.419 0.355103L-134.624 0.00445557C-75.8887 44.3448 -25.3483 84.8735 17.8796 121.985C17.7331 121.084 17.5955 120.182 17.4401 119.28C-23.9426 83.0612 -72.3911 43.5797 -128.992 0.354004L-128.192 0.00549316C-72.0662 42.8683 -23.9562 82.0522 17.2108 118.032C17.0469 117.11 16.8771 116.188 16.7035 115.265C-22.5733 80.206 -68.6531 42.0516 -122.568 0.353271L-121.764 0.00646973C-68.3266 41.3356 -22.5903 79.183 16.4712 113.996C16.2925 113.072 16.098 112.147 15.9095 111.222C-21.2473 77.3286 -64.9418 40.5089 -116.143 0.350647L-115.335 0.00866699C-64.6319 39.7764 -21.2979 76.2686 15.6374 109.899C15.445 108.984 15.2586 108.069 15.0582 107.153C-19.9626 74.4301 -61.257 38.9528 -109.716 0.349182L-108.904 0.00982666C-60.9644 38.2001 -20.0509 73.3252 14.741 105.765C14.536 104.852 14.3297 103.939 14.1144 103.025C-18.7491 71.4873 -57.6145 37.3712 -103.291 0.347168L-102.475 0.0124512C-57.3258 36.6091 -18.8502 70.3585 13.782 101.598C13.5612 100.684 13.32 99.7666 13.0899 98.8514C-17.5968 68.509 -54.0081 35.7682 -96.8641 0.344543L-96.0451 0.0146484C-53.7394 34.9833 -17.7374 67.3292 12.7107 97.3493C12.4827 96.4676 12.2509 95.5858 12.0136 94.7032C-16.4963 65.5395 -50.3967 34.1821 -90.4424 0.343079L-89.6149 0.0166016C-50.1903 33.3318 -16.6882 64.2551 11.5559 93.041C11.3232 92.1975 11.099 91.3544 10.8575 90.51C-15.4536 62.5345 -46.8256 32.572 -84.0164 0.33905L-83.1817 0.0198975C-46.6485 31.6809 -15.702 61.165 10.3318 88.7198C10.0894 87.8942 9.83931 87.0678 9.58839 86.2415C-14.4979 59.4736 -43.3075 30.9279 -77.5921 0.336853L-76.7532 0.0223999C-43.1496 30.0054 -14.7849 58.0331 9.01988 84.3435C8.77109 83.5428 8.50146 82.7411 8.24417 81.9402C-13.5978 56.3865 -39.8285 29.2642 -71.1704 0.33252L-70.3199 0.0272217C-39.7207 28.2736 -13.9807 54.7992 7.55849 79.825C7.31351 79.0814 7.06981 78.3378 6.81718 77.5933C-12.7571 53.2639 -36.3899 27.5781 -64.7453 0.32782L-63.8868 0.0311279C-36.3521 26.4929 -13.2713 51.4797 5.97736 75.1856C5.74088 74.5118 5.51205 73.838 5.27048 73.1633C-12.0085 50.0784 -33.0132 25.8538 -58.3244 0.32312L-57.4536 0.0358276C-33.0599 24.642 -12.6828 48.0298 4.24127 70.3613C4.02812 69.7855 3.81288 69.2094 3.59508 68.6326C-11.3615 46.817 -29.6947 24.0868 -51.9023 0.317017L-51.0204 0.0427856C-29.8782 22.6727 -12.2756 44.3522 2.28143 65.2071C2.14938 64.8702 2.01056 64.5323 1.87639 64.1956C-10.7539 43.6099 -26.3703 22.3507 -45.4814 0.308411L-44.5876 0.0509033C-27.0526 20.276 -12.4629 39.8405 -0.409134 58.8328C-10.607 39.7656 -23.3426 20.2792 -39.0618 0.298584L-38.1481 0.0609131C-24.6729 17.191 -13.3893 33.9578 -4.0061 50.4089C-11.5632 33.8665 -21.0096 17.1691 -32.6417 0.286255L-31.714 0.0734863C-17.8834 20.1441 -7.12634 39.9526 1.02512 59.5476C2.72597 62.7468 4.3665 65.9367 5.92682 69.1132C7.93465 72.5037 9.83337 75.869 11.6867 79.2242C13.9199 82.7002 16.0831 86.1572 18.1466 89.5867C20.6562 93.2292 23.0912 96.8488 25.4048 100.431C28.069 104.108 30.6075 107.742 33.0828 111.355C35.8617 115.031 38.5531 118.677 41.1494 122.288C44.1923 126.156 47.1456 129.99 49.9788 133.778C53.24 137.793 56.3577 141.752 59.3904 145.677C62.5654 149.49 65.6419 153.263 68.6144 156.993C71.8645 160.8 75.0272 164.571 78.0774 168.294C82.0467 172.824 85.8238 177.271 89.4964 181.672C92.994 185.614 96.3881 189.508 99.6663 193.352C103.185 197.247 106.598 201.095 109.91 204.897C114.064 209.417 118.095 213.883 121.974 218.277C125.89 222.485 129.686 226.637 133.35 230.728C137.356 234.98 141.248 239.178 144.996 243.308C149.13 247.646 153.153 251.932 157.019 256.142C161.079 260.366 165.039 264.542 168.853 268.647C172.882 272.798 176.805 276.897 180.597 280.933C184.681 285.097 188.631 289.195 192.475 293.24C346.562 448.827 329.224 519.683 248.814 556.857C197.102 580.764 119.355 590.711 44.3456 600.308C5.7791 605.242 -32.0529 610.087 -65.2319 616.69C-61.1865 652.021 -50.8854 688.138 -31.6958 725.306L-32.6561 725.471Z" fill="url(#paint0_linear_184_199)"/>
<defs>
<linearGradient id="paint0_linear_184_199" x1="65.5985" y1="0" x2="65.5985" y2="725.471" gradientUnits="userSpaceOnUse">
<stop stop-color="#983131"/>
<stop offset="1" stop-color="#321010"/>
</linearGradient>
</defs>
</svg>
